<?xml version="1.0" encoding="utf-8" standalone="no"?>
<!DOCTYPE svg PUBLIC "-//W3C//DTD SVG 1.1//EN"
  "http://www.w3.org/Graphics/SVG/1.1/DTD/svg11.dtd">
<svg xmlns:xlink="http://www.w3.org/1999/xlink" width="345.6pt" height="309.6pt" viewBox="0 0 345.6 309.6" xmlns="http://www.w3.org/2000/svg" version="1.1">
 <metadata>
  <rdf:RDF xmlns:dc="http://purl.org/dc/elements/1.1/" xmlns:cc="http://creativecommons.org/ns#" xmlns:rdf="http://www.w3.org/1999/02/22-rdf-syntax-ns#">
   <cc:Work>
    <dc:type rdf:resource="http://purl.org/dc/dcmitype/StillImage"/>
    <dc:date>2023-05-01T11:28:43.857681</dc:date>
    <dc:format>image/svg+xml</dc:format>
    <dc:creator>
     <cc:Agent>
      <dc:title>Matplotlib v3.7.1, https://matplotlib.org/</dc:title>
     </cc:Agent>
    </dc:creator>
   </cc:Work>
  </rdf:RDF>
 </metadata>
 <defs>
  <style type="text/css">*{stroke-linejoin: round; stroke-linecap: butt}</style>
 </defs>
 <g id="figure_1">
  <g id="patch_1">
   <path d="M 0 309.6 
L 345.6 309.6 
L 345.6 0 
L 0 0 
z
" style="fill: #ffffff"/>
  </g>
  <g id="axes_1">
   <g id="patch_2">
    <path d="M 71.98425 261.54 
L 317.3175 261.54 
L 317.3175 27.65625 
L 71.98425 27.65625 
z
" style="fill: #eaeaf2"/>
   </g>
   <g id="matplotlib.axis_1">
    <g id="xtick_1">
     <g id="line2d_1">
      <path d="M 71.98425 261.54 
L 71.98425 27.65625 
" clip-path="url(#p62f74decf0)" style="fill: none; stroke: #ffffff; stroke-width: 1.6; stroke-linecap: round"/>
     </g>
     <g id="text_1">
      <!-- 0 -->
      <g style="fill: #262626" transform="translate(68.925734 278.913594) scale(0.11 -0.11)">
       <defs>
        <path id="ArialMT-30" d="M 266 2259 
Q 266 3072 433 3567 
Q 600 4063 929 4331 
Q 1259 4600 1759 4600 
Q 2128 4600 2406 4451 
Q 2684 4303 2865 4023 
Q 3047 3744 3150 3342 
Q 3253 2941 3253 2259 
Q 3253 1453 3087 958 
Q 2922 463 2592 192 
Q 2263 -78 1759 -78 
Q 1097 -78 719 397 
Q 266 969 266 2259 
z
M 844 2259 
Q 844 1131 1108 757 
Q 1372 384 1759 384 
Q 2147 384 2411 759 
Q 2675 1134 2675 2259 
Q 2675 3391 2411 3762 
Q 2147 4134 1753 4134 
Q 1366 4134 1134 3806 
Q 844 3388 844 2259 
z
" transform="scale(0.015625)"/>
       </defs>
       <use xlink:href="#ArialMT-30"/>
      </g>
     </g>
    </g>
    <g id="xtick_2">
     <g id="line2d_2">
      <path d="M 133.317562 261.54 
L 133.317562 27.65625 
" clip-path="url(#p62f74decf0)" style="fill: none; stroke: #ffffff; stroke-width: 1.6; stroke-linecap: round"/>
     </g>
     <g id="text_2">
      <!-- 2500 -->
      <g style="fill: #262626" transform="translate(121.0835 278.913594) scale(0.11 -0.11)">
       <defs>
        <path id="ArialMT-32" d="M 3222 541 
L 3222 0 
L 194 0 
Q 188 203 259 391 
Q 375 700 629 1000 
Q 884 1300 1366 1694 
Q 2113 2306 2375 2664 
Q 2638 3022 2638 3341 
Q 2638 3675 2398 3904 
Q 2159 4134 1775 4134 
Q 1369 4134 1125 3890 
Q 881 3647 878 3216 
L 300 3275 
Q 359 3922 746 4261 
Q 1134 4600 1788 4600 
Q 2447 4600 2831 4234 
Q 3216 3869 3216 3328 
Q 3216 3053 3103 2787 
Q 2991 2522 2730 2228 
Q 2469 1934 1863 1422 
Q 1356 997 1212 845 
Q 1069 694 975 541 
L 3222 541 
z
" transform="scale(0.015625)"/>
        <path id="ArialMT-35" d="M 266 1200 
L 856 1250 
Q 922 819 1161 601 
Q 1400 384 1738 384 
Q 2144 384 2425 690 
Q 2706 997 2706 1503 
Q 2706 1984 2436 2262 
Q 2166 2541 1728 2541 
Q 1456 2541 1237 2417 
Q 1019 2294 894 2097 
L 366 2166 
L 809 4519 
L 3088 4519 
L 3088 3981 
L 1259 3981 
L 1013 2750 
Q 1425 3038 1878 3038 
Q 2478 3038 2890 2622 
Q 3303 2206 3303 1553 
Q 3303 931 2941 478 
Q 2500 -78 1738 -78 
Q 1113 -78 717 272 
Q 322 622 266 1200 
z
" transform="scale(0.015625)"/>
       </defs>
       <use xlink:href="#ArialMT-32"/>
       <use xlink:href="#ArialMT-35" x="55.615234"/>
       <use xlink:href="#ArialMT-30" x="111.230469"/>
       <use xlink:href="#ArialMT-30" x="166.845703"/>
      </g>
     </g>
    </g>
    <g id="xtick_3">
     <g id="line2d_3">
      <path d="M 194.650875 261.54 
L 194.650875 27.65625 
" clip-path="url(#p62f74decf0)" style="fill: none; stroke: #ffffff; stroke-width: 1.6; stroke-linecap: round"/>
     </g>
     <g id="text_3">
      <!-- 5000 -->
      <g style="fill: #262626" transform="translate(182.416812 278.913594) scale(0.11 -0.11)">
       <use xlink:href="#ArialMT-35"/>
       <use xlink:href="#ArialMT-30" x="55.615234"/>
       <use xlink:href="#ArialMT-30" x="111.230469"/>
       <use xlink:href="#ArialMT-30" x="166.845703"/>
      </g>
     </g>
    </g>
    <g id="xtick_4">
     <g id="line2d_4">
      <path d="M 255.984187 261.54 
L 255.984187 27.65625 
" clip-path="url(#p62f74decf0)" style="fill: none; stroke: #ffffff; stroke-width: 1.6; stroke-linecap: round"/>
     </g>
     <g id="text_4">
      <!-- 7500 -->
      <g style="fill: #262626" transform="translate(243.750125 278.913594) scale(0.11 -0.11)">
       <defs>
        <path id="ArialMT-37" d="M 303 3981 
L 303 4522 
L 3269 4522 
L 3269 4084 
Q 2831 3619 2401 2847 
Q 1972 2075 1738 1259 
Q 1569 684 1522 0 
L 944 0 
Q 953 541 1156 1306 
Q 1359 2072 1739 2783 
Q 2119 3494 2547 3981 
L 303 3981 
z
" transform="scale(0.015625)"/>
       </defs>
       <use xlink:href="#ArialMT-37"/>
       <use xlink:href="#ArialMT-35" x="55.615234"/>
       <use xlink:href="#ArialMT-30" x="111.230469"/>
       <use xlink:href="#ArialMT-30" x="166.845703"/>
      </g>
     </g>
    </g>
    <g id="xtick_5">
     <g id="line2d_5">
      <path d="M 317.3175 261.54 
L 317.3175 27.65625 
" clip-path="url(#p62f74decf0)" style="fill: none; stroke: #ffffff; stroke-width: 1.6; stroke-linecap: round"/>
     </g>
     <g id="text_5">
      <!-- 10000 -->
      <g style="fill: #262626" transform="translate(302.024922 278.913594) scale(0.11 -0.11)">
       <defs>
        <path id="ArialMT-31" d="M 2384 0 
L 1822 0 
L 1822 3584 
Q 1619 3391 1289 3197 
Q 959 3003 697 2906 
L 697 3450 
Q 1169 3672 1522 3987 
Q 1875 4303 2022 4600 
L 2384 4600 
L 2384 0 
z
" transform="scale(0.015625)"/>
       </defs>
       <use xlink:href="#ArialMT-31"/>
       <use xlink:href="#ArialMT-30" x="55.615234"/>
       <use xlink:href="#ArialMT-30" x="111.230469"/>
       <use xlink:href="#ArialMT-30" x="166.845703"/>
       <use xlink:href="#ArialMT-30" x="222.460938"/>
      </g>
     </g>
    </g>
    <g id="xtick_6">
     <g id="line2d_6">
      <path d="M 84.250912 261.54 
L 84.250912 27.65625 
" clip-path="url(#p62f74decf0)" style="fill: none; stroke: #ffffff; stroke-width: 0.7; stroke-linecap: round"/>
     </g>
    </g>
    <g id="xtick_7">
     <g id="line2d_7">
      <path d="M 96.517575 261.54 
L 96.517575 27.65625 
" clip-path="url(#p62f74decf0)" style="fill: none; stroke: #ffffff; stroke-width: 0.7; stroke-linecap: round"/>
     </g>
    </g>
    <g id="xtick_8">
     <g id="line2d_8">
      <path d="M 108.784237 261.54 
L 108.784237 27.65625 
" clip-path="url(#p62f74decf0)" style="fill: none; stroke: #ffffff; stroke-width: 0.7; stroke-linecap: round"/>
     </g>
    </g>
    <g id="xtick_9">
     <g id="line2d_9">
      <path d="M 121.0509 261.54 
L 121.0509 27.65625 
" clip-path="url(#p62f74decf0)" style="fill: none; stroke: #ffffff; stroke-width: 0.7; stroke-linecap: round"/>
     </g>
    </g>
    <g id="xtick_10">
     <g id="line2d_10">
      <path d="M 145.584225 261.54 
L 145.584225 27.65625 
" clip-path="url(#p62f74decf0)" style="fill: none; stroke: #ffffff; stroke-width: 0.7; stroke-linecap: round"/>
     </g>
    </g>
    <g id="xtick_11">
     <g id="line2d_11">
      <path d="M 157.850887 261.54 
L 157.850887 27.65625 
" clip-path="url(#p62f74decf0)" style="fill: none; stroke: #ffffff; stroke-width: 0.7; stroke-linecap: round"/>
     </g>
    </g>
    <g id="xtick_12">
     <g id="line2d_12">
      <path d="M 170.11755 261.54 
L 170.11755 27.65625 
" clip-path="url(#p62f74decf0)" style="fill: none; stroke: #ffffff; stroke-width: 0.7; stroke-linecap: round"/>
     </g>
    </g>
    <g id="xtick_13">
     <g id="line2d_13">
      <path d="M 182.384212 261.54 
L 182.384212 27.65625 
" clip-path="url(#p62f74decf0)" style="fill: none; stroke: #ffffff; stroke-width: 0.7; stroke-linecap: round"/>
     </g>
    </g>
    <g id="xtick_14">
     <g id="line2d_14">
      <path d="M 206.917537 261.54 
L 206.917537 27.65625 
" clip-path="url(#p62f74decf0)" style="fill: none; stroke: #ffffff; stroke-width: 0.7; stroke-linecap: round"/>
     </g>
    </g>
    <g id="xtick_15">
     <g id="line2d_15">
      <path d="M 219.1842 261.54 
L 219.1842 27.65625 
" clip-path="url(#p62f74decf0)" style="fill: none; stroke: #ffffff; stroke-width: 0.7; stroke-linecap: round"/>
     </g>
    </g>
    <g id="xtick_16">
     <g id="line2d_16">
      <path d="M 231.450862 261.54 
L 231.450862 27.65625 
" clip-path="url(#p62f74decf0)" style="fill: none; stroke: #ffffff; stroke-width: 0.7; stroke-linecap: round"/>
     </g>
    </g>
    <g id="xtick_17">
     <g id="line2d_17">
      <path d="M 243.717525 261.54 
L 243.717525 27.65625 
" clip-path="url(#p62f74decf0)" style="fill: none; stroke: #ffffff; stroke-width: 0.7; stroke-linecap: round"/>
     </g>
    </g>
    <g id="xtick_18">
     <g id="line2d_18">
      <path d="M 268.25085 261.54 
L 268.25085 27.65625 
" clip-path="url(#p62f74decf0)" style="fill: none; stroke: #ffffff; stroke-width: 0.7; stroke-linecap: round"/>
     </g>
    </g>
    <g id="xtick_19">
     <g id="line2d_19">
      <path d="M 280.517512 261.54 
L 280.517512 27.65625 
" clip-path="url(#p62f74decf0)" style="fill: none; stroke: #ffffff; stroke-width: 0.7; stroke-linecap: round"/>
     </g>
    </g>
    <g id="xtick_20">
     <g id="line2d_20">
      <path d="M 292.784175 261.54 
L 292.784175 27.65625 
" clip-path="url(#p62f74decf0)" style="fill: none; stroke: #ffffff; stroke-width: 0.7; stroke-linecap: round"/>
     </g>
    </g>
    <g id="xtick_21">
     <g id="line2d_21">
      <path d="M 305.050837 261.54 
L 305.050837 27.65625 
" clip-path="url(#p62f74decf0)" style="fill: none; stroke: #ffffff; stroke-width: 0.7; stroke-linecap: round"/>
     </g>
    </g>
    <g id="text_6">
     <!-- Mission Range [nmi] -->
     <g style="fill: #262626" transform="translate(140.299312 293.689219) scale(0.12 -0.12)">
      <defs>
       <path id="ArialMT-4d" d="M 475 0 
L 475 4581 
L 1388 4581 
L 2472 1338 
Q 2622 884 2691 659 
Q 2769 909 2934 1394 
L 4031 4581 
L 4847 4581 
L 4847 0 
L 4263 0 
L 4263 3834 
L 2931 0 
L 2384 0 
L 1059 3900 
L 1059 0 
L 475 0 
z
" transform="scale(0.015625)"/>
       <path id="ArialMT-69" d="M 425 3934 
L 425 4581 
L 988 4581 
L 988 3934 
L 425 3934 
z
M 425 0 
L 425 3319 
L 988 3319 
L 988 0 
L 425 0 
z
" transform="scale(0.015625)"/>
       <path id="ArialMT-73" d="M 197 991 
L 753 1078 
Q 800 744 1014 566 
Q 1228 388 1613 388 
Q 2000 388 2187 545 
Q 2375 703 2375 916 
Q 2375 1106 2209 1216 
Q 2094 1291 1634 1406 
Q 1016 1563 777 1677 
Q 538 1791 414 1992 
Q 291 2194 291 2438 
Q 291 2659 392 2848 
Q 494 3038 669 3163 
Q 800 3259 1026 3326 
Q 1253 3394 1513 3394 
Q 1903 3394 2198 3281 
Q 2494 3169 2634 2976 
Q 2775 2784 2828 2463 
L 2278 2388 
Q 2241 2644 2061 2787 
Q 1881 2931 1553 2931 
Q 1166 2931 1000 2803 
Q 834 2675 834 2503 
Q 834 2394 903 2306 
Q 972 2216 1119 2156 
Q 1203 2125 1616 2013 
Q 2213 1853 2448 1751 
Q 2684 1650 2818 1456 
Q 2953 1263 2953 975 
Q 2953 694 2789 445 
Q 2625 197 2315 61 
Q 2006 -75 1616 -75 
Q 969 -75 630 194 
Q 291 463 197 991 
z
" transform="scale(0.015625)"/>
       <path id="ArialMT-6f" d="M 213 1659 
Q 213 2581 725 3025 
Q 1153 3394 1769 3394 
Q 2453 3394 2887 2945 
Q 3322 2497 3322 1706 
Q 3322 1066 3130 698 
Q 2938 331 2570 128 
Q 2203 -75 1769 -75 
Q 1072 -75 642 372 
Q 213 819 213 1659 
z
M 791 1659 
Q 791 1022 1069 705 
Q 1347 388 1769 388 
Q 2188 388 2466 706 
Q 2744 1025 2744 1678 
Q 2744 2294 2464 2611 
Q 2184 2928 1769 2928 
Q 1347 2928 1069 2612 
Q 791 2297 791 1659 
z
" transform="scale(0.015625)"/>
       <path id="ArialMT-6e" d="M 422 0 
L 422 3319 
L 928 3319 
L 928 2847 
Q 1294 3394 1984 3394 
Q 2284 3394 2536 3286 
Q 2788 3178 2913 3003 
Q 3038 2828 3088 2588 
Q 3119 2431 3119 2041 
L 3119 0 
L 2556 0 
L 2556 2019 
Q 2556 2363 2490 2533 
Q 2425 2703 2258 2804 
Q 2091 2906 1866 2906 
Q 1506 2906 1245 2678 
Q 984 2450 984 1813 
L 984 0 
L 422 0 
z
" transform="scale(0.015625)"/>
       <path id="ArialMT-20" transform="scale(0.015625)"/>
       <path id="ArialMT-52" d="M 503 0 
L 503 4581 
L 2534 4581 
Q 3147 4581 3465 4457 
Q 3784 4334 3975 4021 
Q 4166 3709 4166 3331 
Q 4166 2844 3850 2509 
Q 3534 2175 2875 2084 
Q 3116 1969 3241 1856 
Q 3506 1613 3744 1247 
L 4541 0 
L 3778 0 
L 3172 953 
Q 2906 1366 2734 1584 
Q 2563 1803 2427 1890 
Q 2291 1978 2150 2013 
Q 2047 2034 1813 2034 
L 1109 2034 
L 1109 0 
L 503 0 
z
M 1109 2559 
L 2413 2559 
Q 2828 2559 3062 2645 
Q 3297 2731 3419 2920 
Q 3541 3109 3541 3331 
Q 3541 3656 3305 3865 
Q 3069 4075 2559 4075 
L 1109 4075 
L 1109 2559 
z
" transform="scale(0.015625)"/>
       <path id="ArialMT-61" d="M 2588 409 
Q 2275 144 1986 34 
Q 1697 -75 1366 -75 
Q 819 -75 525 192 
Q 231 459 231 875 
Q 231 1119 342 1320 
Q 453 1522 633 1644 
Q 813 1766 1038 1828 
Q 1203 1872 1538 1913 
Q 2219 1994 2541 2106 
Q 2544 2222 2544 2253 
Q 2544 2597 2384 2738 
Q 2169 2928 1744 2928 
Q 1347 2928 1158 2789 
Q 969 2650 878 2297 
L 328 2372 
Q 403 2725 575 2942 
Q 747 3159 1072 3276 
Q 1397 3394 1825 3394 
Q 2250 3394 2515 3294 
Q 2781 3194 2906 3042 
Q 3031 2891 3081 2659 
Q 3109 2516 3109 2141 
L 3109 1391 
Q 3109 606 3145 398 
Q 3181 191 3288 0 
L 2700 0 
Q 2613 175 2588 409 
z
M 2541 1666 
Q 2234 1541 1622 1453 
Q 1275 1403 1131 1340 
Q 988 1278 909 1158 
Q 831 1038 831 891 
Q 831 666 1001 516 
Q 1172 366 1500 366 
Q 1825 366 2078 508 
Q 2331 650 2450 897 
Q 2541 1088 2541 1459 
L 2541 1666 
z
" transform="scale(0.015625)"/>
       <path id="ArialMT-67" d="M 319 -275 
L 866 -356 
Q 900 -609 1056 -725 
Q 1266 -881 1628 -881 
Q 2019 -881 2231 -725 
Q 2444 -569 2519 -288 
Q 2563 -116 2559 434 
Q 2191 0 1641 0 
Q 956 0 581 494 
Q 206 988 206 1678 
Q 206 2153 378 2554 
Q 550 2956 876 3175 
Q 1203 3394 1644 3394 
Q 2231 3394 2613 2919 
L 2613 3319 
L 3131 3319 
L 3131 450 
Q 3131 -325 2973 -648 
Q 2816 -972 2473 -1159 
Q 2131 -1347 1631 -1347 
Q 1038 -1347 672 -1080 
Q 306 -813 319 -275 
z
M 784 1719 
Q 784 1066 1043 766 
Q 1303 466 1694 466 
Q 2081 466 2343 764 
Q 2606 1063 2606 1700 
Q 2606 2309 2336 2618 
Q 2066 2928 1684 2928 
Q 1309 2928 1046 2623 
Q 784 2319 784 1719 
z
" transform="scale(0.015625)"/>
       <path id="ArialMT-65" d="M 2694 1069 
L 3275 997 
Q 3138 488 2766 206 
Q 2394 -75 1816 -75 
Q 1088 -75 661 373 
Q 234 822 234 1631 
Q 234 2469 665 2931 
Q 1097 3394 1784 3394 
Q 2450 3394 2872 2941 
Q 3294 2488 3294 1666 
Q 3294 1616 3291 1516 
L 816 1516 
Q 847 969 1125 678 
Q 1403 388 1819 388 
Q 2128 388 2347 550 
Q 2566 713 2694 1069 
z
M 847 1978 
L 2700 1978 
Q 2663 2397 2488 2606 
Q 2219 2931 1791 2931 
Q 1403 2931 1139 2672 
Q 875 2413 847 1978 
z
" transform="scale(0.015625)"/>
       <path id="ArialMT-5b" d="M 434 -1272 
L 434 4581 
L 1675 4581 
L 1675 4116 
L 997 4116 
L 997 -806 
L 1675 -806 
L 1675 -1272 
L 434 -1272 
z
" transform="scale(0.015625)"/>
       <path id="ArialMT-6d" d="M 422 0 
L 422 3319 
L 925 3319 
L 925 2853 
Q 1081 3097 1340 3245 
Q 1600 3394 1931 3394 
Q 2300 3394 2536 3241 
Q 2772 3088 2869 2813 
Q 3263 3394 3894 3394 
Q 4388 3394 4653 3120 
Q 4919 2847 4919 2278 
L 4919 0 
L 4359 0 
L 4359 2091 
Q 4359 2428 4304 2576 
Q 4250 2725 4106 2815 
Q 3963 2906 3769 2906 
Q 3419 2906 3187 2673 
Q 2956 2441 2956 1928 
L 2956 0 
L 2394 0 
L 2394 2156 
Q 2394 2531 2256 2718 
Q 2119 2906 1806 2906 
Q 1569 2906 1367 2781 
Q 1166 2656 1075 2415 
Q 984 2175 984 1722 
L 984 0 
L 422 0 
z
" transform="scale(0.015625)"/>
       <path id="ArialMT-5d" d="M 1363 -1272 
L 122 -1272 
L 122 -806 
L 800 -806 
L 800 4116 
L 122 4116 
L 122 4581 
L 1363 4581 
L 1363 -1272 
z
" transform="scale(0.015625)"/>
      </defs>
      <use xlink:href="#ArialMT-4d"/>
      <use xlink:href="#ArialMT-69" x="83.300781"/>
      <use xlink:href="#ArialMT-73" x="105.517578"/>
      <use xlink:href="#ArialMT-73" x="155.517578"/>
      <use xlink:href="#ArialMT-69" x="205.517578"/>
      <use xlink:href="#ArialMT-6f" x="227.734375"/>
      <use xlink:href="#ArialMT-6e" x="283.349609"/>
      <use xlink:href="#ArialMT-20" x="338.964844"/>
      <use xlink:href="#ArialMT-52" x="366.748047"/>
      <use xlink:href="#ArialMT-61" x="438.964844"/>
      <use xlink:href="#ArialMT-6e" x="494.580078"/>
      <use xlink:href="#ArialMT-67" x="550.195312"/>
      <use xlink:href="#ArialMT-65" x="605.810547"/>
      <use xlink:href="#ArialMT-20" x="661.425781"/>
      <use xlink:href="#ArialMT-5b" x="689.208984"/>
      <use xlink:href="#ArialMT-6e" x="716.992188"/>
      <use xlink:href="#ArialMT-6d" x="772.607422"/>
      <use xlink:href="#ArialMT-69" x="855.908203"/>
      <use xlink:href="#ArialMT-5d" x="878.125"/>
     </g>
    </g>
   </g>
   <g id="matplotlib.axis_2">
    <g id="ytick_1">
     <g id="line2d_22">
      <path d="M 71.98425 261.54 
L 317.3175 261.54 
" clip-path="url(#p62f74decf0)" style="fill: none; stroke: #ffffff; stroke-width: 1.6; stroke-linecap: round"/>
     </g>
     <g id="text_7">
      <!-- 0.00 -->
      <g style="fill: #262626" transform="translate(41.077219 265.476797) scale(0.11 -0.11)">
       <defs>
        <path id="ArialMT-2e" d="M 581 0 
L 581 641 
L 1222 641 
L 1222 0 
L 581 0 
z
" transform="scale(0.015625)"/>
       </defs>
       <use xlink:href="#ArialMT-30"/>
       <use xlink:href="#ArialMT-2e" x="55.615234"/>
       <use xlink:href="#ArialMT-30" x="83.398438"/>
       <use xlink:href="#ArialMT-30" x="139.013672"/>
      </g>
     </g>
    </g>
    <g id="ytick_2">
     <g id="line2d_23">
      <path d="M 71.98425 214.76325 
L 317.3175 214.76325 
" clip-path="url(#p62f74decf0)" style="fill: none; stroke: #ffffff; stroke-width: 1.6; stroke-linecap: round"/>
     </g>
     <g id="text_8">
      <!-- 0.25 -->
      <g style="fill: #262626" transform="translate(41.077219 218.700047) scale(0.11 -0.11)">
       <use xlink:href="#ArialMT-30"/>
       <use xlink:href="#ArialMT-2e" x="55.615234"/>
       <use xlink:href="#ArialMT-32" x="83.398438"/>
       <use xlink:href="#ArialMT-35" x="139.013672"/>
      </g>
     </g>
    </g>
    <g id="ytick_3">
     <g id="line2d_24">
      <path d="M 71.98425 167.9865 
L 317.3175 167.9865 
" clip-path="url(#p62f74decf0)" style="fill: none; stroke: #ffffff; stroke-width: 1.6; stroke-linecap: round"/>
     </g>
     <g id="text_9">
      <!-- 0.50 -->
      <g style="fill: #262626" transform="translate(41.077219 171.923297) scale(0.11 -0.11)">
       <use xlink:href="#ArialMT-30"/>
       <use xlink:href="#ArialMT-2e" x="55.615234"/>
       <use xlink:href="#ArialMT-35" x="83.398438"/>
       <use xlink:href="#ArialMT-30" x="139.013672"/>
      </g>
     </g>
    </g>
    <g id="ytick_4">
     <g id="line2d_25">
      <path d="M 71.98425 121.20975 
L 317.3175 121.20975 
" clip-path="url(#p62f74decf0)" style="fill: none; stroke: #ffffff; stroke-width: 1.6; stroke-linecap: round"/>
     </g>
     <g id="text_10">
      <!-- 0.75 -->
      <g style="fill: #262626" transform="translate(41.077219 125.146547) scale(0.11 -0.11)">
       <use xlink:href="#ArialMT-30"/>
       <use xlink:href="#ArialMT-2e" x="55.615234"/>
       <use xlink:href="#ArialMT-37" x="83.398438"/>
       <use xlink:href="#ArialMT-35" x="139.013672"/>
      </g>
     </g>
    </g>
    <g id="ytick_5">
     <g id="line2d_26">
      <path d="M 71.98425 74.433 
L 317.3175 74.433 
" clip-path="url(#p62f74decf0)" style="fill: none; stroke: #ffffff; stroke-width: 1.6; stroke-linecap: round"/>
     </g>
     <g id="text_11">
      <!-- 1.00 -->
      <g style="fill: #262626" transform="translate(41.077219 78.369797) scale(0.11 -0.11)">
       <use xlink:href="#ArialMT-31"/>
       <use xlink:href="#ArialMT-2e" x="55.615234"/>
       <use xlink:href="#ArialMT-30" x="83.398438"/>
       <use xlink:href="#ArialMT-30" x="139.013672"/>
      </g>
     </g>
    </g>
    <g id="ytick_6">
     <g id="line2d_27">
      <path d="M 71.98425 27.65625 
L 317.3175 27.65625 
" clip-path="url(#p62f74decf0)" style="fill: none; stroke: #ffffff; stroke-width: 1.6; stroke-linecap: round"/>
     </g>
     <g id="text_12">
      <!-- 1.25 -->
      <g style="fill: #262626" transform="translate(41.077219 31.593047) scale(0.11 -0.11)">
       <use xlink:href="#ArialMT-31"/>
       <use xlink:href="#ArialMT-2e" x="55.615234"/>
       <use xlink:href="#ArialMT-32" x="83.398438"/>
       <use xlink:href="#ArialMT-35" x="139.013672"/>
      </g>
     </g>
    </g>
    <g id="ytick_7">
     <g id="line2d_28">
      <path d="M 71.98425 252.18465 
L 317.3175 252.18465 
" clip-path="url(#p62f74decf0)" style="fill: none; stroke: #ffffff; stroke-width: 0.7; stroke-linecap: round"/>
     </g>
    </g>
    <g id="ytick_8">
     <g id="line2d_29">
      <path d="M 71.98425 242.8293 
L 317.3175 242.8293 
" clip-path="url(#p62f74decf0)" style="fill: none; stroke: #ffffff; stroke-width: 0.7; stroke-linecap: round"/>
     </g>
    </g>
    <g id="ytick_9">
     <g id="line2d_30">
      <path d="M 71.98425 233.47395 
L 317.3175 233.47395 
" clip-path="url(#p62f74decf0)" style="fill: none; stroke: #ffffff; stroke-width: 0.7; stroke-linecap: round"/>
     </g>
    </g>
    <g id="ytick_10">
     <g id="line2d_31">
      <path d="M 71.98425 224.1186 
L 317.3175 224.1186 
" clip-path="url(#p62f74decf0)" style="fill: none; stroke: #ffffff; stroke-width: 0.7; stroke-linecap: round"/>
     </g>
    </g>
    <g id="ytick_11">
     <g id="line2d_32">
      <path d="M 71.98425 205.4079 
L 317.3175 205.4079 
" clip-path="url(#p62f74decf0)" style="fill: none; stroke: #ffffff; stroke-width: 0.7; stroke-linecap: round"/>
     </g>
    </g>
    <g id="ytick_12">
     <g id="line2d_33">
      <path d="M 71.98425 196.05255 
L 317.3175 196.05255 
" clip-path="url(#p62f74decf0)" style="fill: none; stroke: #ffffff; stroke-width: 0.7; stroke-linecap: round"/>
     </g>
    </g>
    <g id="ytick_13">
     <g id="line2d_34">
      <path d="M 71.98425 186.6972 
L 317.3175 186.6972 
" clip-path="url(#p62f74decf0)" style="fill: none; stroke: #ffffff; stroke-width: 0.7; stroke-linecap: round"/>
     </g>
    </g>
    <g id="ytick_14">
     <g id="line2d_35">
      <path d="M 71.98425 177.34185 
L 317.3175 177.34185 
" clip-path="url(#p62f74decf0)" style="fill: none; stroke: #ffffff; stroke-width: 0.7; stroke-linecap: round"/>
     </g>
    </g>
    <g id="ytick_15">
     <g id="line2d_36">
      <path d="M 71.98425 158.63115 
L 317.3175 158.63115 
" clip-path="url(#p62f74decf0)" style="fill: none; stroke: #ffffff; stroke-width: 0.7; stroke-linecap: round"/>
     </g>
    </g>
    <g id="ytick_16">
     <g id="line2d_37">
      <path d="M 71.98425 149.2758 
L 317.3175 149.2758 
" clip-path="url(#p62f74decf0)" style="fill: none; stroke: #ffffff; stroke-width: 0.7; stroke-linecap: round"/>
     </g>
    </g>
    <g id="ytick_17">
     <g id="line2d_38">
      <path d="M 71.98425 139.92045 
L 317.3175 139.92045 
" clip-path="url(#p62f74decf0)" style="fill: none; stroke: #ffffff; stroke-width: 0.7; stroke-linecap: round"/>
     </g>
    </g>
    <g id="ytick_18">
     <g id="line2d_39">
      <path d="M 71.98425 130.5651 
L 317.3175 130.5651 
" clip-path="url(#p62f74decf0)" style="fill: none; stroke: #ffffff; stroke-width: 0.7; stroke-linecap: round"/>
     </g>
    </g>
    <g id="ytick_19">
     <g id="line2d_40">
      <path d="M 71.98425 111.8544 
L 317.3175 111.8544 
" clip-path="url(#p62f74decf0)" style="fill: none; stroke: #ffffff; stroke-width: 0.7; stroke-linecap: round"/>
     </g>
    </g>
    <g id="ytick_20">
     <g id="line2d_41">
      <path d="M 71.98425 102.49905 
L 317.3175 102.49905 
" clip-path="url(#p62f74decf0)" style="fill: none; stroke: #ffffff; stroke-width: 0.7; stroke-linecap: round"/>
     </g>
    </g>
    <g id="ytick_21">
     <g id="line2d_42">
      <path d="M 71.98425 93.1437 
L 317.3175 93.1437 
" clip-path="url(#p62f74decf0)" style="fill: none; stroke: #ffffff; stroke-width: 0.7; stroke-linecap: round"/>
     </g>
    </g>
    <g id="ytick_22">
     <g id="line2d_43">
      <path d="M 71.98425 83.78835 
L 317.3175 83.78835 
" clip-path="url(#p62f74decf0)" style="fill: none; stroke: #ffffff; stroke-width: 0.7; stroke-linecap: round"/>
     </g>
    </g>
    <g id="ytick_23">
     <g id="line2d_44">
      <path d="M 71.98425 65.07765 
L 317.3175 65.07765 
" clip-path="url(#p62f74decf0)" style="fill: none; stroke: #ffffff; stroke-width: 0.7; stroke-linecap: round"/>
     </g>
    </g>
    <g id="ytick_24">
     <g id="line2d_45">
      <path d="M 71.98425 55.7223 
L 317.3175 55.7223 
" clip-path="url(#p62f74decf0)" style="fill: none; stroke: #ffffff; stroke-width: 0.7; stroke-linecap: round"/>
     </g>
    </g>
    <g id="ytick_25">
     <g id="line2d_46">
      <path d="M 71.98425 46.36695 
L 317.3175 46.36695 
" clip-path="url(#p62f74decf0)" style="fill: none; stroke: #ffffff; stroke-width: 0.7; stroke-linecap: round"/>
     </g>
    </g>
    <g id="ytick_26">
     <g id="line2d_47">
      <path d="M 71.98425 37.0116 
L 317.3175 37.0116 
" clip-path="url(#p62f74decf0)" style="fill: none; stroke: #ffffff; stroke-width: 0.7; stroke-linecap: round"/>
     </g>
    </g>
    <g id="text_13">
     <!-- Transport Energy -->
     <g style="fill: #262626" transform="translate(21.543219 190.723125) rotate(-90) scale(0.12 -0.12)">
      <defs>
       <path id="ArialMT-54" d="M 1659 0 
L 1659 4041 
L 150 4041 
L 150 4581 
L 3781 4581 
L 3781 4041 
L 2266 4041 
L 2266 0 
L 1659 0 
z
" transform="scale(0.015625)"/>
       <path id="ArialMT-72" d="M 416 0 
L 416 3319 
L 922 3319 
L 922 2816 
Q 1116 3169 1280 3281 
Q 1444 3394 1641 3394 
Q 1925 3394 2219 3213 
L 2025 2691 
Q 1819 2813 1613 2813 
Q 1428 2813 1281 2702 
Q 1134 2591 1072 2394 
Q 978 2094 978 1738 
L 978 0 
L 416 0 
z
" transform="scale(0.015625)"/>
       <path id="ArialMT-70" d="M 422 -1272 
L 422 3319 
L 934 3319 
L 934 2888 
Q 1116 3141 1344 3267 
Q 1572 3394 1897 3394 
Q 2322 3394 2647 3175 
Q 2972 2956 3137 2557 
Q 3303 2159 3303 1684 
Q 3303 1175 3120 767 
Q 2938 359 2589 142 
Q 2241 -75 1856 -75 
Q 1575 -75 1351 44 
Q 1128 163 984 344 
L 984 -1272 
L 422 -1272 
z
M 931 1641 
Q 931 1000 1190 694 
Q 1450 388 1819 388 
Q 2194 388 2461 705 
Q 2728 1022 2728 1688 
Q 2728 2322 2467 2637 
Q 2206 2953 1844 2953 
Q 1484 2953 1207 2617 
Q 931 2281 931 1641 
z
" transform="scale(0.015625)"/>
       <path id="ArialMT-74" d="M 1650 503 
L 1731 6 
Q 1494 -44 1306 -44 
Q 1000 -44 831 53 
Q 663 150 594 308 
Q 525 466 525 972 
L 525 2881 
L 113 2881 
L 113 3319 
L 525 3319 
L 525 4141 
L 1084 4478 
L 1084 3319 
L 1650 3319 
L 1650 2881 
L 1084 2881 
L 1084 941 
Q 1084 700 1114 631 
Q 1144 563 1211 522 
Q 1278 481 1403 481 
Q 1497 481 1650 503 
z
" transform="scale(0.015625)"/>
       <path id="ArialMT-45" d="M 506 0 
L 506 4581 
L 3819 4581 
L 3819 4041 
L 1113 4041 
L 1113 2638 
L 3647 2638 
L 3647 2100 
L 1113 2100 
L 1113 541 
L 3925 541 
L 3925 0 
L 506 0 
z
" transform="scale(0.015625)"/>
       <path id="ArialMT-79" d="M 397 -1278 
L 334 -750 
Q 519 -800 656 -800 
Q 844 -800 956 -737 
Q 1069 -675 1141 -563 
Q 1194 -478 1313 -144 
Q 1328 -97 1363 -6 
L 103 3319 
L 709 3319 
L 1400 1397 
Q 1534 1031 1641 628 
Q 1738 1016 1872 1384 
L 2581 3319 
L 3144 3319 
L 1881 -56 
Q 1678 -603 1566 -809 
Q 1416 -1088 1222 -1217 
Q 1028 -1347 759 -1347 
Q 597 -1347 397 -1278 
z
" transform="scale(0.015625)"/>
      </defs>
      <use xlink:href="#ArialMT-54"/>
      <use xlink:href="#ArialMT-72" x="57.333984"/>
      <use xlink:href="#ArialMT-61" x="90.634766"/>
      <use xlink:href="#ArialMT-6e" x="146.25"/>
      <use xlink:href="#ArialMT-73" x="201.865234"/>
      <use xlink:href="#ArialMT-70" x="251.865234"/>
      <use xlink:href="#ArialMT-6f" x="307.480469"/>
      <use xlink:href="#ArialMT-72" x="363.095703"/>
      <use xlink:href="#ArialMT-74" x="396.396484"/>
      <use xlink:href="#ArialMT-20" x="424.179688"/>
      <use xlink:href="#ArialMT-45" x="451.962891"/>
      <use xlink:href="#ArialMT-6e" x="518.662109"/>
      <use xlink:href="#ArialMT-65" x="574.277344"/>
      <use xlink:href="#ArialMT-72" x="629.892578"/>
      <use xlink:href="#ArialMT-67" x="663.193359"/>
      <use xlink:href="#ArialMT-79" x="718.808594"/>
     </g>
     <!-- [MJ / passenger-km] -->
     <g style="fill: #262626" transform="translate(34.551594 198.943125) rotate(-90) scale(0.12 -0.12)">
      <defs>
       <path id="ArialMT-4a" d="M 184 1300 
L 731 1375 
Q 753 850 928 656 
Q 1103 463 1413 463 
Q 1641 463 1806 567 
Q 1972 672 2034 851 
Q 2097 1031 2097 1425 
L 2097 4581 
L 2703 4581 
L 2703 1459 
Q 2703 884 2564 568 
Q 2425 253 2123 87 
Q 1822 -78 1416 -78 
Q 813 -78 492 269 
Q 172 616 184 1300 
z
" transform="scale(0.015625)"/>
       <path id="ArialMT-2f" d="M 0 -78 
L 1328 4659 
L 1778 4659 
L 453 -78 
L 0 -78 
z
" transform="scale(0.015625)"/>
       <path id="ArialMT-2d" d="M 203 1375 
L 203 1941 
L 1931 1941 
L 1931 1375 
L 203 1375 
z
" transform="scale(0.015625)"/>
       <path id="ArialMT-6b" d="M 425 0 
L 425 4581 
L 988 4581 
L 988 1969 
L 2319 3319 
L 3047 3319 
L 1778 2088 
L 3175 0 
L 2481 0 
L 1384 1697 
L 988 1316 
L 988 0 
L 425 0 
z
" transform="scale(0.015625)"/>
      </defs>
      <use xlink:href="#ArialMT-5b"/>
      <use xlink:href="#ArialMT-4d" x="27.783203"/>
      <use xlink:href="#ArialMT-4a" x="111.083984"/>
      <use xlink:href="#ArialMT-20" x="161.083984"/>
      <use xlink:href="#ArialMT-2f" x="188.867188"/>
      <use xlink:href="#ArialMT-20" x="216.650391"/>
      <use xlink:href="#ArialMT-70" x="244.433594"/>
      <use xlink:href="#ArialMT-61" x="300.048828"/>
      <use xlink:href="#ArialMT-73" x="355.664062"/>
      <use xlink:href="#ArialMT-73" x="405.664062"/>
      <use xlink:href="#ArialMT-65" x="455.664062"/>
      <use xlink:href="#ArialMT-6e" x="511.279297"/>
      <use xlink:href="#ArialMT-67" x="566.894531"/>
      <use xlink:href="#ArialMT-65" x="622.509766"/>
      <use xlink:href="#ArialMT-72" x="678.125"/>
      <use xlink:href="#ArialMT-2d" x="711.425781"/>
      <use xlink:href="#ArialMT-6b" x="744.726562"/>
      <use xlink:href="#ArialMT-6d" x="794.726562"/>
      <use xlink:href="#ArialMT-5d" x="878.027344"/>
     </g>
    </g>
   </g>
   <g id="PolyCollection_1">
    <path d="M 72.21452 -187107000000000067725991878852608 
L 72.21452 133.457071 
L 74.531189 133.106831 
L 76.835282 132.757226 
L 79.126933 132.408249 
L 81.406277 132.059897 
L 83.673445 131.712164 
L 85.928566 131.365046 
L 88.171768 131.018536 
L 90.403177 130.672631 
L 92.622914 130.327326 
L 94.831102 129.982616 
L 97.027861 129.638496 
L 99.213308 129.294962 
L 101.387559 128.95201 
L 103.550729 128.609634 
L 105.702928 128.267831 
L 107.844269 127.926596 
L 109.974861 127.585926 
L 112.09481 127.245815 
L 114.204222 126.906259 
L 116.303202 126.567255 
L 118.391853 126.228799 
L 120.470275 125.890885 
L 122.538568 125.553512 
L 124.596831 125.216674 
L 126.64516 124.880367 
L 128.683651 124.544588 
L 130.712397 124.209334 
L 132.731492 123.874599 
L 134.741027 123.540382 
L 136.741092 123.206677 
L 138.731775 122.873482 
L 140.713166 122.540792 
L 142.685348 122.208605 
L 144.648409 121.876917 
L 146.602432 121.545724 
L 148.5475 121.215024 
L 150.483694 120.884812 
L 152.411095 120.555085 
L 154.329783 120.225841 
L 156.239836 119.897075 
L 158.141331 119.568785 
L 160.034345 119.240968 
L 161.918953 118.91362 
L 163.79523 118.586738 
L 165.663248 118.26032 
L 167.52308 117.934362 
L 169.374798 117.608861 
L 171.218472 117.283814 
L 173.054172 116.959219 
L 174.881966 116.635072 
L 176.701922 116.31137 
L 178.514107 115.988112 
L 180.318587 115.665293 
L 182.115427 115.342911 
L 183.904693 115.020964 
L 185.686446 114.699449 
L 187.460751 114.378362 
L 189.227669 114.057702 
L 190.987262 113.737466 
L 192.739589 113.417651 
L 194.484712 113.098254 
L 196.222688 112.779273 
L 197.953576 112.460706 
L 199.677433 112.14255 
L 201.394317 111.824802 
L 203.104284 111.50746 
L 204.807389 111.190522 
L 206.503686 110.873985 
L 208.193231 110.557848 
L 209.876077 110.242106 
L 211.552277 109.926759 
L 213.221882 109.611804 
L 214.884946 109.297238 
L 216.541517 108.983059 
L 218.191649 108.669266 
L 219.835389 108.355856 
L 221.472787 108.042826 
L 223.103893 107.730175 
L 224.728754 107.4179 
L 226.347418 107.106 
L 227.959932 106.794472 
L 229.566343 106.483313 
L 231.166697 106.172523 
L 232.761038 105.862099 
L 234.349413 105.552038 
L 235.931865 105.24234 
L 237.508439 104.933001 
L 239.079178 104.624021 
L 240.644126 104.315396 
L 242.203324 104.007125 
L 243.756815 103.699207 
L 245.30464 103.391638 
L 246.846841 103.084418 
L 248.383458 102.777545 
L 249.914532 102.471016 
L 251.440103 102.16483 
L 252.960209 101.858985 
L 254.474891 101.553479 
L 255.984186 101.24831 
L 255.984186 101.24831 
L 256.272928 99.868037 
L 256.562592 98.459346 
L 256.853183 97.021351 
L 257.144705 95.553126 
L 257.437162 94.053709 
L 257.730559 92.522094 
L 258.0249 90.957233 
L 258.320191 89.35803 
L 258.616436 87.723343 
L 258.91364 86.051976 
L 259.211807 84.342681 
L 259.510942 82.594151 
L 259.811051 80.805019 
L 260.112137 78.973854 
L 260.414205 77.099158 
L 260.717262 75.179357 
L 261.02131 73.212804 
L 261.326356 71.197771 
L 261.632405 69.13244 
L 261.939461 67.014905 
L 262.24753 64.84316 
L 262.556616 62.615096 
L 262.866725 60.328493 
L 263.177862 57.981013 
L 263.490032 55.570191 
L 263.80324 53.093427 
L 264.117493 50.547977 
L 264.432794 47.930945 
L 264.749149 45.239266 
L 265.066564 42.469699 
L 265.385044 39.618814 
L 265.704595 36.682974 
L 266.025222 33.658324 
L 266.34693 30.540773 
L 266.669726 27.32597 
L 266.993615 24.009294 
L 267.318602 20.585822 
L 267.644693 17.050311 
L 267.971894 13.397169 
L 268.30021 9.620424 
L 268.629648 5.713694 
L 268.960214 1.67015 
L 269.291913 -2.517524 
L 269.62475 -6.857177 
L 269.958733 -11.357234 
L 270.293868 -16.02676 
L 270.630159 -20.875512 
L 270.967614 -25.914012 
L 271.306238 -31.153622 
L 271.646038 -36.606631 
L 271.98702 -42.286348 
L 272.32919 -48.207213 
L 272.672555 -54.384919 
L 273.01712 -60.836552 
L 273.362893 -67.580745 
L 273.70988 -74.637863 
L 274.058087 -82.030205 
L 274.407522 -89.782241 
L 274.758189 -97.920879 
L 275.110097 -106.475784 
L 275.463252 -115.479732 
L 275.817661 -124.969035 
L 276.17333 -134.984029 
L 276.530266 -145.569645 
L 276.888477 -156.776084 
L 277.247969 -168.659618 
L 277.608749 -181.283526 
L 277.970824 -194.719229 
L 278.334202 -209.04764 
L 278.69889 -224.360792 
L 279.064894 -240.763822 
L 279.432223 -258.377383 
L 279.800883 -277.340621 
L 280.170881 -297.814858 
L 280.542227 -319.988192 
L 280.914925 -344.081292 
L 281.288986 -370.354771 
L 281.664415 -399.118647 
L 282.041221 -430.744639 
L 282.419411 -465.682314 
L 282.798994 -504.480595 
L 283.179977 -547.816819 
L 283.562367 -596.53661 
L 283.946174 -651.709615 
L 284.331404 -714.708945 
L 284.718067 -787.32701 
L 285.10617 -871.948798 
L 285.495721 -971.818821 
L 285.886729 -1091.46666 
L 286.279202 -1237.413118 
L 286.673149 -1419.399507 
L 287.068577 -1652.655898 
L 287.465497 -1962.400769 
L 287.863915 -2393.63529 
L 288.263841 -3035.273862 
L 288.665284 -4090.992495 
L 289.068253 -6152.588009 
L 289.472755 -11965.609587 
L 289.878801 -135095.95522 
L 289.878801 -187107000000000067725991878852608 
L 289.878801 -187107000000000067725991878852608 
L 289.472755 -187107000000000067725991878852608 
L 289.068253 -187107000000000067725991878852608 
L 288.665284 -187107000000000067725991878852608 
L 288.263841 -187107000000000067725991878852608 
L 287.863915 -187107000000000067725991878852608 
L 287.465497 -187107000000000067725991878852608 
L 287.068577 -187107000000000067725991878852608 
L 286.673149 -187107000000000067725991878852608 
L 286.279202 -187107000000000067725991878852608 
L 285.886729 -187107000000000067725991878852608 
L 285.495721 -187107000000000067725991878852608 
L 285.10617 -187107000000000067725991878852608 
L 284.718067 -187107000000000067725991878852608 
L 284.331404 -187107000000000067725991878852608 
L 283.946174 -187107000000000067725991878852608 
L 283.562367 -187107000000000067725991878852608 
L 283.179977 -187107000000000067725991878852608 
L 282.798994 -187107000000000067725991878852608 
L 282.419411 -187107000000000067725991878852608 
L 282.041221 -187107000000000067725991878852608 
L 281.664415 -187107000000000067725991878852608 
L 281.288986 -187107000000000067725991878852608 
L 280.914925 -187107000000000067725991878852608 
L 280.542227 -187107000000000067725991878852608 
L 280.170881 -187107000000000067725991878852608 
L 279.800883 -187107000000000067725991878852608 
L 279.432223 -187107000000000067725991878852608 
L 279.064894 -187107000000000067725991878852608 
L 278.69889 -187107000000000067725991878852608 
L 278.334202 -187107000000000067725991878852608 
L 277.970824 -187107000000000067725991878852608 
L 277.608749 -187107000000000067725991878852608 
L 277.247969 -187107000000000067725991878852608 
L 276.888477 -187107000000000067725991878852608 
L 276.530266 -187107000000000067725991878852608 
L 276.17333 -187107000000000067725991878852608 
L 275.817661 -187107000000000067725991878852608 
L 275.463252 -187107000000000067725991878852608 
L 275.110097 -187107000000000067725991878852608 
L 274.758189 -187107000000000067725991878852608 
L 274.407522 -187107000000000067725991878852608 
L 274.058087 -187107000000000067725991878852608 
L 273.70988 -187107000000000067725991878852608 
L 273.362893 -187107000000000067725991878852608 
L 273.01712 -187107000000000067725991878852608 
L 272.672555 -187107000000000067725991878852608 
L 272.32919 -187107000000000067725991878852608 
L 271.98702 -187107000000000067725991878852608 
L 271.646038 -187107000000000067725991878852608 
L 271.306238 -187107000000000067725991878852608 
L 270.967614 -187107000000000067725991878852608 
L 270.630159 -187107000000000067725991878852608 
L 270.293868 -187107000000000067725991878852608 
L 269.958733 -187107000000000067725991878852608 
L 269.62475 -187107000000000067725991878852608 
L 269.291913 -187107000000000067725991878852608 
L 268.960214 -187107000000000067725991878852608 
L 268.629648 -187107000000000067725991878852608 
L 268.30021 -187107000000000067725991878852608 
L 267.971894 -187107000000000067725991878852608 
L 267.644693 -187107000000000067725991878852608 
L 267.318602 -187107000000000067725991878852608 
L 266.993615 -187107000000000067725991878852608 
L 266.669726 -187107000000000067725991878852608 
L 266.34693 -187107000000000067725991878852608 
L 266.025222 -187107000000000067725991878852608 
L 265.704595 -187107000000000067725991878852608 
L 265.385044 -187107000000000067725991878852608 
L 265.066564 -187107000000000067725991878852608 
L 264.749149 -187107000000000067725991878852608 
L 264.432794 -187107000000000067725991878852608 
L 264.117493 -187107000000000067725991878852608 
L 263.80324 -187107000000000067725991878852608 
L 263.490032 -187107000000000067725991878852608 
L 263.177862 -187107000000000067725991878852608 
L 262.866725 -187107000000000067725991878852608 
L 262.556616 -187107000000000067725991878852608 
L 262.24753 -187107000000000067725991878852608 
L 261.939461 -187107000000000067725991878852608 
L 261.632405 -187107000000000067725991878852608 
L 261.326356 -187107000000000067725991878852608 
L 261.02131 -187107000000000067725991878852608 
L 260.717262 -187107000000000067725991878852608 
L 260.414205 -187107000000000067725991878852608 
L 260.112137 -187107000000000067725991878852608 
L 259.811051 -187107000000000067725991878852608 
L 259.510942 -187107000000000067725991878852608 
L 259.211807 -187107000000000067725991878852608 
L 258.91364 -187107000000000067725991878852608 
L 258.616436 -187107000000000067725991878852608 
L 258.320191 -187107000000000067725991878852608 
L 258.0249 -187107000000000067725991878852608 
L 257.730559 -187107000000000067725991878852608 
L 257.437162 -187107000000000067725991878852608 
L 257.144705 -187107000000000067725991878852608 
L 256.853183 -187107000000000067725991878852608 
L 256.562592 -187107000000000067725991878852608 
L 256.272928 -187107000000000067725991878852608 
L 255.984186 -187107000000000067725991878852608 
L 255.984186 -187107000000000067725991878852608 
L 254.474891 -187107000000000067725991878852608 
L 252.960209 -187107000000000067725991878852608 
L 251.440103 -187107000000000067725991878852608 
L 249.914532 -187107000000000067725991878852608 
L 248.383458 -187107000000000067725991878852608 
L 246.846841 -187107000000000067725991878852608 
L 245.30464 -187107000000000067725991878852608 
L 243.756815 -187107000000000067725991878852608 
L 242.203324 -187107000000000067725991878852608 
L 240.644126 -187107000000000067725991878852608 
L 239.079178 -187107000000000067725991878852608 
L 237.508439 -187107000000000067725991878852608 
L 235.931865 -187107000000000067725991878852608 
L 234.349413 -187107000000000067725991878852608 
L 232.761038 -187107000000000067725991878852608 
L 231.166697 -187107000000000067725991878852608 
L 229.566343 -187107000000000067725991878852608 
L 227.959932 -187107000000000067725991878852608 
L 226.347418 -187107000000000067725991878852608 
L 224.728754 -187107000000000067725991878852608 
L 223.103893 -187107000000000067725991878852608 
L 221.472787 -187107000000000067725991878852608 
L 219.835389 -187107000000000067725991878852608 
L 218.191649 -187107000000000067725991878852608 
L 216.541517 -187107000000000067725991878852608 
L 214.884946 -187107000000000067725991878852608 
L 213.221882 -187107000000000067725991878852608 
L 211.552277 -187107000000000067725991878852608 
L 209.876077 -187107000000000067725991878852608 
L 208.193231 -187107000000000067725991878852608 
L 206.503686 -187107000000000067725991878852608 
L 204.807389 -187107000000000067725991878852608 
L 203.104284 -187107000000000067725991878852608 
L 201.394317 -187107000000000067725991878852608 
L 199.677433 -187107000000000067725991878852608 
L 197.953576 -187107000000000067725991878852608 
L 196.222688 -187107000000000067725991878852608 
L 194.484712 -187107000000000067725991878852608 
L 192.739589 -187107000000000067725991878852608 
L 190.987262 -187107000000000067725991878852608 
L 189.227669 -187107000000000067725991878852608 
L 187.460751 -187107000000000067725991878852608 
L 185.686446 -187107000000000067725991878852608 
L 183.904693 -187107000000000067725991878852608 
L 182.115427 -187107000000000067725991878852608 
L 180.318587 -187107000000000067725991878852608 
L 178.514107 -187107000000000067725991878852608 
L 176.701922 -187107000000000067725991878852608 
L 174.881966 -187107000000000067725991878852608 
L 173.054172 -187107000000000067725991878852608 
L 171.218472 -187107000000000067725991878852608 
L 169.374798 -187107000000000067725991878852608 
L 167.52308 -187107000000000067725991878852608 
L 165.663248 -187107000000000067725991878852608 
L 163.79523 -187107000000000067725991878852608 
L 161.918953 -187107000000000067725991878852608 
L 160.034345 -187107000000000067725991878852608 
L 158.141331 -187107000000000067725991878852608 
L 156.239836 -187107000000000067725991878852608 
L 154.329783 -187107000000000067725991878852608 
L 152.411095 -187107000000000067725991878852608 
L 150.483694 -187107000000000067725991878852608 
L 148.5475 -187107000000000067725991878852608 
L 146.602432 -187107000000000067725991878852608 
L 144.648409 -187107000000000067725991878852608 
L 142.685348 -187107000000000067725991878852608 
L 140.713166 -187107000000000067725991878852608 
L 138.731775 -187107000000000067725991878852608 
L 136.741092 -187107000000000067725991878852608 
L 134.741027 -187107000000000067725991878852608 
L 132.731492 -187107000000000067725991878852608 
L 130.712397 -187107000000000067725991878852608 
L 128.683651 -187107000000000067725991878852608 
L 126.64516 -187107000000000067725991878852608 
L 124.596831 -187107000000000067725991878852608 
L 122.538568 -187107000000000067725991878852608 
L 120.470275 -187107000000000067725991878852608 
L 118.391853 -187107000000000067725991878852608 
L 116.303202 -187107000000000067725991878852608 
L 114.204222 -187107000000000067725991878852608 
L 112.09481 -187107000000000067725991878852608 
L 109.974861 -187107000000000067725991878852608 
L 107.844269 -187107000000000067725991878852608 
L 105.702928 -187107000000000067725991878852608 
L 103.550729 -187107000000000067725991878852608 
L 101.387559 -187107000000000067725991878852608 
L 99.213308 -187107000000000067725991878852608 
L 97.027861 -187107000000000067725991878852608 
L 94.831102 -187107000000000067725991878852608 
L 92.622914 -187107000000000067725991878852608 
L 90.403177 -187107000000000067725991878852608 
L 88.171768 -187107000000000067725991878852608 
L 85.928566 -187107000000000067725991878852608 
L 83.673445 -187107000000000067725991878852608 
L 81.406277 -187107000000000067725991878852608 
L 79.126933 -187107000000000067725991878852608 
L 76.835282 -187107000000000067725991878852608 
L 74.531189 -187107000000000067725991878852608 
L 72.21452 -187107000000000067725991878852608 
z
" clip-path="url(#p62f74decf0)" style="fill: #9d5600; fill-opacity: 0.1; stroke: #9d5600; stroke-opacity: 0.1"/>
   </g>
   <g id="PolyCollection_2">
    <path d="M 72.087107 -187107000000000067725991878852608 
L 72.087107 138.973676 
L 73.123618 138.822104 
L 74.157575 138.670655 
L 75.188989 138.519331 
L 76.217872 138.368131 
L 77.244239 138.217053 
L 78.268099 138.066099 
L 79.289467 137.915267 
L 80.308353 137.764556 
L 81.324771 137.613968 
L 82.338731 137.4635 
L 83.350246 137.313152 
L 84.359328 137.162925 
L 85.365988 137.012818 
L 86.370237 136.862829 
L 87.372088 136.71296 
L 88.371552 136.563209 
L 89.368639 136.413576 
L 90.363362 136.264061 
L 91.355732 136.114662 
L 92.345759 135.965381 
L 93.333455 135.816216 
L 94.318831 135.667166 
L 95.301897 135.518232 
L 96.282664 135.369414 
L 97.261143 135.22071 
L 98.237346 135.07212 
L 99.211281 134.923644 
L 100.18296 134.775282 
L 101.152393 134.627033 
L 102.119591 134.478896 
L 103.084564 134.330872 
L 104.047322 134.18296 
L 105.007875 134.035159 
L 105.966233 133.88747 
L 106.922407 133.739891 
L 107.876405 133.592423 
L 108.828239 133.445065 
L 109.777918 133.297816 
L 110.725451 133.150677 
L 111.670849 133.003647 
L 112.614121 132.856725 
L 113.555276 132.709912 
L 114.494324 132.563206 
L 115.431274 132.416608 
L 116.366136 132.270117 
L 117.298919 132.123733 
L 118.229632 131.977455 
L 119.158285 131.831283 
L 120.084886 131.685217 
L 121.009444 131.539257 
L 121.931969 131.393401 
L 122.85247 131.24765 
L 123.770954 131.102003 
L 124.687432 130.956461 
L 125.601912 130.811022 
L 126.514402 130.665686 
L 127.424912 130.520453 
L 128.333449 130.375323 
L 129.240022 130.230296 
L 130.144641 130.08537 
L 131.047312 129.940546 
L 131.948045 129.795823 
L 132.846848 129.651201 
L 133.743729 129.50668 
L 134.638696 129.36226 
L 135.531758 129.217939 
L 136.422922 129.073718 
L 137.312197 128.929597 
L 138.199591 128.785574 
L 139.085111 128.641651 
L 139.968765 128.497825 
L 140.850562 128.354098 
L 141.730508 128.210469 
L 142.608613 128.066938 
L 143.484883 127.923503 
L 144.359326 127.780166 
L 145.23195 127.636925 
L 146.102763 127.493781 
L 146.971771 127.350733 
L 147.838982 127.20778 
L 148.704404 127.064923 
L 149.568045 126.922161 
L 150.42991 126.779494 
L 151.290009 126.636921 
L 152.148347 126.494443 
L 153.004932 126.352059 
L 153.859771 126.209768 
L 154.712872 126.067571 
L 155.564241 125.925467 
L 156.413886 125.783456 
L 157.261813 125.641538 
L 158.108029 125.499712 
L 158.952542 125.357978 
L 159.795357 125.216335 
L 160.636483 125.074785 
L 161.475925 124.933325 
L 162.31369 124.791956 
L 163.149786 124.650678 
L 163.984218 124.509491 
L 163.984218 124.509491 
L 164.153165 123.366373 
L 164.322737 122.199714 
L 164.492936 121.008778 
L 164.663767 119.7928 
L 164.835232 118.550981 
L 165.007335 117.282489 
L 165.180081 115.986455 
L 165.353471 114.661971 
L 165.527511 113.308092 
L 165.702203 111.923826 
L 165.877552 110.508139 
L 166.053561 109.059949 
L 166.230234 107.578124 
L 166.407575 106.061478 
L 166.585587 104.508768 
L 166.764274 102.918693 
L 166.943641 101.289887 
L 167.12369 99.620918 
L 167.304427 97.910282 
L 167.485855 96.156397 
L 167.667977 94.357604 
L 167.850799 92.512154 
L 168.034323 90.618208 
L 168.218555 88.673829 
L 168.403498 86.676975 
L 168.589156 84.625493 
L 168.775534 82.51711 
L 168.962636 80.349424 
L 169.150465 78.119898 
L 169.339027 75.825847 
L 169.528325 73.464428 
L 169.718365 71.03263 
L 169.909149 68.527258 
L 170.100683 65.944922 
L 170.292972 63.28202 
L 170.486019 60.53472 
L 170.679829 57.698947 
L 170.874407 54.770356 
L 171.069758 51.744314 
L 171.265885 48.615874 
L 171.462794 45.379749 
L 171.660489 42.03028 
L 171.858975 38.561407 
L 172.058257 34.966629 
L 172.25834 31.238963 
L 172.459228 27.370902 
L 172.660926 23.354362 
L 172.86344 19.180625 
L 173.066774 14.840279 
L 173.270934 10.323143 
L 173.475924 5.618191 
L 173.681749 0.71346 
L 173.888415 -4.404051 
L 174.095927 -9.748496 
L 174.30429 -15.335313 
L 174.513509 -21.181373 
L 174.72359 -27.30515 
L 174.934538 -33.726914 
L 175.146358 -40.468961 
L 175.359057 -47.555863 
L 175.572638 -55.014777 
L 175.787108 -62.875785 
L 176.002473 -71.172302 
L 176.218738 -79.941551 
L 176.435909 -89.225124 
L 176.653991 -99.069637 
L 176.872991 -109.527516 
L 177.092914 -120.65793 
L 177.313766 -132.527909 
L 177.535552 -145.213701 
L 177.75828 -158.802406 
L 177.981955 -173.39398 
L 178.206582 -189.1037 
L 178.432169 -206.065212 
L 178.658722 -224.434348 
L 178.886246 -244.393922 
L 179.114747 -266.15984 
L 179.344233 -289.98894 
L 179.57471 -316.189171 
L 179.806184 -345.132981 
L 180.038662 -377.275128 
L 180.27215 -413.176754 
L 180.506654 -453.538422 
L 180.742183 -499.246285 
L 180.978741 -551.437904 
L 181.216337 -611.598211 
L 181.454977 -681.703061 
L 181.694667 -764.440384 
L 181.935416 -863.562735 
L 182.17723 -984.472307 
L 182.420115 -1135.239337 
L 182.664081 -1328.481253 
L 182.909132 -1585.090428 
L 183.155278 -1942.348306 
L 183.402525 -2473.916463 
L 183.65088 -3348.531301 
L 183.900352 -5056.469837 
L 184.150947 -9872.295926 
L 184.402675 -111880.241838 
L 184.402675 -187107000000000067725991878852608 
L 184.402675 -187107000000000067725991878852608 
L 184.150947 -187107000000000067725991878852608 
L 183.900352 -187107000000000067725991878852608 
L 183.65088 -187107000000000067725991878852608 
L 183.402525 -187107000000000067725991878852608 
L 183.155278 -187107000000000067725991878852608 
L 182.909132 -187107000000000067725991878852608 
L 182.664081 -187107000000000067725991878852608 
L 182.420115 -187107000000000067725991878852608 
L 182.17723 -187107000000000067725991878852608 
L 181.935416 -187107000000000067725991878852608 
L 181.694667 -187107000000000067725991878852608 
L 181.454977 -187107000000000067725991878852608 
L 181.216337 -187107000000000067725991878852608 
L 180.978741 -187107000000000067725991878852608 
L 180.742183 -187107000000000067725991878852608 
L 180.506654 -187107000000000067725991878852608 
L 180.27215 -187107000000000067725991878852608 
L 180.038662 -187107000000000067725991878852608 
L 179.806184 -187107000000000067725991878852608 
L 179.57471 -187107000000000067725991878852608 
L 179.344233 -187107000000000067725991878852608 
L 179.114747 -187107000000000067725991878852608 
L 178.886246 -187107000000000067725991878852608 
L 178.658722 -187107000000000067725991878852608 
L 178.432169 -187107000000000067725991878852608 
L 178.206582 -187107000000000067725991878852608 
L 177.981955 -187107000000000067725991878852608 
L 177.75828 -187107000000000067725991878852608 
L 177.535552 -187107000000000067725991878852608 
L 177.313766 -187107000000000067725991878852608 
L 177.092914 -187107000000000067725991878852608 
L 176.872991 -187107000000000067725991878852608 
L 176.653991 -187107000000000067725991878852608 
L 176.435909 -187107000000000067725991878852608 
L 176.218738 -187107000000000067725991878852608 
L 176.002473 -187107000000000067725991878852608 
L 175.787108 -187107000000000067725991878852608 
L 175.572638 -187107000000000067725991878852608 
L 175.359057 -187107000000000067725991878852608 
L 175.146358 -187107000000000067725991878852608 
L 174.934538 -187107000000000067725991878852608 
L 174.72359 -187107000000000067725991878852608 
L 174.513509 -187107000000000067725991878852608 
L 174.30429 -187107000000000067725991878852608 
L 174.095927 -187107000000000067725991878852608 
L 173.888415 -187107000000000067725991878852608 
L 173.681749 -187107000000000067725991878852608 
L 173.475924 -187107000000000067725991878852608 
L 173.270934 -187107000000000067725991878852608 
L 173.066774 -187107000000000067725991878852608 
L 172.86344 -187107000000000067725991878852608 
L 172.660926 -187107000000000067725991878852608 
L 172.459228 -187107000000000067725991878852608 
L 172.25834 -187107000000000067725991878852608 
L 172.058257 -187107000000000067725991878852608 
L 171.858975 -187107000000000067725991878852608 
L 171.660489 -187107000000000067725991878852608 
L 171.462794 -187107000000000067725991878852608 
L 171.265885 -187107000000000067725991878852608 
L 171.069758 -187107000000000067725991878852608 
L 170.874407 -187107000000000067725991878852608 
L 170.679829 -187107000000000067725991878852608 
L 170.486019 -187107000000000067725991878852608 
L 170.292972 -187107000000000067725991878852608 
L 170.100683 -187107000000000067725991878852608 
L 169.909149 -187107000000000067725991878852608 
L 169.718365 -187107000000000067725991878852608 
L 169.528325 -187107000000000067725991878852608 
L 169.339027 -187107000000000067725991878852608 
L 169.150465 -187107000000000067725991878852608 
L 168.962636 -187107000000000067725991878852608 
L 168.775534 -187107000000000067725991878852608 
L 168.589156 -187107000000000067725991878852608 
L 168.403498 -187107000000000067725991878852608 
L 168.218555 -187107000000000067725991878852608 
L 168.034323 -187107000000000067725991878852608 
L 167.850799 -187107000000000067725991878852608 
L 167.667977 -187107000000000067725991878852608 
L 167.485855 -187107000000000067725991878852608 
L 167.304427 -187107000000000067725991878852608 
L 167.12369 -187107000000000067725991878852608 
L 166.943641 -187107000000000067725991878852608 
L 166.764274 -187107000000000067725991878852608 
L 166.585587 -187107000000000067725991878852608 
L 166.407575 -187107000000000067725991878852608 
L 166.230234 -187107000000000067725991878852608 
L 166.053561 -187107000000000067725991878852608 
L 165.877552 -187107000000000067725991878852608 
L 165.702203 -187107000000000067725991878852608 
L 165.527511 -187107000000000067725991878852608 
L 165.353471 -187107000000000067725991878852608 
L 165.180081 -187107000000000067725991878852608 
L 165.007335 -187107000000000067725991878852608 
L 164.835232 -187107000000000067725991878852608 
L 164.663767 -187107000000000067725991878852608 
L 164.492936 -187107000000000067725991878852608 
L 164.322737 -187107000000000067725991878852608 
L 164.153165 -187107000000000067725991878852608 
L 163.984218 -187107000000000067725991878852608 
L 163.984218 -187107000000000067725991878852608 
L 163.149786 -187107000000000067725991878852608 
L 162.31369 -187107000000000067725991878852608 
L 161.475925 -187107000000000067725991878852608 
L 160.636483 -187107000000000067725991878852608 
L 159.795357 -187107000000000067725991878852608 
L 158.952542 -187107000000000067725991878852608 
L 158.108029 -187107000000000067725991878852608 
L 157.261813 -187107000000000067725991878852608 
L 156.413886 -187107000000000067725991878852608 
L 155.564241 -187107000000000067725991878852608 
L 154.712872 -187107000000000067725991878852608 
L 153.859771 -187107000000000067725991878852608 
L 153.004932 -187107000000000067725991878852608 
L 152.148347 -187107000000000067725991878852608 
L 151.290009 -187107000000000067725991878852608 
L 150.42991 -187107000000000067725991878852608 
L 149.568045 -187107000000000067725991878852608 
L 148.704404 -187107000000000067725991878852608 
L 147.838982 -187107000000000067725991878852608 
L 146.971771 -187107000000000067725991878852608 
L 146.102763 -187107000000000067725991878852608 
L 145.23195 -187107000000000067725991878852608 
L 144.359326 -187107000000000067725991878852608 
L 143.484883 -187107000000000067725991878852608 
L 142.608613 -187107000000000067725991878852608 
L 141.730508 -187107000000000067725991878852608 
L 140.850562 -187107000000000067725991878852608 
L 139.968765 -187107000000000067725991878852608 
L 139.085111 -187107000000000067725991878852608 
L 138.199591 -187107000000000067725991878852608 
L 137.312197 -187107000000000067725991878852608 
L 136.422922 -187107000000000067725991878852608 
L 135.531758 -187107000000000067725991878852608 
L 134.638696 -187107000000000067725991878852608 
L 133.743729 -187107000000000067725991878852608 
L 132.846848 -187107000000000067725991878852608 
L 131.948045 -187107000000000067725991878852608 
L 131.047312 -187107000000000067725991878852608 
L 130.144641 -187107000000000067725991878852608 
L 129.240022 -187107000000000067725991878852608 
L 128.333449 -187107000000000067725991878852608 
L 127.424912 -187107000000000067725991878852608 
L 126.514402 -187107000000000067725991878852608 
L 125.601912 -187107000000000067725991878852608 
L 124.687432 -187107000000000067725991878852608 
L 123.770954 -187107000000000067725991878852608 
L 122.85247 -187107000000000067725991878852608 
L 121.931969 -187107000000000067725991878852608 
L 121.009444 -187107000000000067725991878852608 
L 120.084886 -187107000000000067725991878852608 
L 119.158285 -187107000000000067725991878852608 
L 118.229632 -187107000000000067725991878852608 
L 117.298919 -187107000000000067725991878852608 
L 116.366136 -187107000000000067725991878852608 
L 115.431274 -187107000000000067725991878852608 
L 114.494324 -187107000000000067725991878852608 
L 113.555276 -187107000000000067725991878852608 
L 112.614121 -187107000000000067725991878852608 
L 111.670849 -187107000000000067725991878852608 
L 110.725451 -187107000000000067725991878852608 
L 109.777918 -187107000000000067725991878852608 
L 108.828239 -187107000000000067725991878852608 
L 107.876405 -187107000000000067725991878852608 
L 106.922407 -187107000000000067725991878852608 
L 105.966233 -187107000000000067725991878852608 
L 105.007875 -187107000000000067725991878852608 
L 104.047322 -187107000000000067725991878852608 
L 103.084564 -187107000000000067725991878852608 
L 102.119591 -187107000000000067725991878852608 
L 101.152393 -187107000000000067725991878852608 
L 100.18296 -187107000000000067725991878852608 
L 99.211281 -187107000000000067725991878852608 
L 98.237346 -187107000000000067725991878852608 
L 97.261143 -187107000000000067725991878852608 
L 96.282664 -187107000000000067725991878852608 
L 95.301897 -187107000000000067725991878852608 
L 94.318831 -187107000000000067725991878852608 
L 93.333455 -187107000000000067725991878852608 
L 92.345759 -187107000000000067725991878852608 
L 91.355732 -187107000000000067725991878852608 
L 90.363362 -187107000000000067725991878852608 
L 89.368639 -187107000000000067725991878852608 
L 88.371552 -187107000000000067725991878852608 
L 87.372088 -187107000000000067725991878852608 
L 86.370237 -187107000000000067725991878852608 
L 85.365988 -187107000000000067725991878852608 
L 84.359328 -187107000000000067725991878852608 
L 83.350246 -187107000000000067725991878852608 
L 82.338731 -187107000000000067725991878852608 
L 81.324771 -187107000000000067725991878852608 
L 80.308353 -187107000000000067725991878852608 
L 79.289467 -187107000000000067725991878852608 
L 78.268099 -187107000000000067725991878852608 
L 77.244239 -187107000000000067725991878852608 
L 76.217872 -187107000000000067725991878852608 
L 75.188989 -187107000000000067725991878852608 
L 74.157575 -187107000000000067725991878852608 
L 73.123618 -187107000000000067725991878852608 
L 72.087107 -187107000000000067725991878852608 
z
" clip-path="url(#p62f74decf0)" style="fill: #f38600; fill-opacity: 0.1; stroke: #f38600; stroke-opacity: 0.1"/>
   </g>
   <g id="line2d_48">
    <path d="M 72.21452 133.457071 
L 103.550729 128.609634 
L 132.731492 123.874599 
L 161.918953 118.91362 
L 190.987262 113.737466 
L 218.191649 108.669266 
L 245.30464 103.391638 
L 255.984186 101.24831 
L 255.984186 101.24831 
L 258.0249 90.957233 
L 259.811051 80.805019 
L 261.632405 69.13244 
L 263.490032 55.570191 
L 265.066564 42.469699 
L 266.669726 27.32597 
L 268.30021 9.620424 
L 269.171712 -1 
L 269.171712 -1 
" clip-path="url(#p62f74decf0)" style="fill: none; stroke: #9d5600; stroke-opacity: 0.8; stroke-width: 2; stroke-linecap: round"/>
   </g>
   <g id="line2d_49">
    <defs>
     <path id="m4e686a2864" d="M 0 1.5 
C 0.397805 1.5 0.77937 1.341951 1.06066 1.06066 
C 1.341951 0.77937 1.5 0.397805 1.5 0 
C 1.5 -0.397805 1.341951 -0.77937 1.06066 -1.06066 
C 0.77937 -1.341951 0.397805 -1.5 0 -1.5 
C -0.397805 -1.5 -0.77937 -1.341951 -1.06066 -1.06066 
C -1.341951 -0.77937 -1.5 -0.397805 -1.5 0 
C -1.5 0.397805 -1.341951 0.77937 -1.06066 1.06066 
C -0.77937 1.341951 -0.397805 1.5 0 1.5 
z
" style="stroke: #9d5600"/>
    </defs>
    <g clip-path="url(#p62f74decf0)">
     <use xlink:href="#m4e686a2864" x="255.984187" y="101.24831" style="fill: #9d5600; stroke: #9d5600"/>
    </g>
   </g>
   <g id="line2d_50">
    <path d="M 72.087107 138.973676 
L 103.084564 134.330872 
L 132.846848 129.651201 
L 162.31369 124.791956 
L 163.984218 124.509491 
L 163.984218 124.509491 
L 165.527511 113.308092 
L 166.943641 101.289887 
L 168.218555 88.673829 
L 169.528325 73.464428 
L 170.679829 57.698947 
L 171.858975 38.561407 
L 173.066774 14.840279 
L 173.750946 -1 
L 173.750946 -1 
" clip-path="url(#p62f74decf0)" style="fill: none; stroke: #f38600; stroke-opacity: 0.8; stroke-width: 2; stroke-linecap: round"/>
   </g>
   <g id="line2d_51">
    <defs>
     <path id="m9cf28b370e" d="M 0 1.5 
C 0.397805 1.5 0.77937 1.341951 1.06066 1.06066 
C 1.341951 0.77937 1.5 0.397805 1.5 0 
C 1.5 -0.397805 1.341951 -0.77937 1.06066 -1.06066 
C 0.77937 -1.341951 0.397805 -1.5 0 -1.5 
C -0.397805 -1.5 -0.77937 -1.341951 -1.06066 -1.06066 
C -1.341951 -0.77937 -1.5 -0.397805 -1.5 0 
C -1.5 0.397805 -1.341951 0.77937 -1.06066 1.06066 
C -0.77937 1.341951 -0.397805 1.5 0 1.5 
z
" style="stroke: #f38600"/>
    </defs>
    <g clip-path="url(#p62f74decf0)">
     <use xlink:href="#m9cf28b370e" x="163.984219" y="124.509491" style="fill: #f38600; stroke: #f38600"/>
    </g>
   </g>
   <g id="line2d_52"/>
   <g id="patch_3">
    <path d="M 71.98425 261.54 
L 71.98425 27.65625 
" style="fill: none; stroke: #ffffff; stroke-width: 1.25; stroke-linejoin: miter; stroke-linecap: square"/>
   </g>
   <g id="patch_4">
    <path d="M 317.3175 261.54 
L 317.3175 27.65625 
" style="fill: none; stroke: #ffffff; stroke-width: 1.25; stroke-linejoin: miter; stroke-linecap: square"/>
   </g>
   <g id="patch_5">
    <path d="M 71.98425 261.54 
L 317.3175 261.54 
" style="fill: none; stroke: #ffffff; stroke-width: 1.25; stroke-linejoin: miter; stroke-linecap: square"/>
   </g>
   <g id="patch_6">
    <path d="M 71.98425 27.65625 
L 317.3175 27.65625 
" style="fill: none; stroke: #ffffff; stroke-width: 1.25; stroke-linejoin: miter; stroke-linecap: square"/>
   </g>
   <g id="text_14">
    <!-- B777-class -->
    <g style="fill: #4f2b00" transform="translate(228.778094 117.121904) scale(0.11 -0.11)">
     <defs>
      <path id="ArialMT-42" d="M 469 0 
L 469 4581 
L 2188 4581 
Q 2713 4581 3030 4442 
Q 3347 4303 3526 4014 
Q 3706 3725 3706 3409 
Q 3706 3116 3547 2856 
Q 3388 2597 3066 2438 
Q 3481 2316 3704 2022 
Q 3928 1728 3928 1328 
Q 3928 1006 3792 729 
Q 3656 453 3456 303 
Q 3256 153 2954 76 
Q 2653 0 2216 0 
L 469 0 
z
M 1075 2656 
L 2066 2656 
Q 2469 2656 2644 2709 
Q 2875 2778 2992 2937 
Q 3109 3097 3109 3338 
Q 3109 3566 3000 3739 
Q 2891 3913 2687 3977 
Q 2484 4041 1991 4041 
L 1075 4041 
L 1075 2656 
z
M 1075 541 
L 2216 541 
Q 2509 541 2628 563 
Q 2838 600 2978 687 
Q 3119 775 3209 942 
Q 3300 1109 3300 1328 
Q 3300 1584 3169 1773 
Q 3038 1963 2805 2039 
Q 2572 2116 2134 2116 
L 1075 2116 
L 1075 541 
z
" transform="scale(0.015625)"/>
      <path id="ArialMT-63" d="M 2588 1216 
L 3141 1144 
Q 3050 572 2676 248 
Q 2303 -75 1759 -75 
Q 1078 -75 664 370 
Q 250 816 250 1647 
Q 250 2184 428 2587 
Q 606 2991 970 3192 
Q 1334 3394 1763 3394 
Q 2303 3394 2647 3120 
Q 2991 2847 3088 2344 
L 2541 2259 
Q 2463 2594 2264 2762 
Q 2066 2931 1784 2931 
Q 1359 2931 1093 2626 
Q 828 2322 828 1663 
Q 828 994 1084 691 
Q 1341 388 1753 388 
Q 2084 388 2306 591 
Q 2528 794 2588 1216 
z
" transform="scale(0.015625)"/>
      <path id="ArialMT-6c" d="M 409 0 
L 409 4581 
L 972 4581 
L 972 0 
L 409 0 
z
" transform="scale(0.015625)"/>
     </defs>
     <use xlink:href="#ArialMT-42"/>
     <use xlink:href="#ArialMT-37" x="66.699219"/>
     <use xlink:href="#ArialMT-37" x="122.314453"/>
     <use xlink:href="#ArialMT-37" x="177.929688"/>
     <use xlink:href="#ArialMT-2d" x="233.544922"/>
     <use xlink:href="#ArialMT-63" x="266.845703"/>
     <use xlink:href="#ArialMT-6c" x="316.845703"/>
     <use xlink:href="#ArialMT-61" x="339.0625"/>
     <use xlink:href="#ArialMT-73" x="394.677734"/>
     <use xlink:href="#ArialMT-73" x="444.677734"/>
    </g>
   </g>
   <g id="text_15">
    <!-- B737-class -->
    <g style="fill: #7a4300" transform="translate(136.778125 140.383084) scale(0.11 -0.11)">
     <defs>
      <path id="ArialMT-33" d="M 269 1209 
L 831 1284 
Q 928 806 1161 595 
Q 1394 384 1728 384 
Q 2125 384 2398 659 
Q 2672 934 2672 1341 
Q 2672 1728 2419 1979 
Q 2166 2231 1775 2231 
Q 1616 2231 1378 2169 
L 1441 2663 
Q 1497 2656 1531 2656 
Q 1891 2656 2178 2843 
Q 2466 3031 2466 3422 
Q 2466 3731 2256 3934 
Q 2047 4138 1716 4138 
Q 1388 4138 1169 3931 
Q 950 3725 888 3313 
L 325 3413 
Q 428 3978 793 4289 
Q 1159 4600 1703 4600 
Q 2078 4600 2393 4439 
Q 2709 4278 2876 4000 
Q 3044 3722 3044 3409 
Q 3044 3113 2884 2869 
Q 2725 2625 2413 2481 
Q 2819 2388 3044 2092 
Q 3269 1797 3269 1353 
Q 3269 753 2831 336 
Q 2394 -81 1725 -81 
Q 1122 -81 723 278 
Q 325 638 269 1209 
z
" transform="scale(0.015625)"/>
     </defs>
     <use xlink:href="#ArialMT-42"/>
     <use xlink:href="#ArialMT-37" x="66.699219"/>
     <use xlink:href="#ArialMT-33" x="122.314453"/>
     <use xlink:href="#ArialMT-37" x="177.929688"/>
     <use xlink:href="#ArialMT-2d" x="233.544922"/>
     <use xlink:href="#ArialMT-63" x="266.845703"/>
     <use xlink:href="#ArialMT-6c" x="316.845703"/>
     <use xlink:href="#ArialMT-61" x="339.0625"/>
     <use xlink:href="#ArialMT-73" x="394.677734"/>
     <use xlink:href="#ArialMT-73" x="444.677734"/>
    </g>
   </g>
   <g id="patch_7">
    <path d="M 108.659237 64.156859 
Q 108.659237 55.922127 108.659237 47.687396 
L 106.784237 47.687396 
Q 107.784237 44.688335 108.784237 41.689275 
Q 109.784237 44.688335 110.784237 47.687396 
L 108.909237 47.687396 
Q 108.909237 55.922127 108.909237 64.156859 
L 108.659237 64.156859 
z
" style="fill: #808080; stroke: #808080; stroke-linecap: round"/>
   </g>
   <g id="text_16">
    <!-- Less Efficient -->
    <g style="fill: #808080" transform="translate(76.171816 74.532947) scale(0.11 -0.11)">
     <defs>
      <path id="ArialMT-4c" d="M 469 0 
L 469 4581 
L 1075 4581 
L 1075 541 
L 3331 541 
L 3331 0 
L 469 0 
z
" transform="scale(0.015625)"/>
      <path id="ArialMT-66" d="M 556 0 
L 556 2881 
L 59 2881 
L 59 3319 
L 556 3319 
L 556 3672 
Q 556 4006 616 4169 
Q 697 4388 901 4523 
Q 1106 4659 1475 4659 
Q 1713 4659 2000 4603 
L 1916 4113 
Q 1741 4144 1584 4144 
Q 1328 4144 1222 4034 
Q 1116 3925 1116 3625 
L 1116 3319 
L 1763 3319 
L 1763 2881 
L 1116 2881 
L 1116 0 
L 556 0 
z
" transform="scale(0.015625)"/>
     </defs>
     <use xlink:href="#ArialMT-4c"/>
     <use xlink:href="#ArialMT-65" x="55.615234"/>
     <use xlink:href="#ArialMT-73" x="111.230469"/>
     <use xlink:href="#ArialMT-73" x="161.230469"/>
     <use xlink:href="#ArialMT-20" x="211.230469"/>
     <use xlink:href="#ArialMT-45" x="239.013672"/>
     <use xlink:href="#ArialMT-66" x="305.712891"/>
     <use xlink:href="#ArialMT-66" x="331.746094"/>
     <use xlink:href="#ArialMT-69" x="359.529297"/>
     <use xlink:href="#ArialMT-63" x="381.746094"/>
     <use xlink:href="#ArialMT-69" x="431.746094"/>
     <use xlink:href="#ArialMT-65" x="453.962891"/>
     <use xlink:href="#ArialMT-6e" x="509.578125"/>
     <use xlink:href="#ArialMT-74" x="565.193359"/>
    </g>
   </g>
   <g id="patch_8">
    <path d="M 108.909237 225.039391 
Q 108.909237 233.274123 108.909237 241.508854 
L 110.784237 241.508854 
Q 109.784237 244.507915 108.784237 247.506975 
Q 107.784237 244.507915 106.784237 241.508854 
L 108.659237 241.508854 
Q 108.659237 233.274123 108.659237 225.039391 
L 108.909237 225.039391 
z
" style="fill: #808080; stroke: #808080; stroke-linecap: round"/>
   </g>
   <g id="text_17">
    <!-- More Efficient -->
    <g style="fill: #808080" transform="translate(75.259159 220.350647) scale(0.11 -0.11)">
     <use xlink:href="#ArialMT-4d"/>
     <use xlink:href="#ArialMT-6f" x="83.300781"/>
     <use xlink:href="#ArialMT-72" x="138.916016"/>
     <use xlink:href="#ArialMT-65" x="172.216797"/>
     <use xlink:href="#ArialMT-20" x="227.832031"/>
     <use xlink:href="#ArialMT-45" x="255.615234"/>
     <use xlink:href="#ArialMT-66" x="322.314453"/>
     <use xlink:href="#ArialMT-66" x="348.347656"/>
     <use xlink:href="#ArialMT-69" x="376.130859"/>
     <use xlink:href="#ArialMT-63" x="398.347656"/>
     <use xlink:href="#ArialMT-69" x="448.347656"/>
     <use xlink:href="#ArialMT-65" x="470.564453"/>
     <use xlink:href="#ArialMT-6e" x="526.179688"/>
     <use xlink:href="#ArialMT-74" x="581.794922"/>
    </g>
   </g>
   <g id="text_18">
    <!-- Off-Design Transport Efficiency and Market Coverage -->
    <g style="fill: #262626" transform="translate(52.474312 21.65625) scale(0.12 -0.12)">
     <defs>
      <path id="ArialMT-4f" d="M 309 2231 
Q 309 3372 921 4017 
Q 1534 4663 2503 4663 
Q 3138 4663 3647 4359 
Q 4156 4056 4423 3514 
Q 4691 2972 4691 2284 
Q 4691 1588 4409 1038 
Q 4128 488 3612 205 
Q 3097 -78 2500 -78 
Q 1853 -78 1343 234 
Q 834 547 571 1087 
Q 309 1628 309 2231 
z
M 934 2222 
Q 934 1394 1379 917 
Q 1825 441 2497 441 
Q 3181 441 3623 922 
Q 4066 1403 4066 2288 
Q 4066 2847 3877 3264 
Q 3688 3681 3323 3911 
Q 2959 4141 2506 4141 
Q 1863 4141 1398 3698 
Q 934 3256 934 2222 
z
" transform="scale(0.015625)"/>
      <path id="ArialMT-44" d="M 494 0 
L 494 4581 
L 2072 4581 
Q 2606 4581 2888 4516 
Q 3281 4425 3559 4188 
Q 3922 3881 4101 3404 
Q 4281 2928 4281 2316 
Q 4281 1794 4159 1391 
Q 4038 988 3847 723 
Q 3656 459 3429 307 
Q 3203 156 2883 78 
Q 2563 0 2147 0 
L 494 0 
z
M 1100 541 
L 2078 541 
Q 2531 541 2789 625 
Q 3047 709 3200 863 
Q 3416 1078 3536 1442 
Q 3656 1806 3656 2325 
Q 3656 3044 3420 3430 
Q 3184 3816 2847 3947 
Q 2603 4041 2063 4041 
L 1100 4041 
L 1100 541 
z
" transform="scale(0.015625)"/>
      <path id="ArialMT-64" d="M 2575 0 
L 2575 419 
Q 2259 -75 1647 -75 
Q 1250 -75 917 144 
Q 584 363 401 755 
Q 219 1147 219 1656 
Q 219 2153 384 2558 
Q 550 2963 881 3178 
Q 1213 3394 1622 3394 
Q 1922 3394 2156 3267 
Q 2391 3141 2538 2938 
L 2538 4581 
L 3097 4581 
L 3097 0 
L 2575 0 
z
M 797 1656 
Q 797 1019 1065 703 
Q 1334 388 1700 388 
Q 2069 388 2326 689 
Q 2584 991 2584 1609 
Q 2584 2291 2321 2609 
Q 2059 2928 1675 2928 
Q 1300 2928 1048 2622 
Q 797 2316 797 1656 
z
" transform="scale(0.015625)"/>
      <path id="ArialMT-43" d="M 3763 1606 
L 4369 1453 
Q 4178 706 3683 314 
Q 3188 -78 2472 -78 
Q 1731 -78 1267 223 
Q 803 525 561 1097 
Q 319 1669 319 2325 
Q 319 3041 592 3573 
Q 866 4106 1370 4382 
Q 1875 4659 2481 4659 
Q 3169 4659 3637 4309 
Q 4106 3959 4291 3325 
L 3694 3184 
Q 3534 3684 3231 3912 
Q 2928 4141 2469 4141 
Q 1941 4141 1586 3887 
Q 1231 3634 1087 3207 
Q 944 2781 944 2328 
Q 944 1744 1114 1308 
Q 1284 872 1643 656 
Q 2003 441 2422 441 
Q 2931 441 3284 734 
Q 3638 1028 3763 1606 
z
" transform="scale(0.015625)"/>
      <path id="ArialMT-76" d="M 1344 0 
L 81 3319 
L 675 3319 
L 1388 1331 
Q 1503 1009 1600 663 
Q 1675 925 1809 1294 
L 2547 3319 
L 3125 3319 
L 1869 0 
L 1344 0 
z
" transform="scale(0.015625)"/>
     </defs>
     <use xlink:href="#ArialMT-4f"/>
     <use xlink:href="#ArialMT-66" x="77.783203"/>
     <use xlink:href="#ArialMT-66" x="103.816406"/>
     <use xlink:href="#ArialMT-2d" x="131.599609"/>
     <use xlink:href="#ArialMT-44" x="164.900391"/>
     <use xlink:href="#ArialMT-65" x="237.117188"/>
     <use xlink:href="#ArialMT-73" x="292.732422"/>
     <use xlink:href="#ArialMT-69" x="342.732422"/>
     <use xlink:href="#ArialMT-67" x="364.949219"/>
     <use xlink:href="#ArialMT-6e" x="420.564453"/>
     <use xlink:href="#ArialMT-20" x="476.179688"/>
     <use xlink:href="#ArialMT-54" x="502.212891"/>
     <use xlink:href="#ArialMT-72" x="559.546875"/>
     <use xlink:href="#ArialMT-61" x="592.847656"/>
     <use xlink:href="#ArialMT-6e" x="648.462891"/>
     <use xlink:href="#ArialMT-73" x="704.078125"/>
     <use xlink:href="#ArialMT-70" x="754.078125"/>
     <use xlink:href="#ArialMT-6f" x="809.693359"/>
     <use xlink:href="#ArialMT-72" x="865.308594"/>
     <use xlink:href="#ArialMT-74" x="898.609375"/>
     <use xlink:href="#ArialMT-20" x="926.392578"/>
     <use xlink:href="#ArialMT-45" x="954.175781"/>
     <use xlink:href="#ArialMT-66" x="1020.875"/>
     <use xlink:href="#ArialMT-66" x="1046.908203"/>
     <use xlink:href="#ArialMT-69" x="1074.691406"/>
     <use xlink:href="#ArialMT-63" x="1096.908203"/>
     <use xlink:href="#ArialMT-69" x="1146.908203"/>
     <use xlink:href="#ArialMT-65" x="1169.125"/>
     <use xlink:href="#ArialMT-6e" x="1224.740234"/>
     <use xlink:href="#ArialMT-63" x="1280.355469"/>
     <use xlink:href="#ArialMT-79" x="1330.355469"/>
     <use xlink:href="#ArialMT-20" x="1380.355469"/>
     <use xlink:href="#ArialMT-61" x="1408.138672"/>
     <use xlink:href="#ArialMT-6e" x="1463.753906"/>
     <use xlink:href="#ArialMT-64" x="1519.369141"/>
     <use xlink:href="#ArialMT-20" x="1574.984375"/>
     <use xlink:href="#ArialMT-4d" x="1602.767578"/>
     <use xlink:href="#ArialMT-61" x="1686.068359"/>
     <use xlink:href="#ArialMT-72" x="1741.683594"/>
     <use xlink:href="#ArialMT-6b" x="1774.984375"/>
     <use xlink:href="#ArialMT-65" x="1824.984375"/>
     <use xlink:href="#ArialMT-74" x="1880.599609"/>
     <use xlink:href="#ArialMT-20" x="1908.382812"/>
     <use xlink:href="#ArialMT-43" x="1936.166016"/>
     <use xlink:href="#ArialMT-6f" x="2008.382812"/>
     <use xlink:href="#ArialMT-76" x="2063.998047"/>
     <use xlink:href="#ArialMT-65" x="2113.998047"/>
     <use xlink:href="#ArialMT-72" x="2169.613281"/>
     <use xlink:href="#ArialMT-61" x="2202.914062"/>
     <use xlink:href="#ArialMT-67" x="2258.529297"/>
     <use xlink:href="#ArialMT-65" x="2314.144531"/>
    </g>
   </g>
   <g id="legend_1">
    <g id="patch_9">
     <path d="M 130.717969 52.016094 
L 309.6175 52.016094 
Q 311.8175 52.016094 311.8175 49.816094 
L 311.8175 35.35625 
Q 311.8175 33.15625 309.6175 33.15625 
L 130.717969 33.15625 
Q 128.517969 33.15625 128.517969 35.35625 
L 128.517969 49.816094 
Q 128.517969 52.016094 130.717969 52.016094 
z
" style="fill: #eaeaf2; opacity: 0.8; stroke: #cccccc; stroke-linejoin: miter"/>
    </g>
    <g id="line2d_53">
     <path d="M 132.917969 41.579844 
L 143.917969 41.579844 
L 154.917969 41.579844 
" style="fill: none; stroke: #808080; stroke-width: 1.5; stroke-linecap: round"/>
    </g>
    <g id="text_19">
     <!-- Each line is a unique airplane -->
     <g style="fill: #262626" transform="translate(163.717969 45.429844) scale(0.11 -0.11)">
      <defs>
       <path id="ArialMT-68" d="M 422 0 
L 422 4581 
L 984 4581 
L 984 2938 
Q 1378 3394 1978 3394 
Q 2347 3394 2619 3248 
Q 2891 3103 3008 2847 
Q 3125 2591 3125 2103 
L 3125 0 
L 2563 0 
L 2563 2103 
Q 2563 2525 2380 2717 
Q 2197 2909 1863 2909 
Q 1613 2909 1392 2779 
Q 1172 2650 1078 2428 
Q 984 2206 984 1816 
L 984 0 
L 422 0 
z
" transform="scale(0.015625)"/>
       <path id="ArialMT-75" d="M 2597 0 
L 2597 488 
Q 2209 -75 1544 -75 
Q 1250 -75 995 37 
Q 741 150 617 320 
Q 494 491 444 738 
Q 409 903 409 1263 
L 409 3319 
L 972 3319 
L 972 1478 
Q 972 1038 1006 884 
Q 1059 663 1231 536 
Q 1403 409 1656 409 
Q 1909 409 2131 539 
Q 2353 669 2445 892 
Q 2538 1116 2538 1541 
L 2538 3319 
L 3100 3319 
L 3100 0 
L 2597 0 
z
" transform="scale(0.015625)"/>
       <path id="ArialMT-71" d="M 2538 -1272 
L 2538 353 
Q 2406 169 2170 47 
Q 1934 -75 1669 -75 
Q 1078 -75 651 397 
Q 225 869 225 1691 
Q 225 2191 398 2587 
Q 572 2984 901 3189 
Q 1231 3394 1625 3394 
Q 2241 3394 2594 2875 
L 2594 3319 
L 3100 3319 
L 3100 -1272 
L 2538 -1272 
z
M 803 1669 
Q 803 1028 1072 708 
Q 1341 388 1716 388 
Q 2075 388 2334 692 
Q 2594 997 2594 1619 
Q 2594 2281 2320 2615 
Q 2047 2950 1678 2950 
Q 1313 2950 1058 2639 
Q 803 2328 803 1669 
z
" transform="scale(0.015625)"/>
      </defs>
      <use xlink:href="#ArialMT-45"/>
      <use xlink:href="#ArialMT-61" x="66.699219"/>
      <use xlink:href="#ArialMT-63" x="122.314453"/>
      <use xlink:href="#ArialMT-68" x="172.314453"/>
      <use xlink:href="#ArialMT-20" x="227.929688"/>
      <use xlink:href="#ArialMT-6c" x="255.712891"/>
      <use xlink:href="#ArialMT-69" x="277.929688"/>
      <use xlink:href="#ArialMT-6e" x="300.146484"/>
      <use xlink:href="#ArialMT-65" x="355.761719"/>
      <use xlink:href="#ArialMT-20" x="411.376953"/>
      <use xlink:href="#ArialMT-69" x="439.160156"/>
      <use xlink:href="#ArialMT-73" x="461.376953"/>
      <use xlink:href="#ArialMT-20" x="511.376953"/>
      <use xlink:href="#ArialMT-61" x="539.160156"/>
      <use xlink:href="#ArialMT-20" x="594.775391"/>
      <use xlink:href="#ArialMT-75" x="622.558594"/>
      <use xlink:href="#ArialMT-6e" x="678.173828"/>
      <use xlink:href="#ArialMT-69" x="733.789062"/>
      <use xlink:href="#ArialMT-71" x="756.005859"/>
      <use xlink:href="#ArialMT-75" x="811.621094"/>
      <use xlink:href="#ArialMT-65" x="867.236328"/>
      <use xlink:href="#ArialMT-20" x="922.851562"/>
      <use xlink:href="#ArialMT-61" x="950.634766"/>
      <use xlink:href="#ArialMT-69" x="1006.25"/>
      <use xlink:href="#ArialMT-72" x="1028.466797"/>
      <use xlink:href="#ArialMT-70" x="1061.767578"/>
      <use xlink:href="#ArialMT-6c" x="1117.382812"/>
      <use xlink:href="#ArialMT-61" x="1139.599609"/>
      <use xlink:href="#ArialMT-6e" x="1195.214844"/>
      <use xlink:href="#ArialMT-65" x="1250.830078"/>
     </g>
    </g>
   </g>
  </g>
 </g>
 <defs>
  <clipPath id="p62f74decf0">
   <rect x="71.98425" y="27.65625" width="245.33325" height="233.88375"/>
  </clipPath>
 </defs>
</svg>
