<?xml version="1.0" encoding="utf-8" standalone="no"?>
<!DOCTYPE svg PUBLIC "-//W3C//DTD SVG 1.1//EN"
  "http://www.w3.org/Graphics/SVG/1.1/DTD/svg11.dtd">
<svg xmlns:xlink="http://www.w3.org/1999/xlink" width="345.6pt" height="309.6pt" viewBox="0 0 345.6 309.6" xmlns="http://www.w3.org/2000/svg" version="1.1">
 <metadata>
  <rdf:RDF xmlns:dc="http://purl.org/dc/elements/1.1/" xmlns:cc="http://creativecommons.org/ns#" xmlns:rdf="http://www.w3.org/1999/02/22-rdf-syntax-ns#">
   <cc:Work>
    <dc:type rdf:resource="http://purl.org/dc/dcmitype/StillImage"/>
    <dc:date>2023-05-01T11:29:08.916949</dc:date>
    <dc:format>image/svg+xml</dc:format>
    <dc:creator>
     <cc:Agent>
      <dc:title>Matplotlib v3.7.1, https://matplotlib.org/</dc:title>
     </cc:Agent>
    </dc:creator>
   </cc:Work>
  </rdf:RDF>
 </metadata>
 <defs>
  <style type="text/css">*{stroke-linejoin: round; stroke-linecap: butt}</style>
 </defs>
 <g id="figure_1">
  <g id="patch_1">
   <path d="M 0 309.6 
L 345.6 309.6 
L 345.6 0 
L 0 0 
z
" style="fill: #ffffff"/>
  </g>
  <g id="axes_1">
   <g id="patch_2">
    <path d="M 71.98425 261.54 
L 317.3175 261.54 
L 317.3175 27.65625 
L 71.98425 27.65625 
z
" style="fill: #eaeaf2"/>
   </g>
   <g id="matplotlib.axis_1">
    <g id="xtick_1">
     <g id="line2d_1">
      <path d="M 71.98425 261.54 
L 71.98425 27.65625 
" clip-path="url(#p7a2ec58b00)" style="fill: none; stroke: #ffffff; stroke-width: 1.6; stroke-linecap: round"/>
     </g>
     <g id="text_1">
      <!-- 0 -->
      <g style="fill: #262626" transform="translate(68.925734 278.913594) scale(0.11 -0.11)">
       <defs>
        <path id="ArialMT-30" d="M 266 2259 
Q 266 3072 433 3567 
Q 600 4063 929 4331 
Q 1259 4600 1759 4600 
Q 2128 4600 2406 4451 
Q 2684 4303 2865 4023 
Q 3047 3744 3150 3342 
Q 3253 2941 3253 2259 
Q 3253 1453 3087 958 
Q 2922 463 2592 192 
Q 2263 -78 1759 -78 
Q 1097 -78 719 397 
Q 266 969 266 2259 
z
M 844 2259 
Q 844 1131 1108 757 
Q 1372 384 1759 384 
Q 2147 384 2411 759 
Q 2675 1134 2675 2259 
Q 2675 3391 2411 3762 
Q 2147 4134 1753 4134 
Q 1366 4134 1134 3806 
Q 844 3388 844 2259 
z
" transform="scale(0.015625)"/>
       </defs>
       <use xlink:href="#ArialMT-30"/>
      </g>
     </g>
    </g>
    <g id="xtick_2">
     <g id="line2d_2">
      <path d="M 133.317562 261.54 
L 133.317562 27.65625 
" clip-path="url(#p7a2ec58b00)" style="fill: none; stroke: #ffffff; stroke-width: 1.6; stroke-linecap: round"/>
     </g>
     <g id="text_2">
      <!-- 2500 -->
      <g style="fill: #262626" transform="translate(121.0835 278.913594) scale(0.11 -0.11)">
       <defs>
        <path id="ArialMT-32" d="M 3222 541 
L 3222 0 
L 194 0 
Q 188 203 259 391 
Q 375 700 629 1000 
Q 884 1300 1366 1694 
Q 2113 2306 2375 2664 
Q 2638 3022 2638 3341 
Q 2638 3675 2398 3904 
Q 2159 4134 1775 4134 
Q 1369 4134 1125 3890 
Q 881 3647 878 3216 
L 300 3275 
Q 359 3922 746 4261 
Q 1134 4600 1788 4600 
Q 2447 4600 2831 4234 
Q 3216 3869 3216 3328 
Q 3216 3053 3103 2787 
Q 2991 2522 2730 2228 
Q 2469 1934 1863 1422 
Q 1356 997 1212 845 
Q 1069 694 975 541 
L 3222 541 
z
" transform="scale(0.015625)"/>
        <path id="ArialMT-35" d="M 266 1200 
L 856 1250 
Q 922 819 1161 601 
Q 1400 384 1738 384 
Q 2144 384 2425 690 
Q 2706 997 2706 1503 
Q 2706 1984 2436 2262 
Q 2166 2541 1728 2541 
Q 1456 2541 1237 2417 
Q 1019 2294 894 2097 
L 366 2166 
L 809 4519 
L 3088 4519 
L 3088 3981 
L 1259 3981 
L 1013 2750 
Q 1425 3038 1878 3038 
Q 2478 3038 2890 2622 
Q 3303 2206 3303 1553 
Q 3303 931 2941 478 
Q 2500 -78 1738 -78 
Q 1113 -78 717 272 
Q 322 622 266 1200 
z
" transform="scale(0.015625)"/>
       </defs>
       <use xlink:href="#ArialMT-32"/>
       <use xlink:href="#ArialMT-35" x="55.615234"/>
       <use xlink:href="#ArialMT-30" x="111.230469"/>
       <use xlink:href="#ArialMT-30" x="166.845703"/>
      </g>
     </g>
    </g>
    <g id="xtick_3">
     <g id="line2d_3">
      <path d="M 194.650875 261.54 
L 194.650875 27.65625 
" clip-path="url(#p7a2ec58b00)" style="fill: none; stroke: #ffffff; stroke-width: 1.6; stroke-linecap: round"/>
     </g>
     <g id="text_3">
      <!-- 5000 -->
      <g style="fill: #262626" transform="translate(182.416812 278.913594) scale(0.11 -0.11)">
       <use xlink:href="#ArialMT-35"/>
       <use xlink:href="#ArialMT-30" x="55.615234"/>
       <use xlink:href="#ArialMT-30" x="111.230469"/>
       <use xlink:href="#ArialMT-30" x="166.845703"/>
      </g>
     </g>
    </g>
    <g id="xtick_4">
     <g id="line2d_4">
      <path d="M 255.984187 261.54 
L 255.984187 27.65625 
" clip-path="url(#p7a2ec58b00)" style="fill: none; stroke: #ffffff; stroke-width: 1.6; stroke-linecap: round"/>
     </g>
     <g id="text_4">
      <!-- 7500 -->
      <g style="fill: #262626" transform="translate(243.750125 278.913594) scale(0.11 -0.11)">
       <defs>
        <path id="ArialMT-37" d="M 303 3981 
L 303 4522 
L 3269 4522 
L 3269 4084 
Q 2831 3619 2401 2847 
Q 1972 2075 1738 1259 
Q 1569 684 1522 0 
L 944 0 
Q 953 541 1156 1306 
Q 1359 2072 1739 2783 
Q 2119 3494 2547 3981 
L 303 3981 
z
" transform="scale(0.015625)"/>
       </defs>
       <use xlink:href="#ArialMT-37"/>
       <use xlink:href="#ArialMT-35" x="55.615234"/>
       <use xlink:href="#ArialMT-30" x="111.230469"/>
       <use xlink:href="#ArialMT-30" x="166.845703"/>
      </g>
     </g>
    </g>
    <g id="xtick_5">
     <g id="line2d_5">
      <path d="M 317.3175 261.54 
L 317.3175 27.65625 
" clip-path="url(#p7a2ec58b00)" style="fill: none; stroke: #ffffff; stroke-width: 1.6; stroke-linecap: round"/>
     </g>
     <g id="text_5">
      <!-- 10000 -->
      <g style="fill: #262626" transform="translate(302.024922 278.913594) scale(0.11 -0.11)">
       <defs>
        <path id="ArialMT-31" d="M 2384 0 
L 1822 0 
L 1822 3584 
Q 1619 3391 1289 3197 
Q 959 3003 697 2906 
L 697 3450 
Q 1169 3672 1522 3987 
Q 1875 4303 2022 4600 
L 2384 4600 
L 2384 0 
z
" transform="scale(0.015625)"/>
       </defs>
       <use xlink:href="#ArialMT-31"/>
       <use xlink:href="#ArialMT-30" x="55.615234"/>
       <use xlink:href="#ArialMT-30" x="111.230469"/>
       <use xlink:href="#ArialMT-30" x="166.845703"/>
       <use xlink:href="#ArialMT-30" x="222.460938"/>
      </g>
     </g>
    </g>
    <g id="xtick_6">
     <g id="line2d_6">
      <path d="M 84.250912 261.54 
L 84.250912 27.65625 
" clip-path="url(#p7a2ec58b00)" style="fill: none; stroke: #ffffff; stroke-width: 0.7; stroke-linecap: round"/>
     </g>
    </g>
    <g id="xtick_7">
     <g id="line2d_7">
      <path d="M 96.517575 261.54 
L 96.517575 27.65625 
" clip-path="url(#p7a2ec58b00)" style="fill: none; stroke: #ffffff; stroke-width: 0.7; stroke-linecap: round"/>
     </g>
    </g>
    <g id="xtick_8">
     <g id="line2d_8">
      <path d="M 108.784237 261.54 
L 108.784237 27.65625 
" clip-path="url(#p7a2ec58b00)" style="fill: none; stroke: #ffffff; stroke-width: 0.7; stroke-linecap: round"/>
     </g>
    </g>
    <g id="xtick_9">
     <g id="line2d_9">
      <path d="M 121.0509 261.54 
L 121.0509 27.65625 
" clip-path="url(#p7a2ec58b00)" style="fill: none; stroke: #ffffff; stroke-width: 0.7; stroke-linecap: round"/>
     </g>
    </g>
    <g id="xtick_10">
     <g id="line2d_10">
      <path d="M 145.584225 261.54 
L 145.584225 27.65625 
" clip-path="url(#p7a2ec58b00)" style="fill: none; stroke: #ffffff; stroke-width: 0.7; stroke-linecap: round"/>
     </g>
    </g>
    <g id="xtick_11">
     <g id="line2d_11">
      <path d="M 157.850887 261.54 
L 157.850887 27.65625 
" clip-path="url(#p7a2ec58b00)" style="fill: none; stroke: #ffffff; stroke-width: 0.7; stroke-linecap: round"/>
     </g>
    </g>
    <g id="xtick_12">
     <g id="line2d_12">
      <path d="M 170.11755 261.54 
L 170.11755 27.65625 
" clip-path="url(#p7a2ec58b00)" style="fill: none; stroke: #ffffff; stroke-width: 0.7; stroke-linecap: round"/>
     </g>
    </g>
    <g id="xtick_13">
     <g id="line2d_13">
      <path d="M 182.384212 261.54 
L 182.384212 27.65625 
" clip-path="url(#p7a2ec58b00)" style="fill: none; stroke: #ffffff; stroke-width: 0.7; stroke-linecap: round"/>
     </g>
    </g>
    <g id="xtick_14">
     <g id="line2d_14">
      <path d="M 206.917537 261.54 
L 206.917537 27.65625 
" clip-path="url(#p7a2ec58b00)" style="fill: none; stroke: #ffffff; stroke-width: 0.7; stroke-linecap: round"/>
     </g>
    </g>
    <g id="xtick_15">
     <g id="line2d_15">
      <path d="M 219.1842 261.54 
L 219.1842 27.65625 
" clip-path="url(#p7a2ec58b00)" style="fill: none; stroke: #ffffff; stroke-width: 0.7; stroke-linecap: round"/>
     </g>
    </g>
    <g id="xtick_16">
     <g id="line2d_16">
      <path d="M 231.450862 261.54 
L 231.450862 27.65625 
" clip-path="url(#p7a2ec58b00)" style="fill: none; stroke: #ffffff; stroke-width: 0.7; stroke-linecap: round"/>
     </g>
    </g>
    <g id="xtick_17">
     <g id="line2d_17">
      <path d="M 243.717525 261.54 
L 243.717525 27.65625 
" clip-path="url(#p7a2ec58b00)" style="fill: none; stroke: #ffffff; stroke-width: 0.7; stroke-linecap: round"/>
     </g>
    </g>
    <g id="xtick_18">
     <g id="line2d_18">
      <path d="M 268.25085 261.54 
L 268.25085 27.65625 
" clip-path="url(#p7a2ec58b00)" style="fill: none; stroke: #ffffff; stroke-width: 0.7; stroke-linecap: round"/>
     </g>
    </g>
    <g id="xtick_19">
     <g id="line2d_19">
      <path d="M 280.517512 261.54 
L 280.517512 27.65625 
" clip-path="url(#p7a2ec58b00)" style="fill: none; stroke: #ffffff; stroke-width: 0.7; stroke-linecap: round"/>
     </g>
    </g>
    <g id="xtick_20">
     <g id="line2d_20">
      <path d="M 292.784175 261.54 
L 292.784175 27.65625 
" clip-path="url(#p7a2ec58b00)" style="fill: none; stroke: #ffffff; stroke-width: 0.7; stroke-linecap: round"/>
     </g>
    </g>
    <g id="xtick_21">
     <g id="line2d_21">
      <path d="M 305.050837 261.54 
L 305.050837 27.65625 
" clip-path="url(#p7a2ec58b00)" style="fill: none; stroke: #ffffff; stroke-width: 0.7; stroke-linecap: round"/>
     </g>
    </g>
    <g id="text_6">
     <!-- Mission Range [nmi] -->
     <g style="fill: #262626" transform="translate(140.299312 293.689219) scale(0.12 -0.12)">
      <defs>
       <path id="ArialMT-4d" d="M 475 0 
L 475 4581 
L 1388 4581 
L 2472 1338 
Q 2622 884 2691 659 
Q 2769 909 2934 1394 
L 4031 4581 
L 4847 4581 
L 4847 0 
L 4263 0 
L 4263 3834 
L 2931 0 
L 2384 0 
L 1059 3900 
L 1059 0 
L 475 0 
z
" transform="scale(0.015625)"/>
       <path id="ArialMT-69" d="M 425 3934 
L 425 4581 
L 988 4581 
L 988 3934 
L 425 3934 
z
M 425 0 
L 425 3319 
L 988 3319 
L 988 0 
L 425 0 
z
" transform="scale(0.015625)"/>
       <path id="ArialMT-73" d="M 197 991 
L 753 1078 
Q 800 744 1014 566 
Q 1228 388 1613 388 
Q 2000 388 2187 545 
Q 2375 703 2375 916 
Q 2375 1106 2209 1216 
Q 2094 1291 1634 1406 
Q 1016 1563 777 1677 
Q 538 1791 414 1992 
Q 291 2194 291 2438 
Q 291 2659 392 2848 
Q 494 3038 669 3163 
Q 800 3259 1026 3326 
Q 1253 3394 1513 3394 
Q 1903 3394 2198 3281 
Q 2494 3169 2634 2976 
Q 2775 2784 2828 2463 
L 2278 2388 
Q 2241 2644 2061 2787 
Q 1881 2931 1553 2931 
Q 1166 2931 1000 2803 
Q 834 2675 834 2503 
Q 834 2394 903 2306 
Q 972 2216 1119 2156 
Q 1203 2125 1616 2013 
Q 2213 1853 2448 1751 
Q 2684 1650 2818 1456 
Q 2953 1263 2953 975 
Q 2953 694 2789 445 
Q 2625 197 2315 61 
Q 2006 -75 1616 -75 
Q 969 -75 630 194 
Q 291 463 197 991 
z
" transform="scale(0.015625)"/>
       <path id="ArialMT-6f" d="M 213 1659 
Q 213 2581 725 3025 
Q 1153 3394 1769 3394 
Q 2453 3394 2887 2945 
Q 3322 2497 3322 1706 
Q 3322 1066 3130 698 
Q 2938 331 2570 128 
Q 2203 -75 1769 -75 
Q 1072 -75 642 372 
Q 213 819 213 1659 
z
M 791 1659 
Q 791 1022 1069 705 
Q 1347 388 1769 388 
Q 2188 388 2466 706 
Q 2744 1025 2744 1678 
Q 2744 2294 2464 2611 
Q 2184 2928 1769 2928 
Q 1347 2928 1069 2612 
Q 791 2297 791 1659 
z
" transform="scale(0.015625)"/>
       <path id="ArialMT-6e" d="M 422 0 
L 422 3319 
L 928 3319 
L 928 2847 
Q 1294 3394 1984 3394 
Q 2284 3394 2536 3286 
Q 2788 3178 2913 3003 
Q 3038 2828 3088 2588 
Q 3119 2431 3119 2041 
L 3119 0 
L 2556 0 
L 2556 2019 
Q 2556 2363 2490 2533 
Q 2425 2703 2258 2804 
Q 2091 2906 1866 2906 
Q 1506 2906 1245 2678 
Q 984 2450 984 1813 
L 984 0 
L 422 0 
z
" transform="scale(0.015625)"/>
       <path id="ArialMT-20" transform="scale(0.015625)"/>
       <path id="ArialMT-52" d="M 503 0 
L 503 4581 
L 2534 4581 
Q 3147 4581 3465 4457 
Q 3784 4334 3975 4021 
Q 4166 3709 4166 3331 
Q 4166 2844 3850 2509 
Q 3534 2175 2875 2084 
Q 3116 1969 3241 1856 
Q 3506 1613 3744 1247 
L 4541 0 
L 3778 0 
L 3172 953 
Q 2906 1366 2734 1584 
Q 2563 1803 2427 1890 
Q 2291 1978 2150 2013 
Q 2047 2034 1813 2034 
L 1109 2034 
L 1109 0 
L 503 0 
z
M 1109 2559 
L 2413 2559 
Q 2828 2559 3062 2645 
Q 3297 2731 3419 2920 
Q 3541 3109 3541 3331 
Q 3541 3656 3305 3865 
Q 3069 4075 2559 4075 
L 1109 4075 
L 1109 2559 
z
" transform="scale(0.015625)"/>
       <path id="ArialMT-61" d="M 2588 409 
Q 2275 144 1986 34 
Q 1697 -75 1366 -75 
Q 819 -75 525 192 
Q 231 459 231 875 
Q 231 1119 342 1320 
Q 453 1522 633 1644 
Q 813 1766 1038 1828 
Q 1203 1872 1538 1913 
Q 2219 1994 2541 2106 
Q 2544 2222 2544 2253 
Q 2544 2597 2384 2738 
Q 2169 2928 1744 2928 
Q 1347 2928 1158 2789 
Q 969 2650 878 2297 
L 328 2372 
Q 403 2725 575 2942 
Q 747 3159 1072 3276 
Q 1397 3394 1825 3394 
Q 2250 3394 2515 3294 
Q 2781 3194 2906 3042 
Q 3031 2891 3081 2659 
Q 3109 2516 3109 2141 
L 3109 1391 
Q 3109 606 3145 398 
Q 3181 191 3288 0 
L 2700 0 
Q 2613 175 2588 409 
z
M 2541 1666 
Q 2234 1541 1622 1453 
Q 1275 1403 1131 1340 
Q 988 1278 909 1158 
Q 831 1038 831 891 
Q 831 666 1001 516 
Q 1172 366 1500 366 
Q 1825 366 2078 508 
Q 2331 650 2450 897 
Q 2541 1088 2541 1459 
L 2541 1666 
z
" transform="scale(0.015625)"/>
       <path id="ArialMT-67" d="M 319 -275 
L 866 -356 
Q 900 -609 1056 -725 
Q 1266 -881 1628 -881 
Q 2019 -881 2231 -725 
Q 2444 -569 2519 -288 
Q 2563 -116 2559 434 
Q 2191 0 1641 0 
Q 956 0 581 494 
Q 206 988 206 1678 
Q 206 2153 378 2554 
Q 550 2956 876 3175 
Q 1203 3394 1644 3394 
Q 2231 3394 2613 2919 
L 2613 3319 
L 3131 3319 
L 3131 450 
Q 3131 -325 2973 -648 
Q 2816 -972 2473 -1159 
Q 2131 -1347 1631 -1347 
Q 1038 -1347 672 -1080 
Q 306 -813 319 -275 
z
M 784 1719 
Q 784 1066 1043 766 
Q 1303 466 1694 466 
Q 2081 466 2343 764 
Q 2606 1063 2606 1700 
Q 2606 2309 2336 2618 
Q 2066 2928 1684 2928 
Q 1309 2928 1046 2623 
Q 784 2319 784 1719 
z
" transform="scale(0.015625)"/>
       <path id="ArialMT-65" d="M 2694 1069 
L 3275 997 
Q 3138 488 2766 206 
Q 2394 -75 1816 -75 
Q 1088 -75 661 373 
Q 234 822 234 1631 
Q 234 2469 665 2931 
Q 1097 3394 1784 3394 
Q 2450 3394 2872 2941 
Q 3294 2488 3294 1666 
Q 3294 1616 3291 1516 
L 816 1516 
Q 847 969 1125 678 
Q 1403 388 1819 388 
Q 2128 388 2347 550 
Q 2566 713 2694 1069 
z
M 847 1978 
L 2700 1978 
Q 2663 2397 2488 2606 
Q 2219 2931 1791 2931 
Q 1403 2931 1139 2672 
Q 875 2413 847 1978 
z
" transform="scale(0.015625)"/>
       <path id="ArialMT-5b" d="M 434 -1272 
L 434 4581 
L 1675 4581 
L 1675 4116 
L 997 4116 
L 997 -806 
L 1675 -806 
L 1675 -1272 
L 434 -1272 
z
" transform="scale(0.015625)"/>
       <path id="ArialMT-6d" d="M 422 0 
L 422 3319 
L 925 3319 
L 925 2853 
Q 1081 3097 1340 3245 
Q 1600 3394 1931 3394 
Q 2300 3394 2536 3241 
Q 2772 3088 2869 2813 
Q 3263 3394 3894 3394 
Q 4388 3394 4653 3120 
Q 4919 2847 4919 2278 
L 4919 0 
L 4359 0 
L 4359 2091 
Q 4359 2428 4304 2576 
Q 4250 2725 4106 2815 
Q 3963 2906 3769 2906 
Q 3419 2906 3187 2673 
Q 2956 2441 2956 1928 
L 2956 0 
L 2394 0 
L 2394 2156 
Q 2394 2531 2256 2718 
Q 2119 2906 1806 2906 
Q 1569 2906 1367 2781 
Q 1166 2656 1075 2415 
Q 984 2175 984 1722 
L 984 0 
L 422 0 
z
" transform="scale(0.015625)"/>
       <path id="ArialMT-5d" d="M 1363 -1272 
L 122 -1272 
L 122 -806 
L 800 -806 
L 800 4116 
L 122 4116 
L 122 4581 
L 1363 4581 
L 1363 -1272 
z
" transform="scale(0.015625)"/>
      </defs>
      <use xlink:href="#ArialMT-4d"/>
      <use xlink:href="#ArialMT-69" x="83.300781"/>
      <use xlink:href="#ArialMT-73" x="105.517578"/>
      <use xlink:href="#ArialMT-73" x="155.517578"/>
      <use xlink:href="#ArialMT-69" x="205.517578"/>
      <use xlink:href="#ArialMT-6f" x="227.734375"/>
      <use xlink:href="#ArialMT-6e" x="283.349609"/>
      <use xlink:href="#ArialMT-20" x="338.964844"/>
      <use xlink:href="#ArialMT-52" x="366.748047"/>
      <use xlink:href="#ArialMT-61" x="438.964844"/>
      <use xlink:href="#ArialMT-6e" x="494.580078"/>
      <use xlink:href="#ArialMT-67" x="550.195312"/>
      <use xlink:href="#ArialMT-65" x="605.810547"/>
      <use xlink:href="#ArialMT-20" x="661.425781"/>
      <use xlink:href="#ArialMT-5b" x="689.208984"/>
      <use xlink:href="#ArialMT-6e" x="716.992188"/>
      <use xlink:href="#ArialMT-6d" x="772.607422"/>
      <use xlink:href="#ArialMT-69" x="855.908203"/>
      <use xlink:href="#ArialMT-5d" x="878.125"/>
     </g>
    </g>
   </g>
   <g id="matplotlib.axis_2">
    <g id="ytick_1">
     <g id="line2d_22">
      <path d="M 71.98425 261.54 
L 317.3175 261.54 
" clip-path="url(#p7a2ec58b00)" style="fill: none; stroke: #ffffff; stroke-width: 1.6; stroke-linecap: round"/>
     </g>
     <g id="text_7">
      <!-- 0.00 -->
      <g style="fill: #262626" transform="translate(41.077219 265.476797) scale(0.11 -0.11)">
       <defs>
        <path id="ArialMT-2e" d="M 581 0 
L 581 641 
L 1222 641 
L 1222 0 
L 581 0 
z
" transform="scale(0.015625)"/>
       </defs>
       <use xlink:href="#ArialMT-30"/>
       <use xlink:href="#ArialMT-2e" x="55.615234"/>
       <use xlink:href="#ArialMT-30" x="83.398438"/>
       <use xlink:href="#ArialMT-30" x="139.013672"/>
      </g>
     </g>
    </g>
    <g id="ytick_2">
     <g id="line2d_23">
      <path d="M 71.98425 214.76325 
L 317.3175 214.76325 
" clip-path="url(#p7a2ec58b00)" style="fill: none; stroke: #ffffff; stroke-width: 1.6; stroke-linecap: round"/>
     </g>
     <g id="text_8">
      <!-- 0.25 -->
      <g style="fill: #262626" transform="translate(41.077219 218.700047) scale(0.11 -0.11)">
       <use xlink:href="#ArialMT-30"/>
       <use xlink:href="#ArialMT-2e" x="55.615234"/>
       <use xlink:href="#ArialMT-32" x="83.398438"/>
       <use xlink:href="#ArialMT-35" x="139.013672"/>
      </g>
     </g>
    </g>
    <g id="ytick_3">
     <g id="line2d_24">
      <path d="M 71.98425 167.9865 
L 317.3175 167.9865 
" clip-path="url(#p7a2ec58b00)" style="fill: none; stroke: #ffffff; stroke-width: 1.6; stroke-linecap: round"/>
     </g>
     <g id="text_9">
      <!-- 0.50 -->
      <g style="fill: #262626" transform="translate(41.077219 171.923297) scale(0.11 -0.11)">
       <use xlink:href="#ArialMT-30"/>
       <use xlink:href="#ArialMT-2e" x="55.615234"/>
       <use xlink:href="#ArialMT-35" x="83.398438"/>
       <use xlink:href="#ArialMT-30" x="139.013672"/>
      </g>
     </g>
    </g>
    <g id="ytick_4">
     <g id="line2d_25">
      <path d="M 71.98425 121.20975 
L 317.3175 121.20975 
" clip-path="url(#p7a2ec58b00)" style="fill: none; stroke: #ffffff; stroke-width: 1.6; stroke-linecap: round"/>
     </g>
     <g id="text_10">
      <!-- 0.75 -->
      <g style="fill: #262626" transform="translate(41.077219 125.146547) scale(0.11 -0.11)">
       <use xlink:href="#ArialMT-30"/>
       <use xlink:href="#ArialMT-2e" x="55.615234"/>
       <use xlink:href="#ArialMT-37" x="83.398438"/>
       <use xlink:href="#ArialMT-35" x="139.013672"/>
      </g>
     </g>
    </g>
    <g id="ytick_5">
     <g id="line2d_26">
      <path d="M 71.98425 74.433 
L 317.3175 74.433 
" clip-path="url(#p7a2ec58b00)" style="fill: none; stroke: #ffffff; stroke-width: 1.6; stroke-linecap: round"/>
     </g>
     <g id="text_11">
      <!-- 1.00 -->
      <g style="fill: #262626" transform="translate(41.077219 78.369797) scale(0.11 -0.11)">
       <use xlink:href="#ArialMT-31"/>
       <use xlink:href="#ArialMT-2e" x="55.615234"/>
       <use xlink:href="#ArialMT-30" x="83.398438"/>
       <use xlink:href="#ArialMT-30" x="139.013672"/>
      </g>
     </g>
    </g>
    <g id="ytick_6">
     <g id="line2d_27">
      <path d="M 71.98425 27.65625 
L 317.3175 27.65625 
" clip-path="url(#p7a2ec58b00)" style="fill: none; stroke: #ffffff; stroke-width: 1.6; stroke-linecap: round"/>
     </g>
     <g id="text_12">
      <!-- 1.25 -->
      <g style="fill: #262626" transform="translate(41.077219 31.593047) scale(0.11 -0.11)">
       <use xlink:href="#ArialMT-31"/>
       <use xlink:href="#ArialMT-2e" x="55.615234"/>
       <use xlink:href="#ArialMT-32" x="83.398438"/>
       <use xlink:href="#ArialMT-35" x="139.013672"/>
      </g>
     </g>
    </g>
    <g id="ytick_7">
     <g id="line2d_28">
      <path d="M 71.98425 252.18465 
L 317.3175 252.18465 
" clip-path="url(#p7a2ec58b00)" style="fill: none; stroke: #ffffff; stroke-width: 0.7; stroke-linecap: round"/>
     </g>
    </g>
    <g id="ytick_8">
     <g id="line2d_29">
      <path d="M 71.98425 242.8293 
L 317.3175 242.8293 
" clip-path="url(#p7a2ec58b00)" style="fill: none; stroke: #ffffff; stroke-width: 0.7; stroke-linecap: round"/>
     </g>
    </g>
    <g id="ytick_9">
     <g id="line2d_30">
      <path d="M 71.98425 233.47395 
L 317.3175 233.47395 
" clip-path="url(#p7a2ec58b00)" style="fill: none; stroke: #ffffff; stroke-width: 0.7; stroke-linecap: round"/>
     </g>
    </g>
    <g id="ytick_10">
     <g id="line2d_31">
      <path d="M 71.98425 224.1186 
L 317.3175 224.1186 
" clip-path="url(#p7a2ec58b00)" style="fill: none; stroke: #ffffff; stroke-width: 0.7; stroke-linecap: round"/>
     </g>
    </g>
    <g id="ytick_11">
     <g id="line2d_32">
      <path d="M 71.98425 205.4079 
L 317.3175 205.4079 
" clip-path="url(#p7a2ec58b00)" style="fill: none; stroke: #ffffff; stroke-width: 0.7; stroke-linecap: round"/>
     </g>
    </g>
    <g id="ytick_12">
     <g id="line2d_33">
      <path d="M 71.98425 196.05255 
L 317.3175 196.05255 
" clip-path="url(#p7a2ec58b00)" style="fill: none; stroke: #ffffff; stroke-width: 0.7; stroke-linecap: round"/>
     </g>
    </g>
    <g id="ytick_13">
     <g id="line2d_34">
      <path d="M 71.98425 186.6972 
L 317.3175 186.6972 
" clip-path="url(#p7a2ec58b00)" style="fill: none; stroke: #ffffff; stroke-width: 0.7; stroke-linecap: round"/>
     </g>
    </g>
    <g id="ytick_14">
     <g id="line2d_35">
      <path d="M 71.98425 177.34185 
L 317.3175 177.34185 
" clip-path="url(#p7a2ec58b00)" style="fill: none; stroke: #ffffff; stroke-width: 0.7; stroke-linecap: round"/>
     </g>
    </g>
    <g id="ytick_15">
     <g id="line2d_36">
      <path d="M 71.98425 158.63115 
L 317.3175 158.63115 
" clip-path="url(#p7a2ec58b00)" style="fill: none; stroke: #ffffff; stroke-width: 0.7; stroke-linecap: round"/>
     </g>
    </g>
    <g id="ytick_16">
     <g id="line2d_37">
      <path d="M 71.98425 149.2758 
L 317.3175 149.2758 
" clip-path="url(#p7a2ec58b00)" style="fill: none; stroke: #ffffff; stroke-width: 0.7; stroke-linecap: round"/>
     </g>
    </g>
    <g id="ytick_17">
     <g id="line2d_38">
      <path d="M 71.98425 139.92045 
L 317.3175 139.92045 
" clip-path="url(#p7a2ec58b00)" style="fill: none; stroke: #ffffff; stroke-width: 0.7; stroke-linecap: round"/>
     </g>
    </g>
    <g id="ytick_18">
     <g id="line2d_39">
      <path d="M 71.98425 130.5651 
L 317.3175 130.5651 
" clip-path="url(#p7a2ec58b00)" style="fill: none; stroke: #ffffff; stroke-width: 0.7; stroke-linecap: round"/>
     </g>
    </g>
    <g id="ytick_19">
     <g id="line2d_40">
      <path d="M 71.98425 111.8544 
L 317.3175 111.8544 
" clip-path="url(#p7a2ec58b00)" style="fill: none; stroke: #ffffff; stroke-width: 0.7; stroke-linecap: round"/>
     </g>
    </g>
    <g id="ytick_20">
     <g id="line2d_41">
      <path d="M 71.98425 102.49905 
L 317.3175 102.49905 
" clip-path="url(#p7a2ec58b00)" style="fill: none; stroke: #ffffff; stroke-width: 0.7; stroke-linecap: round"/>
     </g>
    </g>
    <g id="ytick_21">
     <g id="line2d_42">
      <path d="M 71.98425 93.1437 
L 317.3175 93.1437 
" clip-path="url(#p7a2ec58b00)" style="fill: none; stroke: #ffffff; stroke-width: 0.7; stroke-linecap: round"/>
     </g>
    </g>
    <g id="ytick_22">
     <g id="line2d_43">
      <path d="M 71.98425 83.78835 
L 317.3175 83.78835 
" clip-path="url(#p7a2ec58b00)" style="fill: none; stroke: #ffffff; stroke-width: 0.7; stroke-linecap: round"/>
     </g>
    </g>
    <g id="ytick_23">
     <g id="line2d_44">
      <path d="M 71.98425 65.07765 
L 317.3175 65.07765 
" clip-path="url(#p7a2ec58b00)" style="fill: none; stroke: #ffffff; stroke-width: 0.7; stroke-linecap: round"/>
     </g>
    </g>
    <g id="ytick_24">
     <g id="line2d_45">
      <path d="M 71.98425 55.7223 
L 317.3175 55.7223 
" clip-path="url(#p7a2ec58b00)" style="fill: none; stroke: #ffffff; stroke-width: 0.7; stroke-linecap: round"/>
     </g>
    </g>
    <g id="ytick_25">
     <g id="line2d_46">
      <path d="M 71.98425 46.36695 
L 317.3175 46.36695 
" clip-path="url(#p7a2ec58b00)" style="fill: none; stroke: #ffffff; stroke-width: 0.7; stroke-linecap: round"/>
     </g>
    </g>
    <g id="ytick_26">
     <g id="line2d_47">
      <path d="M 71.98425 37.0116 
L 317.3175 37.0116 
" clip-path="url(#p7a2ec58b00)" style="fill: none; stroke: #ffffff; stroke-width: 0.7; stroke-linecap: round"/>
     </g>
    </g>
    <g id="text_13">
     <!-- Transport Energy -->
     <g style="fill: #262626" transform="translate(21.543219 190.723125) rotate(-90) scale(0.12 -0.12)">
      <defs>
       <path id="ArialMT-54" d="M 1659 0 
L 1659 4041 
L 150 4041 
L 150 4581 
L 3781 4581 
L 3781 4041 
L 2266 4041 
L 2266 0 
L 1659 0 
z
" transform="scale(0.015625)"/>
       <path id="ArialMT-72" d="M 416 0 
L 416 3319 
L 922 3319 
L 922 2816 
Q 1116 3169 1280 3281 
Q 1444 3394 1641 3394 
Q 1925 3394 2219 3213 
L 2025 2691 
Q 1819 2813 1613 2813 
Q 1428 2813 1281 2702 
Q 1134 2591 1072 2394 
Q 978 2094 978 1738 
L 978 0 
L 416 0 
z
" transform="scale(0.015625)"/>
       <path id="ArialMT-70" d="M 422 -1272 
L 422 3319 
L 934 3319 
L 934 2888 
Q 1116 3141 1344 3267 
Q 1572 3394 1897 3394 
Q 2322 3394 2647 3175 
Q 2972 2956 3137 2557 
Q 3303 2159 3303 1684 
Q 3303 1175 3120 767 
Q 2938 359 2589 142 
Q 2241 -75 1856 -75 
Q 1575 -75 1351 44 
Q 1128 163 984 344 
L 984 -1272 
L 422 -1272 
z
M 931 1641 
Q 931 1000 1190 694 
Q 1450 388 1819 388 
Q 2194 388 2461 705 
Q 2728 1022 2728 1688 
Q 2728 2322 2467 2637 
Q 2206 2953 1844 2953 
Q 1484 2953 1207 2617 
Q 931 2281 931 1641 
z
" transform="scale(0.015625)"/>
       <path id="ArialMT-74" d="M 1650 503 
L 1731 6 
Q 1494 -44 1306 -44 
Q 1000 -44 831 53 
Q 663 150 594 308 
Q 525 466 525 972 
L 525 2881 
L 113 2881 
L 113 3319 
L 525 3319 
L 525 4141 
L 1084 4478 
L 1084 3319 
L 1650 3319 
L 1650 2881 
L 1084 2881 
L 1084 941 
Q 1084 700 1114 631 
Q 1144 563 1211 522 
Q 1278 481 1403 481 
Q 1497 481 1650 503 
z
" transform="scale(0.015625)"/>
       <path id="ArialMT-45" d="M 506 0 
L 506 4581 
L 3819 4581 
L 3819 4041 
L 1113 4041 
L 1113 2638 
L 3647 2638 
L 3647 2100 
L 1113 2100 
L 1113 541 
L 3925 541 
L 3925 0 
L 506 0 
z
" transform="scale(0.015625)"/>
       <path id="ArialMT-79" d="M 397 -1278 
L 334 -750 
Q 519 -800 656 -800 
Q 844 -800 956 -737 
Q 1069 -675 1141 -563 
Q 1194 -478 1313 -144 
Q 1328 -97 1363 -6 
L 103 3319 
L 709 3319 
L 1400 1397 
Q 1534 1031 1641 628 
Q 1738 1016 1872 1384 
L 2581 3319 
L 3144 3319 
L 1881 -56 
Q 1678 -603 1566 -809 
Q 1416 -1088 1222 -1217 
Q 1028 -1347 759 -1347 
Q 597 -1347 397 -1278 
z
" transform="scale(0.015625)"/>
      </defs>
      <use xlink:href="#ArialMT-54"/>
      <use xlink:href="#ArialMT-72" x="57.333984"/>
      <use xlink:href="#ArialMT-61" x="90.634766"/>
      <use xlink:href="#ArialMT-6e" x="146.25"/>
      <use xlink:href="#ArialMT-73" x="201.865234"/>
      <use xlink:href="#ArialMT-70" x="251.865234"/>
      <use xlink:href="#ArialMT-6f" x="307.480469"/>
      <use xlink:href="#ArialMT-72" x="363.095703"/>
      <use xlink:href="#ArialMT-74" x="396.396484"/>
      <use xlink:href="#ArialMT-20" x="424.179688"/>
      <use xlink:href="#ArialMT-45" x="451.962891"/>
      <use xlink:href="#ArialMT-6e" x="518.662109"/>
      <use xlink:href="#ArialMT-65" x="574.277344"/>
      <use xlink:href="#ArialMT-72" x="629.892578"/>
      <use xlink:href="#ArialMT-67" x="663.193359"/>
      <use xlink:href="#ArialMT-79" x="718.808594"/>
     </g>
     <!-- [MJ / passenger-km] -->
     <g style="fill: #262626" transform="translate(34.551594 198.943125) rotate(-90) scale(0.12 -0.12)">
      <defs>
       <path id="ArialMT-4a" d="M 184 1300 
L 731 1375 
Q 753 850 928 656 
Q 1103 463 1413 463 
Q 1641 463 1806 567 
Q 1972 672 2034 851 
Q 2097 1031 2097 1425 
L 2097 4581 
L 2703 4581 
L 2703 1459 
Q 2703 884 2564 568 
Q 2425 253 2123 87 
Q 1822 -78 1416 -78 
Q 813 -78 492 269 
Q 172 616 184 1300 
z
" transform="scale(0.015625)"/>
       <path id="ArialMT-2f" d="M 0 -78 
L 1328 4659 
L 1778 4659 
L 453 -78 
L 0 -78 
z
" transform="scale(0.015625)"/>
       <path id="ArialMT-2d" d="M 203 1375 
L 203 1941 
L 1931 1941 
L 1931 1375 
L 203 1375 
z
" transform="scale(0.015625)"/>
       <path id="ArialMT-6b" d="M 425 0 
L 425 4581 
L 988 4581 
L 988 1969 
L 2319 3319 
L 3047 3319 
L 1778 2088 
L 3175 0 
L 2481 0 
L 1384 1697 
L 988 1316 
L 988 0 
L 425 0 
z
" transform="scale(0.015625)"/>
      </defs>
      <use xlink:href="#ArialMT-5b"/>
      <use xlink:href="#ArialMT-4d" x="27.783203"/>
      <use xlink:href="#ArialMT-4a" x="111.083984"/>
      <use xlink:href="#ArialMT-20" x="161.083984"/>
      <use xlink:href="#ArialMT-2f" x="188.867188"/>
      <use xlink:href="#ArialMT-20" x="216.650391"/>
      <use xlink:href="#ArialMT-70" x="244.433594"/>
      <use xlink:href="#ArialMT-61" x="300.048828"/>
      <use xlink:href="#ArialMT-73" x="355.664062"/>
      <use xlink:href="#ArialMT-73" x="405.664062"/>
      <use xlink:href="#ArialMT-65" x="455.664062"/>
      <use xlink:href="#ArialMT-6e" x="511.279297"/>
      <use xlink:href="#ArialMT-67" x="566.894531"/>
      <use xlink:href="#ArialMT-65" x="622.509766"/>
      <use xlink:href="#ArialMT-72" x="678.125"/>
      <use xlink:href="#ArialMT-2d" x="711.425781"/>
      <use xlink:href="#ArialMT-6b" x="744.726562"/>
      <use xlink:href="#ArialMT-6d" x="794.726562"/>
      <use xlink:href="#ArialMT-5d" x="878.027344"/>
     </g>
    </g>
   </g>
   <g id="PolyCollection_1">
    <path d="M 72.184263 -187107000000000067725991878852608 
L 72.184263 105.906026 
L 74.20057 105.7654 
L 76.213243 105.624859 
L 78.222293 105.484403 
L 80.227735 105.34403 
L 82.229581 105.203742 
L 84.227844 105.063537 
L 86.222537 104.923415 
L 88.213673 104.783376 
L 90.201264 104.643421 
L 92.185323 104.503548 
L 94.165862 104.363758 
L 96.142893 104.22405 
L 98.116431 104.084424 
L 100.086485 103.94488 
L 102.05307 103.805417 
L 104.016196 103.666036 
L 105.975877 103.526736 
L 107.932124 103.387517 
L 109.88495 103.248379 
L 111.834365 103.109322 
L 113.780383 102.970345 
L 115.723014 102.831448 
L 117.662271 102.692631 
L 119.598166 102.553893 
L 121.53071 102.415236 
L 123.459914 102.276657 
L 125.385791 102.138158 
L 127.308351 101.999738 
L 129.227606 101.861396 
L 131.143567 101.723133 
L 133.056246 101.584948 
L 134.965654 101.446841 
L 136.871802 101.308812 
L 138.774701 101.170861 
L 140.674362 101.032987 
L 142.570797 100.895191 
L 144.464015 100.757472 
L 146.354029 100.619829 
L 148.240849 100.482264 
L 150.124485 100.344775 
L 152.004948 100.207362 
L 153.88225 100.070026 
L 155.7564 99.932765 
L 157.627409 99.79558 
L 159.495288 99.658471 
L 161.360048 99.521437 
L 163.221698 99.384478 
L 165.080248 99.247595 
L 166.93571 99.110786 
L 168.788094 98.974051 
L 170.637409 98.837392 
L 172.483666 98.700806 
L 174.326875 98.564295 
L 176.167046 98.427857 
L 178.004189 98.291494 
L 179.838314 98.155203 
L 181.669431 98.018986 
L 183.497549 97.882843 
L 185.322679 97.746772 
L 187.14483 97.610774 
L 188.964012 97.474849 
L 190.780234 97.338996 
L 192.593507 97.203216 
L 194.40384 97.067507 
L 196.211242 96.931871 
L 198.015722 96.796306 
L 199.817291 96.660813 
L 201.615958 96.525391 
L 203.411731 96.390041 
L 205.204621 96.254762 
L 206.994636 96.119553 
L 208.781785 95.984416 
L 210.566079 95.849349 
L 212.347525 95.714352 
L 214.126134 95.579426 
L 215.901913 95.444569 
L 217.674873 95.309783 
L 219.445021 95.175066 
L 221.212368 95.040419 
L 222.976921 94.905841 
L 224.738689 94.771333 
L 226.497682 94.636893 
L 228.253908 94.502523 
L 230.007376 94.368221 
L 231.758094 94.233988 
L 233.506071 94.099823 
L 235.251315 93.965726 
L 236.993836 93.831698 
L 238.733641 93.697738 
L 240.47074 93.563845 
L 242.205139 93.43002 
L 243.936849 93.296263 
L 245.665877 93.162573 
L 247.392231 93.02895 
L 249.11592 92.895394 
L 250.836951 92.761905 
L 252.555334 92.628482 
L 254.271076 92.495127 
L 255.984186 92.361837 
L 255.984186 92.361837 
L 256.270246 90.90256 
L 256.5572 89.413227 
L 256.845051 87.8929 
L 257.133803 86.340601 
L 257.423461 84.755312 
L 257.714028 83.135969 
L 258.00551 81.481462 
L 258.29791 79.790635 
L 258.591233 78.062277 
L 258.885483 76.295124 
L 259.180664 74.487857 
L 259.476782 72.639092 
L 259.77384 70.747385 
L 260.071844 68.811221 
L 260.370796 66.829015 
L 260.670703 64.799104 
L 260.971569 62.719745 
L 261.273398 60.589109 
L 261.576195 58.405276 
L 261.879964 56.166227 
L 262.184711 53.869843 
L 262.49044 51.513891 
L 262.797156 49.096024 
L 263.104863 46.613768 
L 263.413567 44.064517 
L 263.723272 41.445521 
L 264.033984 38.753878 
L 264.345706 35.986522 
L 264.658445 33.140214 
L 264.972205 30.211526 
L 265.286991 27.196828 
L 265.602808 24.092275 
L 265.919661 20.89379 
L 266.237555 17.597042 
L 266.556497 14.197434 
L 266.876489 10.690074 
L 267.197539 7.069758 
L 267.519651 3.330939 
L 267.842831 -0.532298 
L 268.167083 -4.526269 
L 268.492413 -8.657724 
L 268.818827 -12.933888 
L 269.14633 -17.362497 
L 269.474928 -21.951853 
L 269.804626 -26.71087 
L 270.135429 -31.649133 
L 270.467343 -36.776963 
L 270.800374 -42.10549 
L 271.134527 -47.646733 
L 271.469809 -53.413687 
L 271.806224 -59.420431 
L 272.143779 -65.682238 
L 272.48248 -72.215707 
L 272.822332 -79.03891 
L 273.163341 -86.171556 
L 273.505513 -93.635184 
L 273.848854 -101.453381 
L 274.19337 -109.652028 
L 274.539068 -118.259588 
L 274.885953 -127.307436 
L 275.234031 -136.830242 
L 275.583309 -146.866412 
L 275.933793 -157.45861 
L 276.285488 -168.654361 
L 276.638403 -180.506764 
L 276.992542 -193.075335 
L 277.347912 -206.42701 
L 277.70452 -220.63733 
L 278.062372 -235.791877 
L 278.421475 -251.987996 
L 278.781835 -269.336893 
L 279.143459 -287.966184 
L 279.506354 -308.023045 
L 279.870526 -329.678111 
L 280.235982 -353.130333 
L 280.602729 -378.613118 
L 280.970774 -406.40212 
L 281.340123 -436.82525 
L 281.710784 -470.275679 
L 282.082764 -507.228922 
L 282.45607 -548.265585 
L 282.830708 -594.102094 
L 283.206687 -645.632881 
L 283.584013 -703.989327 
L 283.962693 -770.623792 
L 284.342736 -847.432136 
L 284.724147 -936.936996 
L 285.106936 -1042.570141 
L 285.491108 -1169.122579 
L 285.876673 -1323.491462 
L 286.263636 -1515.980323 
L 286.652007 -1762.698238 
L 287.041792 -2090.319173 
L 287.433 -2546.441549 
L 287.825639 -3225.111475 
L 288.219715 -4341.760151 
L 288.615238 -6522.340044 
L 289.012214 -12670.860126 
L 289.410653 -142907.691547 
L 289.410653 -187107000000000067725991878852608 
L 289.410653 -187107000000000067725991878852608 
L 289.012214 -187107000000000067725991878852608 
L 288.615238 -187107000000000067725991878852608 
L 288.219715 -187107000000000067725991878852608 
L 287.825639 -187107000000000067725991878852608 
L 287.433 -187107000000000067725991878852608 
L 287.041792 -187107000000000067725991878852608 
L 286.652007 -187107000000000067725991878852608 
L 286.263636 -187107000000000067725991878852608 
L 285.876673 -187107000000000067725991878852608 
L 285.491108 -187107000000000067725991878852608 
L 285.106936 -187107000000000067725991878852608 
L 284.724147 -187107000000000067725991878852608 
L 284.342736 -187107000000000067725991878852608 
L 283.962693 -187107000000000067725991878852608 
L 283.584013 -187107000000000067725991878852608 
L 283.206687 -187107000000000067725991878852608 
L 282.830708 -187107000000000067725991878852608 
L 282.45607 -187107000000000067725991878852608 
L 282.082764 -187107000000000067725991878852608 
L 281.710784 -187107000000000067725991878852608 
L 281.340123 -187107000000000067725991878852608 
L 280.970774 -187107000000000067725991878852608 
L 280.602729 -187107000000000067725991878852608 
L 280.235982 -187107000000000067725991878852608 
L 279.870526 -187107000000000067725991878852608 
L 279.506354 -187107000000000067725991878852608 
L 279.143459 -187107000000000067725991878852608 
L 278.781835 -187107000000000067725991878852608 
L 278.421475 -187107000000000067725991878852608 
L 278.062372 -187107000000000067725991878852608 
L 277.70452 -187107000000000067725991878852608 
L 277.347912 -187107000000000067725991878852608 
L 276.992542 -187107000000000067725991878852608 
L 276.638403 -187107000000000067725991878852608 
L 276.285488 -187107000000000067725991878852608 
L 275.933793 -187107000000000067725991878852608 
L 275.583309 -187107000000000067725991878852608 
L 275.234031 -187107000000000067725991878852608 
L 274.885953 -187107000000000067725991878852608 
L 274.539068 -187107000000000067725991878852608 
L 274.19337 -187107000000000067725991878852608 
L 273.848854 -187107000000000067725991878852608 
L 273.505513 -187107000000000067725991878852608 
L 273.163341 -187107000000000067725991878852608 
L 272.822332 -187107000000000067725991878852608 
L 272.48248 -187107000000000067725991878852608 
L 272.143779 -187107000000000067725991878852608 
L 271.806224 -187107000000000067725991878852608 
L 271.469809 -187107000000000067725991878852608 
L 271.134527 -187107000000000067725991878852608 
L 270.800374 -187107000000000067725991878852608 
L 270.467343 -187107000000000067725991878852608 
L 270.135429 -187107000000000067725991878852608 
L 269.804626 -187107000000000067725991878852608 
L 269.474928 -187107000000000067725991878852608 
L 269.14633 -187107000000000067725991878852608 
L 268.818827 -187107000000000067725991878852608 
L 268.492413 -187107000000000067725991878852608 
L 268.167083 -187107000000000067725991878852608 
L 267.842831 -187107000000000067725991878852608 
L 267.519651 -187107000000000067725991878852608 
L 267.197539 -187107000000000067725991878852608 
L 266.876489 -187107000000000067725991878852608 
L 266.556497 -187107000000000067725991878852608 
L 266.237555 -187107000000000067725991878852608 
L 265.919661 -187107000000000067725991878852608 
L 265.602808 -187107000000000067725991878852608 
L 265.286991 -187107000000000067725991878852608 
L 264.972205 -187107000000000067725991878852608 
L 264.658445 -187107000000000067725991878852608 
L 264.345706 -187107000000000067725991878852608 
L 264.033984 -187107000000000067725991878852608 
L 263.723272 -187107000000000067725991878852608 
L 263.413567 -187107000000000067725991878852608 
L 263.104863 -187107000000000067725991878852608 
L 262.797156 -187107000000000067725991878852608 
L 262.49044 -187107000000000067725991878852608 
L 262.184711 -187107000000000067725991878852608 
L 261.879964 -187107000000000067725991878852608 
L 261.576195 -187107000000000067725991878852608 
L 261.273398 -187107000000000067725991878852608 
L 260.971569 -187107000000000067725991878852608 
L 260.670703 -187107000000000067725991878852608 
L 260.370796 -187107000000000067725991878852608 
L 260.071844 -187107000000000067725991878852608 
L 259.77384 -187107000000000067725991878852608 
L 259.476782 -187107000000000067725991878852608 
L 259.180664 -187107000000000067725991878852608 
L 258.885483 -187107000000000067725991878852608 
L 258.591233 -187107000000000067725991878852608 
L 258.29791 -187107000000000067725991878852608 
L 258.00551 -187107000000000067725991878852608 
L 257.714028 -187107000000000067725991878852608 
L 257.423461 -187107000000000067725991878852608 
L 257.133803 -187107000000000067725991878852608 
L 256.845051 -187107000000000067725991878852608 
L 256.5572 -187107000000000067725991878852608 
L 256.270246 -187107000000000067725991878852608 
L 255.984186 -187107000000000067725991878852608 
L 255.984186 -187107000000000067725991878852608 
L 254.271076 -187107000000000067725991878852608 
L 252.555334 -187107000000000067725991878852608 
L 250.836951 -187107000000000067725991878852608 
L 249.11592 -187107000000000067725991878852608 
L 247.392231 -187107000000000067725991878852608 
L 245.665877 -187107000000000067725991878852608 
L 243.936849 -187107000000000067725991878852608 
L 242.205139 -187107000000000067725991878852608 
L 240.47074 -187107000000000067725991878852608 
L 238.733641 -187107000000000067725991878852608 
L 236.993836 -187107000000000067725991878852608 
L 235.251315 -187107000000000067725991878852608 
L 233.506071 -187107000000000067725991878852608 
L 231.758094 -187107000000000067725991878852608 
L 230.007376 -187107000000000067725991878852608 
L 228.253908 -187107000000000067725991878852608 
L 226.497682 -187107000000000067725991878852608 
L 224.738689 -187107000000000067725991878852608 
L 222.976921 -187107000000000067725991878852608 
L 221.212368 -187107000000000067725991878852608 
L 219.445021 -187107000000000067725991878852608 
L 217.674873 -187107000000000067725991878852608 
L 215.901913 -187107000000000067725991878852608 
L 214.126134 -187107000000000067725991878852608 
L 212.347525 -187107000000000067725991878852608 
L 210.566079 -187107000000000067725991878852608 
L 208.781785 -187107000000000067725991878852608 
L 206.994636 -187107000000000067725991878852608 
L 205.204621 -187107000000000067725991878852608 
L 203.411731 -187107000000000067725991878852608 
L 201.615958 -187107000000000067725991878852608 
L 199.817291 -187107000000000067725991878852608 
L 198.015722 -187107000000000067725991878852608 
L 196.211242 -187107000000000067725991878852608 
L 194.40384 -187107000000000067725991878852608 
L 192.593507 -187107000000000067725991878852608 
L 190.780234 -187107000000000067725991878852608 
L 188.964012 -187107000000000067725991878852608 
L 187.14483 -187107000000000067725991878852608 
L 185.322679 -187107000000000067725991878852608 
L 183.497549 -187107000000000067725991878852608 
L 181.669431 -187107000000000067725991878852608 
L 179.838314 -187107000000000067725991878852608 
L 178.004189 -187107000000000067725991878852608 
L 176.167046 -187107000000000067725991878852608 
L 174.326875 -187107000000000067725991878852608 
L 172.483666 -187107000000000067725991878852608 
L 170.637409 -187107000000000067725991878852608 
L 168.788094 -187107000000000067725991878852608 
L 166.93571 -187107000000000067725991878852608 
L 165.080248 -187107000000000067725991878852608 
L 163.221698 -187107000000000067725991878852608 
L 161.360048 -187107000000000067725991878852608 
L 159.495288 -187107000000000067725991878852608 
L 157.627409 -187107000000000067725991878852608 
L 155.7564 -187107000000000067725991878852608 
L 153.88225 -187107000000000067725991878852608 
L 152.004948 -187107000000000067725991878852608 
L 150.124485 -187107000000000067725991878852608 
L 148.240849 -187107000000000067725991878852608 
L 146.354029 -187107000000000067725991878852608 
L 144.464015 -187107000000000067725991878852608 
L 142.570797 -187107000000000067725991878852608 
L 140.674362 -187107000000000067725991878852608 
L 138.774701 -187107000000000067725991878852608 
L 136.871802 -187107000000000067725991878852608 
L 134.965654 -187107000000000067725991878852608 
L 133.056246 -187107000000000067725991878852608 
L 131.143567 -187107000000000067725991878852608 
L 129.227606 -187107000000000067725991878852608 
L 127.308351 -187107000000000067725991878852608 
L 125.385791 -187107000000000067725991878852608 
L 123.459914 -187107000000000067725991878852608 
L 121.53071 -187107000000000067725991878852608 
L 119.598166 -187107000000000067725991878852608 
L 117.662271 -187107000000000067725991878852608 
L 115.723014 -187107000000000067725991878852608 
L 113.780383 -187107000000000067725991878852608 
L 111.834365 -187107000000000067725991878852608 
L 109.88495 -187107000000000067725991878852608 
L 107.932124 -187107000000000067725991878852608 
L 105.975877 -187107000000000067725991878852608 
L 104.016196 -187107000000000067725991878852608 
L 102.05307 -187107000000000067725991878852608 
L 100.086485 -187107000000000067725991878852608 
L 98.116431 -187107000000000067725991878852608 
L 96.142893 -187107000000000067725991878852608 
L 94.165862 -187107000000000067725991878852608 
L 92.185323 -187107000000000067725991878852608 
L 90.201264 -187107000000000067725991878852608 
L 88.213673 -187107000000000067725991878852608 
L 86.222537 -187107000000000067725991878852608 
L 84.227844 -187107000000000067725991878852608 
L 82.229581 -187107000000000067725991878852608 
L 80.227735 -187107000000000067725991878852608 
L 78.222293 -187107000000000067725991878852608 
L 76.213243 -187107000000000067725991878852608 
L 74.20057 -187107000000000067725991878852608 
L 72.184263 -187107000000000067725991878852608 
z
" clip-path="url(#p7a2ec58b00)" style="fill: #00769d; fill-opacity: 0.1; stroke: #00769d; stroke-opacity: 0.1"/>
   </g>
   <g id="PolyCollection_2">
    <path d="M 72.080071 -187107000000000067725991878852608 
L 72.080071 126.741961 
L 73.046544 126.68464 
L 74.012195 126.627336 
L 74.977027 126.570049 
L 75.941041 126.512777 
L 76.904238 126.455522 
L 77.866619 126.398283 
L 78.828187 126.341059 
L 79.788941 126.283852 
L 80.748885 126.226662 
L 81.708018 126.169487 
L 82.666343 126.112328 
L 83.62386 126.055185 
L 84.580572 125.998058 
L 85.536479 125.940948 
L 86.491583 125.883853 
L 87.445885 125.826774 
L 88.399387 125.769711 
L 89.35209 125.712664 
L 90.303995 125.655633 
L 91.255103 125.598618 
L 92.205416 125.541618 
L 93.154936 125.484635 
L 94.103663 125.427667 
L 95.051599 125.370715 
L 95.998745 125.313779 
L 96.945102 125.256859 
L 97.890673 125.199954 
L 98.835457 125.143065 
L 99.779457 125.086191 
L 100.722673 125.029334 
L 101.665108 124.972492 
L 102.606762 124.915665 
L 103.547636 124.858855 
L 104.487733 124.802059 
L 105.427052 124.74528 
L 106.365596 124.688516 
L 107.303366 124.631767 
L 108.240363 124.575034 
L 109.176588 124.518317 
L 110.112043 124.461615 
L 111.046728 124.404928 
L 111.980646 124.348257 
L 112.913797 124.291601 
L 113.846182 124.234961 
L 114.777804 124.178336 
L 115.708662 124.121727 
L 116.638759 124.065133 
L 117.568096 124.008554 
L 118.496673 123.95199 
L 119.424492 123.895442 
L 120.351555 123.838909 
L 121.277862 123.782391 
L 122.203416 123.725889 
L 123.128216 123.669401 
L 124.052264 123.612929 
L 124.975562 123.556472 
L 125.89811 123.50003 
L 126.819911 123.443604 
L 127.740964 123.387192 
L 128.661272 123.330796 
L 129.580836 123.274414 
L 130.499656 123.218048 
L 131.417734 123.161697 
L 132.335071 123.105361 
L 133.251668 123.04904 
L 134.167527 122.992733 
L 135.082649 122.936442 
L 135.997035 122.880166 
L 136.910685 122.823905 
L 137.823602 122.767658 
L 138.735786 122.711427 
L 139.647239 122.65521 
L 140.557962 122.599009 
L 141.467956 122.542822 
L 142.377222 122.48665 
L 143.285761 122.430492 
L 144.193574 122.37435 
L 145.100663 122.318222 
L 146.007029 122.262109 
L 146.912673 122.206011 
L 147.817596 122.149928 
L 148.721799 122.093859 
L 149.625283 122.037805 
L 150.52805 121.981766 
L 151.4301 121.925741 
L 152.331435 121.869731 
L 153.232056 121.813736 
L 154.131964 121.757755 
L 155.031161 121.701789 
L 155.929646 121.645837 
L 156.827422 121.5899 
L 157.72449 121.533977 
L 158.62085 121.478069 
L 159.516504 121.422176 
L 160.411452 121.366297 
L 161.305697 121.310432 
L 162.199239 121.254582 
L 163.092079 121.198746 
L 163.984218 121.142925 
L 163.984218 121.142925 
L 164.153249 119.971852 
L 164.322903 118.776658 
L 164.493183 117.556591 
L 164.664093 116.310865 
L 164.835635 115.038663 
L 165.007815 113.739131 
L 165.180634 112.41138 
L 165.354097 111.05448 
L 165.528207 109.66746 
L 165.702968 108.249306 
L 165.878384 106.798959 
L 166.054458 105.315309 
L 166.231194 103.797195 
L 166.408596 102.243404 
L 166.586667 100.652662 
L 166.765411 99.023635 
L 166.944833 97.354924 
L 167.124935 95.645061 
L 167.305723 93.892506 
L 167.487199 92.095638 
L 167.669368 90.252757 
L 167.852234 88.36207 
L 168.0358 86.421694 
L 168.220071 84.429643 
L 168.405051 82.383827 
L 168.590744 80.282037 
L 168.777154 78.121945 
L 168.964285 75.901091 
L 169.152142 73.616875 
L 169.340728 71.266546 
L 169.530048 68.84719 
L 169.720106 66.355723 
L 169.910907 63.788871 
L 170.102455 61.143159 
L 170.294754 58.414899 
L 170.487808 55.600163 
L 170.681623 52.694776 
L 170.876203 49.694286 
L 171.071552 46.593945 
L 171.267674 43.388685 
L 171.464575 40.073089 
L 171.662259 36.641359 
L 171.860731 33.087285 
L 172.059995 29.404206 
L 172.260056 25.584967 
L 172.46092 21.621876 
L 172.66259 17.50665 
L 172.865072 13.230357 
L 173.068371 8.783352 
L 173.272491 4.155204 
L 173.477438 -0.665385 
L 173.683216 -5.690672 
L 173.889831 -10.933979 
L 174.097288 -16.409807 
L 174.305592 -22.133977 
L 174.514748 -28.123773 
L 174.724761 -34.398124 
L 174.935638 -40.977801 
L 175.147382 -47.885648 
L 175.359999 -55.146843 
L 175.573496 -62.78921 
L 175.787876 -70.843573 
L 176.003147 -79.34417 
L 176.219313 -88.329142 
L 176.436379 -97.841104 
L 176.654353 -107.92782 
L 176.873238 -118.643007 
L 177.093042 -130.047291 
L 177.31377 -142.209355 
L 177.535427 -155.207322 
L 177.75802 -169.130439 
L 177.981554 -184.081124 
L 178.206036 -200.177491 
L 178.431471 -217.556481 
L 178.657866 -236.377761 
L 178.885226 -256.828649 
L 179.113559 -279.130368 
L 179.34287 -303.54608 
L 179.573165 -330.391322 
L 179.804452 -360.047711 
L 180.036735 -392.981209 
L 180.270022 -429.766775 
L 180.50432 -471.122228 
L 180.739635 -517.955545 
L 180.975973 -571.432305 
L 181.213341 -633.074011 
L 181.451746 -704.905179 
L 181.691195 -789.679944 
L 181.931694 -891.243279 
L 182.173252 -1015.130427 
L 182.415873 -1169.610386 
L 182.659567 -1367.611336 
L 182.904339 -1630.540205 
L 183.150197 -1996.596635 
L 183.397149 -2541.256398 
L 183.6452 -3437.411678 
L 183.89436 -5187.414435 
L 184.144635 -10121.848352 
L 184.396033 -114642.12949 
L 184.396033 -187107000000000067725991878852608 
L 184.396033 -187107000000000067725991878852608 
L 184.144635 -187107000000000067725991878852608 
L 183.89436 -187107000000000067725991878852608 
L 183.6452 -187107000000000067725991878852608 
L 183.397149 -187107000000000067725991878852608 
L 183.150197 -187107000000000067725991878852608 
L 182.904339 -187107000000000067725991878852608 
L 182.659567 -187107000000000067725991878852608 
L 182.415873 -187107000000000067725991878852608 
L 182.173252 -187107000000000067725991878852608 
L 181.931694 -187107000000000067725991878852608 
L 181.691195 -187107000000000067725991878852608 
L 181.451746 -187107000000000067725991878852608 
L 181.213341 -187107000000000067725991878852608 
L 180.975973 -187107000000000067725991878852608 
L 180.739635 -187107000000000067725991878852608 
L 180.50432 -187107000000000067725991878852608 
L 180.270022 -187107000000000067725991878852608 
L 180.036735 -187107000000000067725991878852608 
L 179.804452 -187107000000000067725991878852608 
L 179.573165 -187107000000000067725991878852608 
L 179.34287 -187107000000000067725991878852608 
L 179.113559 -187107000000000067725991878852608 
L 178.885226 -187107000000000067725991878852608 
L 178.657866 -187107000000000067725991878852608 
L 178.431471 -187107000000000067725991878852608 
L 178.206036 -187107000000000067725991878852608 
L 177.981554 -187107000000000067725991878852608 
L 177.75802 -187107000000000067725991878852608 
L 177.535427 -187107000000000067725991878852608 
L 177.31377 -187107000000000067725991878852608 
L 177.093042 -187107000000000067725991878852608 
L 176.873238 -187107000000000067725991878852608 
L 176.654353 -187107000000000067725991878852608 
L 176.436379 -187107000000000067725991878852608 
L 176.219313 -187107000000000067725991878852608 
L 176.003147 -187107000000000067725991878852608 
L 175.787876 -187107000000000067725991878852608 
L 175.573496 -187107000000000067725991878852608 
L 175.359999 -187107000000000067725991878852608 
L 175.147382 -187107000000000067725991878852608 
L 174.935638 -187107000000000067725991878852608 
L 174.724761 -187107000000000067725991878852608 
L 174.514748 -187107000000000067725991878852608 
L 174.305592 -187107000000000067725991878852608 
L 174.097288 -187107000000000067725991878852608 
L 173.889831 -187107000000000067725991878852608 
L 173.683216 -187107000000000067725991878852608 
L 173.477438 -187107000000000067725991878852608 
L 173.272491 -187107000000000067725991878852608 
L 173.068371 -187107000000000067725991878852608 
L 172.865072 -187107000000000067725991878852608 
L 172.66259 -187107000000000067725991878852608 
L 172.46092 -187107000000000067725991878852608 
L 172.260056 -187107000000000067725991878852608 
L 172.059995 -187107000000000067725991878852608 
L 171.860731 -187107000000000067725991878852608 
L 171.662259 -187107000000000067725991878852608 
L 171.464575 -187107000000000067725991878852608 
L 171.267674 -187107000000000067725991878852608 
L 171.071552 -187107000000000067725991878852608 
L 170.876203 -187107000000000067725991878852608 
L 170.681623 -187107000000000067725991878852608 
L 170.487808 -187107000000000067725991878852608 
L 170.294754 -187107000000000067725991878852608 
L 170.102455 -187107000000000067725991878852608 
L 169.910907 -187107000000000067725991878852608 
L 169.720106 -187107000000000067725991878852608 
L 169.530048 -187107000000000067725991878852608 
L 169.340728 -187107000000000067725991878852608 
L 169.152142 -187107000000000067725991878852608 
L 168.964285 -187107000000000067725991878852608 
L 168.777154 -187107000000000067725991878852608 
L 168.590744 -187107000000000067725991878852608 
L 168.405051 -187107000000000067725991878852608 
L 168.220071 -187107000000000067725991878852608 
L 168.0358 -187107000000000067725991878852608 
L 167.852234 -187107000000000067725991878852608 
L 167.669368 -187107000000000067725991878852608 
L 167.487199 -187107000000000067725991878852608 
L 167.305723 -187107000000000067725991878852608 
L 167.124935 -187107000000000067725991878852608 
L 166.944833 -187107000000000067725991878852608 
L 166.765411 -187107000000000067725991878852608 
L 166.586667 -187107000000000067725991878852608 
L 166.408596 -187107000000000067725991878852608 
L 166.231194 -187107000000000067725991878852608 
L 166.054458 -187107000000000067725991878852608 
L 165.878384 -187107000000000067725991878852608 
L 165.702968 -187107000000000067725991878852608 
L 165.528207 -187107000000000067725991878852608 
L 165.354097 -187107000000000067725991878852608 
L 165.180634 -187107000000000067725991878852608 
L 165.007815 -187107000000000067725991878852608 
L 164.835635 -187107000000000067725991878852608 
L 164.664093 -187107000000000067725991878852608 
L 164.493183 -187107000000000067725991878852608 
L 164.322903 -187107000000000067725991878852608 
L 164.153249 -187107000000000067725991878852608 
L 163.984218 -187107000000000067725991878852608 
L 163.984218 -187107000000000067725991878852608 
L 163.092079 -187107000000000067725991878852608 
L 162.199239 -187107000000000067725991878852608 
L 161.305697 -187107000000000067725991878852608 
L 160.411452 -187107000000000067725991878852608 
L 159.516504 -187107000000000067725991878852608 
L 158.62085 -187107000000000067725991878852608 
L 157.72449 -187107000000000067725991878852608 
L 156.827422 -187107000000000067725991878852608 
L 155.929646 -187107000000000067725991878852608 
L 155.031161 -187107000000000067725991878852608 
L 154.131964 -187107000000000067725991878852608 
L 153.232056 -187107000000000067725991878852608 
L 152.331435 -187107000000000067725991878852608 
L 151.4301 -187107000000000067725991878852608 
L 150.52805 -187107000000000067725991878852608 
L 149.625283 -187107000000000067725991878852608 
L 148.721799 -187107000000000067725991878852608 
L 147.817596 -187107000000000067725991878852608 
L 146.912673 -187107000000000067725991878852608 
L 146.007029 -187107000000000067725991878852608 
L 145.100663 -187107000000000067725991878852608 
L 144.193574 -187107000000000067725991878852608 
L 143.285761 -187107000000000067725991878852608 
L 142.377222 -187107000000000067725991878852608 
L 141.467956 -187107000000000067725991878852608 
L 140.557962 -187107000000000067725991878852608 
L 139.647239 -187107000000000067725991878852608 
L 138.735786 -187107000000000067725991878852608 
L 137.823602 -187107000000000067725991878852608 
L 136.910685 -187107000000000067725991878852608 
L 135.997035 -187107000000000067725991878852608 
L 135.082649 -187107000000000067725991878852608 
L 134.167527 -187107000000000067725991878852608 
L 133.251668 -187107000000000067725991878852608 
L 132.335071 -187107000000000067725991878852608 
L 131.417734 -187107000000000067725991878852608 
L 130.499656 -187107000000000067725991878852608 
L 129.580836 -187107000000000067725991878852608 
L 128.661272 -187107000000000067725991878852608 
L 127.740964 -187107000000000067725991878852608 
L 126.819911 -187107000000000067725991878852608 
L 125.89811 -187107000000000067725991878852608 
L 124.975562 -187107000000000067725991878852608 
L 124.052264 -187107000000000067725991878852608 
L 123.128216 -187107000000000067725991878852608 
L 122.203416 -187107000000000067725991878852608 
L 121.277862 -187107000000000067725991878852608 
L 120.351555 -187107000000000067725991878852608 
L 119.424492 -187107000000000067725991878852608 
L 118.496673 -187107000000000067725991878852608 
L 117.568096 -187107000000000067725991878852608 
L 116.638759 -187107000000000067725991878852608 
L 115.708662 -187107000000000067725991878852608 
L 114.777804 -187107000000000067725991878852608 
L 113.846182 -187107000000000067725991878852608 
L 112.913797 -187107000000000067725991878852608 
L 111.980646 -187107000000000067725991878852608 
L 111.046728 -187107000000000067725991878852608 
L 110.112043 -187107000000000067725991878852608 
L 109.176588 -187107000000000067725991878852608 
L 108.240363 -187107000000000067725991878852608 
L 107.303366 -187107000000000067725991878852608 
L 106.365596 -187107000000000067725991878852608 
L 105.427052 -187107000000000067725991878852608 
L 104.487733 -187107000000000067725991878852608 
L 103.547636 -187107000000000067725991878852608 
L 102.606762 -187107000000000067725991878852608 
L 101.665108 -187107000000000067725991878852608 
L 100.722673 -187107000000000067725991878852608 
L 99.779457 -187107000000000067725991878852608 
L 98.835457 -187107000000000067725991878852608 
L 97.890673 -187107000000000067725991878852608 
L 96.945102 -187107000000000067725991878852608 
L 95.998745 -187107000000000067725991878852608 
L 95.051599 -187107000000000067725991878852608 
L 94.103663 -187107000000000067725991878852608 
L 93.154936 -187107000000000067725991878852608 
L 92.205416 -187107000000000067725991878852608 
L 91.255103 -187107000000000067725991878852608 
L 90.303995 -187107000000000067725991878852608 
L 89.35209 -187107000000000067725991878852608 
L 88.399387 -187107000000000067725991878852608 
L 87.445885 -187107000000000067725991878852608 
L 86.491583 -187107000000000067725991878852608 
L 85.536479 -187107000000000067725991878852608 
L 84.580572 -187107000000000067725991878852608 
L 83.62386 -187107000000000067725991878852608 
L 82.666343 -187107000000000067725991878852608 
L 81.708018 -187107000000000067725991878852608 
L 80.748885 -187107000000000067725991878852608 
L 79.788941 -187107000000000067725991878852608 
L 78.828187 -187107000000000067725991878852608 
L 77.866619 -187107000000000067725991878852608 
L 76.904238 -187107000000000067725991878852608 
L 75.941041 -187107000000000067725991878852608 
L 74.977027 -187107000000000067725991878852608 
L 74.012195 -187107000000000067725991878852608 
L 73.046544 -187107000000000067725991878852608 
L 72.080071 -187107000000000067725991878852608 
z
" clip-path="url(#p7a2ec58b00)" style="fill: #00b6f3; fill-opacity: 0.1; stroke: #00b6f3; stroke-opacity: 0.1"/>
   </g>
   <g id="line2d_48">
    <path d="M 72.184263 105.906026 
L 144.464015 100.757472 
L 215.901913 95.444569 
L 255.984186 92.361837 
L 255.984186 92.361837 
L 258.00551 81.481462 
L 259.77384 70.747385 
L 261.576195 58.405276 
L 263.413567 44.064517 
L 264.972205 30.211526 
L 266.556497 14.197434 
L 267.880801 -1 
L 267.880801 -1 
" clip-path="url(#p7a2ec58b00)" style="fill: none; stroke: #00769d; stroke-opacity: 0.8; stroke-width: 2; stroke-linecap: round"/>
   </g>
   <g id="line2d_49">
    <defs>
     <path id="mca9b5621a2" d="M 0 1.5 
C 0.397805 1.5 0.77937 1.341951 1.06066 1.06066 
C 1.341951 0.77937 1.5 0.397805 1.5 0 
C 1.5 -0.397805 1.341951 -0.77937 1.06066 -1.06066 
C 0.77937 -1.341951 0.397805 -1.5 0 -1.5 
C -0.397805 -1.5 -0.77937 -1.341951 -1.06066 -1.06066 
C -1.341951 -0.77937 -1.5 -0.397805 -1.5 0 
C -1.5 0.397805 -1.341951 0.77937 -1.06066 1.06066 
C -0.77937 1.341951 -0.397805 1.5 0 1.5 
z
" style="stroke: #00769d"/>
    </defs>
    <g clip-path="url(#p7a2ec58b00)">
     <use xlink:href="#mca9b5621a2" x="255.984187" y="92.361837" style="fill: #00769d; stroke: #00769d"/>
    </g>
   </g>
   <g id="line2d_50">
    <path d="M 72.080071 126.741961 
L 151.4301 121.925741 
L 163.984218 121.142925 
L 163.984218 121.142925 
L 165.354097 111.05448 
L 166.765411 99.023635 
L 168.0358 86.421694 
L 169.340728 71.266546 
L 170.487808 55.600163 
L 171.662259 36.641359 
L 172.865072 13.230357 
L 173.49114 -1 
L 173.49114 -1 
" clip-path="url(#p7a2ec58b00)" style="fill: none; stroke: #00b6f3; stroke-opacity: 0.8; stroke-width: 2; stroke-linecap: round"/>
   </g>
   <g id="line2d_51">
    <defs>
     <path id="m0fece5b576" d="M 0 1.5 
C 0.397805 1.5 0.77937 1.341951 1.06066 1.06066 
C 1.341951 0.77937 1.5 0.397805 1.5 0 
C 1.5 -0.397805 1.341951 -0.77937 1.06066 -1.06066 
C 0.77937 -1.341951 0.397805 -1.5 0 -1.5 
C -0.397805 -1.5 -0.77937 -1.341951 -1.06066 -1.06066 
C -1.341951 -0.77937 -1.5 -0.397805 -1.5 0 
C -1.5 0.397805 -1.341951 0.77937 -1.06066 1.06066 
C -0.77937 1.341951 -0.397805 1.5 0 1.5 
z
" style="stroke: #00b6f3"/>
    </defs>
    <g clip-path="url(#p7a2ec58b00)">
     <use xlink:href="#m0fece5b576" x="163.984219" y="121.142925" style="fill: #00b6f3; stroke: #00b6f3"/>
    </g>
   </g>
   <g id="line2d_52"/>
   <g id="patch_3">
    <path d="M 71.98425 261.54 
L 71.98425 27.65625 
" style="fill: none; stroke: #ffffff; stroke-width: 1.25; stroke-linejoin: miter; stroke-linecap: square"/>
   </g>
   <g id="patch_4">
    <path d="M 317.3175 261.54 
L 317.3175 27.65625 
" style="fill: none; stroke: #ffffff; stroke-width: 1.25; stroke-linejoin: miter; stroke-linecap: square"/>
   </g>
   <g id="patch_5">
    <path d="M 71.98425 261.54 
L 317.3175 261.54 
" style="fill: none; stroke: #ffffff; stroke-width: 1.25; stroke-linejoin: miter; stroke-linecap: square"/>
   </g>
   <g id="patch_6">
    <path d="M 71.98425 27.65625 
L 317.3175 27.65625 
" style="fill: none; stroke: #ffffff; stroke-width: 1.25; stroke-linejoin: miter; stroke-linecap: square"/>
   </g>
   <g id="patch_7">
    <path d="M 108.659237 64.156859 
Q 108.659237 55.922127 108.659237 47.687396 
L 106.784237 47.687396 
Q 107.784237 44.688335 108.784237 41.689275 
Q 109.784237 44.688335 110.784237 47.687396 
L 108.909237 47.687396 
Q 108.909237 55.922127 108.909237 64.156859 
L 108.659237 64.156859 
z
" style="fill: #808080; stroke: #808080; stroke-linecap: round"/>
   </g>
   <g id="text_14">
    <!-- Less Efficient -->
    <g style="fill: #808080" transform="translate(76.171816 74.532947) scale(0.11 -0.11)">
     <defs>
      <path id="ArialMT-4c" d="M 469 0 
L 469 4581 
L 1075 4581 
L 1075 541 
L 3331 541 
L 3331 0 
L 469 0 
z
" transform="scale(0.015625)"/>
      <path id="ArialMT-66" d="M 556 0 
L 556 2881 
L 59 2881 
L 59 3319 
L 556 3319 
L 556 3672 
Q 556 4006 616 4169 
Q 697 4388 901 4523 
Q 1106 4659 1475 4659 
Q 1713 4659 2000 4603 
L 1916 4113 
Q 1741 4144 1584 4144 
Q 1328 4144 1222 4034 
Q 1116 3925 1116 3625 
L 1116 3319 
L 1763 3319 
L 1763 2881 
L 1116 2881 
L 1116 0 
L 556 0 
z
" transform="scale(0.015625)"/>
      <path id="ArialMT-63" d="M 2588 1216 
L 3141 1144 
Q 3050 572 2676 248 
Q 2303 -75 1759 -75 
Q 1078 -75 664 370 
Q 250 816 250 1647 
Q 250 2184 428 2587 
Q 606 2991 970 3192 
Q 1334 3394 1763 3394 
Q 2303 3394 2647 3120 
Q 2991 2847 3088 2344 
L 2541 2259 
Q 2463 2594 2264 2762 
Q 2066 2931 1784 2931 
Q 1359 2931 1093 2626 
Q 828 2322 828 1663 
Q 828 994 1084 691 
Q 1341 388 1753 388 
Q 2084 388 2306 591 
Q 2528 794 2588 1216 
z
" transform="scale(0.015625)"/>
     </defs>
     <use xlink:href="#ArialMT-4c"/>
     <use xlink:href="#ArialMT-65" x="55.615234"/>
     <use xlink:href="#ArialMT-73" x="111.230469"/>
     <use xlink:href="#ArialMT-73" x="161.230469"/>
     <use xlink:href="#ArialMT-20" x="211.230469"/>
     <use xlink:href="#ArialMT-45" x="239.013672"/>
     <use xlink:href="#ArialMT-66" x="305.712891"/>
     <use xlink:href="#ArialMT-66" x="331.746094"/>
     <use xlink:href="#ArialMT-69" x="359.529297"/>
     <use xlink:href="#ArialMT-63" x="381.746094"/>
     <use xlink:href="#ArialMT-69" x="431.746094"/>
     <use xlink:href="#ArialMT-65" x="453.962891"/>
     <use xlink:href="#ArialMT-6e" x="509.578125"/>
     <use xlink:href="#ArialMT-74" x="565.193359"/>
    </g>
   </g>
   <g id="patch_8">
    <path d="M 108.909237 225.039391 
Q 108.909237 233.274123 108.909237 241.508854 
L 110.784237 241.508854 
Q 109.784237 244.507915 108.784237 247.506975 
Q 107.784237 244.507915 106.784237 241.508854 
L 108.659237 241.508854 
Q 108.659237 233.274123 108.659237 225.039391 
L 108.909237 225.039391 
z
" style="fill: #808080; stroke: #808080; stroke-linecap: round"/>
   </g>
   <g id="text_15">
    <!-- More Efficient -->
    <g style="fill: #808080" transform="translate(75.259159 220.350647) scale(0.11 -0.11)">
     <use xlink:href="#ArialMT-4d"/>
     <use xlink:href="#ArialMT-6f" x="83.300781"/>
     <use xlink:href="#ArialMT-72" x="138.916016"/>
     <use xlink:href="#ArialMT-65" x="172.216797"/>
     <use xlink:href="#ArialMT-20" x="227.832031"/>
     <use xlink:href="#ArialMT-45" x="255.615234"/>
     <use xlink:href="#ArialMT-66" x="322.314453"/>
     <use xlink:href="#ArialMT-66" x="348.347656"/>
     <use xlink:href="#ArialMT-69" x="376.130859"/>
     <use xlink:href="#ArialMT-63" x="398.347656"/>
     <use xlink:href="#ArialMT-69" x="448.347656"/>
     <use xlink:href="#ArialMT-65" x="470.564453"/>
     <use xlink:href="#ArialMT-6e" x="526.179688"/>
     <use xlink:href="#ArialMT-74" x="581.794922"/>
    </g>
   </g>
   <g id="text_16">
    <!-- Off-Design Transport Efficiency and Market Coverage -->
    <g style="fill: #262626" transform="translate(52.474312 21.65625) scale(0.12 -0.12)">
     <defs>
      <path id="ArialMT-4f" d="M 309 2231 
Q 309 3372 921 4017 
Q 1534 4663 2503 4663 
Q 3138 4663 3647 4359 
Q 4156 4056 4423 3514 
Q 4691 2972 4691 2284 
Q 4691 1588 4409 1038 
Q 4128 488 3612 205 
Q 3097 -78 2500 -78 
Q 1853 -78 1343 234 
Q 834 547 571 1087 
Q 309 1628 309 2231 
z
M 934 2222 
Q 934 1394 1379 917 
Q 1825 441 2497 441 
Q 3181 441 3623 922 
Q 4066 1403 4066 2288 
Q 4066 2847 3877 3264 
Q 3688 3681 3323 3911 
Q 2959 4141 2506 4141 
Q 1863 4141 1398 3698 
Q 934 3256 934 2222 
z
" transform="scale(0.015625)"/>
      <path id="ArialMT-44" d="M 494 0 
L 494 4581 
L 2072 4581 
Q 2606 4581 2888 4516 
Q 3281 4425 3559 4188 
Q 3922 3881 4101 3404 
Q 4281 2928 4281 2316 
Q 4281 1794 4159 1391 
Q 4038 988 3847 723 
Q 3656 459 3429 307 
Q 3203 156 2883 78 
Q 2563 0 2147 0 
L 494 0 
z
M 1100 541 
L 2078 541 
Q 2531 541 2789 625 
Q 3047 709 3200 863 
Q 3416 1078 3536 1442 
Q 3656 1806 3656 2325 
Q 3656 3044 3420 3430 
Q 3184 3816 2847 3947 
Q 2603 4041 2063 4041 
L 1100 4041 
L 1100 541 
z
" transform="scale(0.015625)"/>
      <path id="ArialMT-64" d="M 2575 0 
L 2575 419 
Q 2259 -75 1647 -75 
Q 1250 -75 917 144 
Q 584 363 401 755 
Q 219 1147 219 1656 
Q 219 2153 384 2558 
Q 550 2963 881 3178 
Q 1213 3394 1622 3394 
Q 1922 3394 2156 3267 
Q 2391 3141 2538 2938 
L 2538 4581 
L 3097 4581 
L 3097 0 
L 2575 0 
z
M 797 1656 
Q 797 1019 1065 703 
Q 1334 388 1700 388 
Q 2069 388 2326 689 
Q 2584 991 2584 1609 
Q 2584 2291 2321 2609 
Q 2059 2928 1675 2928 
Q 1300 2928 1048 2622 
Q 797 2316 797 1656 
z
" transform="scale(0.015625)"/>
      <path id="ArialMT-43" d="M 3763 1606 
L 4369 1453 
Q 4178 706 3683 314 
Q 3188 -78 2472 -78 
Q 1731 -78 1267 223 
Q 803 525 561 1097 
Q 319 1669 319 2325 
Q 319 3041 592 3573 
Q 866 4106 1370 4382 
Q 1875 4659 2481 4659 
Q 3169 4659 3637 4309 
Q 4106 3959 4291 3325 
L 3694 3184 
Q 3534 3684 3231 3912 
Q 2928 4141 2469 4141 
Q 1941 4141 1586 3887 
Q 1231 3634 1087 3207 
Q 944 2781 944 2328 
Q 944 1744 1114 1308 
Q 1284 872 1643 656 
Q 2003 441 2422 441 
Q 2931 441 3284 734 
Q 3638 1028 3763 1606 
z
" transform="scale(0.015625)"/>
      <path id="ArialMT-76" d="M 1344 0 
L 81 3319 
L 675 3319 
L 1388 1331 
Q 1503 1009 1600 663 
Q 1675 925 1809 1294 
L 2547 3319 
L 3125 3319 
L 1869 0 
L 1344 0 
z
" transform="scale(0.015625)"/>
     </defs>
     <use xlink:href="#ArialMT-4f"/>
     <use xlink:href="#ArialMT-66" x="77.783203"/>
     <use xlink:href="#ArialMT-66" x="103.816406"/>
     <use xlink:href="#ArialMT-2d" x="131.599609"/>
     <use xlink:href="#ArialMT-44" x="164.900391"/>
     <use xlink:href="#ArialMT-65" x="237.117188"/>
     <use xlink:href="#ArialMT-73" x="292.732422"/>
     <use xlink:href="#ArialMT-69" x="342.732422"/>
     <use xlink:href="#ArialMT-67" x="364.949219"/>
     <use xlink:href="#ArialMT-6e" x="420.564453"/>
     <use xlink:href="#ArialMT-20" x="476.179688"/>
     <use xlink:href="#ArialMT-54" x="502.212891"/>
     <use xlink:href="#ArialMT-72" x="559.546875"/>
     <use xlink:href="#ArialMT-61" x="592.847656"/>
     <use xlink:href="#ArialMT-6e" x="648.462891"/>
     <use xlink:href="#ArialMT-73" x="704.078125"/>
     <use xlink:href="#ArialMT-70" x="754.078125"/>
     <use xlink:href="#ArialMT-6f" x="809.693359"/>
     <use xlink:href="#ArialMT-72" x="865.308594"/>
     <use xlink:href="#ArialMT-74" x="898.609375"/>
     <use xlink:href="#ArialMT-20" x="926.392578"/>
     <use xlink:href="#ArialMT-45" x="954.175781"/>
     <use xlink:href="#ArialMT-66" x="1020.875"/>
     <use xlink:href="#ArialMT-66" x="1046.908203"/>
     <use xlink:href="#ArialMT-69" x="1074.691406"/>
     <use xlink:href="#ArialMT-63" x="1096.908203"/>
     <use xlink:href="#ArialMT-69" x="1146.908203"/>
     <use xlink:href="#ArialMT-65" x="1169.125"/>
     <use xlink:href="#ArialMT-6e" x="1224.740234"/>
     <use xlink:href="#ArialMT-63" x="1280.355469"/>
     <use xlink:href="#ArialMT-79" x="1330.355469"/>
     <use xlink:href="#ArialMT-20" x="1380.355469"/>
     <use xlink:href="#ArialMT-61" x="1408.138672"/>
     <use xlink:href="#ArialMT-6e" x="1463.753906"/>
     <use xlink:href="#ArialMT-64" x="1519.369141"/>
     <use xlink:href="#ArialMT-20" x="1574.984375"/>
     <use xlink:href="#ArialMT-4d" x="1602.767578"/>
     <use xlink:href="#ArialMT-61" x="1686.068359"/>
     <use xlink:href="#ArialMT-72" x="1741.683594"/>
     <use xlink:href="#ArialMT-6b" x="1774.984375"/>
     <use xlink:href="#ArialMT-65" x="1824.984375"/>
     <use xlink:href="#ArialMT-74" x="1880.599609"/>
     <use xlink:href="#ArialMT-20" x="1908.382812"/>
     <use xlink:href="#ArialMT-43" x="1936.166016"/>
     <use xlink:href="#ArialMT-6f" x="2008.382812"/>
     <use xlink:href="#ArialMT-76" x="2063.998047"/>
     <use xlink:href="#ArialMT-65" x="2113.998047"/>
     <use xlink:href="#ArialMT-72" x="2169.613281"/>
     <use xlink:href="#ArialMT-61" x="2202.914062"/>
     <use xlink:href="#ArialMT-67" x="2258.529297"/>
     <use xlink:href="#ArialMT-65" x="2314.144531"/>
    </g>
   </g>
   <g id="legend_1">
    <g id="patch_9">
     <path d="M 130.717969 52.016094 
L 309.6175 52.016094 
Q 311.8175 52.016094 311.8175 49.816094 
L 311.8175 35.35625 
Q 311.8175 33.15625 309.6175 33.15625 
L 130.717969 33.15625 
Q 128.517969 33.15625 128.517969 35.35625 
L 128.517969 49.816094 
Q 128.517969 52.016094 130.717969 52.016094 
z
" style="fill: #eaeaf2; opacity: 0.8; stroke: #cccccc; stroke-linejoin: miter"/>
    </g>
    <g id="line2d_53">
     <path d="M 132.917969 41.579844 
L 143.917969 41.579844 
L 154.917969 41.579844 
" style="fill: none; stroke: #808080; stroke-width: 1.5; stroke-linecap: round"/>
    </g>
    <g id="text_17">
     <!-- Each line is a unique airplane -->
     <g style="fill: #262626" transform="translate(163.717969 45.429844) scale(0.11 -0.11)">
      <defs>
       <path id="ArialMT-68" d="M 422 0 
L 422 4581 
L 984 4581 
L 984 2938 
Q 1378 3394 1978 3394 
Q 2347 3394 2619 3248 
Q 2891 3103 3008 2847 
Q 3125 2591 3125 2103 
L 3125 0 
L 2563 0 
L 2563 2103 
Q 2563 2525 2380 2717 
Q 2197 2909 1863 2909 
Q 1613 2909 1392 2779 
Q 1172 2650 1078 2428 
Q 984 2206 984 1816 
L 984 0 
L 422 0 
z
" transform="scale(0.015625)"/>
       <path id="ArialMT-6c" d="M 409 0 
L 409 4581 
L 972 4581 
L 972 0 
L 409 0 
z
" transform="scale(0.015625)"/>
       <path id="ArialMT-75" d="M 2597 0 
L 2597 488 
Q 2209 -75 1544 -75 
Q 1250 -75 995 37 
Q 741 150 617 320 
Q 494 491 444 738 
Q 409 903 409 1263 
L 409 3319 
L 972 3319 
L 972 1478 
Q 972 1038 1006 884 
Q 1059 663 1231 536 
Q 1403 409 1656 409 
Q 1909 409 2131 539 
Q 2353 669 2445 892 
Q 2538 1116 2538 1541 
L 2538 3319 
L 3100 3319 
L 3100 0 
L 2597 0 
z
" transform="scale(0.015625)"/>
       <path id="ArialMT-71" d="M 2538 -1272 
L 2538 353 
Q 2406 169 2170 47 
Q 1934 -75 1669 -75 
Q 1078 -75 651 397 
Q 225 869 225 1691 
Q 225 2191 398 2587 
Q 572 2984 901 3189 
Q 1231 3394 1625 3394 
Q 2241 3394 2594 2875 
L 2594 3319 
L 3100 3319 
L 3100 -1272 
L 2538 -1272 
z
M 803 1669 
Q 803 1028 1072 708 
Q 1341 388 1716 388 
Q 2075 388 2334 692 
Q 2594 997 2594 1619 
Q 2594 2281 2320 2615 
Q 2047 2950 1678 2950 
Q 1313 2950 1058 2639 
Q 803 2328 803 1669 
z
" transform="scale(0.015625)"/>
      </defs>
      <use xlink:href="#ArialMT-45"/>
      <use xlink:href="#ArialMT-61" x="66.699219"/>
      <use xlink:href="#ArialMT-63" x="122.314453"/>
      <use xlink:href="#ArialMT-68" x="172.314453"/>
      <use xlink:href="#ArialMT-20" x="227.929688"/>
      <use xlink:href="#ArialMT-6c" x="255.712891"/>
      <use xlink:href="#ArialMT-69" x="277.929688"/>
      <use xlink:href="#ArialMT-6e" x="300.146484"/>
      <use xlink:href="#ArialMT-65" x="355.761719"/>
      <use xlink:href="#ArialMT-20" x="411.376953"/>
      <use xlink:href="#ArialMT-69" x="439.160156"/>
      <use xlink:href="#ArialMT-73" x="461.376953"/>
      <use xlink:href="#ArialMT-20" x="511.376953"/>
      <use xlink:href="#ArialMT-61" x="539.160156"/>
      <use xlink:href="#ArialMT-20" x="594.775391"/>
      <use xlink:href="#ArialMT-75" x="622.558594"/>
      <use xlink:href="#ArialMT-6e" x="678.173828"/>
      <use xlink:href="#ArialMT-69" x="733.789062"/>
      <use xlink:href="#ArialMT-71" x="756.005859"/>
      <use xlink:href="#ArialMT-75" x="811.621094"/>
      <use xlink:href="#ArialMT-65" x="867.236328"/>
      <use xlink:href="#ArialMT-20" x="922.851562"/>
      <use xlink:href="#ArialMT-61" x="950.634766"/>
      <use xlink:href="#ArialMT-69" x="1006.25"/>
      <use xlink:href="#ArialMT-72" x="1028.466797"/>
      <use xlink:href="#ArialMT-70" x="1061.767578"/>
      <use xlink:href="#ArialMT-6c" x="1117.382812"/>
      <use xlink:href="#ArialMT-61" x="1139.599609"/>
      <use xlink:href="#ArialMT-6e" x="1195.214844"/>
      <use xlink:href="#ArialMT-65" x="1250.830078"/>
     </g>
    </g>
   </g>
  </g>
 </g>
 <defs>
  <clipPath id="p7a2ec58b00">
   <rect x="71.98425" y="27.65625" width="245.33325" height="233.88375"/>
  </clipPath>
 </defs>
</svg>
