<?xml version="1.0" encoding="utf-8" standalone="no"?>
<!DOCTYPE svg PUBLIC "-//W3C//DTD SVG 1.1//EN"
  "http://www.w3.org/Graphics/SVG/1.1/DTD/svg11.dtd">
<svg xmlns:xlink="http://www.w3.org/1999/xlink" width="720pt" height="432pt" viewBox="0 0 720 432" xmlns="http://www.w3.org/2000/svg" version="1.1">
 <metadata>
  <rdf:RDF xmlns:dc="http://purl.org/dc/elements/1.1/" xmlns:cc="http://creativecommons.org/ns#" xmlns:rdf="http://www.w3.org/1999/02/22-rdf-syntax-ns#">
   <cc:Work>
    <dc:type rdf:resource="http://purl.org/dc/dcmitype/StillImage"/>
    <dc:date>2022-11-29T18:12:46.733219</dc:date>
    <dc:format>image/svg+xml</dc:format>
    <dc:creator>
     <cc:Agent>
      <dc:title>Matplotlib v3.6.2, https://matplotlib.org/</dc:title>
     </cc:Agent>
    </dc:creator>
   </cc:Work>
  </rdf:RDF>
 </metadata>
 <defs>
  <style type="text/css">*{stroke-linejoin: round; stroke-linecap: butt}</style>
 </defs>
 <g id="figure_1">
  <g id="patch_1">
   <path d="M 0 432 
L 720 432 
L 720 0 
L 0 0 
z
" style="fill: #ffffff"/>
  </g>
  <g id="axes_1">
   <g id="patch_2">
    <path d="M 183.191963 16.998296 
L 183.684164 16.998296 
Q 188.684164 16.998296 191.635563 21.034289 
L 246.974297 96.709157 
Q 249.925696 100.745151 253.1899 104.532626 
L 255.150335 106.807331 
" style="fill: none; stroke: #1a1a1a; stroke-linecap: round"/>
   </g>
   <g id="text_1">
    <!-- Passengers, 39009 kg, 23% -->
    <g style="fill: #262626" transform="translate(28.594164 20.103296) scale(0.12 -0.12)">
     <defs>
      <path id="ArialMT-50" d="M 494 0 
L 494 4581 
L 2222 4581 
Q 2678 4581 2919 4538 
Q 3256 4481 3484 4323 
Q 3713 4166 3852 3881 
Q 3991 3597 3991 3256 
Q 3991 2672 3619 2267 
Q 3247 1863 2275 1863 
L 1100 1863 
L 1100 0 
L 494 0 
z
M 1100 2403 
L 2284 2403 
Q 2872 2403 3119 2622 
Q 3366 2841 3366 3238 
Q 3366 3525 3220 3729 
Q 3075 3934 2838 4000 
Q 2684 4041 2272 4041 
L 1100 4041 
L 1100 2403 
z
" transform="scale(0.015625)"/>
      <path id="ArialMT-61" d="M 2588 409 
Q 2275 144 1986 34 
Q 1697 -75 1366 -75 
Q 819 -75 525 192 
Q 231 459 231 875 
Q 231 1119 342 1320 
Q 453 1522 633 1644 
Q 813 1766 1038 1828 
Q 1203 1872 1538 1913 
Q 2219 1994 2541 2106 
Q 2544 2222 2544 2253 
Q 2544 2597 2384 2738 
Q 2169 2928 1744 2928 
Q 1347 2928 1158 2789 
Q 969 2650 878 2297 
L 328 2372 
Q 403 2725 575 2942 
Q 747 3159 1072 3276 
Q 1397 3394 1825 3394 
Q 2250 3394 2515 3294 
Q 2781 3194 2906 3042 
Q 3031 2891 3081 2659 
Q 3109 2516 3109 2141 
L 3109 1391 
Q 3109 606 3145 398 
Q 3181 191 3288 0 
L 2700 0 
Q 2613 175 2588 409 
z
M 2541 1666 
Q 2234 1541 1622 1453 
Q 1275 1403 1131 1340 
Q 988 1278 909 1158 
Q 831 1038 831 891 
Q 831 666 1001 516 
Q 1172 366 1500 366 
Q 1825 366 2078 508 
Q 2331 650 2450 897 
Q 2541 1088 2541 1459 
L 2541 1666 
z
" transform="scale(0.015625)"/>
      <path id="ArialMT-73" d="M 197 991 
L 753 1078 
Q 800 744 1014 566 
Q 1228 388 1613 388 
Q 2000 388 2187 545 
Q 2375 703 2375 916 
Q 2375 1106 2209 1216 
Q 2094 1291 1634 1406 
Q 1016 1563 777 1677 
Q 538 1791 414 1992 
Q 291 2194 291 2438 
Q 291 2659 392 2848 
Q 494 3038 669 3163 
Q 800 3259 1026 3326 
Q 1253 3394 1513 3394 
Q 1903 3394 2198 3281 
Q 2494 3169 2634 2976 
Q 2775 2784 2828 2463 
L 2278 2388 
Q 2241 2644 2061 2787 
Q 1881 2931 1553 2931 
Q 1166 2931 1000 2803 
Q 834 2675 834 2503 
Q 834 2394 903 2306 
Q 972 2216 1119 2156 
Q 1203 2125 1616 2013 
Q 2213 1853 2448 1751 
Q 2684 1650 2818 1456 
Q 2953 1263 2953 975 
Q 2953 694 2789 445 
Q 2625 197 2315 61 
Q 2006 -75 1616 -75 
Q 969 -75 630 194 
Q 291 463 197 991 
z
" transform="scale(0.015625)"/>
      <path id="ArialMT-65" d="M 2694 1069 
L 3275 997 
Q 3138 488 2766 206 
Q 2394 -75 1816 -75 
Q 1088 -75 661 373 
Q 234 822 234 1631 
Q 234 2469 665 2931 
Q 1097 3394 1784 3394 
Q 2450 3394 2872 2941 
Q 3294 2488 3294 1666 
Q 3294 1616 3291 1516 
L 816 1516 
Q 847 969 1125 678 
Q 1403 388 1819 388 
Q 2128 388 2347 550 
Q 2566 713 2694 1069 
z
M 847 1978 
L 2700 1978 
Q 2663 2397 2488 2606 
Q 2219 2931 1791 2931 
Q 1403 2931 1139 2672 
Q 875 2413 847 1978 
z
" transform="scale(0.015625)"/>
      <path id="ArialMT-6e" d="M 422 0 
L 422 3319 
L 928 3319 
L 928 2847 
Q 1294 3394 1984 3394 
Q 2284 3394 2536 3286 
Q 2788 3178 2913 3003 
Q 3038 2828 3088 2588 
Q 3119 2431 3119 2041 
L 3119 0 
L 2556 0 
L 2556 2019 
Q 2556 2363 2490 2533 
Q 2425 2703 2258 2804 
Q 2091 2906 1866 2906 
Q 1506 2906 1245 2678 
Q 984 2450 984 1813 
L 984 0 
L 422 0 
z
" transform="scale(0.015625)"/>
      <path id="ArialMT-67" d="M 319 -275 
L 866 -356 
Q 900 -609 1056 -725 
Q 1266 -881 1628 -881 
Q 2019 -881 2231 -725 
Q 2444 -569 2519 -288 
Q 2563 -116 2559 434 
Q 2191 0 1641 0 
Q 956 0 581 494 
Q 206 988 206 1678 
Q 206 2153 378 2554 
Q 550 2956 876 3175 
Q 1203 3394 1644 3394 
Q 2231 3394 2613 2919 
L 2613 3319 
L 3131 3319 
L 3131 450 
Q 3131 -325 2973 -648 
Q 2816 -972 2473 -1159 
Q 2131 -1347 1631 -1347 
Q 1038 -1347 672 -1080 
Q 306 -813 319 -275 
z
M 784 1719 
Q 784 1066 1043 766 
Q 1303 466 1694 466 
Q 2081 466 2343 764 
Q 2606 1063 2606 1700 
Q 2606 2309 2336 2618 
Q 2066 2928 1684 2928 
Q 1309 2928 1046 2623 
Q 784 2319 784 1719 
z
" transform="scale(0.015625)"/>
      <path id="ArialMT-72" d="M 416 0 
L 416 3319 
L 922 3319 
L 922 2816 
Q 1116 3169 1280 3281 
Q 1444 3394 1641 3394 
Q 1925 3394 2219 3213 
L 2025 2691 
Q 1819 2813 1613 2813 
Q 1428 2813 1281 2702 
Q 1134 2591 1072 2394 
Q 978 2094 978 1738 
L 978 0 
L 416 0 
z
" transform="scale(0.015625)"/>
      <path id="ArialMT-2c" d="M 569 0 
L 569 641 
L 1209 641 
L 1209 0 
Q 1209 -353 1084 -570 
Q 959 -788 688 -906 
L 531 -666 
Q 709 -588 793 -436 
Q 878 -284 888 0 
L 569 0 
z
" transform="scale(0.015625)"/>
      <path id="ArialMT-20" transform="scale(0.015625)"/>
      <path id="ArialMT-33" d="M 269 1209 
L 831 1284 
Q 928 806 1161 595 
Q 1394 384 1728 384 
Q 2125 384 2398 659 
Q 2672 934 2672 1341 
Q 2672 1728 2419 1979 
Q 2166 2231 1775 2231 
Q 1616 2231 1378 2169 
L 1441 2663 
Q 1497 2656 1531 2656 
Q 1891 2656 2178 2843 
Q 2466 3031 2466 3422 
Q 2466 3731 2256 3934 
Q 2047 4138 1716 4138 
Q 1388 4138 1169 3931 
Q 950 3725 888 3313 
L 325 3413 
Q 428 3978 793 4289 
Q 1159 4600 1703 4600 
Q 2078 4600 2393 4439 
Q 2709 4278 2876 4000 
Q 3044 3722 3044 3409 
Q 3044 3113 2884 2869 
Q 2725 2625 2413 2481 
Q 2819 2388 3044 2092 
Q 3269 1797 3269 1353 
Q 3269 753 2831 336 
Q 2394 -81 1725 -81 
Q 1122 -81 723 278 
Q 325 638 269 1209 
z
" transform="scale(0.015625)"/>
      <path id="ArialMT-39" d="M 350 1059 
L 891 1109 
Q 959 728 1153 556 
Q 1347 384 1650 384 
Q 1909 384 2104 503 
Q 2300 622 2425 820 
Q 2550 1019 2634 1356 
Q 2719 1694 2719 2044 
Q 2719 2081 2716 2156 
Q 2547 1888 2255 1720 
Q 1963 1553 1622 1553 
Q 1053 1553 659 1965 
Q 266 2378 266 3053 
Q 266 3750 677 4175 
Q 1088 4600 1706 4600 
Q 2153 4600 2523 4359 
Q 2894 4119 3086 3673 
Q 3278 3228 3278 2384 
Q 3278 1506 3087 986 
Q 2897 466 2520 194 
Q 2144 -78 1638 -78 
Q 1100 -78 759 220 
Q 419 519 350 1059 
z
M 2653 3081 
Q 2653 3566 2395 3850 
Q 2138 4134 1775 4134 
Q 1400 4134 1122 3828 
Q 844 3522 844 3034 
Q 844 2597 1108 2323 
Q 1372 2050 1759 2050 
Q 2150 2050 2401 2323 
Q 2653 2597 2653 3081 
z
" transform="scale(0.015625)"/>
      <path id="ArialMT-30" d="M 266 2259 
Q 266 3072 433 3567 
Q 600 4063 929 4331 
Q 1259 4600 1759 4600 
Q 2128 4600 2406 4451 
Q 2684 4303 2865 4023 
Q 3047 3744 3150 3342 
Q 3253 2941 3253 2259 
Q 3253 1453 3087 958 
Q 2922 463 2592 192 
Q 2263 -78 1759 -78 
Q 1097 -78 719 397 
Q 266 969 266 2259 
z
M 844 2259 
Q 844 1131 1108 757 
Q 1372 384 1759 384 
Q 2147 384 2411 759 
Q 2675 1134 2675 2259 
Q 2675 3391 2411 3762 
Q 2147 4134 1753 4134 
Q 1366 4134 1134 3806 
Q 844 3388 844 2259 
z
" transform="scale(0.015625)"/>
      <path id="ArialMT-6b" d="M 425 0 
L 425 4581 
L 988 4581 
L 988 1969 
L 2319 3319 
L 3047 3319 
L 1778 2088 
L 3175 0 
L 2481 0 
L 1384 1697 
L 988 1316 
L 988 0 
L 425 0 
z
" transform="scale(0.015625)"/>
      <path id="ArialMT-32" d="M 3222 541 
L 3222 0 
L 194 0 
Q 188 203 259 391 
Q 375 700 629 1000 
Q 884 1300 1366 1694 
Q 2113 2306 2375 2664 
Q 2638 3022 2638 3341 
Q 2638 3675 2398 3904 
Q 2159 4134 1775 4134 
Q 1369 4134 1125 3890 
Q 881 3647 878 3216 
L 300 3275 
Q 359 3922 746 4261 
Q 1134 4600 1788 4600 
Q 2447 4600 2831 4234 
Q 3216 3869 3216 3328 
Q 3216 3053 3103 2787 
Q 2991 2522 2730 2228 
Q 2469 1934 1863 1422 
Q 1356 997 1212 845 
Q 1069 694 975 541 
L 3222 541 
z
" transform="scale(0.015625)"/>
      <path id="ArialMT-25" d="M 372 3481 
Q 372 3972 619 4315 
Q 866 4659 1334 4659 
Q 1766 4659 2048 4351 
Q 2331 4044 2331 3447 
Q 2331 2866 2045 2552 
Q 1759 2238 1341 2238 
Q 925 2238 648 2547 
Q 372 2856 372 3481 
z
M 1350 4272 
Q 1141 4272 1002 4090 
Q 863 3909 863 3425 
Q 863 2984 1003 2804 
Q 1144 2625 1350 2625 
Q 1563 2625 1702 2806 
Q 1841 2988 1841 3469 
Q 1841 3913 1700 4092 
Q 1559 4272 1350 4272 
z
M 1353 -169 
L 3859 4659 
L 4316 4659 
L 1819 -169 
L 1353 -169 
z
M 3334 1075 
Q 3334 1569 3581 1911 
Q 3828 2253 4300 2253 
Q 4731 2253 5014 1945 
Q 5297 1638 5297 1041 
Q 5297 459 5011 145 
Q 4725 -169 4303 -169 
Q 3888 -169 3611 142 
Q 3334 453 3334 1075 
z
M 4316 1866 
Q 4103 1866 3964 1684 
Q 3825 1503 3825 1019 
Q 3825 581 3965 400 
Q 4106 219 4313 219 
Q 4528 219 4667 400 
Q 4806 581 4806 1063 
Q 4806 1506 4665 1686 
Q 4525 1866 4316 1866 
z
" transform="scale(0.015625)"/>
     </defs>
     <use xlink:href="#ArialMT-50"/>
     <use xlink:href="#ArialMT-61" x="66.699219"/>
     <use xlink:href="#ArialMT-73" x="122.314453"/>
     <use xlink:href="#ArialMT-73" x="172.314453"/>
     <use xlink:href="#ArialMT-65" x="222.314453"/>
     <use xlink:href="#ArialMT-6e" x="277.929688"/>
     <use xlink:href="#ArialMT-67" x="333.544922"/>
     <use xlink:href="#ArialMT-65" x="389.160156"/>
     <use xlink:href="#ArialMT-72" x="444.775391"/>
     <use xlink:href="#ArialMT-73" x="478.076172"/>
     <use xlink:href="#ArialMT-2c" x="528.076172"/>
     <use xlink:href="#ArialMT-20" x="555.859375"/>
     <use xlink:href="#ArialMT-33" x="583.642578"/>
     <use xlink:href="#ArialMT-39" x="639.257812"/>
     <use xlink:href="#ArialMT-30" x="694.873047"/>
     <use xlink:href="#ArialMT-30" x="750.488281"/>
     <use xlink:href="#ArialMT-39" x="806.103516"/>
     <use xlink:href="#ArialMT-20" x="861.71875"/>
     <use xlink:href="#ArialMT-6b" x="889.501953"/>
     <use xlink:href="#ArialMT-67" x="939.501953"/>
     <use xlink:href="#ArialMT-2c" x="995.117188"/>
     <use xlink:href="#ArialMT-20" x="1022.900391"/>
     <use xlink:href="#ArialMT-32" x="1050.683594"/>
     <use xlink:href="#ArialMT-33" x="1106.298828"/>
     <use xlink:href="#ArialMT-25" x="1161.914062"/>
    </g>
   </g>
   <g id="patch_3">
    <path d="M 183.191963 96.593352 
L 183.684164 96.593352 
Q 188.684164 96.593352 189.09496 101.576448 
L 197.151024 199.299167 
Q 197.56182 204.282263 202.547002 204.666913 
L 205.541033 204.897929 
" style="fill: none; stroke: #1a1a1a; stroke-linecap: round"/>
   </g>
   <g id="text_2">
    <!-- Seats, 3901 kg, 2% -->
    <g style="fill: #262626" transform="translate(74.621664 99.698352) scale(0.12 -0.12)">
     <defs>
      <path id="ArialMT-53" d="M 288 1472 
L 859 1522 
Q 900 1178 1048 958 
Q 1197 738 1509 602 
Q 1822 466 2213 466 
Q 2559 466 2825 569 
Q 3091 672 3220 851 
Q 3350 1031 3350 1244 
Q 3350 1459 3225 1620 
Q 3100 1781 2813 1891 
Q 2628 1963 1997 2114 
Q 1366 2266 1113 2400 
Q 784 2572 623 2826 
Q 463 3081 463 3397 
Q 463 3744 659 4045 
Q 856 4347 1234 4503 
Q 1613 4659 2075 4659 
Q 2584 4659 2973 4495 
Q 3363 4331 3572 4012 
Q 3781 3694 3797 3291 
L 3216 3247 
Q 3169 3681 2898 3903 
Q 2628 4125 2100 4125 
Q 1550 4125 1298 3923 
Q 1047 3722 1047 3438 
Q 1047 3191 1225 3031 
Q 1400 2872 2139 2705 
Q 2878 2538 3153 2413 
Q 3553 2228 3743 1945 
Q 3934 1663 3934 1294 
Q 3934 928 3725 604 
Q 3516 281 3123 101 
Q 2731 -78 2241 -78 
Q 1619 -78 1198 103 
Q 778 284 539 648 
Q 300 1013 288 1472 
z
" transform="scale(0.015625)"/>
      <path id="ArialMT-74" d="M 1650 503 
L 1731 6 
Q 1494 -44 1306 -44 
Q 1000 -44 831 53 
Q 663 150 594 308 
Q 525 466 525 972 
L 525 2881 
L 113 2881 
L 113 3319 
L 525 3319 
L 525 4141 
L 1084 4478 
L 1084 3319 
L 1650 3319 
L 1650 2881 
L 1084 2881 
L 1084 941 
Q 1084 700 1114 631 
Q 1144 563 1211 522 
Q 1278 481 1403 481 
Q 1497 481 1650 503 
z
" transform="scale(0.015625)"/>
      <path id="ArialMT-31" d="M 2384 0 
L 1822 0 
L 1822 3584 
Q 1619 3391 1289 3197 
Q 959 3003 697 2906 
L 697 3450 
Q 1169 3672 1522 3987 
Q 1875 4303 2022 4600 
L 2384 4600 
L 2384 0 
z
" transform="scale(0.015625)"/>
     </defs>
     <use xlink:href="#ArialMT-53"/>
     <use xlink:href="#ArialMT-65" x="66.699219"/>
     <use xlink:href="#ArialMT-61" x="122.314453"/>
     <use xlink:href="#ArialMT-74" x="177.929688"/>
     <use xlink:href="#ArialMT-73" x="205.712891"/>
     <use xlink:href="#ArialMT-2c" x="255.712891"/>
     <use xlink:href="#ArialMT-20" x="283.496094"/>
     <use xlink:href="#ArialMT-33" x="311.279297"/>
     <use xlink:href="#ArialMT-39" x="366.894531"/>
     <use xlink:href="#ArialMT-30" x="422.509766"/>
     <use xlink:href="#ArialMT-31" x="478.125"/>
     <use xlink:href="#ArialMT-20" x="533.740234"/>
     <use xlink:href="#ArialMT-6b" x="561.523438"/>
     <use xlink:href="#ArialMT-67" x="611.523438"/>
     <use xlink:href="#ArialMT-2c" x="667.138672"/>
     <use xlink:href="#ArialMT-20" x="694.921875"/>
     <use xlink:href="#ArialMT-32" x="722.705078"/>
     <use xlink:href="#ArialMT-25" x="778.320312"/>
    </g>
   </g>
   <g id="patch_4">
    <path d="M 183.191963 176.188409 
L 183.684164 176.188409 
Q 188.684164 176.188409 189.655468 181.093159 
L 196.167192 213.975099 
Q 197.138497 218.879848 202.137592 218.784738 
L 205.139978 218.727616 
" style="fill: none; stroke: #1a1a1a; stroke-linecap: round"/>
   </g>
   <g id="text_3">
    <!-- APU, 1365 kg, 1% -->
    <g style="fill: #262626" transform="translate(80.631039 179.293409) scale(0.12 -0.12)">
     <defs>
      <path id="ArialMT-41" d="M -9 0 
L 1750 4581 
L 2403 4581 
L 4278 0 
L 3588 0 
L 3053 1388 
L 1138 1388 
L 634 0 
L -9 0 
z
M 1313 1881 
L 2866 1881 
L 2388 3150 
Q 2169 3728 2063 4100 
Q 1975 3659 1816 3225 
L 1313 1881 
z
" transform="scale(0.015625)"/>
      <path id="ArialMT-55" d="M 3500 4581 
L 4106 4581 
L 4106 1934 
Q 4106 1244 3950 837 
Q 3794 431 3386 176 
Q 2978 -78 2316 -78 
Q 1672 -78 1262 144 
Q 853 366 678 786 
Q 503 1206 503 1934 
L 503 4581 
L 1109 4581 
L 1109 1938 
Q 1109 1341 1220 1058 
Q 1331 775 1601 622 
Q 1872 469 2263 469 
Q 2931 469 3215 772 
Q 3500 1075 3500 1938 
L 3500 4581 
z
" transform="scale(0.015625)"/>
      <path id="ArialMT-36" d="M 3184 3459 
L 2625 3416 
Q 2550 3747 2413 3897 
Q 2184 4138 1850 4138 
Q 1581 4138 1378 3988 
Q 1113 3794 959 3422 
Q 806 3050 800 2363 
Q 1003 2672 1297 2822 
Q 1591 2972 1913 2972 
Q 2475 2972 2870 2558 
Q 3266 2144 3266 1488 
Q 3266 1056 3080 686 
Q 2894 316 2569 119 
Q 2244 -78 1831 -78 
Q 1128 -78 684 439 
Q 241 956 241 2144 
Q 241 3472 731 4075 
Q 1159 4600 1884 4600 
Q 2425 4600 2770 4297 
Q 3116 3994 3184 3459 
z
M 888 1484 
Q 888 1194 1011 928 
Q 1134 663 1356 523 
Q 1578 384 1822 384 
Q 2178 384 2434 671 
Q 2691 959 2691 1453 
Q 2691 1928 2437 2201 
Q 2184 2475 1800 2475 
Q 1419 2475 1153 2201 
Q 888 1928 888 1484 
z
" transform="scale(0.015625)"/>
      <path id="ArialMT-35" d="M 266 1200 
L 856 1250 
Q 922 819 1161 601 
Q 1400 384 1738 384 
Q 2144 384 2425 690 
Q 2706 997 2706 1503 
Q 2706 1984 2436 2262 
Q 2166 2541 1728 2541 
Q 1456 2541 1237 2417 
Q 1019 2294 894 2097 
L 366 2166 
L 809 4519 
L 3088 4519 
L 3088 3981 
L 1259 3981 
L 1013 2750 
Q 1425 3038 1878 3038 
Q 2478 3038 2890 2622 
Q 3303 2206 3303 1553 
Q 3303 931 2941 478 
Q 2500 -78 1738 -78 
Q 1113 -78 717 272 
Q 322 622 266 1200 
z
" transform="scale(0.015625)"/>
     </defs>
     <use xlink:href="#ArialMT-41"/>
     <use xlink:href="#ArialMT-50" x="66.699219"/>
     <use xlink:href="#ArialMT-55" x="133.398438"/>
     <use xlink:href="#ArialMT-2c" x="205.615234"/>
     <use xlink:href="#ArialMT-20" x="233.398438"/>
     <use xlink:href="#ArialMT-31" x="261.181641"/>
     <use xlink:href="#ArialMT-33" x="316.796875"/>
     <use xlink:href="#ArialMT-36" x="372.412109"/>
     <use xlink:href="#ArialMT-35" x="428.027344"/>
     <use xlink:href="#ArialMT-20" x="483.642578"/>
     <use xlink:href="#ArialMT-6b" x="511.425781"/>
     <use xlink:href="#ArialMT-67" x="561.425781"/>
     <use xlink:href="#ArialMT-2c" x="617.041016"/>
     <use xlink:href="#ArialMT-20" x="644.824219"/>
     <use xlink:href="#ArialMT-31" x="672.607422"/>
     <use xlink:href="#ArialMT-25" x="728.222656"/>
    </g>
   </g>
   <g id="patch_5">
    <path d="M 183.191963 255.783466 
L 183.684164 255.783466 
Q 188.684164 255.783466 193.50296 257.117334 
L 198.770804 258.5755 
Q 203.589601 259.909368 208.376676 258.465791 
L 211.251725 257.598799 
" style="fill: none; stroke: #1a1a1a; stroke-linecap: round"/>
   </g>
   <g id="text_4">
    <!-- FAs, Food, Galleys, Lavatories, -->
    <g style="fill: #262626" transform="translate(11.951664 239.621716) scale(0.12 -0.12)">
     <defs>
      <path id="ArialMT-46" d="M 525 0 
L 525 4581 
L 3616 4581 
L 3616 4041 
L 1131 4041 
L 1131 2622 
L 3281 2622 
L 3281 2081 
L 1131 2081 
L 1131 0 
L 525 0 
z
" transform="scale(0.015625)"/>
      <path id="ArialMT-6f" d="M 213 1659 
Q 213 2581 725 3025 
Q 1153 3394 1769 3394 
Q 2453 3394 2887 2945 
Q 3322 2497 3322 1706 
Q 3322 1066 3130 698 
Q 2938 331 2570 128 
Q 2203 -75 1769 -75 
Q 1072 -75 642 372 
Q 213 819 213 1659 
z
M 791 1659 
Q 791 1022 1069 705 
Q 1347 388 1769 388 
Q 2188 388 2466 706 
Q 2744 1025 2744 1678 
Q 2744 2294 2464 2611 
Q 2184 2928 1769 2928 
Q 1347 2928 1069 2612 
Q 791 2297 791 1659 
z
" transform="scale(0.015625)"/>
      <path id="ArialMT-64" d="M 2575 0 
L 2575 419 
Q 2259 -75 1647 -75 
Q 1250 -75 917 144 
Q 584 363 401 755 
Q 219 1147 219 1656 
Q 219 2153 384 2558 
Q 550 2963 881 3178 
Q 1213 3394 1622 3394 
Q 1922 3394 2156 3267 
Q 2391 3141 2538 2938 
L 2538 4581 
L 3097 4581 
L 3097 0 
L 2575 0 
z
M 797 1656 
Q 797 1019 1065 703 
Q 1334 388 1700 388 
Q 2069 388 2326 689 
Q 2584 991 2584 1609 
Q 2584 2291 2321 2609 
Q 2059 2928 1675 2928 
Q 1300 2928 1048 2622 
Q 797 2316 797 1656 
z
" transform="scale(0.015625)"/>
      <path id="ArialMT-47" d="M 2638 1797 
L 2638 2334 
L 4578 2338 
L 4578 638 
Q 4131 281 3656 101 
Q 3181 -78 2681 -78 
Q 2006 -78 1454 211 
Q 903 500 622 1047 
Q 341 1594 341 2269 
Q 341 2938 620 3517 
Q 900 4097 1425 4378 
Q 1950 4659 2634 4659 
Q 3131 4659 3532 4498 
Q 3934 4338 4162 4050 
Q 4391 3763 4509 3300 
L 3963 3150 
Q 3859 3500 3706 3700 
Q 3553 3900 3268 4020 
Q 2984 4141 2638 4141 
Q 2222 4141 1919 4014 
Q 1616 3888 1430 3681 
Q 1244 3475 1141 3228 
Q 966 2803 966 2306 
Q 966 1694 1177 1281 
Q 1388 869 1791 669 
Q 2194 469 2647 469 
Q 3041 469 3416 620 
Q 3791 772 3984 944 
L 3984 1797 
L 2638 1797 
z
" transform="scale(0.015625)"/>
      <path id="ArialMT-6c" d="M 409 0 
L 409 4581 
L 972 4581 
L 972 0 
L 409 0 
z
" transform="scale(0.015625)"/>
      <path id="ArialMT-79" d="M 397 -1278 
L 334 -750 
Q 519 -800 656 -800 
Q 844 -800 956 -737 
Q 1069 -675 1141 -563 
Q 1194 -478 1313 -144 
Q 1328 -97 1363 -6 
L 103 3319 
L 709 3319 
L 1400 1397 
Q 1534 1031 1641 628 
Q 1738 1016 1872 1384 
L 2581 3319 
L 3144 3319 
L 1881 -56 
Q 1678 -603 1566 -809 
Q 1416 -1088 1222 -1217 
Q 1028 -1347 759 -1347 
Q 597 -1347 397 -1278 
z
" transform="scale(0.015625)"/>
      <path id="ArialMT-4c" d="M 469 0 
L 469 4581 
L 1075 4581 
L 1075 541 
L 3331 541 
L 3331 0 
L 469 0 
z
" transform="scale(0.015625)"/>
      <path id="ArialMT-76" d="M 1344 0 
L 81 3319 
L 675 3319 
L 1388 1331 
Q 1503 1009 1600 663 
Q 1675 925 1809 1294 
L 2547 3319 
L 3125 3319 
L 1869 0 
L 1344 0 
z
" transform="scale(0.015625)"/>
      <path id="ArialMT-69" d="M 425 3934 
L 425 4581 
L 988 4581 
L 988 3934 
L 425 3934 
z
M 425 0 
L 425 3319 
L 988 3319 
L 988 0 
L 425 0 
z
" transform="scale(0.015625)"/>
     </defs>
     <use xlink:href="#ArialMT-46"/>
     <use xlink:href="#ArialMT-41" x="55.583984"/>
     <use xlink:href="#ArialMT-73" x="122.283203"/>
     <use xlink:href="#ArialMT-2c" x="172.283203"/>
     <use xlink:href="#ArialMT-20" x="200.066406"/>
     <use xlink:href="#ArialMT-46" x="227.849609"/>
     <use xlink:href="#ArialMT-6f" x="288.933594"/>
     <use xlink:href="#ArialMT-6f" x="344.548828"/>
     <use xlink:href="#ArialMT-64" x="400.164062"/>
     <use xlink:href="#ArialMT-2c" x="455.779297"/>
     <use xlink:href="#ArialMT-20" x="483.5625"/>
     <use xlink:href="#ArialMT-47" x="511.345703"/>
     <use xlink:href="#ArialMT-61" x="589.128906"/>
     <use xlink:href="#ArialMT-6c" x="644.744141"/>
     <use xlink:href="#ArialMT-6c" x="666.960938"/>
     <use xlink:href="#ArialMT-65" x="689.177734"/>
     <use xlink:href="#ArialMT-79" x="744.792969"/>
     <use xlink:href="#ArialMT-73" x="794.792969"/>
     <use xlink:href="#ArialMT-2c" x="844.792969"/>
     <use xlink:href="#ArialMT-20" x="872.576172"/>
     <use xlink:href="#ArialMT-4c" x="900.359375"/>
     <use xlink:href="#ArialMT-61" x="955.974609"/>
     <use xlink:href="#ArialMT-76" x="1011.589844"/>
     <use xlink:href="#ArialMT-61" x="1061.589844"/>
     <use xlink:href="#ArialMT-74" x="1117.205078"/>
     <use xlink:href="#ArialMT-6f" x="1144.988281"/>
     <use xlink:href="#ArialMT-72" x="1200.603516"/>
     <use xlink:href="#ArialMT-69" x="1233.904297"/>
     <use xlink:href="#ArialMT-65" x="1256.121094"/>
     <use xlink:href="#ArialMT-73" x="1311.736328"/>
     <use xlink:href="#ArialMT-2c" x="1361.736328"/>
    </g>
    <!-- Luggage Hold, Doors, Lighting, -->
    <g style="fill: #262626" transform="translate(13.251039 252.454591) scale(0.12 -0.12)">
     <defs>
      <path id="ArialMT-75" d="M 2597 0 
L 2597 488 
Q 2209 -75 1544 -75 
Q 1250 -75 995 37 
Q 741 150 617 320 
Q 494 491 444 738 
Q 409 903 409 1263 
L 409 3319 
L 972 3319 
L 972 1478 
Q 972 1038 1006 884 
Q 1059 663 1231 536 
Q 1403 409 1656 409 
Q 1909 409 2131 539 
Q 2353 669 2445 892 
Q 2538 1116 2538 1541 
L 2538 3319 
L 3100 3319 
L 3100 0 
L 2597 0 
z
" transform="scale(0.015625)"/>
      <path id="ArialMT-48" d="M 513 0 
L 513 4581 
L 1119 4581 
L 1119 2700 
L 3500 2700 
L 3500 4581 
L 4106 4581 
L 4106 0 
L 3500 0 
L 3500 2159 
L 1119 2159 
L 1119 0 
L 513 0 
z
" transform="scale(0.015625)"/>
      <path id="ArialMT-44" d="M 494 0 
L 494 4581 
L 2072 4581 
Q 2606 4581 2888 4516 
Q 3281 4425 3559 4188 
Q 3922 3881 4101 3404 
Q 4281 2928 4281 2316 
Q 4281 1794 4159 1391 
Q 4038 988 3847 723 
Q 3656 459 3429 307 
Q 3203 156 2883 78 
Q 2563 0 2147 0 
L 494 0 
z
M 1100 541 
L 2078 541 
Q 2531 541 2789 625 
Q 3047 709 3200 863 
Q 3416 1078 3536 1442 
Q 3656 1806 3656 2325 
Q 3656 3044 3420 3430 
Q 3184 3816 2847 3947 
Q 2603 4041 2063 4041 
L 1100 4041 
L 1100 541 
z
" transform="scale(0.015625)"/>
      <path id="ArialMT-68" d="M 422 0 
L 422 4581 
L 984 4581 
L 984 2938 
Q 1378 3394 1978 3394 
Q 2347 3394 2619 3248 
Q 2891 3103 3008 2847 
Q 3125 2591 3125 2103 
L 3125 0 
L 2563 0 
L 2563 2103 
Q 2563 2525 2380 2717 
Q 2197 2909 1863 2909 
Q 1613 2909 1392 2779 
Q 1172 2650 1078 2428 
Q 984 2206 984 1816 
L 984 0 
L 422 0 
z
" transform="scale(0.015625)"/>
     </defs>
     <use xlink:href="#ArialMT-4c"/>
     <use xlink:href="#ArialMT-75" x="55.615234"/>
     <use xlink:href="#ArialMT-67" x="111.230469"/>
     <use xlink:href="#ArialMT-67" x="166.845703"/>
     <use xlink:href="#ArialMT-61" x="222.460938"/>
     <use xlink:href="#ArialMT-67" x="278.076172"/>
     <use xlink:href="#ArialMT-65" x="333.691406"/>
     <use xlink:href="#ArialMT-20" x="389.306641"/>
     <use xlink:href="#ArialMT-48" x="417.089844"/>
     <use xlink:href="#ArialMT-6f" x="489.306641"/>
     <use xlink:href="#ArialMT-6c" x="544.921875"/>
     <use xlink:href="#ArialMT-64" x="567.138672"/>
     <use xlink:href="#ArialMT-2c" x="622.753906"/>
     <use xlink:href="#ArialMT-20" x="650.537109"/>
     <use xlink:href="#ArialMT-44" x="678.320312"/>
     <use xlink:href="#ArialMT-6f" x="750.537109"/>
     <use xlink:href="#ArialMT-6f" x="806.152344"/>
     <use xlink:href="#ArialMT-72" x="861.767578"/>
     <use xlink:href="#ArialMT-73" x="895.068359"/>
     <use xlink:href="#ArialMT-2c" x="945.068359"/>
     <use xlink:href="#ArialMT-20" x="972.851562"/>
     <use xlink:href="#ArialMT-4c" x="1000.634766"/>
     <use xlink:href="#ArialMT-69" x="1056.25"/>
     <use xlink:href="#ArialMT-67" x="1078.466797"/>
     <use xlink:href="#ArialMT-68" x="1134.082031"/>
     <use xlink:href="#ArialMT-74" x="1189.697266"/>
     <use xlink:href="#ArialMT-69" x="1217.480469"/>
     <use xlink:href="#ArialMT-6e" x="1239.697266"/>
     <use xlink:href="#ArialMT-67" x="1295.3125"/>
     <use xlink:href="#ArialMT-2c" x="1350.927734"/>
    </g>
    <!-- Air Cond., Entertainment -->
    <g style="fill: #262626" transform="translate(47.295414 265.287466) scale(0.12 -0.12)">
     <defs>
      <path id="ArialMT-43" d="M 3763 1606 
L 4369 1453 
Q 4178 706 3683 314 
Q 3188 -78 2472 -78 
Q 1731 -78 1267 223 
Q 803 525 561 1097 
Q 319 1669 319 2325 
Q 319 3041 592 3573 
Q 866 4106 1370 4382 
Q 1875 4659 2481 4659 
Q 3169 4659 3637 4309 
Q 4106 3959 4291 3325 
L 3694 3184 
Q 3534 3684 3231 3912 
Q 2928 4141 2469 4141 
Q 1941 4141 1586 3887 
Q 1231 3634 1087 3207 
Q 944 2781 944 2328 
Q 944 1744 1114 1308 
Q 1284 872 1643 656 
Q 2003 441 2422 441 
Q 2931 441 3284 734 
Q 3638 1028 3763 1606 
z
" transform="scale(0.015625)"/>
      <path id="ArialMT-2e" d="M 581 0 
L 581 641 
L 1222 641 
L 1222 0 
L 581 0 
z
" transform="scale(0.015625)"/>
      <path id="ArialMT-45" d="M 506 0 
L 506 4581 
L 3819 4581 
L 3819 4041 
L 1113 4041 
L 1113 2638 
L 3647 2638 
L 3647 2100 
L 1113 2100 
L 1113 541 
L 3925 541 
L 3925 0 
L 506 0 
z
" transform="scale(0.015625)"/>
      <path id="ArialMT-6d" d="M 422 0 
L 422 3319 
L 925 3319 
L 925 2853 
Q 1081 3097 1340 3245 
Q 1600 3394 1931 3394 
Q 2300 3394 2536 3241 
Q 2772 3088 2869 2813 
Q 3263 3394 3894 3394 
Q 4388 3394 4653 3120 
Q 4919 2847 4919 2278 
L 4919 0 
L 4359 0 
L 4359 2091 
Q 4359 2428 4304 2576 
Q 4250 2725 4106 2815 
Q 3963 2906 3769 2906 
Q 3419 2906 3187 2673 
Q 2956 2441 2956 1928 
L 2956 0 
L 2394 0 
L 2394 2156 
Q 2394 2531 2256 2718 
Q 2119 2906 1806 2906 
Q 1569 2906 1367 2781 
Q 1166 2656 1075 2415 
Q 984 2175 984 1722 
L 984 0 
L 422 0 
z
" transform="scale(0.015625)"/>
     </defs>
     <use xlink:href="#ArialMT-41"/>
     <use xlink:href="#ArialMT-69" x="66.699219"/>
     <use xlink:href="#ArialMT-72" x="88.916016"/>
     <use xlink:href="#ArialMT-20" x="122.216797"/>
     <use xlink:href="#ArialMT-43" x="150"/>
     <use xlink:href="#ArialMT-6f" x="222.216797"/>
     <use xlink:href="#ArialMT-6e" x="277.832031"/>
     <use xlink:href="#ArialMT-64" x="333.447266"/>
     <use xlink:href="#ArialMT-2e" x="389.0625"/>
     <use xlink:href="#ArialMT-2c" x="416.845703"/>
     <use xlink:href="#ArialMT-20" x="444.628906"/>
     <use xlink:href="#ArialMT-45" x="472.412109"/>
     <use xlink:href="#ArialMT-6e" x="539.111328"/>
     <use xlink:href="#ArialMT-74" x="594.726562"/>
     <use xlink:href="#ArialMT-65" x="622.509766"/>
     <use xlink:href="#ArialMT-72" x="678.125"/>
     <use xlink:href="#ArialMT-74" x="711.425781"/>
     <use xlink:href="#ArialMT-61" x="739.208984"/>
     <use xlink:href="#ArialMT-69" x="794.824219"/>
     <use xlink:href="#ArialMT-6e" x="817.041016"/>
     <use xlink:href="#ArialMT-6d" x="872.65625"/>
     <use xlink:href="#ArialMT-65" x="955.957031"/>
     <use xlink:href="#ArialMT-6e" x="1011.572266"/>
     <use xlink:href="#ArialMT-74" x="1067.1875"/>
    </g>
    <!-- 13653 kg, 8% -->
    <g style="fill: #262626" transform="translate(105.300414 278.155216) scale(0.12 -0.12)">
     <defs>
      <path id="ArialMT-38" d="M 1131 2484 
Q 781 2613 612 2850 
Q 444 3088 444 3419 
Q 444 3919 803 4259 
Q 1163 4600 1759 4600 
Q 2359 4600 2725 4251 
Q 3091 3903 3091 3403 
Q 3091 3084 2923 2848 
Q 2756 2613 2416 2484 
Q 2838 2347 3058 2040 
Q 3278 1734 3278 1309 
Q 3278 722 2862 322 
Q 2447 -78 1769 -78 
Q 1091 -78 675 323 
Q 259 725 259 1325 
Q 259 1772 486 2073 
Q 713 2375 1131 2484 
z
M 1019 3438 
Q 1019 3113 1228 2906 
Q 1438 2700 1772 2700 
Q 2097 2700 2305 2904 
Q 2513 3109 2513 3406 
Q 2513 3716 2298 3927 
Q 2084 4138 1766 4138 
Q 1444 4138 1231 3931 
Q 1019 3725 1019 3438 
z
M 838 1322 
Q 838 1081 952 856 
Q 1066 631 1291 507 
Q 1516 384 1775 384 
Q 2178 384 2440 643 
Q 2703 903 2703 1303 
Q 2703 1709 2433 1975 
Q 2163 2241 1756 2241 
Q 1359 2241 1098 1978 
Q 838 1716 838 1322 
z
" transform="scale(0.015625)"/>
     </defs>
     <use xlink:href="#ArialMT-31"/>
     <use xlink:href="#ArialMT-33" x="55.615234"/>
     <use xlink:href="#ArialMT-36" x="111.230469"/>
     <use xlink:href="#ArialMT-35" x="166.845703"/>
     <use xlink:href="#ArialMT-33" x="222.460938"/>
     <use xlink:href="#ArialMT-20" x="278.076172"/>
     <use xlink:href="#ArialMT-6b" x="305.859375"/>
     <use xlink:href="#ArialMT-67" x="355.859375"/>
     <use xlink:href="#ArialMT-2c" x="411.474609"/>
     <use xlink:href="#ArialMT-20" x="439.257812"/>
     <use xlink:href="#ArialMT-38" x="467.041016"/>
     <use xlink:href="#ArialMT-25" x="522.65625"/>
    </g>
   </g>
   <g id="patch_6">
    <path d="M 183.191963 335.378523 
L 183.684164 335.378523 
Q 188.684164 335.378523 191.832432 331.494143 
L 217.028456 300.406912 
Q 220.176724 296.522532 224.41865 293.875636 
L 226.966292 292.285948 
" style="fill: none; stroke: #1a1a1a; stroke-linecap: round"/>
   </g>
   <g id="text_5">
    <!-- Buoyancy, 878 kg, 1% -->
    <g style="fill: #262626" transform="translate(60.167289 338.483523) scale(0.12 -0.12)">
     <defs>
      <path id="ArialMT-42" d="M 469 0 
L 469 4581 
L 2188 4581 
Q 2713 4581 3030 4442 
Q 3347 4303 3526 4014 
Q 3706 3725 3706 3409 
Q 3706 3116 3547 2856 
Q 3388 2597 3066 2438 
Q 3481 2316 3704 2022 
Q 3928 1728 3928 1328 
Q 3928 1006 3792 729 
Q 3656 453 3456 303 
Q 3256 153 2954 76 
Q 2653 0 2216 0 
L 469 0 
z
M 1075 2656 
L 2066 2656 
Q 2469 2656 2644 2709 
Q 2875 2778 2992 2937 
Q 3109 3097 3109 3338 
Q 3109 3566 3000 3739 
Q 2891 3913 2687 3977 
Q 2484 4041 1991 4041 
L 1075 4041 
L 1075 2656 
z
M 1075 541 
L 2216 541 
Q 2509 541 2628 563 
Q 2838 600 2978 687 
Q 3119 775 3209 942 
Q 3300 1109 3300 1328 
Q 3300 1584 3169 1773 
Q 3038 1963 2805 2039 
Q 2572 2116 2134 2116 
L 1075 2116 
L 1075 541 
z
" transform="scale(0.015625)"/>
      <path id="ArialMT-63" d="M 2588 1216 
L 3141 1144 
Q 3050 572 2676 248 
Q 2303 -75 1759 -75 
Q 1078 -75 664 370 
Q 250 816 250 1647 
Q 250 2184 428 2587 
Q 606 2991 970 3192 
Q 1334 3394 1763 3394 
Q 2303 3394 2647 3120 
Q 2991 2847 3088 2344 
L 2541 2259 
Q 2463 2594 2264 2762 
Q 2066 2931 1784 2931 
Q 1359 2931 1093 2626 
Q 828 2322 828 1663 
Q 828 994 1084 691 
Q 1341 388 1753 388 
Q 2084 388 2306 591 
Q 2528 794 2588 1216 
z
" transform="scale(0.015625)"/>
      <path id="ArialMT-37" d="M 303 3981 
L 303 4522 
L 3269 4522 
L 3269 4084 
Q 2831 3619 2401 2847 
Q 1972 2075 1738 1259 
Q 1569 684 1522 0 
L 944 0 
Q 953 541 1156 1306 
Q 1359 2072 1739 2783 
Q 2119 3494 2547 3981 
L 303 3981 
z
" transform="scale(0.015625)"/>
     </defs>
     <use xlink:href="#ArialMT-42"/>
     <use xlink:href="#ArialMT-75" x="66.699219"/>
     <use xlink:href="#ArialMT-6f" x="122.314453"/>
     <use xlink:href="#ArialMT-79" x="177.929688"/>
     <use xlink:href="#ArialMT-61" x="227.929688"/>
     <use xlink:href="#ArialMT-6e" x="283.544922"/>
     <use xlink:href="#ArialMT-63" x="339.160156"/>
     <use xlink:href="#ArialMT-79" x="389.160156"/>
     <use xlink:href="#ArialMT-2c" x="431.785156"/>
     <use xlink:href="#ArialMT-20" x="459.568359"/>
     <use xlink:href="#ArialMT-38" x="487.351562"/>
     <use xlink:href="#ArialMT-37" x="542.966797"/>
     <use xlink:href="#ArialMT-38" x="598.582031"/>
     <use xlink:href="#ArialMT-20" x="654.197266"/>
     <use xlink:href="#ArialMT-6b" x="681.980469"/>
     <use xlink:href="#ArialMT-67" x="731.980469"/>
     <use xlink:href="#ArialMT-2c" x="787.595703"/>
     <use xlink:href="#ArialMT-20" x="815.378906"/>
     <use xlink:href="#ArialMT-31" x="843.162109"/>
     <use xlink:href="#ArialMT-25" x="898.777344"/>
    </g>
   </g>
   <g id="patch_7">
    <path d="M 183.180252 414.973579 
L 183.684164 414.973579 
Q 188.684164 414.973579 192.637505 411.912355 
L 270.569605 351.566511 
Q 274.522946 348.505286 276.978743 344.149937 
L 278.45366 341.534176 
" style="fill: none; stroke: #1a1a1a; stroke-linecap: round"/>
   </g>
   <g id="text_6">
    <!-- Wing Structure, 26514 kg, 15% -->
    <g style="fill: #262626" transform="translate(12.604164 418.078579) scale(0.12 -0.12)">
     <defs>
      <path id="ArialMT-57" d="M 1294 0 
L 78 4581 
L 700 4581 
L 1397 1578 
Q 1509 1106 1591 641 
Q 1766 1375 1797 1488 
L 2669 4581 
L 3400 4581 
L 4056 2263 
Q 4303 1400 4413 641 
Q 4500 1075 4641 1638 
L 5359 4581 
L 5969 4581 
L 4713 0 
L 4128 0 
L 3163 3491 
Q 3041 3928 3019 4028 
Q 2947 3713 2884 3491 
L 1913 0 
L 1294 0 
z
" transform="scale(0.015625)"/>
      <path id="ArialMT-34" d="M 2069 0 
L 2069 1097 
L 81 1097 
L 81 1613 
L 2172 4581 
L 2631 4581 
L 2631 1613 
L 3250 1613 
L 3250 1097 
L 2631 1097 
L 2631 0 
L 2069 0 
z
M 2069 1613 
L 2069 3678 
L 634 1613 
L 2069 1613 
z
" transform="scale(0.015625)"/>
     </defs>
     <use xlink:href="#ArialMT-57"/>
     <use xlink:href="#ArialMT-69" x="94.384766"/>
     <use xlink:href="#ArialMT-6e" x="116.601562"/>
     <use xlink:href="#ArialMT-67" x="172.216797"/>
     <use xlink:href="#ArialMT-20" x="227.832031"/>
     <use xlink:href="#ArialMT-53" x="255.615234"/>
     <use xlink:href="#ArialMT-74" x="322.314453"/>
     <use xlink:href="#ArialMT-72" x="350.097656"/>
     <use xlink:href="#ArialMT-75" x="383.398438"/>
     <use xlink:href="#ArialMT-63" x="439.013672"/>
     <use xlink:href="#ArialMT-74" x="489.013672"/>
     <use xlink:href="#ArialMT-75" x="516.796875"/>
     <use xlink:href="#ArialMT-72" x="572.412109"/>
     <use xlink:href="#ArialMT-65" x="605.712891"/>
     <use xlink:href="#ArialMT-2c" x="661.328125"/>
     <use xlink:href="#ArialMT-20" x="689.111328"/>
     <use xlink:href="#ArialMT-32" x="716.894531"/>
     <use xlink:href="#ArialMT-36" x="772.509766"/>
     <use xlink:href="#ArialMT-35" x="828.125"/>
     <use xlink:href="#ArialMT-31" x="883.740234"/>
     <use xlink:href="#ArialMT-34" x="939.355469"/>
     <use xlink:href="#ArialMT-20" x="994.970703"/>
     <use xlink:href="#ArialMT-6b" x="1022.753906"/>
     <use xlink:href="#ArialMT-67" x="1072.753906"/>
     <use xlink:href="#ArialMT-2c" x="1128.369141"/>
     <use xlink:href="#ArialMT-20" x="1156.152344"/>
     <use xlink:href="#ArialMT-31" x="1183.935547"/>
     <use xlink:href="#ArialMT-35" x="1239.550781"/>
     <use xlink:href="#ArialMT-25" x="1295.166016"/>
    </g>
   </g>
   <g id="patch_8">
    <path d="M 515.298037 414.973579 
L 514.805836 414.973579 
Q 509.805836 414.973579 505.010254 413.558519 
L 355.782688 369.525053 
Q 350.987107 368.109993 350.929851 363.11032 
L 350.895464 360.107588 
" style="fill: none; stroke: #1a1a1a; stroke-linecap: round"/>
   </g>
   <g id="text_7">
    <!-- H-Stab Structure, 2269 kg, 1% -->
    <g style="fill: #262626" transform="translate(519.805836 418.078579) scale(0.12 -0.12)">
     <defs>
      <path id="ArialMT-2d" d="M 203 1375 
L 203 1941 
L 1931 1941 
L 1931 1375 
L 203 1375 
z
" transform="scale(0.015625)"/>
      <path id="ArialMT-62" d="M 941 0 
L 419 0 
L 419 4581 
L 981 4581 
L 981 2947 
Q 1338 3394 1891 3394 
Q 2197 3394 2470 3270 
Q 2744 3147 2920 2923 
Q 3097 2700 3197 2384 
Q 3297 2069 3297 1709 
Q 3297 856 2875 390 
Q 2453 -75 1863 -75 
Q 1275 -75 941 416 
L 941 0 
z
M 934 1684 
Q 934 1088 1097 822 
Q 1363 388 1816 388 
Q 2184 388 2453 708 
Q 2722 1028 2722 1663 
Q 2722 2313 2464 2622 
Q 2206 2931 1841 2931 
Q 1472 2931 1203 2611 
Q 934 2291 934 1684 
z
" transform="scale(0.015625)"/>
     </defs>
     <use xlink:href="#ArialMT-48"/>
     <use xlink:href="#ArialMT-2d" x="72.216797"/>
     <use xlink:href="#ArialMT-53" x="105.517578"/>
     <use xlink:href="#ArialMT-74" x="172.216797"/>
     <use xlink:href="#ArialMT-61" x="200"/>
     <use xlink:href="#ArialMT-62" x="255.615234"/>
     <use xlink:href="#ArialMT-20" x="311.230469"/>
     <use xlink:href="#ArialMT-53" x="339.013672"/>
     <use xlink:href="#ArialMT-74" x="405.712891"/>
     <use xlink:href="#ArialMT-72" x="433.496094"/>
     <use xlink:href="#ArialMT-75" x="466.796875"/>
     <use xlink:href="#ArialMT-63" x="522.412109"/>
     <use xlink:href="#ArialMT-74" x="572.412109"/>
     <use xlink:href="#ArialMT-75" x="600.195312"/>
     <use xlink:href="#ArialMT-72" x="655.810547"/>
     <use xlink:href="#ArialMT-65" x="689.111328"/>
     <use xlink:href="#ArialMT-2c" x="744.726562"/>
     <use xlink:href="#ArialMT-20" x="772.509766"/>
     <use xlink:href="#ArialMT-32" x="800.292969"/>
     <use xlink:href="#ArialMT-32" x="855.908203"/>
     <use xlink:href="#ArialMT-36" x="911.523438"/>
     <use xlink:href="#ArialMT-39" x="967.138672"/>
     <use xlink:href="#ArialMT-20" x="1022.753906"/>
     <use xlink:href="#ArialMT-6b" x="1050.537109"/>
     <use xlink:href="#ArialMT-67" x="1100.537109"/>
     <use xlink:href="#ArialMT-2c" x="1156.152344"/>
     <use xlink:href="#ArialMT-20" x="1183.935547"/>
     <use xlink:href="#ArialMT-31" x="1211.71875"/>
     <use xlink:href="#ArialMT-25" x="1267.333984"/>
    </g>
   </g>
   <g id="patch_9">
    <path d="M 515.298037 391.563269 
L 514.805836 391.563269 
Q 509.805836 391.563269 504.879386 390.708816 
L 372.897199 367.817572 
Q 367.970749 366.963119 367.355313 362.00114 
L 366.985691 359.021045 
" style="fill: none; stroke: #1a1a1a; stroke-linecap: round"/>
   </g>
   <g id="text_8">
    <!-- V-Stab Structure, 3870 kg, 2% -->
    <g style="fill: #262626" transform="translate(519.805836 394.668269) scale(0.12 -0.12)">
     <defs>
      <path id="ArialMT-56" d="M 1803 0 
L 28 4581 
L 684 4581 
L 1875 1253 
Q 2019 853 2116 503 
Q 2222 878 2363 1253 
L 3600 4581 
L 4219 4581 
L 2425 0 
L 1803 0 
z
" transform="scale(0.015625)"/>
     </defs>
     <use xlink:href="#ArialMT-56"/>
     <use xlink:href="#ArialMT-2d" x="61.199219"/>
     <use xlink:href="#ArialMT-53" x="94.5"/>
     <use xlink:href="#ArialMT-74" x="161.199219"/>
     <use xlink:href="#ArialMT-61" x="188.982422"/>
     <use xlink:href="#ArialMT-62" x="244.597656"/>
     <use xlink:href="#ArialMT-20" x="300.212891"/>
     <use xlink:href="#ArialMT-53" x="327.996094"/>
     <use xlink:href="#ArialMT-74" x="394.695312"/>
     <use xlink:href="#ArialMT-72" x="422.478516"/>
     <use xlink:href="#ArialMT-75" x="455.779297"/>
     <use xlink:href="#ArialMT-63" x="511.394531"/>
     <use xlink:href="#ArialMT-74" x="561.394531"/>
     <use xlink:href="#ArialMT-75" x="589.177734"/>
     <use xlink:href="#ArialMT-72" x="644.792969"/>
     <use xlink:href="#ArialMT-65" x="678.09375"/>
     <use xlink:href="#ArialMT-2c" x="733.708984"/>
     <use xlink:href="#ArialMT-20" x="761.492188"/>
     <use xlink:href="#ArialMT-33" x="789.275391"/>
     <use xlink:href="#ArialMT-38" x="844.890625"/>
     <use xlink:href="#ArialMT-37" x="900.505859"/>
     <use xlink:href="#ArialMT-30" x="956.121094"/>
     <use xlink:href="#ArialMT-20" x="1011.736328"/>
     <use xlink:href="#ArialMT-6b" x="1039.519531"/>
     <use xlink:href="#ArialMT-67" x="1089.519531"/>
     <use xlink:href="#ArialMT-2c" x="1145.134766"/>
     <use xlink:href="#ArialMT-20" x="1172.917969"/>
     <use xlink:href="#ArialMT-32" x="1200.701172"/>
     <use xlink:href="#ArialMT-25" x="1256.316406"/>
    </g>
   </g>
   <g id="patch_10">
    <path d="M 515.298037 368.152958 
L 514.805836 368.152958 
Q 509.805836 368.152958 505.008282 366.7446 
L 435.00636 346.195015 
Q 430.208805 344.786657 427.547869 340.553524 
L 425.949747 338.011164 
" style="fill: none; stroke: #1a1a1a; stroke-linecap: round"/>
   </g>
   <g id="text_9">
    <!-- Fuselage Structure, 20138 kg, 12% -->
    <g style="fill: #262626" transform="translate(519.805836 371.257958) scale(0.12 -0.12)">
     <use xlink:href="#ArialMT-46"/>
     <use xlink:href="#ArialMT-75" x="61.083984"/>
     <use xlink:href="#ArialMT-73" x="116.699219"/>
     <use xlink:href="#ArialMT-65" x="166.699219"/>
     <use xlink:href="#ArialMT-6c" x="222.314453"/>
     <use xlink:href="#ArialMT-61" x="244.53125"/>
     <use xlink:href="#ArialMT-67" x="300.146484"/>
     <use xlink:href="#ArialMT-65" x="355.761719"/>
     <use xlink:href="#ArialMT-20" x="411.376953"/>
     <use xlink:href="#ArialMT-53" x="439.160156"/>
     <use xlink:href="#ArialMT-74" x="505.859375"/>
     <use xlink:href="#ArialMT-72" x="533.642578"/>
     <use xlink:href="#ArialMT-75" x="566.943359"/>
     <use xlink:href="#ArialMT-63" x="622.558594"/>
     <use xlink:href="#ArialMT-74" x="672.558594"/>
     <use xlink:href="#ArialMT-75" x="700.341797"/>
     <use xlink:href="#ArialMT-72" x="755.957031"/>
     <use xlink:href="#ArialMT-65" x="789.257812"/>
     <use xlink:href="#ArialMT-2c" x="844.873047"/>
     <use xlink:href="#ArialMT-20" x="872.65625"/>
     <use xlink:href="#ArialMT-32" x="900.439453"/>
     <use xlink:href="#ArialMT-30" x="956.054688"/>
     <use xlink:href="#ArialMT-31" x="1011.669922"/>
     <use xlink:href="#ArialMT-33" x="1067.285156"/>
     <use xlink:href="#ArialMT-38" x="1122.900391"/>
     <use xlink:href="#ArialMT-20" x="1178.515625"/>
     <use xlink:href="#ArialMT-6b" x="1206.298828"/>
     <use xlink:href="#ArialMT-67" x="1256.298828"/>
     <use xlink:href="#ArialMT-2c" x="1311.914062"/>
     <use xlink:href="#ArialMT-20" x="1339.697266"/>
     <use xlink:href="#ArialMT-31" x="1367.480469"/>
     <use xlink:href="#ArialMT-32" x="1423.095703"/>
     <use xlink:href="#ArialMT-25" x="1478.710938"/>
    </g>
   </g>
   <g id="patch_11">
    <path d="M 515.298037 344.742647 
L 514.805836 344.742647 
Q 509.805836 344.742647 506.995565 340.607145 
L 480.510397 301.632443 
Q 477.700126 297.496941 473.478351 294.818021 
L 470.942812 293.209098 
" style="fill: none; stroke: #1a1a1a; stroke-linecap: round"/>
   </g>
   <g id="text_10">
    <!-- Engines, 4221 kg, 2% -->
    <g style="fill: #262626" transform="translate(519.805836 347.847647) scale(0.12 -0.12)">
     <use xlink:href="#ArialMT-45"/>
     <use xlink:href="#ArialMT-6e" x="66.699219"/>
     <use xlink:href="#ArialMT-67" x="122.314453"/>
     <use xlink:href="#ArialMT-69" x="177.929688"/>
     <use xlink:href="#ArialMT-6e" x="200.146484"/>
     <use xlink:href="#ArialMT-65" x="255.761719"/>
     <use xlink:href="#ArialMT-73" x="311.376953"/>
     <use xlink:href="#ArialMT-2c" x="361.376953"/>
     <use xlink:href="#ArialMT-20" x="389.160156"/>
     <use xlink:href="#ArialMT-34" x="416.943359"/>
     <use xlink:href="#ArialMT-32" x="472.558594"/>
     <use xlink:href="#ArialMT-32" x="528.173828"/>
     <use xlink:href="#ArialMT-31" x="583.789062"/>
     <use xlink:href="#ArialMT-20" x="639.404297"/>
     <use xlink:href="#ArialMT-6b" x="667.1875"/>
     <use xlink:href="#ArialMT-67" x="717.1875"/>
     <use xlink:href="#ArialMT-2c" x="772.802734"/>
     <use xlink:href="#ArialMT-20" x="800.585938"/>
     <use xlink:href="#ArialMT-32" x="828.369141"/>
     <use xlink:href="#ArialMT-25" x="883.984375"/>
    </g>
   </g>
   <g id="patch_12">
    <path d="M 515.298037 321.332336 
L 514.805836 321.332336 
Q 509.805836 321.332336 508.110673 316.628463 
L 493.080168 274.920635 
Q 491.385004 270.216762 486.713465 268.434425 
L 483.907805 267.363978 
" style="fill: none; stroke: #1a1a1a; stroke-linecap: round"/>
   </g>
   <g id="text_11">
    <!-- Main Landing Gear, 6800 kg, 4% -->
    <g style="fill: #262626" transform="translate(519.805836 324.437336) scale(0.12 -0.12)">
     <defs>
      <path id="ArialMT-4d" d="M 475 0 
L 475 4581 
L 1388 4581 
L 2472 1338 
Q 2622 884 2691 659 
Q 2769 909 2934 1394 
L 4031 4581 
L 4847 4581 
L 4847 0 
L 4263 0 
L 4263 3834 
L 2931 0 
L 2384 0 
L 1059 3900 
L 1059 0 
L 475 0 
z
" transform="scale(0.015625)"/>
     </defs>
     <use xlink:href="#ArialMT-4d"/>
     <use xlink:href="#ArialMT-61" x="83.300781"/>
     <use xlink:href="#ArialMT-69" x="138.916016"/>
     <use xlink:href="#ArialMT-6e" x="161.132812"/>
     <use xlink:href="#ArialMT-20" x="216.748047"/>
     <use xlink:href="#ArialMT-4c" x="244.53125"/>
     <use xlink:href="#ArialMT-61" x="300.146484"/>
     <use xlink:href="#ArialMT-6e" x="355.761719"/>
     <use xlink:href="#ArialMT-64" x="411.376953"/>
     <use xlink:href="#ArialMT-69" x="466.992188"/>
     <use xlink:href="#ArialMT-6e" x="489.208984"/>
     <use xlink:href="#ArialMT-67" x="544.824219"/>
     <use xlink:href="#ArialMT-20" x="600.439453"/>
     <use xlink:href="#ArialMT-47" x="628.222656"/>
     <use xlink:href="#ArialMT-65" x="706.005859"/>
     <use xlink:href="#ArialMT-61" x="761.621094"/>
     <use xlink:href="#ArialMT-72" x="817.236328"/>
     <use xlink:href="#ArialMT-2c" x="845.037109"/>
     <use xlink:href="#ArialMT-20" x="872.820312"/>
     <use xlink:href="#ArialMT-36" x="900.603516"/>
     <use xlink:href="#ArialMT-38" x="956.21875"/>
     <use xlink:href="#ArialMT-30" x="1011.833984"/>
     <use xlink:href="#ArialMT-30" x="1067.449219"/>
     <use xlink:href="#ArialMT-20" x="1123.064453"/>
     <use xlink:href="#ArialMT-6b" x="1150.847656"/>
     <use xlink:href="#ArialMT-67" x="1200.847656"/>
     <use xlink:href="#ArialMT-2c" x="1256.462891"/>
     <use xlink:href="#ArialMT-20" x="1284.246094"/>
     <use xlink:href="#ArialMT-34" x="1312.029297"/>
     <use xlink:href="#ArialMT-25" x="1367.644531"/>
    </g>
   </g>
   <g id="patch_13">
    <path d="M 515.298037 297.922025 
L 514.805836 297.922025 
Q 509.805836 297.922025 508.57354 293.07626 
L 498.803355 254.656892 
Q 497.571059 249.811126 492.696211 248.699435 
L 489.768445 248.03177 
" style="fill: none; stroke: #1a1a1a; stroke-linecap: round"/>
   </g>
   <g id="text_12">
    <!-- Nose Landing Gear, 893 kg, 1% -->
    <g style="fill: #262626" transform="translate(519.805836 301.027025) scale(0.12 -0.12)">
     <defs>
      <path id="ArialMT-4e" d="M 488 0 
L 488 4581 
L 1109 4581 
L 3516 984 
L 3516 4581 
L 4097 4581 
L 4097 0 
L 3475 0 
L 1069 3600 
L 1069 0 
L 488 0 
z
" transform="scale(0.015625)"/>
     </defs>
     <use xlink:href="#ArialMT-4e"/>
     <use xlink:href="#ArialMT-6f" x="72.216797"/>
     <use xlink:href="#ArialMT-73" x="127.832031"/>
     <use xlink:href="#ArialMT-65" x="177.832031"/>
     <use xlink:href="#ArialMT-20" x="233.447266"/>
     <use xlink:href="#ArialMT-4c" x="261.230469"/>
     <use xlink:href="#ArialMT-61" x="316.845703"/>
     <use xlink:href="#ArialMT-6e" x="372.460938"/>
     <use xlink:href="#ArialMT-64" x="428.076172"/>
     <use xlink:href="#ArialMT-69" x="483.691406"/>
     <use xlink:href="#ArialMT-6e" x="505.908203"/>
     <use xlink:href="#ArialMT-67" x="561.523438"/>
     <use xlink:href="#ArialMT-20" x="617.138672"/>
     <use xlink:href="#ArialMT-47" x="644.921875"/>
     <use xlink:href="#ArialMT-65" x="722.705078"/>
     <use xlink:href="#ArialMT-61" x="778.320312"/>
     <use xlink:href="#ArialMT-72" x="833.935547"/>
     <use xlink:href="#ArialMT-2c" x="861.736328"/>
     <use xlink:href="#ArialMT-20" x="889.519531"/>
     <use xlink:href="#ArialMT-38" x="917.302734"/>
     <use xlink:href="#ArialMT-39" x="972.917969"/>
     <use xlink:href="#ArialMT-33" x="1028.533203"/>
     <use xlink:href="#ArialMT-20" x="1084.148438"/>
     <use xlink:href="#ArialMT-6b" x="1111.931641"/>
     <use xlink:href="#ArialMT-67" x="1161.931641"/>
     <use xlink:href="#ArialMT-2c" x="1217.546875"/>
     <use xlink:href="#ArialMT-20" x="1245.330078"/>
     <use xlink:href="#ArialMT-31" x="1273.113281"/>
     <use xlink:href="#ArialMT-25" x="1328.728516"/>
    </g>
   </g>
   <g id="patch_14">
    <path d="M 515.298037 274.511715 
L 514.805836 274.511715 
Q 509.805836 274.511715 508.006396 269.846737 
L 500.330851 249.948194 
Q 498.531411 245.283216 493.625 244.320339 
L 490.678279 243.742049 
" style="fill: none; stroke: #1a1a1a; stroke-linecap: round"/>
   </g>
   <g id="text_13">
    <!-- Nacelles, 776 kg -->
    <g style="fill: #262626" transform="translate(519.805836 277.561402) scale(0.12 -0.12)">
     <use xlink:href="#ArialMT-4e"/>
     <use xlink:href="#ArialMT-61" x="72.216797"/>
     <use xlink:href="#ArialMT-63" x="127.832031"/>
     <use xlink:href="#ArialMT-65" x="177.832031"/>
     <use xlink:href="#ArialMT-6c" x="233.447266"/>
     <use xlink:href="#ArialMT-6c" x="255.664062"/>
     <use xlink:href="#ArialMT-65" x="277.880859"/>
     <use xlink:href="#ArialMT-73" x="333.496094"/>
     <use xlink:href="#ArialMT-2c" x="383.496094"/>
     <use xlink:href="#ArialMT-20" x="411.279297"/>
     <use xlink:href="#ArialMT-37" x="439.0625"/>
     <use xlink:href="#ArialMT-37" x="494.677734"/>
     <use xlink:href="#ArialMT-36" x="550.292969"/>
     <use xlink:href="#ArialMT-20" x="605.908203"/>
     <use xlink:href="#ArialMT-6b" x="633.691406"/>
     <use xlink:href="#ArialMT-67" x="683.691406"/>
    </g>
   </g>
   <g id="patch_15">
    <path d="M 515.298037 251.101404 
L 514.805836 251.101404 
Q 509.805836 251.101404 505.815043 248.089167 
L 502.965516 245.938354 
Q 498.974722 242.926118 494.053742 242.040708 
L 491.09827 241.508944 
" style="fill: none; stroke: #1a1a1a; stroke-linecap: round"/>
   </g>
   <g id="text_14">
    <!-- Engine Controls, 89 kg -->
    <g style="fill: #262626" transform="translate(519.805836 254.206404) scale(0.12 -0.12)">
     <use xlink:href="#ArialMT-45"/>
     <use xlink:href="#ArialMT-6e" x="66.699219"/>
     <use xlink:href="#ArialMT-67" x="122.314453"/>
     <use xlink:href="#ArialMT-69" x="177.929688"/>
     <use xlink:href="#ArialMT-6e" x="200.146484"/>
     <use xlink:href="#ArialMT-65" x="255.761719"/>
     <use xlink:href="#ArialMT-20" x="311.376953"/>
     <use xlink:href="#ArialMT-43" x="339.160156"/>
     <use xlink:href="#ArialMT-6f" x="411.376953"/>
     <use xlink:href="#ArialMT-6e" x="466.992188"/>
     <use xlink:href="#ArialMT-74" x="522.607422"/>
     <use xlink:href="#ArialMT-72" x="550.390625"/>
     <use xlink:href="#ArialMT-6f" x="583.691406"/>
     <use xlink:href="#ArialMT-6c" x="639.306641"/>
     <use xlink:href="#ArialMT-73" x="661.523438"/>
     <use xlink:href="#ArialMT-2c" x="711.523438"/>
     <use xlink:href="#ArialMT-20" x="739.306641"/>
     <use xlink:href="#ArialMT-38" x="767.089844"/>
     <use xlink:href="#ArialMT-39" x="822.705078"/>
     <use xlink:href="#ArialMT-20" x="878.320312"/>
     <use xlink:href="#ArialMT-6b" x="906.103516"/>
     <use xlink:href="#ArialMT-67" x="956.103516"/>
    </g>
   </g>
   <g id="patch_16">
    <path d="M 515.298037 227.691093 
L 514.805836 227.691093 
Q 509.805836 227.691093 506.865659 231.735269 
L 501.994555 238.435408 
Q 499.054378 242.479584 494.13078 241.60885 
L 491.173736 241.0859 
" style="fill: none; stroke: #1a1a1a; stroke-linecap: round"/>
   </g>
   <g id="text_15">
    <!-- Starter, 75 kg -->
    <g style="fill: #262626" transform="translate(519.805836 230.796093) scale(0.12 -0.12)">
     <use xlink:href="#ArialMT-53"/>
     <use xlink:href="#ArialMT-74" x="66.699219"/>
     <use xlink:href="#ArialMT-61" x="94.482422"/>
     <use xlink:href="#ArialMT-72" x="150.097656"/>
     <use xlink:href="#ArialMT-74" x="183.398438"/>
     <use xlink:href="#ArialMT-65" x="211.181641"/>
     <use xlink:href="#ArialMT-72" x="266.796875"/>
     <use xlink:href="#ArialMT-2c" x="294.597656"/>
     <use xlink:href="#ArialMT-20" x="322.380859"/>
     <use xlink:href="#ArialMT-37" x="350.164062"/>
     <use xlink:href="#ArialMT-35" x="405.779297"/>
     <use xlink:href="#ArialMT-20" x="461.394531"/>
     <use xlink:href="#ArialMT-6b" x="489.177734"/>
     <use xlink:href="#ArialMT-67" x="539.177734"/>
    </g>
   </g>
   <g id="patch_17">
    <path d="M 515.298037 204.280782 
L 514.805836 204.280782 
Q 509.805836 204.280782 508.404241 209.080317 
L 500.986711 234.480449 
Q 499.585116 239.279983 494.644074 238.514407 
L 491.676554 238.054613 
" style="fill: none; stroke: #1a1a1a; stroke-linecap: round"/>
   </g>
   <g id="text_16">
    <!-- Flight Controls, 1095 kg, 1% -->
    <g style="fill: #262626" transform="translate(519.805836 207.385782) scale(0.12 -0.12)">
     <use xlink:href="#ArialMT-46"/>
     <use xlink:href="#ArialMT-6c" x="61.083984"/>
     <use xlink:href="#ArialMT-69" x="83.300781"/>
     <use xlink:href="#ArialMT-67" x="105.517578"/>
     <use xlink:href="#ArialMT-68" x="161.132812"/>
     <use xlink:href="#ArialMT-74" x="216.748047"/>
     <use xlink:href="#ArialMT-20" x="244.53125"/>
     <use xlink:href="#ArialMT-43" x="272.314453"/>
     <use xlink:href="#ArialMT-6f" x="344.53125"/>
     <use xlink:href="#ArialMT-6e" x="400.146484"/>
     <use xlink:href="#ArialMT-74" x="455.761719"/>
     <use xlink:href="#ArialMT-72" x="483.544922"/>
     <use xlink:href="#ArialMT-6f" x="516.845703"/>
     <use xlink:href="#ArialMT-6c" x="572.460938"/>
     <use xlink:href="#ArialMT-73" x="594.677734"/>
     <use xlink:href="#ArialMT-2c" x="644.677734"/>
     <use xlink:href="#ArialMT-20" x="672.460938"/>
     <use xlink:href="#ArialMT-31" x="700.244141"/>
     <use xlink:href="#ArialMT-30" x="755.859375"/>
     <use xlink:href="#ArialMT-39" x="811.474609"/>
     <use xlink:href="#ArialMT-35" x="867.089844"/>
     <use xlink:href="#ArialMT-20" x="922.705078"/>
     <use xlink:href="#ArialMT-6b" x="950.488281"/>
     <use xlink:href="#ArialMT-67" x="1000.488281"/>
     <use xlink:href="#ArialMT-2c" x="1056.103516"/>
     <use xlink:href="#ArialMT-20" x="1083.886719"/>
     <use xlink:href="#ArialMT-31" x="1111.669922"/>
     <use xlink:href="#ArialMT-25" x="1167.285156"/>
    </g>
   </g>
   <g id="patch_18">
    <path d="M 515.298037 180.870471 
L 514.805836 180.870471 
Q 509.805836 180.870471 508.923898 185.792075 
L 501.236112 228.693306 
Q 500.354174 233.61491 495.387857 233.03552 
L 492.405156 232.687547 
" style="fill: none; stroke: #1a1a1a; stroke-linecap: round"/>
   </g>
   <g id="text_17">
    <!-- Instruments, 966 kg, 1% -->
    <g style="fill: #262626" transform="translate(519.805836 183.975471) scale(0.12 -0.12)">
     <defs>
      <path id="ArialMT-49" d="M 597 0 
L 597 4581 
L 1203 4581 
L 1203 0 
L 597 0 
z
" transform="scale(0.015625)"/>
     </defs>
     <use xlink:href="#ArialMT-49"/>
     <use xlink:href="#ArialMT-6e" x="27.783203"/>
     <use xlink:href="#ArialMT-73" x="83.398438"/>
     <use xlink:href="#ArialMT-74" x="133.398438"/>
     <use xlink:href="#ArialMT-72" x="161.181641"/>
     <use xlink:href="#ArialMT-75" x="194.482422"/>
     <use xlink:href="#ArialMT-6d" x="250.097656"/>
     <use xlink:href="#ArialMT-65" x="333.398438"/>
     <use xlink:href="#ArialMT-6e" x="389.013672"/>
     <use xlink:href="#ArialMT-74" x="444.628906"/>
     <use xlink:href="#ArialMT-73" x="472.412109"/>
     <use xlink:href="#ArialMT-2c" x="522.412109"/>
     <use xlink:href="#ArialMT-20" x="550.195312"/>
     <use xlink:href="#ArialMT-39" x="577.978516"/>
     <use xlink:href="#ArialMT-36" x="633.59375"/>
     <use xlink:href="#ArialMT-36" x="689.208984"/>
     <use xlink:href="#ArialMT-20" x="744.824219"/>
     <use xlink:href="#ArialMT-6b" x="772.607422"/>
     <use xlink:href="#ArialMT-67" x="822.607422"/>
     <use xlink:href="#ArialMT-2c" x="878.222656"/>
     <use xlink:href="#ArialMT-20" x="906.005859"/>
     <use xlink:href="#ArialMT-31" x="933.789062"/>
     <use xlink:href="#ArialMT-25" x="989.404297"/>
    </g>
   </g>
   <g id="patch_19">
    <path d="M 515.298037 157.46016 
L 514.805836 157.46016 
Q 509.805836 157.46016 508.837447 162.365486 
L 501.789682 198.065598 
Q 500.821293 202.970924 495.839623 203.398672 
L 492.847702 203.655572 
" style="fill: none; stroke: #1a1a1a; stroke-linecap: round"/>
   </g>
   <g id="text_18">
    <!-- Hydraulics, 10100 kg, 6% -->
    <g style="fill: #262626" transform="translate(519.805836 160.56516) scale(0.12 -0.12)">
     <use xlink:href="#ArialMT-48"/>
     <use xlink:href="#ArialMT-79" x="72.216797"/>
     <use xlink:href="#ArialMT-64" x="122.216797"/>
     <use xlink:href="#ArialMT-72" x="177.832031"/>
     <use xlink:href="#ArialMT-61" x="211.132812"/>
     <use xlink:href="#ArialMT-75" x="266.748047"/>
     <use xlink:href="#ArialMT-6c" x="322.363281"/>
     <use xlink:href="#ArialMT-69" x="344.580078"/>
     <use xlink:href="#ArialMT-63" x="366.796875"/>
     <use xlink:href="#ArialMT-73" x="416.796875"/>
     <use xlink:href="#ArialMT-2c" x="466.796875"/>
     <use xlink:href="#ArialMT-20" x="494.580078"/>
     <use xlink:href="#ArialMT-31" x="522.363281"/>
     <use xlink:href="#ArialMT-30" x="577.978516"/>
     <use xlink:href="#ArialMT-31" x="633.59375"/>
     <use xlink:href="#ArialMT-30" x="689.208984"/>
     <use xlink:href="#ArialMT-30" x="744.824219"/>
     <use xlink:href="#ArialMT-20" x="800.439453"/>
     <use xlink:href="#ArialMT-6b" x="828.222656"/>
     <use xlink:href="#ArialMT-67" x="878.222656"/>
     <use xlink:href="#ArialMT-2c" x="933.837891"/>
     <use xlink:href="#ArialMT-20" x="961.621094"/>
     <use xlink:href="#ArialMT-36" x="989.404297"/>
     <use xlink:href="#ArialMT-25" x="1045.019531"/>
    </g>
   </g>
   <g id="patch_20">
    <path d="M 515.298037 134.04985 
L 514.805836 134.04985 
Q 509.805836 134.04985 508.143781 138.765523 
L 497.246695 169.683334 
Q 495.58464 174.399008 490.775077 175.765794 
L 487.886521 176.586666 
" style="fill: none; stroke: #1a1a1a; stroke-linecap: round"/>
   </g>
   <g id="text_19">
    <!-- Electrical, 387 kg -->
    <g style="fill: #262626" transform="translate(519.805836 137.099537) scale(0.12 -0.12)">
     <use xlink:href="#ArialMT-45"/>
     <use xlink:href="#ArialMT-6c" x="66.699219"/>
     <use xlink:href="#ArialMT-65" x="88.916016"/>
     <use xlink:href="#ArialMT-63" x="144.53125"/>
     <use xlink:href="#ArialMT-74" x="194.53125"/>
     <use xlink:href="#ArialMT-72" x="222.314453"/>
     <use xlink:href="#ArialMT-69" x="255.615234"/>
     <use xlink:href="#ArialMT-63" x="277.832031"/>
     <use xlink:href="#ArialMT-61" x="327.832031"/>
     <use xlink:href="#ArialMT-6c" x="383.447266"/>
     <use xlink:href="#ArialMT-2c" x="405.664062"/>
     <use xlink:href="#ArialMT-20" x="433.447266"/>
     <use xlink:href="#ArialMT-33" x="461.230469"/>
     <use xlink:href="#ArialMT-38" x="516.845703"/>
     <use xlink:href="#ArialMT-37" x="572.460938"/>
     <use xlink:href="#ArialMT-20" x="628.076172"/>
     <use xlink:href="#ArialMT-6b" x="655.859375"/>
     <use xlink:href="#ArialMT-67" x="705.859375"/>
    </g>
   </g>
   <g id="patch_21">
    <path d="M 515.298037 110.639539 
L 514.805836 110.639539 
Q 509.805836 110.639539 508.596531 115.491093 
L 495.887108 166.479452 
Q 494.677803 171.331007 489.898044 172.798625 
L 487.027388 173.680056 
" style="fill: none; stroke: #1a1a1a; stroke-linecap: round"/>
   </g>
   <g id="text_20">
    <!-- Avionics, 766 kg -->
    <g style="fill: #262626" transform="translate(519.805836 113.689226) scale(0.12 -0.12)">
     <use xlink:href="#ArialMT-41"/>
     <use xlink:href="#ArialMT-76" x="64.949219"/>
     <use xlink:href="#ArialMT-69" x="114.949219"/>
     <use xlink:href="#ArialMT-6f" x="137.166016"/>
     <use xlink:href="#ArialMT-6e" x="192.78125"/>
     <use xlink:href="#ArialMT-69" x="248.396484"/>
     <use xlink:href="#ArialMT-63" x="270.613281"/>
     <use xlink:href="#ArialMT-73" x="320.613281"/>
     <use xlink:href="#ArialMT-2c" x="370.613281"/>
     <use xlink:href="#ArialMT-20" x="398.396484"/>
     <use xlink:href="#ArialMT-37" x="426.179688"/>
     <use xlink:href="#ArialMT-36" x="481.794922"/>
     <use xlink:href="#ArialMT-36" x="537.410156"/>
     <use xlink:href="#ArialMT-20" x="593.025391"/>
     <use xlink:href="#ArialMT-6b" x="620.808594"/>
     <use xlink:href="#ArialMT-67" x="670.808594"/>
    </g>
   </g>
   <g id="patch_22">
    <path d="M 515.298037 87.229228 
L 514.805836 87.229228 
Q 509.805836 87.229228 508.835174 92.134105 
L 494.714127 163.489498 
Q 493.743465 168.394375 488.994413 169.958508 
L 486.1422 170.897904 
" style="fill: none; stroke: #1a1a1a; stroke-linecap: round"/>
   </g>
   <g id="text_21">
    <!-- Anti-Ice, 345 kg -->
    <g style="fill: #262626" transform="translate(519.805836 90.278915) scale(0.12 -0.12)">
     <use xlink:href="#ArialMT-41"/>
     <use xlink:href="#ArialMT-6e" x="66.699219"/>
     <use xlink:href="#ArialMT-74" x="122.314453"/>
     <use xlink:href="#ArialMT-69" x="150.097656"/>
     <use xlink:href="#ArialMT-2d" x="172.314453"/>
     <use xlink:href="#ArialMT-49" x="205.615234"/>
     <use xlink:href="#ArialMT-63" x="233.398438"/>
     <use xlink:href="#ArialMT-65" x="283.398438"/>
     <use xlink:href="#ArialMT-2c" x="339.013672"/>
     <use xlink:href="#ArialMT-20" x="366.796875"/>
     <use xlink:href="#ArialMT-33" x="394.580078"/>
     <use xlink:href="#ArialMT-34" x="450.195312"/>
     <use xlink:href="#ArialMT-35" x="505.810547"/>
     <use xlink:href="#ArialMT-20" x="561.425781"/>
     <use xlink:href="#ArialMT-6b" x="589.208984"/>
     <use xlink:href="#ArialMT-67" x="639.208984"/>
    </g>
   </g>
   <g id="patch_23">
    <path d="M 515.298037 63.818917 
L 514.805836 63.818917 
Q 509.805836 63.818917 509.023102 68.75727 
L 494.178549 162.413176 
Q 493.395815 167.351529 488.658189 168.949936 
L 485.812838 169.909916 
" style="fill: none; stroke: #1a1a1a; stroke-linecap: round"/>
   </g>
   <g id="text_22">
    <!-- Handling Gear, 52 kg -->
    <g style="fill: #262626" transform="translate(519.805836 66.923917) scale(0.12 -0.12)">
     <use xlink:href="#ArialMT-48"/>
     <use xlink:href="#ArialMT-61" x="72.216797"/>
     <use xlink:href="#ArialMT-6e" x="127.832031"/>
     <use xlink:href="#ArialMT-64" x="183.447266"/>
     <use xlink:href="#ArialMT-6c" x="239.0625"/>
     <use xlink:href="#ArialMT-69" x="261.279297"/>
     <use xlink:href="#ArialMT-6e" x="283.496094"/>
     <use xlink:href="#ArialMT-67" x="339.111328"/>
     <use xlink:href="#ArialMT-20" x="394.726562"/>
     <use xlink:href="#ArialMT-47" x="422.509766"/>
     <use xlink:href="#ArialMT-65" x="500.292969"/>
     <use xlink:href="#ArialMT-61" x="555.908203"/>
     <use xlink:href="#ArialMT-72" x="611.523438"/>
     <use xlink:href="#ArialMT-2c" x="639.324219"/>
     <use xlink:href="#ArialMT-20" x="667.107422"/>
     <use xlink:href="#ArialMT-35" x="694.890625"/>
     <use xlink:href="#ArialMT-32" x="750.505859"/>
     <use xlink:href="#ArialMT-20" x="806.121094"/>
     <use xlink:href="#ArialMT-6b" x="833.904297"/>
     <use xlink:href="#ArialMT-67" x="883.904297"/>
    </g>
   </g>
   <g id="patch_24">
    <path d="M 515.298037 40.408606 
L 514.805836 40.408606 
Q 509.805836 40.408606 506.734013 44.353718 
L 459.912334 104.486332 
Q 456.840511 108.431444 453.304303 111.966303 
L 451.180506 114.08929 
" style="fill: none; stroke: #1a1a1a; stroke-linecap: round"/>
   </g>
   <g id="text_23">
    <!-- Fuel, 25164 kg, 15% -->
    <g style="fill: #262626" transform="translate(519.805836 43.513606) scale(0.12 -0.12)">
     <use xlink:href="#ArialMT-46"/>
     <use xlink:href="#ArialMT-75" x="61.083984"/>
     <use xlink:href="#ArialMT-65" x="116.699219"/>
     <use xlink:href="#ArialMT-6c" x="172.314453"/>
     <use xlink:href="#ArialMT-2c" x="194.53125"/>
     <use xlink:href="#ArialMT-20" x="222.314453"/>
     <use xlink:href="#ArialMT-32" x="250.097656"/>
     <use xlink:href="#ArialMT-35" x="305.712891"/>
     <use xlink:href="#ArialMT-31" x="361.328125"/>
     <use xlink:href="#ArialMT-36" x="416.943359"/>
     <use xlink:href="#ArialMT-34" x="472.558594"/>
     <use xlink:href="#ArialMT-20" x="528.173828"/>
     <use xlink:href="#ArialMT-6b" x="555.957031"/>
     <use xlink:href="#ArialMT-67" x="605.957031"/>
     <use xlink:href="#ArialMT-2c" x="661.572266"/>
     <use xlink:href="#ArialMT-20" x="689.355469"/>
     <use xlink:href="#ArialMT-31" x="717.138672"/>
     <use xlink:href="#ArialMT-35" x="772.753906"/>
     <use xlink:href="#ArialMT-25" x="828.369141"/>
    </g>
   </g>
   <g id="patch_25">
    <path d="M 515.298037 16.998296 
L 514.805836 16.998296 
Q 509.805836 16.998296 505.101225 18.69141 
L 378.69161 64.184207 
Q 373.986999 65.877322 373.173834 70.810755 
L 372.685459 73.773705 
" style="fill: none; stroke: #1a1a1a; stroke-linecap: round"/>
   </g>
   <g id="text_24">
    <!-- Tanks, 8959 kg, 5% -->
    <g style="fill: #262626" transform="translate(519.805836 20.103296) scale(0.12 -0.12)">
     <defs>
      <path id="ArialMT-54" d="M 1659 0 
L 1659 4041 
L 150 4041 
L 150 4581 
L 3781 4581 
L 3781 4041 
L 2266 4041 
L 2266 0 
L 1659 0 
z
" transform="scale(0.015625)"/>
     </defs>
     <use xlink:href="#ArialMT-54"/>
     <use xlink:href="#ArialMT-61" x="49.958984"/>
     <use xlink:href="#ArialMT-6e" x="105.574219"/>
     <use xlink:href="#ArialMT-6b" x="161.189453"/>
     <use xlink:href="#ArialMT-73" x="211.189453"/>
     <use xlink:href="#ArialMT-2c" x="261.189453"/>
     <use xlink:href="#ArialMT-20" x="288.972656"/>
     <use xlink:href="#ArialMT-38" x="316.755859"/>
     <use xlink:href="#ArialMT-39" x="372.371094"/>
     <use xlink:href="#ArialMT-35" x="427.986328"/>
     <use xlink:href="#ArialMT-39" x="483.601562"/>
     <use xlink:href="#ArialMT-20" x="539.216797"/>
     <use xlink:href="#ArialMT-6b" x="567"/>
     <use xlink:href="#ArialMT-67" x="617"/>
     <use xlink:href="#ArialMT-2c" x="672.615234"/>
     <use xlink:href="#ArialMT-20" x="700.398438"/>
     <use xlink:href="#ArialMT-35" x="728.181641"/>
     <use xlink:href="#ArialMT-25" x="783.796875"/>
    </g>
   </g>
   <g id="matplotlib.axis_1"/>
   <g id="matplotlib.axis_2"/>
   <g id="patch_26">
    <path d="M 349.245 73.851908 
C 315.192591 73.851908 282.248638 86.0893 256.454104 108.320102 
C 230.65957 130.550905 213.693755 161.327826 208.667697 195.007276 
L 278.956348 205.496607 
C 281.469378 188.656882 289.952285 173.268421 302.849552 162.15302 
C 315.746819 151.037619 332.218795 144.918923 349.245 144.918923 
L 349.245 73.851908 
z
" style="fill: #f77189; stroke: #ffffff; stroke-linejoin: miter"/>
   </g>
   <g id="patch_27">
    <path d="M 208.667697 195.007276 
C 208.17022 198.340849 207.791477 201.691063 207.532185 205.051564 
C 207.272893 208.412064 207.133217 211.780724 207.113421 215.151155 
L 278.179211 215.568546 
C 278.189109 213.883331 278.258947 212.199001 278.388592 210.518751 
C 278.518238 208.8385 278.70761 207.163393 278.956348 205.496607 
L 208.667697 195.007276 
z
" style="fill: #f7755d; stroke: #ffffff; stroke-linejoin: miter"/>
   </g>
   <g id="patch_28">
    <path d="M 207.113421 215.151155 
C 207.106494 216.330696 207.11425 217.510279 207.136687 218.689627 
C 207.159125 219.868976 207.196243 221.047999 207.248032 222.226424 
L 278.246516 219.106181 
C 278.220621 218.516968 278.202063 217.927457 278.190844 217.337782 
C 278.179625 216.748108 278.175747 216.158317 278.179211 215.568546 
L 207.113421 215.151155 
z
" style="fill: #e68332; stroke: #ffffff; stroke-linejoin: miter"/>
   </g>
   <g id="patch_29">
    <path d="M 207.248032 222.226424 
C 207.766588 234.025712 209.753826 245.714494 213.16375 257.022214 
C 216.573674 268.329934 221.37977 279.168669 227.470793 289.28754 
L 288.357897 252.636739 
C 285.312385 247.577303 282.909337 242.157936 281.204375 236.504076 
C 279.499413 230.850216 278.505794 225.005825 278.246516 219.106181 
L 207.248032 222.226424 
z
" style="fill: #ce9032; stroke: #ffffff; stroke-linejoin: miter"/>
   </g>
   <g id="patch_30">
    <path d="M 227.470793 289.28754 
C 227.862199 289.937773 228.258806 290.58486 228.660577 291.22874 
C 229.062348 291.87262 229.469269 292.513271 229.881302 293.150633 
L 289.563151 254.568285 
C 289.357135 254.249604 289.153674 253.929279 288.952788 253.607339 
C 288.751903 253.285399 288.553599 252.961855 288.357897 252.636739 
L 227.470793 289.28754 
z
" style="fill: #bb9832; stroke: #ffffff; stroke-linejoin: miter"/>
   </g>
   <g id="patch_31">
    <path d="M 229.881302 293.150633 
C 242.377629 312.480817 259.384524 328.489233 279.43454 339.794589 
C 299.484555 351.099944 321.983939 357.367447 344.991322 358.056303 
L 347.118161 287.02112 
C 335.61447 286.676692 324.364778 283.542941 314.33977 277.890263 
C 304.314762 272.237585 295.811314 264.233377 289.563151 254.568285 
L 229.881302 293.150633 
z
" style="fill: #aa9e31; stroke: #ffffff; stroke-linejoin: miter"/>
   </g>
   <g id="patch_32">
    <path d="M 344.991322 358.056303 
C 346.951162 358.114982 348.912006 358.133101 350.872595 358.110648 
C 352.833185 358.088196 354.793099 358.025177 356.751081 357.921631 
L 352.998041 286.953784 
C 352.01905 287.005557 351.039092 287.037067 350.058798 287.048293 
C 349.078503 287.059519 348.098081 287.05046 347.118161 287.02112 
L 344.991322 358.056303 
z
" style="fill: #97a431; stroke: #ffffff; stroke-linejoin: miter"/>
   </g>
   <g id="patch_33">
    <path d="M 356.751081 357.921631 
C 360.090023 357.745056 363.421695 357.450716 366.739877 357.039161 
C 370.058059 356.627605 373.360686 356.099091 376.641592 355.454605 
L 362.943296 285.720271 
C 361.302843 286.042514 359.651529 286.306771 357.992438 286.512549 
C 356.333347 286.718327 354.667512 286.865497 352.998041 286.953784 
L 356.751081 357.921631 
z
" style="fill: #7eaa31; stroke: #ffffff; stroke-linejoin: miter"/>
   </g>
   <g id="patch_34">
    <path d="M 376.641592 355.454605 
C 393.761131 352.091721 410.116085 345.605307 424.886932 336.320391 
C 439.657778 327.035474 452.59361 315.109773 463.046231 301.140868 
L 406.145616 258.563403 
C 400.919305 265.547855 394.451389 271.510706 387.065966 276.153164 
C 379.680543 280.795622 371.503065 284.038829 362.943296 285.720271 
L 376.641592 355.454605 
z
" style="fill: #50b131; stroke: #ffffff; stroke-linejoin: miter"/>
   </g>
   <g id="patch_35">
    <path d="M 463.046231 301.140868 
C 465.231059 298.22106 467.302707 295.218248 469.256576 292.1391 
C 471.210445 289.059952 473.045087 285.906748 474.756429 282.68649 
L 412.000714 249.336214 
C 411.145043 250.946343 410.227722 252.522945 409.250788 254.062519 
C 408.273854 255.602093 407.23803 257.103499 406.145616 258.563403 
L 463.046231 301.140868 
z
" style="fill: #32b166; stroke: #ffffff; stroke-linejoin: miter"/>
   </g>
   <g id="patch_36">
    <path d="M 474.756429 282.68649 
C 477.51405 277.497432 479.94722 272.142352 482.041927 266.652088 
C 484.136633 261.161824 485.888846 255.546937 487.288475 249.839763 
L 418.266737 232.91285 
C 417.566923 235.766437 416.690816 238.573881 415.643463 241.319013 
C 414.59611 244.064145 413.379525 246.741685 412.000714 249.336214 
L 474.756429 282.68649 
z
" style="fill: #34af84; stroke: #ffffff; stroke-linejoin: miter"/>
   </g>
   <g id="patch_37">
    <path d="M 487.288475 249.839763 
C 487.472212 249.090549 487.649848 248.339851 487.821362 247.587745 
C 487.992877 246.835639 488.158267 246.082149 488.317514 245.327349 
L 418.781257 230.656643 
C 418.701633 231.034043 418.618939 231.410788 418.533181 231.786841 
C 418.447424 232.162894 418.358606 232.538243 418.266737 232.91285 
L 487.288475 249.839763 
z
" style="fill: #35ae96; stroke: #ffffff; stroke-linejoin: miter"/>
   </g>
   <g id="patch_38">
    <path d="M 488.317514 245.327349 
C 488.455847 244.671674 488.589543 244.015028 488.718589 243.357462 
C 488.847636 242.699895 488.972031 242.041425 489.091764 241.382099 
L 419.168382 228.684018 
C 419.108515 229.013681 419.046318 229.342916 418.981795 229.6717 
C 418.917271 230.000483 418.850424 230.328806 418.781257 230.656643 
L 488.317514 245.327349 
z
" style="fill: #36ada4; stroke: #ffffff; stroke-linejoin: miter"/>
   </g>
   <g id="patch_39">
    <path d="M 489.091764 241.382099 
C 489.105491 241.30651 489.119157 241.23091 489.132761 241.155299 
C 489.146366 241.079688 489.159909 241.004066 489.17339 240.928433 
L 419.209195 228.457185 
C 419.202454 228.495002 419.195683 228.532813 419.188881 228.570618 
C 419.182078 228.608424 419.175246 228.646224 419.168382 228.684018 
L 489.091764 241.382099 
z
" style="fill: #37abb1; stroke: #ffffff; stroke-linejoin: miter"/>
   </g>
   <g id="patch_40">
    <path d="M 489.17339 240.928433 
C 489.184697 240.865001 489.195961 240.801563 489.207181 240.738116 
C 489.218401 240.67467 489.229579 240.611216 489.240713 240.547755 
L 419.242856 228.266846 
C 419.237289 228.298577 419.231701 228.330304 419.226091 228.362027 
C 419.22048 228.39375 419.214849 228.425469 419.209195 228.457185 
L 489.17339 240.928433 
z
" style="fill: #38aabf; stroke: #ffffff; stroke-linejoin: miter"/>
   </g>
   <g id="patch_41">
    <path d="M 489.240713 240.547755 
C 489.404127 239.616341 489.558241 238.68332 489.703033 237.748831 
C 489.847825 236.814341 489.983287 235.87843 490.1094 234.941237 
L 419.6772 225.463587 
C 419.614144 225.932184 419.546412 226.400139 419.474016 226.867384 
C 419.40162 227.334629 419.324563 227.801139 419.242856 228.266846 
L 489.240713 240.547755 
z
" style="fill: #39a7d0; stroke: #ffffff; stroke-linejoin: miter"/>
   </g>
   <g id="patch_42">
    <path d="M 490.1094 234.941237 
C 490.220743 234.113801 490.324793 233.2854 490.421539 232.456131 
C 490.518285 231.626861 490.607722 230.796756 490.68984 229.96591 
L 419.96742 222.975924 
C 419.926361 223.391347 419.881642 223.806399 419.83327 224.221034 
C 419.784897 224.635669 419.732871 225.049869 419.6772 225.463587 
L 490.1094 234.941237 
z
" style="fill: #3ba3ec; stroke: #ffffff; stroke-linejoin: miter"/>
   </g>
   <g id="patch_43">
    <path d="M 490.68984 229.96591 
C 491.548683 221.276418 491.604959 212.52624 490.857954 203.826421 
C 490.110948 195.126601 488.563836 186.514097 486.236249 178.098206 
L 417.740624 197.042072 
C 418.904418 201.250017 419.677974 205.556269 420.051477 209.906179 
C 420.424979 214.256089 420.396841 218.631178 419.96742 222.975924 
L 490.68984 229.96591 
z
" style="fill: #7a98f4; stroke: #ffffff; stroke-linejoin: miter"/>
   </g>
   <g id="patch_44">
    <path d="M 486.236249 178.098206 
C 486.14714 177.776013 486.056894 177.454136 485.965514 177.132579 
C 485.874134 176.811023 485.78162 176.489791 485.687973 176.168887 
L 417.466487 196.077412 
C 417.51331 196.237864 417.559567 196.39848 417.605257 196.559258 
C 417.650947 196.720037 417.69607 196.880975 417.740624 197.042072 
L 486.236249 178.098206 
z
" style="fill: #a48cf4; stroke: #ffffff; stroke-linejoin: miter"/>
   </g>
   <g id="patch_45">
    <path d="M 485.687973 176.168887 
C 485.502511 175.533353 485.31261 174.899123 485.118285 174.266243 
C 484.92396 173.633363 484.725216 173.001848 484.522066 172.371745 
L 416.883533 194.178841 
C 416.985108 194.493893 417.08448 194.80965 417.181642 195.12609 
C 417.278805 195.44253 417.373755 195.759645 417.466487 196.077412 
L 485.687973 176.168887 
z
" style="fill: #c67df4; stroke: #ffffff; stroke-linejoin: miter"/>
   </g>
   <g id="patch_46">
    <path d="M 484.522066 172.371745 
C 484.430721 172.088421 484.338486 171.805385 484.245362 171.52264 
C 484.152238 171.239896 484.058226 170.957445 483.963328 170.675291 
L 416.604164 193.330614 
C 416.651613 193.471691 416.698619 193.612917 416.745181 193.754289 
C 416.791743 193.895661 416.83786 194.037179 416.883533 194.178841 
L 484.522066 172.371745 
z
" style="fill: #e866f4; stroke: #ffffff; stroke-linejoin: miter"/>
   </g>
   <g id="patch_47">
    <path d="M 483.963328 170.675291 
C 483.949093 170.632968 483.934838 170.590652 483.920564 170.548342 
C 483.906289 170.506033 483.891994 170.46373 483.87768 170.421434 
L 416.56134 193.203686 
C 416.568497 193.224834 416.575644 193.245985 416.582782 193.26714 
C 416.589919 193.288295 416.597046 193.309453 416.604164 193.330614 
L 483.963328 170.675291 
z
" style="fill: #f561dd; stroke: #ffffff; stroke-linejoin: miter"/>
   </g>
   <g id="patch_48">
    <path d="M 483.87768 170.421434 
C 476.877828 149.738474 465.205079 130.944035 449.768095 115.501163 
C 434.33111 100.058292 415.541123 88.378378 394.860834 81.37064 
L 372.052917 148.678289 
C 382.393062 152.182158 391.788055 158.022115 399.506547 165.74355 
C 407.22504 173.464986 413.061414 182.862206 416.56134 193.203686 
L 483.87768 170.421434 
z
" style="fill: #f668c2; stroke: #ffffff; stroke-linejoin: miter"/>
   </g>
   <g id="patch_49">
    <path d="M 394.860834 81.37064 
C 387.52658 78.88535 380.001469 77.0036 372.36067 75.744188 
C 364.71987 74.484776 356.988909 73.851908 349.245013 73.851908 
L 349.245006 144.918923 
C 353.116955 144.918923 356.982435 145.235357 360.802835 145.865063 
C 364.623235 146.494769 368.38579 147.435644 372.052917 148.678289 
L 394.860834 81.37064 
z
" style="fill: #f66ca8; stroke: #ffffff; stroke-linejoin: miter"/>
   </g>
   <g id="text_25">
    <!-- $\bf{Mass\ Budget}$ -->
    <g style="fill: #262626" transform="translate(291.245 202.949438) scale(0.16 -0.16)">
     <defs>
      <path id="DejaVuSans-Bold-4d" d="M 588 4666 
L 2119 4666 
L 3181 2169 
L 4250 4666 
L 5778 4666 
L 5778 0 
L 4641 0 
L 4641 3413 
L 3566 897 
L 2803 897 
L 1728 3413 
L 1728 0 
L 588 0 
L 588 4666 
z
" transform="scale(0.015625)"/>
      <path id="DejaVuSans-Bold-61" d="M 2106 1575 
Q 1756 1575 1579 1456 
Q 1403 1338 1403 1106 
Q 1403 894 1545 773 
Q 1688 653 1941 653 
Q 2256 653 2472 879 
Q 2688 1106 2688 1447 
L 2688 1575 
L 2106 1575 
z
M 3816 1997 
L 3816 0 
L 2688 0 
L 2688 519 
Q 2463 200 2181 54 
Q 1900 -91 1497 -91 
Q 953 -91 614 226 
Q 275 544 275 1050 
Q 275 1666 698 1953 
Q 1122 2241 2028 2241 
L 2688 2241 
L 2688 2328 
Q 2688 2594 2478 2717 
Q 2269 2841 1825 2841 
Q 1466 2841 1156 2769 
Q 847 2697 581 2553 
L 581 3406 
Q 941 3494 1303 3539 
Q 1666 3584 2028 3584 
Q 2975 3584 3395 3211 
Q 3816 2838 3816 1997 
z
" transform="scale(0.015625)"/>
      <path id="DejaVuSans-Bold-73" d="M 3272 3391 
L 3272 2541 
Q 2913 2691 2578 2766 
Q 2244 2841 1947 2841 
Q 1628 2841 1473 2761 
Q 1319 2681 1319 2516 
Q 1319 2381 1436 2309 
Q 1553 2238 1856 2203 
L 2053 2175 
Q 2913 2066 3209 1816 
Q 3506 1566 3506 1031 
Q 3506 472 3093 190 
Q 2681 -91 1863 -91 
Q 1516 -91 1145 -36 
Q 775 19 384 128 
L 384 978 
Q 719 816 1070 734 
Q 1422 653 1784 653 
Q 2113 653 2278 743 
Q 2444 834 2444 1013 
Q 2444 1163 2330 1236 
Q 2216 1309 1875 1350 
L 1678 1375 
Q 931 1469 631 1722 
Q 331 1975 331 2491 
Q 331 3047 712 3315 
Q 1094 3584 1881 3584 
Q 2191 3584 2531 3537 
Q 2872 3491 3272 3391 
z
" transform="scale(0.015625)"/>
      <path id="DejaVuSans-Bold-42" d="M 2456 2859 
Q 2741 2859 2887 2984 
Q 3034 3109 3034 3353 
Q 3034 3594 2887 3720 
Q 2741 3847 2456 3847 
L 1791 3847 
L 1791 2859 
L 2456 2859 
z
M 2497 819 
Q 2859 819 3042 972 
Q 3225 1125 3225 1434 
Q 3225 1738 3044 1889 
Q 2863 2041 2497 2041 
L 1791 2041 
L 1791 819 
L 2497 819 
z
M 3616 2497 
Q 4003 2384 4215 2081 
Q 4428 1778 4428 1338 
Q 4428 663 3972 331 
Q 3516 0 2584 0 
L 588 0 
L 588 4666 
L 2394 4666 
Q 3366 4666 3802 4372 
Q 4238 4078 4238 3431 
Q 4238 3091 4078 2852 
Q 3919 2613 3616 2497 
z
" transform="scale(0.015625)"/>
      <path id="DejaVuSans-Bold-75" d="M 500 1363 
L 500 3500 
L 1625 3500 
L 1625 3150 
Q 1625 2866 1622 2436 
Q 1619 2006 1619 1863 
Q 1619 1441 1641 1255 
Q 1663 1069 1716 984 
Q 1784 875 1895 815 
Q 2006 756 2150 756 
Q 2500 756 2700 1025 
Q 2900 1294 2900 1772 
L 2900 3500 
L 4019 3500 
L 4019 0 
L 2900 0 
L 2900 506 
Q 2647 200 2364 54 
Q 2081 -91 1741 -91 
Q 1134 -91 817 281 
Q 500 653 500 1363 
z
" transform="scale(0.015625)"/>
      <path id="DejaVuSans-Bold-64" d="M 2919 2988 
L 2919 4863 
L 4044 4863 
L 4044 0 
L 2919 0 
L 2919 506 
Q 2688 197 2409 53 
Q 2131 -91 1766 -91 
Q 1119 -91 703 423 
Q 288 938 288 1747 
Q 288 2556 703 3070 
Q 1119 3584 1766 3584 
Q 2128 3584 2408 3439 
Q 2688 3294 2919 2988 
z
M 2181 722 
Q 2541 722 2730 984 
Q 2919 1247 2919 1747 
Q 2919 2247 2730 2509 
Q 2541 2772 2181 2772 
Q 1825 2772 1636 2509 
Q 1447 2247 1447 1747 
Q 1447 1247 1636 984 
Q 1825 722 2181 722 
z
" transform="scale(0.015625)"/>
      <path id="DejaVuSans-Bold-67" d="M 2919 594 
Q 2688 288 2409 144 
Q 2131 0 1766 0 
Q 1125 0 706 504 
Q 288 1009 288 1791 
Q 288 2575 706 3076 
Q 1125 3578 1766 3578 
Q 2131 3578 2409 3434 
Q 2688 3291 2919 2981 
L 2919 3500 
L 4044 3500 
L 4044 353 
Q 4044 -491 3511 -936 
Q 2978 -1381 1966 -1381 
Q 1638 -1381 1331 -1331 
Q 1025 -1281 716 -1178 
L 716 -306 
Q 1009 -475 1290 -558 
Q 1572 -641 1856 -641 
Q 2406 -641 2662 -400 
Q 2919 -159 2919 353 
L 2919 594 
z
M 2181 2772 
Q 1834 2772 1640 2515 
Q 1447 2259 1447 1791 
Q 1447 1309 1634 1061 
Q 1822 813 2181 813 
Q 2531 813 2725 1069 
Q 2919 1325 2919 1791 
Q 2919 2259 2725 2515 
Q 2531 2772 2181 2772 
z
" transform="scale(0.015625)"/>
      <path id="DejaVuSans-Bold-65" d="M 4031 1759 
L 4031 1441 
L 1416 1441 
Q 1456 1047 1700 850 
Q 1944 653 2381 653 
Q 2734 653 3104 758 
Q 3475 863 3866 1075 
L 3866 213 
Q 3469 63 3072 -14 
Q 2675 -91 2278 -91 
Q 1328 -91 801 392 
Q 275 875 275 1747 
Q 275 2603 792 3093 
Q 1309 3584 2216 3584 
Q 3041 3584 3536 3087 
Q 4031 2591 4031 1759 
z
M 2881 2131 
Q 2881 2450 2695 2645 
Q 2509 2841 2209 2841 
Q 1884 2841 1681 2658 
Q 1478 2475 1428 2131 
L 2881 2131 
z
" transform="scale(0.015625)"/>
      <path id="DejaVuSans-Bold-74" d="M 1759 4494 
L 1759 3500 
L 2913 3500 
L 2913 2700 
L 1759 2700 
L 1759 1216 
Q 1759 972 1856 886 
Q 1953 800 2241 800 
L 2816 800 
L 2816 0 
L 1856 0 
Q 1194 0 917 276 
Q 641 553 641 1216 
L 641 2700 
L 84 2700 
L 84 3500 
L 641 3500 
L 641 4494 
L 1759 4494 
z
" transform="scale(0.015625)"/>
     </defs>
     <use xlink:href="#DejaVuSans-Bold-4d" transform="translate(0 0.015625)"/>
     <use xlink:href="#DejaVuSans-Bold-61" transform="translate(99.511719 0.015625)"/>
     <use xlink:href="#DejaVuSans-Bold-73" transform="translate(166.992188 0.015625)"/>
     <use xlink:href="#DejaVuSans-Bold-73" transform="translate(226.513672 0.015625)"/>
     <use xlink:href="#DejaVuSans-Bold-42" transform="translate(318.505535 0.015625)"/>
     <use xlink:href="#DejaVuSans-Bold-75" transform="translate(394.726238 0.015625)"/>
     <use xlink:href="#DejaVuSans-Bold-64" transform="translate(465.917644 0.015625)"/>
     <use xlink:href="#DejaVuSans-Bold-67" transform="translate(537.499675 0.015625)"/>
     <use xlink:href="#DejaVuSans-Bold-65" transform="translate(609.081707 0.015625)"/>
     <use xlink:href="#DejaVuSans-Bold-74" transform="translate(676.903972 0.015625)"/>
    </g>
    <!-- TOGW: 172284 kg -->
    <g style="fill: #262626" transform="translate(282.83375 220.458438) scale(0.16 -0.16)">
     <defs>
      <path id="ArialMT-4f" d="M 309 2231 
Q 309 3372 921 4017 
Q 1534 4663 2503 4663 
Q 3138 4663 3647 4359 
Q 4156 4056 4423 3514 
Q 4691 2972 4691 2284 
Q 4691 1588 4409 1038 
Q 4128 488 3612 205 
Q 3097 -78 2500 -78 
Q 1853 -78 1343 234 
Q 834 547 571 1087 
Q 309 1628 309 2231 
z
M 934 2222 
Q 934 1394 1379 917 
Q 1825 441 2497 441 
Q 3181 441 3623 922 
Q 4066 1403 4066 2288 
Q 4066 2847 3877 3264 
Q 3688 3681 3323 3911 
Q 2959 4141 2506 4141 
Q 1863 4141 1398 3698 
Q 934 3256 934 2222 
z
" transform="scale(0.015625)"/>
      <path id="ArialMT-3a" d="M 578 2678 
L 578 3319 
L 1219 3319 
L 1219 2678 
L 578 2678 
z
M 578 0 
L 578 641 
L 1219 641 
L 1219 0 
L 578 0 
z
" transform="scale(0.015625)"/>
     </defs>
     <use xlink:href="#ArialMT-54"/>
     <use xlink:href="#ArialMT-4f" x="59.333984"/>
     <use xlink:href="#ArialMT-47" x="137.117188"/>
     <use xlink:href="#ArialMT-57" x="214.900391"/>
     <use xlink:href="#ArialMT-3a" x="307.535156"/>
     <use xlink:href="#ArialMT-20" x="335.318359"/>
     <use xlink:href="#ArialMT-31" x="363.101562"/>
     <use xlink:href="#ArialMT-37" x="418.716797"/>
     <use xlink:href="#ArialMT-32" x="474.332031"/>
     <use xlink:href="#ArialMT-32" x="529.947266"/>
     <use xlink:href="#ArialMT-38" x="585.5625"/>
     <use xlink:href="#ArialMT-34" x="641.177734"/>
     <use xlink:href="#ArialMT-20" x="696.792969"/>
     <use xlink:href="#ArialMT-6b" x="724.576172"/>
     <use xlink:href="#ArialMT-67" x="774.576172"/>
    </g>
    <!-- OEW: 108110 kg -->
    <g style="fill: #262626" transform="translate(289.05625 237.814938) scale(0.16 -0.16)">
     <use xlink:href="#ArialMT-4f"/>
     <use xlink:href="#ArialMT-45" x="77.783203"/>
     <use xlink:href="#ArialMT-57" x="144.482422"/>
     <use xlink:href="#ArialMT-3a" x="237.117188"/>
     <use xlink:href="#ArialMT-20" x="264.900391"/>
     <use xlink:href="#ArialMT-31" x="292.683594"/>
     <use xlink:href="#ArialMT-30" x="348.298828"/>
     <use xlink:href="#ArialMT-38" x="403.914062"/>
     <use xlink:href="#ArialMT-31" x="459.529297"/>
     <use xlink:href="#ArialMT-31" x="507.769531"/>
     <use xlink:href="#ArialMT-30" x="563.384766"/>
     <use xlink:href="#ArialMT-20" x="619"/>
     <use xlink:href="#ArialMT-6b" x="646.783203"/>
     <use xlink:href="#ArialMT-67" x="696.783203"/>
    </g>
   </g>
  </g>
 </g>
</svg>
