<?xml version="1.0" encoding="utf-8" standalone="no"?>
<!DOCTYPE svg PUBLIC "-//W3C//DTD SVG 1.1//EN"
  "http://www.w3.org/Graphics/SVG/1.1/DTD/svg11.dtd">
<svg xmlns:xlink="http://www.w3.org/1999/xlink" width="324pt" height="216pt" viewBox="0 0 324 216" xmlns="http://www.w3.org/2000/svg" version="1.1">
 <metadata>
  <rdf:RDF xmlns:dc="http://purl.org/dc/elements/1.1/" xmlns:cc="http://creativecommons.org/ns#" xmlns:rdf="http://www.w3.org/1999/02/22-rdf-syntax-ns#">
   <cc:Work>
    <dc:type rdf:resource="http://purl.org/dc/dcmitype/StillImage"/>
    <dc:date>2023-02-14T11:42:25.487256</dc:date>
    <dc:format>image/svg+xml</dc:format>
    <dc:creator>
     <cc:Agent>
      <dc:title>Matplotlib v3.6.3, https://matplotlib.org/</dc:title>
     </cc:Agent>
    </dc:creator>
   </cc:Work>
  </rdf:RDF>
 </metadata>
 <defs>
  <style type="text/css">*{stroke-linejoin: round; stroke-linecap: butt}</style>
 </defs>
 <g id="figure_1">
  <g id="patch_1">
   <path d="M 0 216 
L 324 216 
L 324 0 
L 0 0 
z
" style="fill: #ffffff"/>
  </g>
  <g id="axes_1">
   <g id="patch_2">
    <path d="M 43.74 155.300625 
L 298.8 155.300625 
L 298.8 27.650625 
L 43.74 27.650625 
z
" style="fill: #eaeaf2"/>
   </g>
   <g id="matplotlib.axis_1">
    <g id="xtick_1">
     <g id="line2d_1">
      <path d="M 43.74 155.300625 
L 43.74 27.650625 
" clip-path="url(#pf87cb14222)" style="fill: none; stroke: #ffffff; stroke-width: 1.6; stroke-linecap: round"/>
     </g>
     <g id="text_1">
      <!-- 0 -->
      <g style="fill: #262626" transform="translate(40.681484 172.674219) scale(0.11 -0.11)">
       <defs>
        <path id="ArialMT-30" d="M 266 2259 
Q 266 3072 433 3567 
Q 600 4063 929 4331 
Q 1259 4600 1759 4600 
Q 2128 4600 2406 4451 
Q 2684 4303 2865 4023 
Q 3047 3744 3150 3342 
Q 3253 2941 3253 2259 
Q 3253 1453 3087 958 
Q 2922 463 2592 192 
Q 2263 -78 1759 -78 
Q 1097 -78 719 397 
Q 266 969 266 2259 
z
M 844 2259 
Q 844 1131 1108 757 
Q 1372 384 1759 384 
Q 2147 384 2411 759 
Q 2675 1134 2675 2259 
Q 2675 3391 2411 3762 
Q 2147 4134 1753 4134 
Q 1366 4134 1134 3806 
Q 844 3388 844 2259 
z
" transform="scale(0.015625)"/>
       </defs>
       <use xlink:href="#ArialMT-30"/>
      </g>
     </g>
    </g>
    <g id="xtick_2">
     <g id="line2d_2">
      <path d="M 80.177143 155.300625 
L 80.177143 27.650625 
" clip-path="url(#pf87cb14222)" style="fill: none; stroke: #ffffff; stroke-width: 1.6; stroke-linecap: round"/>
     </g>
     <g id="text_2">
      <!-- 200 -->
      <g style="fill: #262626" transform="translate(71.001596 172.674219) scale(0.11 -0.11)">
       <defs>
        <path id="ArialMT-32" d="M 3222 541 
L 3222 0 
L 194 0 
Q 188 203 259 391 
Q 375 700 629 1000 
Q 884 1300 1366 1694 
Q 2113 2306 2375 2664 
Q 2638 3022 2638 3341 
Q 2638 3675 2398 3904 
Q 2159 4134 1775 4134 
Q 1369 4134 1125 3890 
Q 881 3647 878 3216 
L 300 3275 
Q 359 3922 746 4261 
Q 1134 4600 1788 4600 
Q 2447 4600 2831 4234 
Q 3216 3869 3216 3328 
Q 3216 3053 3103 2787 
Q 2991 2522 2730 2228 
Q 2469 1934 1863 1422 
Q 1356 997 1212 845 
Q 1069 694 975 541 
L 3222 541 
z
" transform="scale(0.015625)"/>
       </defs>
       <use xlink:href="#ArialMT-32"/>
       <use xlink:href="#ArialMT-30" x="55.615234"/>
       <use xlink:href="#ArialMT-30" x="111.230469"/>
      </g>
     </g>
    </g>
    <g id="xtick_3">
     <g id="line2d_3">
      <path d="M 116.614286 155.300625 
L 116.614286 27.650625 
" clip-path="url(#pf87cb14222)" style="fill: none; stroke: #ffffff; stroke-width: 1.6; stroke-linecap: round"/>
     </g>
     <g id="text_3">
      <!-- 400 -->
      <g style="fill: #262626" transform="translate(107.438739 172.674219) scale(0.11 -0.11)">
       <defs>
        <path id="ArialMT-34" d="M 2069 0 
L 2069 1097 
L 81 1097 
L 81 1613 
L 2172 4581 
L 2631 4581 
L 2631 1613 
L 3250 1613 
L 3250 1097 
L 2631 1097 
L 2631 0 
L 2069 0 
z
M 2069 1613 
L 2069 3678 
L 634 1613 
L 2069 1613 
z
" transform="scale(0.015625)"/>
       </defs>
       <use xlink:href="#ArialMT-34"/>
       <use xlink:href="#ArialMT-30" x="55.615234"/>
       <use xlink:href="#ArialMT-30" x="111.230469"/>
      </g>
     </g>
    </g>
    <g id="xtick_4">
     <g id="line2d_4">
      <path d="M 153.051429 155.300625 
L 153.051429 27.650625 
" clip-path="url(#pf87cb14222)" style="fill: none; stroke: #ffffff; stroke-width: 1.6; stroke-linecap: round"/>
     </g>
     <g id="text_4">
      <!-- 600 -->
      <g style="fill: #262626" transform="translate(143.875882 172.674219) scale(0.11 -0.11)">
       <defs>
        <path id="ArialMT-36" d="M 3184 3459 
L 2625 3416 
Q 2550 3747 2413 3897 
Q 2184 4138 1850 4138 
Q 1581 4138 1378 3988 
Q 1113 3794 959 3422 
Q 806 3050 800 2363 
Q 1003 2672 1297 2822 
Q 1591 2972 1913 2972 
Q 2475 2972 2870 2558 
Q 3266 2144 3266 1488 
Q 3266 1056 3080 686 
Q 2894 316 2569 119 
Q 2244 -78 1831 -78 
Q 1128 -78 684 439 
Q 241 956 241 2144 
Q 241 3472 731 4075 
Q 1159 4600 1884 4600 
Q 2425 4600 2770 4297 
Q 3116 3994 3184 3459 
z
M 888 1484 
Q 888 1194 1011 928 
Q 1134 663 1356 523 
Q 1578 384 1822 384 
Q 2178 384 2434 671 
Q 2691 959 2691 1453 
Q 2691 1928 2437 2201 
Q 2184 2475 1800 2475 
Q 1419 2475 1153 2201 
Q 888 1928 888 1484 
z
" transform="scale(0.015625)"/>
       </defs>
       <use xlink:href="#ArialMT-36"/>
       <use xlink:href="#ArialMT-30" x="55.615234"/>
       <use xlink:href="#ArialMT-30" x="111.230469"/>
      </g>
     </g>
    </g>
    <g id="xtick_5">
     <g id="line2d_5">
      <path d="M 189.488571 155.300625 
L 189.488571 27.650625 
" clip-path="url(#pf87cb14222)" style="fill: none; stroke: #ffffff; stroke-width: 1.6; stroke-linecap: round"/>
     </g>
     <g id="text_5">
      <!-- 800 -->
      <g style="fill: #262626" transform="translate(180.313025 172.674219) scale(0.11 -0.11)">
       <defs>
        <path id="ArialMT-38" d="M 1131 2484 
Q 781 2613 612 2850 
Q 444 3088 444 3419 
Q 444 3919 803 4259 
Q 1163 4600 1759 4600 
Q 2359 4600 2725 4251 
Q 3091 3903 3091 3403 
Q 3091 3084 2923 2848 
Q 2756 2613 2416 2484 
Q 2838 2347 3058 2040 
Q 3278 1734 3278 1309 
Q 3278 722 2862 322 
Q 2447 -78 1769 -78 
Q 1091 -78 675 323 
Q 259 725 259 1325 
Q 259 1772 486 2073 
Q 713 2375 1131 2484 
z
M 1019 3438 
Q 1019 3113 1228 2906 
Q 1438 2700 1772 2700 
Q 2097 2700 2305 2904 
Q 2513 3109 2513 3406 
Q 2513 3716 2298 3927 
Q 2084 4138 1766 4138 
Q 1444 4138 1231 3931 
Q 1019 3725 1019 3438 
z
M 838 1322 
Q 838 1081 952 856 
Q 1066 631 1291 507 
Q 1516 384 1775 384 
Q 2178 384 2440 643 
Q 2703 903 2703 1303 
Q 2703 1709 2433 1975 
Q 2163 2241 1756 2241 
Q 1359 2241 1098 1978 
Q 838 1716 838 1322 
z
" transform="scale(0.015625)"/>
       </defs>
       <use xlink:href="#ArialMT-38"/>
       <use xlink:href="#ArialMT-30" x="55.615234"/>
       <use xlink:href="#ArialMT-30" x="111.230469"/>
      </g>
     </g>
    </g>
    <g id="xtick_6">
     <g id="line2d_6">
      <path d="M 225.925714 155.300625 
L 225.925714 27.650625 
" clip-path="url(#pf87cb14222)" style="fill: none; stroke: #ffffff; stroke-width: 1.6; stroke-linecap: round"/>
     </g>
     <g id="text_6">
      <!-- 1000 -->
      <g style="fill: #262626" transform="translate(213.691652 172.674219) scale(0.11 -0.11)">
       <defs>
        <path id="ArialMT-31" d="M 2384 0 
L 1822 0 
L 1822 3584 
Q 1619 3391 1289 3197 
Q 959 3003 697 2906 
L 697 3450 
Q 1169 3672 1522 3987 
Q 1875 4303 2022 4600 
L 2384 4600 
L 2384 0 
z
" transform="scale(0.015625)"/>
       </defs>
       <use xlink:href="#ArialMT-31"/>
       <use xlink:href="#ArialMT-30" x="55.615234"/>
       <use xlink:href="#ArialMT-30" x="111.230469"/>
       <use xlink:href="#ArialMT-30" x="166.845703"/>
      </g>
     </g>
    </g>
    <g id="xtick_7">
     <g id="line2d_7">
      <path d="M 262.362857 155.300625 
L 262.362857 27.650625 
" clip-path="url(#pf87cb14222)" style="fill: none; stroke: #ffffff; stroke-width: 1.6; stroke-linecap: round"/>
     </g>
     <g id="text_7">
      <!-- 1200 -->
      <g style="fill: #262626" transform="translate(250.128795 172.674219) scale(0.11 -0.11)">
       <use xlink:href="#ArialMT-31"/>
       <use xlink:href="#ArialMT-32" x="55.615234"/>
       <use xlink:href="#ArialMT-30" x="111.230469"/>
       <use xlink:href="#ArialMT-30" x="166.845703"/>
      </g>
     </g>
    </g>
    <g id="xtick_8">
     <g id="line2d_8">
      <path d="M 298.8 155.300625 
L 298.8 27.650625 
" clip-path="url(#pf87cb14222)" style="fill: none; stroke: #ffffff; stroke-width: 1.6; stroke-linecap: round"/>
     </g>
     <g id="text_8">
      <!-- 1400 -->
      <g style="fill: #262626" transform="translate(286.565937 172.674219) scale(0.11 -0.11)">
       <use xlink:href="#ArialMT-31"/>
       <use xlink:href="#ArialMT-34" x="55.615234"/>
       <use xlink:href="#ArialMT-30" x="111.230469"/>
       <use xlink:href="#ArialMT-30" x="166.845703"/>
      </g>
     </g>
    </g>
    <g id="xtick_9">
     <g id="line2d_9">
      <path d="M 61.958571 155.300625 
L 61.958571 27.650625 
" clip-path="url(#pf87cb14222)" style="fill: none; stroke: #ffffff; stroke-width: 0.7; stroke-linecap: round"/>
     </g>
    </g>
    <g id="xtick_10">
     <g id="line2d_10">
      <path d="M 98.395714 155.300625 
L 98.395714 27.650625 
" clip-path="url(#pf87cb14222)" style="fill: none; stroke: #ffffff; stroke-width: 0.7; stroke-linecap: round"/>
     </g>
    </g>
    <g id="xtick_11">
     <g id="line2d_11">
      <path d="M 134.832857 155.300625 
L 134.832857 27.650625 
" clip-path="url(#pf87cb14222)" style="fill: none; stroke: #ffffff; stroke-width: 0.7; stroke-linecap: round"/>
     </g>
    </g>
    <g id="xtick_12">
     <g id="line2d_12">
      <path d="M 171.27 155.300625 
L 171.27 27.650625 
" clip-path="url(#pf87cb14222)" style="fill: none; stroke: #ffffff; stroke-width: 0.7; stroke-linecap: round"/>
     </g>
    </g>
    <g id="xtick_13">
     <g id="line2d_13">
      <path d="M 207.707143 155.300625 
L 207.707143 27.650625 
" clip-path="url(#pf87cb14222)" style="fill: none; stroke: #ffffff; stroke-width: 0.7; stroke-linecap: round"/>
     </g>
    </g>
    <g id="xtick_14">
     <g id="line2d_14">
      <path d="M 244.144286 155.300625 
L 244.144286 27.650625 
" clip-path="url(#pf87cb14222)" style="fill: none; stroke: #ffffff; stroke-width: 0.7; stroke-linecap: round"/>
     </g>
    </g>
    <g id="xtick_15">
     <g id="line2d_15">
      <path d="M 280.581429 155.300625 
L 280.581429 27.650625 
" clip-path="url(#pf87cb14222)" style="fill: none; stroke: #ffffff; stroke-width: 0.7; stroke-linecap: round"/>
     </g>
    </g>
    <g id="text_9">
     <!-- Required Global Electricity Production -->
     <g style="fill: #262626" transform="translate(70.227187 187.596094) scale(0.12 -0.12)">
      <defs>
       <path id="ArialMT-52" d="M 503 0 
L 503 4581 
L 2534 4581 
Q 3147 4581 3465 4457 
Q 3784 4334 3975 4021 
Q 4166 3709 4166 3331 
Q 4166 2844 3850 2509 
Q 3534 2175 2875 2084 
Q 3116 1969 3241 1856 
Q 3506 1613 3744 1247 
L 4541 0 
L 3778 0 
L 3172 953 
Q 2906 1366 2734 1584 
Q 2563 1803 2427 1890 
Q 2291 1978 2150 2013 
Q 2047 2034 1813 2034 
L 1109 2034 
L 1109 0 
L 503 0 
z
M 1109 2559 
L 2413 2559 
Q 2828 2559 3062 2645 
Q 3297 2731 3419 2920 
Q 3541 3109 3541 3331 
Q 3541 3656 3305 3865 
Q 3069 4075 2559 4075 
L 1109 4075 
L 1109 2559 
z
" transform="scale(0.015625)"/>
       <path id="ArialMT-65" d="M 2694 1069 
L 3275 997 
Q 3138 488 2766 206 
Q 2394 -75 1816 -75 
Q 1088 -75 661 373 
Q 234 822 234 1631 
Q 234 2469 665 2931 
Q 1097 3394 1784 3394 
Q 2450 3394 2872 2941 
Q 3294 2488 3294 1666 
Q 3294 1616 3291 1516 
L 816 1516 
Q 847 969 1125 678 
Q 1403 388 1819 388 
Q 2128 388 2347 550 
Q 2566 713 2694 1069 
z
M 847 1978 
L 2700 1978 
Q 2663 2397 2488 2606 
Q 2219 2931 1791 2931 
Q 1403 2931 1139 2672 
Q 875 2413 847 1978 
z
" transform="scale(0.015625)"/>
       <path id="ArialMT-71" d="M 2538 -1272 
L 2538 353 
Q 2406 169 2170 47 
Q 1934 -75 1669 -75 
Q 1078 -75 651 397 
Q 225 869 225 1691 
Q 225 2191 398 2587 
Q 572 2984 901 3189 
Q 1231 3394 1625 3394 
Q 2241 3394 2594 2875 
L 2594 3319 
L 3100 3319 
L 3100 -1272 
L 2538 -1272 
z
M 803 1669 
Q 803 1028 1072 708 
Q 1341 388 1716 388 
Q 2075 388 2334 692 
Q 2594 997 2594 1619 
Q 2594 2281 2320 2615 
Q 2047 2950 1678 2950 
Q 1313 2950 1058 2639 
Q 803 2328 803 1669 
z
" transform="scale(0.015625)"/>
       <path id="ArialMT-75" d="M 2597 0 
L 2597 488 
Q 2209 -75 1544 -75 
Q 1250 -75 995 37 
Q 741 150 617 320 
Q 494 491 444 738 
Q 409 903 409 1263 
L 409 3319 
L 972 3319 
L 972 1478 
Q 972 1038 1006 884 
Q 1059 663 1231 536 
Q 1403 409 1656 409 
Q 1909 409 2131 539 
Q 2353 669 2445 892 
Q 2538 1116 2538 1541 
L 2538 3319 
L 3100 3319 
L 3100 0 
L 2597 0 
z
" transform="scale(0.015625)"/>
       <path id="ArialMT-69" d="M 425 3934 
L 425 4581 
L 988 4581 
L 988 3934 
L 425 3934 
z
M 425 0 
L 425 3319 
L 988 3319 
L 988 0 
L 425 0 
z
" transform="scale(0.015625)"/>
       <path id="ArialMT-72" d="M 416 0 
L 416 3319 
L 922 3319 
L 922 2816 
Q 1116 3169 1280 3281 
Q 1444 3394 1641 3394 
Q 1925 3394 2219 3213 
L 2025 2691 
Q 1819 2813 1613 2813 
Q 1428 2813 1281 2702 
Q 1134 2591 1072 2394 
Q 978 2094 978 1738 
L 978 0 
L 416 0 
z
" transform="scale(0.015625)"/>
       <path id="ArialMT-64" d="M 2575 0 
L 2575 419 
Q 2259 -75 1647 -75 
Q 1250 -75 917 144 
Q 584 363 401 755 
Q 219 1147 219 1656 
Q 219 2153 384 2558 
Q 550 2963 881 3178 
Q 1213 3394 1622 3394 
Q 1922 3394 2156 3267 
Q 2391 3141 2538 2938 
L 2538 4581 
L 3097 4581 
L 3097 0 
L 2575 0 
z
M 797 1656 
Q 797 1019 1065 703 
Q 1334 388 1700 388 
Q 2069 388 2326 689 
Q 2584 991 2584 1609 
Q 2584 2291 2321 2609 
Q 2059 2928 1675 2928 
Q 1300 2928 1048 2622 
Q 797 2316 797 1656 
z
" transform="scale(0.015625)"/>
       <path id="ArialMT-20" transform="scale(0.015625)"/>
       <path id="ArialMT-47" d="M 2638 1797 
L 2638 2334 
L 4578 2338 
L 4578 638 
Q 4131 281 3656 101 
Q 3181 -78 2681 -78 
Q 2006 -78 1454 211 
Q 903 500 622 1047 
Q 341 1594 341 2269 
Q 341 2938 620 3517 
Q 900 4097 1425 4378 
Q 1950 4659 2634 4659 
Q 3131 4659 3532 4498 
Q 3934 4338 4162 4050 
Q 4391 3763 4509 3300 
L 3963 3150 
Q 3859 3500 3706 3700 
Q 3553 3900 3268 4020 
Q 2984 4141 2638 4141 
Q 2222 4141 1919 4014 
Q 1616 3888 1430 3681 
Q 1244 3475 1141 3228 
Q 966 2803 966 2306 
Q 966 1694 1177 1281 
Q 1388 869 1791 669 
Q 2194 469 2647 469 
Q 3041 469 3416 620 
Q 3791 772 3984 944 
L 3984 1797 
L 2638 1797 
z
" transform="scale(0.015625)"/>
       <path id="ArialMT-6c" d="M 409 0 
L 409 4581 
L 972 4581 
L 972 0 
L 409 0 
z
" transform="scale(0.015625)"/>
       <path id="ArialMT-6f" d="M 213 1659 
Q 213 2581 725 3025 
Q 1153 3394 1769 3394 
Q 2453 3394 2887 2945 
Q 3322 2497 3322 1706 
Q 3322 1066 3130 698 
Q 2938 331 2570 128 
Q 2203 -75 1769 -75 
Q 1072 -75 642 372 
Q 213 819 213 1659 
z
M 791 1659 
Q 791 1022 1069 705 
Q 1347 388 1769 388 
Q 2188 388 2466 706 
Q 2744 1025 2744 1678 
Q 2744 2294 2464 2611 
Q 2184 2928 1769 2928 
Q 1347 2928 1069 2612 
Q 791 2297 791 1659 
z
" transform="scale(0.015625)"/>
       <path id="ArialMT-62" d="M 941 0 
L 419 0 
L 419 4581 
L 981 4581 
L 981 2947 
Q 1338 3394 1891 3394 
Q 2197 3394 2470 3270 
Q 2744 3147 2920 2923 
Q 3097 2700 3197 2384 
Q 3297 2069 3297 1709 
Q 3297 856 2875 390 
Q 2453 -75 1863 -75 
Q 1275 -75 941 416 
L 941 0 
z
M 934 1684 
Q 934 1088 1097 822 
Q 1363 388 1816 388 
Q 2184 388 2453 708 
Q 2722 1028 2722 1663 
Q 2722 2313 2464 2622 
Q 2206 2931 1841 2931 
Q 1472 2931 1203 2611 
Q 934 2291 934 1684 
z
" transform="scale(0.015625)"/>
       <path id="ArialMT-61" d="M 2588 409 
Q 2275 144 1986 34 
Q 1697 -75 1366 -75 
Q 819 -75 525 192 
Q 231 459 231 875 
Q 231 1119 342 1320 
Q 453 1522 633 1644 
Q 813 1766 1038 1828 
Q 1203 1872 1538 1913 
Q 2219 1994 2541 2106 
Q 2544 2222 2544 2253 
Q 2544 2597 2384 2738 
Q 2169 2928 1744 2928 
Q 1347 2928 1158 2789 
Q 969 2650 878 2297 
L 328 2372 
Q 403 2725 575 2942 
Q 747 3159 1072 3276 
Q 1397 3394 1825 3394 
Q 2250 3394 2515 3294 
Q 2781 3194 2906 3042 
Q 3031 2891 3081 2659 
Q 3109 2516 3109 2141 
L 3109 1391 
Q 3109 606 3145 398 
Q 3181 191 3288 0 
L 2700 0 
Q 2613 175 2588 409 
z
M 2541 1666 
Q 2234 1541 1622 1453 
Q 1275 1403 1131 1340 
Q 988 1278 909 1158 
Q 831 1038 831 891 
Q 831 666 1001 516 
Q 1172 366 1500 366 
Q 1825 366 2078 508 
Q 2331 650 2450 897 
Q 2541 1088 2541 1459 
L 2541 1666 
z
" transform="scale(0.015625)"/>
       <path id="ArialMT-45" d="M 506 0 
L 506 4581 
L 3819 4581 
L 3819 4041 
L 1113 4041 
L 1113 2638 
L 3647 2638 
L 3647 2100 
L 1113 2100 
L 1113 541 
L 3925 541 
L 3925 0 
L 506 0 
z
" transform="scale(0.015625)"/>
       <path id="ArialMT-63" d="M 2588 1216 
L 3141 1144 
Q 3050 572 2676 248 
Q 2303 -75 1759 -75 
Q 1078 -75 664 370 
Q 250 816 250 1647 
Q 250 2184 428 2587 
Q 606 2991 970 3192 
Q 1334 3394 1763 3394 
Q 2303 3394 2647 3120 
Q 2991 2847 3088 2344 
L 2541 2259 
Q 2463 2594 2264 2762 
Q 2066 2931 1784 2931 
Q 1359 2931 1093 2626 
Q 828 2322 828 1663 
Q 828 994 1084 691 
Q 1341 388 1753 388 
Q 2084 388 2306 591 
Q 2528 794 2588 1216 
z
" transform="scale(0.015625)"/>
       <path id="ArialMT-74" d="M 1650 503 
L 1731 6 
Q 1494 -44 1306 -44 
Q 1000 -44 831 53 
Q 663 150 594 308 
Q 525 466 525 972 
L 525 2881 
L 113 2881 
L 113 3319 
L 525 3319 
L 525 4141 
L 1084 4478 
L 1084 3319 
L 1650 3319 
L 1650 2881 
L 1084 2881 
L 1084 941 
Q 1084 700 1114 631 
Q 1144 563 1211 522 
Q 1278 481 1403 481 
Q 1497 481 1650 503 
z
" transform="scale(0.015625)"/>
       <path id="ArialMT-79" d="M 397 -1278 
L 334 -750 
Q 519 -800 656 -800 
Q 844 -800 956 -737 
Q 1069 -675 1141 -563 
Q 1194 -478 1313 -144 
Q 1328 -97 1363 -6 
L 103 3319 
L 709 3319 
L 1400 1397 
Q 1534 1031 1641 628 
Q 1738 1016 1872 1384 
L 2581 3319 
L 3144 3319 
L 1881 -56 
Q 1678 -603 1566 -809 
Q 1416 -1088 1222 -1217 
Q 1028 -1347 759 -1347 
Q 597 -1347 397 -1278 
z
" transform="scale(0.015625)"/>
       <path id="ArialMT-50" d="M 494 0 
L 494 4581 
L 2222 4581 
Q 2678 4581 2919 4538 
Q 3256 4481 3484 4323 
Q 3713 4166 3852 3881 
Q 3991 3597 3991 3256 
Q 3991 2672 3619 2267 
Q 3247 1863 2275 1863 
L 1100 1863 
L 1100 0 
L 494 0 
z
M 1100 2403 
L 2284 2403 
Q 2872 2403 3119 2622 
Q 3366 2841 3366 3238 
Q 3366 3525 3220 3729 
Q 3075 3934 2838 4000 
Q 2684 4041 2272 4041 
L 1100 4041 
L 1100 2403 
z
" transform="scale(0.015625)"/>
       <path id="ArialMT-6e" d="M 422 0 
L 422 3319 
L 928 3319 
L 928 2847 
Q 1294 3394 1984 3394 
Q 2284 3394 2536 3286 
Q 2788 3178 2913 3003 
Q 3038 2828 3088 2588 
Q 3119 2431 3119 2041 
L 3119 0 
L 2556 0 
L 2556 2019 
Q 2556 2363 2490 2533 
Q 2425 2703 2258 2804 
Q 2091 2906 1866 2906 
Q 1506 2906 1245 2678 
Q 984 2450 984 1813 
L 984 0 
L 422 0 
z
" transform="scale(0.015625)"/>
      </defs>
      <use xlink:href="#ArialMT-52"/>
      <use xlink:href="#ArialMT-65" x="72.216797"/>
      <use xlink:href="#ArialMT-71" x="127.832031"/>
      <use xlink:href="#ArialMT-75" x="183.447266"/>
      <use xlink:href="#ArialMT-69" x="239.0625"/>
      <use xlink:href="#ArialMT-72" x="261.279297"/>
      <use xlink:href="#ArialMT-65" x="294.580078"/>
      <use xlink:href="#ArialMT-64" x="350.195312"/>
      <use xlink:href="#ArialMT-20" x="405.810547"/>
      <use xlink:href="#ArialMT-47" x="433.59375"/>
      <use xlink:href="#ArialMT-6c" x="511.376953"/>
      <use xlink:href="#ArialMT-6f" x="533.59375"/>
      <use xlink:href="#ArialMT-62" x="589.208984"/>
      <use xlink:href="#ArialMT-61" x="644.824219"/>
      <use xlink:href="#ArialMT-6c" x="700.439453"/>
      <use xlink:href="#ArialMT-20" x="722.65625"/>
      <use xlink:href="#ArialMT-45" x="750.439453"/>
      <use xlink:href="#ArialMT-6c" x="817.138672"/>
      <use xlink:href="#ArialMT-65" x="839.355469"/>
      <use xlink:href="#ArialMT-63" x="894.970703"/>
      <use xlink:href="#ArialMT-74" x="944.970703"/>
      <use xlink:href="#ArialMT-72" x="972.753906"/>
      <use xlink:href="#ArialMT-69" x="1006.054688"/>
      <use xlink:href="#ArialMT-63" x="1028.271484"/>
      <use xlink:href="#ArialMT-69" x="1078.271484"/>
      <use xlink:href="#ArialMT-74" x="1100.488281"/>
      <use xlink:href="#ArialMT-79" x="1128.271484"/>
      <use xlink:href="#ArialMT-20" x="1178.271484"/>
      <use xlink:href="#ArialMT-50" x="1206.054688"/>
      <use xlink:href="#ArialMT-72" x="1272.753906"/>
      <use xlink:href="#ArialMT-6f" x="1306.054688"/>
      <use xlink:href="#ArialMT-64" x="1361.669922"/>
      <use xlink:href="#ArialMT-75" x="1417.285156"/>
      <use xlink:href="#ArialMT-63" x="1472.900391"/>
      <use xlink:href="#ArialMT-74" x="1522.900391"/>
      <use xlink:href="#ArialMT-69" x="1550.683594"/>
      <use xlink:href="#ArialMT-6f" x="1572.900391"/>
      <use xlink:href="#ArialMT-6e" x="1628.515625"/>
     </g>
     <!-- for 100-Airport Network [TWh/year] -->
     <g style="fill: #262626" transform="translate(78.249375 200.604469) scale(0.12 -0.12)">
      <defs>
       <path id="ArialMT-66" d="M 556 0 
L 556 2881 
L 59 2881 
L 59 3319 
L 556 3319 
L 556 3672 
Q 556 4006 616 4169 
Q 697 4388 901 4523 
Q 1106 4659 1475 4659 
Q 1713 4659 2000 4603 
L 1916 4113 
Q 1741 4144 1584 4144 
Q 1328 4144 1222 4034 
Q 1116 3925 1116 3625 
L 1116 3319 
L 1763 3319 
L 1763 2881 
L 1116 2881 
L 1116 0 
L 556 0 
z
" transform="scale(0.015625)"/>
       <path id="ArialMT-2d" d="M 203 1375 
L 203 1941 
L 1931 1941 
L 1931 1375 
L 203 1375 
z
" transform="scale(0.015625)"/>
       <path id="ArialMT-41" d="M -9 0 
L 1750 4581 
L 2403 4581 
L 4278 0 
L 3588 0 
L 3053 1388 
L 1138 1388 
L 634 0 
L -9 0 
z
M 1313 1881 
L 2866 1881 
L 2388 3150 
Q 2169 3728 2063 4100 
Q 1975 3659 1816 3225 
L 1313 1881 
z
" transform="scale(0.015625)"/>
       <path id="ArialMT-70" d="M 422 -1272 
L 422 3319 
L 934 3319 
L 934 2888 
Q 1116 3141 1344 3267 
Q 1572 3394 1897 3394 
Q 2322 3394 2647 3175 
Q 2972 2956 3137 2557 
Q 3303 2159 3303 1684 
Q 3303 1175 3120 767 
Q 2938 359 2589 142 
Q 2241 -75 1856 -75 
Q 1575 -75 1351 44 
Q 1128 163 984 344 
L 984 -1272 
L 422 -1272 
z
M 931 1641 
Q 931 1000 1190 694 
Q 1450 388 1819 388 
Q 2194 388 2461 705 
Q 2728 1022 2728 1688 
Q 2728 2322 2467 2637 
Q 2206 2953 1844 2953 
Q 1484 2953 1207 2617 
Q 931 2281 931 1641 
z
" transform="scale(0.015625)"/>
       <path id="ArialMT-4e" d="M 488 0 
L 488 4581 
L 1109 4581 
L 3516 984 
L 3516 4581 
L 4097 4581 
L 4097 0 
L 3475 0 
L 1069 3600 
L 1069 0 
L 488 0 
z
" transform="scale(0.015625)"/>
       <path id="ArialMT-77" d="M 1034 0 
L 19 3319 
L 600 3319 
L 1128 1403 
L 1325 691 
Q 1338 744 1497 1375 
L 2025 3319 
L 2603 3319 
L 3100 1394 
L 3266 759 
L 3456 1400 
L 4025 3319 
L 4572 3319 
L 3534 0 
L 2950 0 
L 2422 1988 
L 2294 2553 
L 1622 0 
L 1034 0 
z
" transform="scale(0.015625)"/>
       <path id="ArialMT-6b" d="M 425 0 
L 425 4581 
L 988 4581 
L 988 1969 
L 2319 3319 
L 3047 3319 
L 1778 2088 
L 3175 0 
L 2481 0 
L 1384 1697 
L 988 1316 
L 988 0 
L 425 0 
z
" transform="scale(0.015625)"/>
       <path id="ArialMT-5b" d="M 434 -1272 
L 434 4581 
L 1675 4581 
L 1675 4116 
L 997 4116 
L 997 -806 
L 1675 -806 
L 1675 -1272 
L 434 -1272 
z
" transform="scale(0.015625)"/>
       <path id="ArialMT-54" d="M 1659 0 
L 1659 4041 
L 150 4041 
L 150 4581 
L 3781 4581 
L 3781 4041 
L 2266 4041 
L 2266 0 
L 1659 0 
z
" transform="scale(0.015625)"/>
       <path id="ArialMT-57" d="M 1294 0 
L 78 4581 
L 700 4581 
L 1397 1578 
Q 1509 1106 1591 641 
Q 1766 1375 1797 1488 
L 2669 4581 
L 3400 4581 
L 4056 2263 
Q 4303 1400 4413 641 
Q 4500 1075 4641 1638 
L 5359 4581 
L 5969 4581 
L 4713 0 
L 4128 0 
L 3163 3491 
Q 3041 3928 3019 4028 
Q 2947 3713 2884 3491 
L 1913 0 
L 1294 0 
z
" transform="scale(0.015625)"/>
       <path id="ArialMT-68" d="M 422 0 
L 422 4581 
L 984 4581 
L 984 2938 
Q 1378 3394 1978 3394 
Q 2347 3394 2619 3248 
Q 2891 3103 3008 2847 
Q 3125 2591 3125 2103 
L 3125 0 
L 2563 0 
L 2563 2103 
Q 2563 2525 2380 2717 
Q 2197 2909 1863 2909 
Q 1613 2909 1392 2779 
Q 1172 2650 1078 2428 
Q 984 2206 984 1816 
L 984 0 
L 422 0 
z
" transform="scale(0.015625)"/>
       <path id="ArialMT-2f" d="M 0 -78 
L 1328 4659 
L 1778 4659 
L 453 -78 
L 0 -78 
z
" transform="scale(0.015625)"/>
       <path id="ArialMT-5d" d="M 1363 -1272 
L 122 -1272 
L 122 -806 
L 800 -806 
L 800 4116 
L 122 4116 
L 122 4581 
L 1363 4581 
L 1363 -1272 
z
" transform="scale(0.015625)"/>
      </defs>
      <use xlink:href="#ArialMT-66"/>
      <use xlink:href="#ArialMT-6f" x="27.783203"/>
      <use xlink:href="#ArialMT-72" x="83.398438"/>
      <use xlink:href="#ArialMT-20" x="116.699219"/>
      <use xlink:href="#ArialMT-31" x="144.482422"/>
      <use xlink:href="#ArialMT-30" x="200.097656"/>
      <use xlink:href="#ArialMT-30" x="255.712891"/>
      <use xlink:href="#ArialMT-2d" x="311.328125"/>
      <use xlink:href="#ArialMT-41" x="344.628906"/>
      <use xlink:href="#ArialMT-69" x="411.328125"/>
      <use xlink:href="#ArialMT-72" x="433.544922"/>
      <use xlink:href="#ArialMT-70" x="466.845703"/>
      <use xlink:href="#ArialMT-6f" x="522.460938"/>
      <use xlink:href="#ArialMT-72" x="578.076172"/>
      <use xlink:href="#ArialMT-74" x="611.376953"/>
      <use xlink:href="#ArialMT-20" x="639.160156"/>
      <use xlink:href="#ArialMT-4e" x="666.943359"/>
      <use xlink:href="#ArialMT-65" x="739.160156"/>
      <use xlink:href="#ArialMT-74" x="794.775391"/>
      <use xlink:href="#ArialMT-77" x="822.558594"/>
      <use xlink:href="#ArialMT-6f" x="894.775391"/>
      <use xlink:href="#ArialMT-72" x="950.390625"/>
      <use xlink:href="#ArialMT-6b" x="983.691406"/>
      <use xlink:href="#ArialMT-20" x="1033.691406"/>
      <use xlink:href="#ArialMT-5b" x="1061.474609"/>
      <use xlink:href="#ArialMT-54" x="1089.257812"/>
      <use xlink:href="#ArialMT-57" x="1150.341797"/>
      <use xlink:href="#ArialMT-68" x="1244.726562"/>
      <use xlink:href="#ArialMT-2f" x="1300.341797"/>
      <use xlink:href="#ArialMT-79" x="1328.125"/>
      <use xlink:href="#ArialMT-65" x="1378.125"/>
      <use xlink:href="#ArialMT-61" x="1433.740234"/>
      <use xlink:href="#ArialMT-72" x="1489.355469"/>
      <use xlink:href="#ArialMT-5d" x="1522.65625"/>
     </g>
    </g>
   </g>
   <g id="matplotlib.axis_2">
    <g id="ytick_1">
     <g id="line2d_16">
      <path d="M 43.74 155.300625 
L 298.8 155.300625 
" clip-path="url(#pf87cb14222)" style="fill: none; stroke: #ffffff; stroke-width: 1.6; stroke-linecap: round"/>
     </g>
     <g id="text_10">
      <!-- 0 -->
      <g style="fill: #262626" transform="translate(28.122969 159.237422) scale(0.11 -0.11)">
       <use xlink:href="#ArialMT-30"/>
      </g>
     </g>
    </g>
    <g id="ytick_2">
     <g id="line2d_17">
      <path d="M 43.74 108.032421 
L 298.8 108.032421 
" clip-path="url(#pf87cb14222)" style="fill: none; stroke: #ffffff; stroke-width: 1.6; stroke-linecap: round"/>
     </g>
     <g id="text_11">
      <!-- 2 -->
      <g style="fill: #262626" transform="translate(28.122969 111.969217) scale(0.11 -0.11)">
       <use xlink:href="#ArialMT-32"/>
      </g>
     </g>
    </g>
    <g id="ytick_3">
     <g id="line2d_18">
      <path d="M 43.74 60.764216 
L 298.8 60.764216 
" clip-path="url(#pf87cb14222)" style="fill: none; stroke: #ffffff; stroke-width: 1.6; stroke-linecap: round"/>
     </g>
     <g id="text_12">
      <!-- 4 -->
      <g style="fill: #262626" transform="translate(28.122969 64.701013) scale(0.11 -0.11)">
       <use xlink:href="#ArialMT-34"/>
      </g>
     </g>
    </g>
    <g id="text_13">
     <!-- Relative Likelihood -->
     <g style="fill: #262626" transform="translate(21.737969 141.837187) rotate(-90) scale(0.12 -0.12)">
      <defs>
       <path id="ArialMT-76" d="M 1344 0 
L 81 3319 
L 675 3319 
L 1388 1331 
Q 1503 1009 1600 663 
Q 1675 925 1809 1294 
L 2547 3319 
L 3125 3319 
L 1869 0 
L 1344 0 
z
" transform="scale(0.015625)"/>
       <path id="ArialMT-4c" d="M 469 0 
L 469 4581 
L 1075 4581 
L 1075 541 
L 3331 541 
L 3331 0 
L 469 0 
z
" transform="scale(0.015625)"/>
      </defs>
      <use xlink:href="#ArialMT-52"/>
      <use xlink:href="#ArialMT-65" x="72.216797"/>
      <use xlink:href="#ArialMT-6c" x="127.832031"/>
      <use xlink:href="#ArialMT-61" x="150.048828"/>
      <use xlink:href="#ArialMT-74" x="205.664062"/>
      <use xlink:href="#ArialMT-69" x="233.447266"/>
      <use xlink:href="#ArialMT-76" x="255.664062"/>
      <use xlink:href="#ArialMT-65" x="305.664062"/>
      <use xlink:href="#ArialMT-20" x="361.279297"/>
      <use xlink:href="#ArialMT-4c" x="389.0625"/>
      <use xlink:href="#ArialMT-69" x="444.677734"/>
      <use xlink:href="#ArialMT-6b" x="466.894531"/>
      <use xlink:href="#ArialMT-65" x="516.894531"/>
      <use xlink:href="#ArialMT-6c" x="572.509766"/>
      <use xlink:href="#ArialMT-69" x="594.726562"/>
      <use xlink:href="#ArialMT-68" x="616.943359"/>
      <use xlink:href="#ArialMT-6f" x="672.558594"/>
      <use xlink:href="#ArialMT-6f" x="728.173828"/>
      <use xlink:href="#ArialMT-64" x="783.789062"/>
     </g>
    </g>
   </g>
   <g id="PolyCollection_1">
    <defs>
     <path id="me45ad14f1a" d="M 117.518818 -60.699536 
L 117.518818 -60.699375 
L 118.007956 -60.699375 
L 118.500336 -60.699375 
L 118.995981 -60.699375 
L 119.494913 -60.699375 
L 119.997152 -60.699375 
L 120.50272 -60.699375 
L 121.011641 -60.699375 
L 121.523935 -60.699375 
L 122.039626 -60.699375 
L 122.558736 -60.699375 
L 123.081288 -60.699375 
L 123.607303 -60.699375 
L 124.136807 -60.699375 
L 124.66982 -60.699375 
L 125.206368 -60.699375 
L 125.746473 -60.699375 
L 126.290158 -60.699375 
L 126.837448 -60.699375 
L 127.388367 -60.699375 
L 127.942937 -60.699375 
L 128.501185 -60.699375 
L 129.063134 -60.699375 
L 129.628808 -60.699375 
L 130.198232 -60.699375 
L 130.771432 -60.699375 
L 131.348432 -60.699375 
L 131.929257 -60.699375 
L 132.513933 -60.699375 
L 133.102486 -60.699375 
L 133.69494 -60.699375 
L 134.291322 -60.699375 
L 134.891658 -60.699375 
L 135.495974 -60.699375 
L 136.104297 -60.699375 
L 136.716652 -60.699375 
L 137.333068 -60.699375 
L 137.95357 -60.699375 
L 138.578186 -60.699375 
L 139.206943 -60.699375 
L 139.839868 -60.699375 
L 140.47699 -60.699375 
L 141.118336 -60.699375 
L 141.763933 -60.699375 
L 142.413811 -60.699375 
L 143.067998 -60.699375 
L 143.726521 -60.699375 
L 144.389411 -60.699375 
L 145.056695 -60.699375 
L 145.728403 -60.699375 
L 146.404564 -60.699375 
L 147.085209 -60.699375 
L 147.770365 -60.699375 
L 148.460065 -60.699375 
L 149.154336 -60.699375 
L 149.853211 -60.699375 
L 150.556719 -60.699375 
L 151.264891 -60.699375 
L 151.977758 -60.699375 
L 152.695352 -60.699375 
L 153.417702 -60.699375 
L 154.144842 -60.699375 
L 154.876803 -60.699375 
L 155.613616 -60.699375 
L 156.355315 -60.699375 
L 157.10193 -60.699375 
L 157.853496 -60.699375 
L 158.610044 -60.699375 
L 159.371608 -60.699375 
L 160.138221 -60.699375 
L 160.909916 -60.699375 
L 161.686728 -60.699375 
L 162.46869 -60.699375 
L 163.255836 -60.699375 
L 164.0482 -60.699375 
L 164.845818 -60.699375 
L 165.648724 -60.699375 
L 166.456953 -60.699375 
L 167.27054 -60.699375 
L 168.089521 -60.699375 
L 168.913932 -60.699375 
L 169.743809 -60.699375 
L 170.579187 -60.699375 
L 171.420104 -60.699375 
L 172.266596 -60.699375 
L 173.1187 -60.699375 
L 173.976453 -60.699375 
L 174.839893 -60.699375 
L 175.709058 -60.699375 
L 176.583984 -60.699375 
L 177.464712 -60.699375 
L 178.351278 -60.699375 
L 179.243722 -60.699375 
L 180.142083 -60.699375 
L 181.0464 -60.699375 
L 181.956712 -60.699375 
L 182.87306 -60.699375 
L 183.795482 -60.699375 
L 184.72402 -60.699375 
L 185.658714 -60.699375 
L 186.599605 -60.699375 
L 187.546734 -60.699375 
L 188.500142 -60.699375 
L 189.459871 -60.699375 
L 190.425963 -60.699375 
L 191.39846 -60.699375 
L 192.377404 -60.699375 
L 193.362838 -60.699375 
L 194.354806 -60.699375 
L 195.35335 -60.699375 
L 196.358514 -60.699375 
L 197.370343 -60.699375 
L 198.388879 -60.699375 
L 199.414168 -60.699375 
L 200.446255 -60.699375 
L 201.485184 -60.699375 
L 202.531001 -60.699375 
L 203.583752 -60.699375 
L 204.643482 -60.699375 
L 205.710238 -60.699375 
L 206.784066 -60.699375 
L 207.865013 -60.699375 
L 208.953127 -60.699375 
L 210.048455 -60.699375 
L 211.151045 -60.699375 
L 212.260945 -60.699375 
L 213.378203 -60.699375 
L 214.502868 -60.699375 
L 215.634989 -60.699375 
L 216.774617 -60.699375 
L 217.921799 -60.699375 
L 219.076588 -60.699375 
L 220.239032 -60.699375 
L 221.409183 -60.699375 
L 222.587092 -60.699375 
L 223.77281 -60.699375 
L 224.966389 -60.699375 
L 226.167882 -60.699375 
L 227.37734 -60.699375 
L 228.594816 -60.699375 
L 229.820364 -60.699375 
L 231.054038 -60.699375 
L 232.29589 -60.699375 
L 233.545975 -60.699375 
L 234.804349 -60.699375 
L 236.071065 -60.699375 
L 237.346179 -60.699375 
L 238.629747 -60.699375 
L 239.921824 -60.699375 
L 241.222468 -60.699375 
L 242.531735 -60.699375 
L 243.849682 -60.699375 
L 245.176366 -60.699375 
L 246.511847 -60.699375 
L 247.856181 -60.699375 
L 249.209428 -60.699375 
L 250.571646 -60.699375 
L 251.942896 -60.699375 
L 253.323237 -60.699375 
L 254.712729 -60.699375 
L 256.111434 -60.699375 
L 257.519411 -60.699375 
L 258.936723 -60.699375 
L 260.363432 -60.699375 
L 261.799599 -60.699375 
L 263.245288 -60.699375 
L 264.700561 -60.699375 
L 266.165483 -60.699375 
L 267.640116 -60.699375 
L 269.124527 -60.699375 
L 270.618778 -60.699375 
L 272.122936 -60.699375 
L 273.637066 -60.699375 
L 275.161235 -60.699375 
L 276.695509 -60.699375 
L 278.239954 -60.699375 
L 279.794639 -60.699375 
L 281.359631 -60.699375 
L 282.934999 -60.699375 
L 284.520811 -60.699375 
L 286.117136 -60.699375 
L 287.724045 -60.699375 
L 289.341607 -60.699375 
L 290.969894 -60.699375 
L 292.608976 -60.699375 
L 294.258924 -60.699375 
L 295.919811 -60.699375 
L 297.59171 -60.699375 
L 299.274693 -60.699375 
L 300.968833 -60.699375 
L 302.674206 -60.699375 
L 304.390884 -60.699375 
L 306.118944 -60.699375 
L 307.858461 -60.699375 
L 309.60951 -60.699375 
L 311.372169 -60.699375 
L 313.146513 -60.699375 
L 314.932621 -60.699375 
L 316.73057 -60.699375 
L 318.54044 -60.699375 
L 318.54044 -60.699463 
L 318.54044 -60.699463 
L 316.73057 -60.699516 
L 314.932621 -60.699599 
L 313.146513 -60.699726 
L 311.372169 -60.699918 
L 309.60951 -60.700201 
L 307.858461 -60.700616 
L 306.118944 -60.701215 
L 304.390884 -60.702069 
L 302.674206 -60.703268 
L 300.968833 -60.704932 
L 299.274693 -60.707212 
L 297.59171 -60.710296 
L 295.919811 -60.714417 
L 294.258924 -60.71986 
L 292.608976 -60.726964 
L 290.969894 -60.736136 
L 289.341607 -60.747853 
L 287.724045 -60.762672 
L 286.117136 -60.781246 
L 284.520811 -60.804332 
L 282.934999 -60.832809 
L 281.359631 -60.867707 
L 279.794639 -60.910227 
L 278.239954 -60.961779 
L 276.695509 -61.024019 
L 275.161235 -61.098888 
L 273.637066 -61.188662 
L 272.122936 -61.295991 
L 270.618778 -61.423945 
L 269.124527 -61.576047 
L 267.640116 -61.756308 
L 266.165483 -61.969249 
L 264.700561 -62.219915 
L 263.245288 -62.513879 
L 261.799599 -62.857243 
L 260.363432 -63.25662 
L 258.936723 -63.719116 
L 257.519411 -64.252296 
L 256.111434 -64.864144 
L 254.712729 -65.563007 
L 253.323237 -66.357529 
L 251.942896 -67.256567 
L 250.571646 -68.269091 
L 249.209428 -69.404071 
L 247.856181 -70.670334 
L 246.511847 -72.076413 
L 245.176366 -73.630364 
L 243.849682 -75.339565 
L 242.531735 -77.210486 
L 241.222468 -79.24845 
L 239.921824 -81.45736 
L 238.629747 -83.839434 
L 237.346179 -86.394938 
L 236.071065 -89.121945 
L 234.804349 -92.016135 
L 233.545975 -95.070662 
L 232.29589 -98.276091 
L 231.054038 -101.620431 
L 229.820364 -105.089261 
L 228.594816 -108.665932 
L 227.37734 -112.331853 
L 226.167882 -116.066826 
L 224.966389 -119.849418 
L 223.77281 -123.657347 
L 222.587092 -127.467879 
L 221.409183 -131.258217 
L 220.239032 -135.005886 
L 219.076588 -138.689116 
L 217.921799 -142.28721 
L 216.774617 -145.78091 
L 215.634989 -149.152734 
L 214.502868 -152.387273 
L 213.378203 -155.47143 
L 212.260945 -158.394579 
L 211.151045 -161.14862 
L 210.048455 -163.72793 
L 208.953127 -166.129208 
L 207.865013 -168.35123 
L 206.784066 -170.394525 
L 205.710238 -172.261021 
L 204.643482 -173.953678 
L 203.583752 -175.476144 
L 202.531001 -176.832463 
L 201.485184 -178.026849 
L 200.446255 -179.063549 
L 199.414168 -179.946777 
L 198.388879 -180.680734 
L 197.370343 -181.269689 
L 196.358514 -181.718108 
L 195.35335 -182.0308 
L 194.354806 -182.213064 
L 193.362838 -182.270804 
L 192.377404 -182.210582 
L 191.39846 -182.039606 
L 190.425963 -181.765621 
L 189.459871 -181.396719 
L 188.500142 -180.941067 
L 187.546734 -180.406581 
L 186.599605 -179.800573 
L 185.658714 -179.129407 
L 184.72402 -178.3982 
L 183.795482 -177.610598 
L 182.87306 -176.768648 
L 181.956712 -175.872771 
L 181.0464 -174.921848 
L 180.142083 -173.913378 
L 179.243722 -172.843714 
L 178.351278 -171.708333 
L 177.464712 -170.502117 
L 176.583984 -169.219628 
L 175.709058 -167.855364 
L 174.839893 -166.403986 
L 173.976453 -164.860512 
L 173.1187 -163.220498 
L 172.266596 -161.48019 
L 171.420104 -159.636679 
L 170.579187 -157.688036 
L 169.743809 -155.633439 
L 168.913932 -153.47329 
L 168.089521 -151.209296 
L 167.27054 -148.84452 
L 166.456953 -146.383386 
L 165.648724 -143.83163 
L 164.845818 -141.196194 
L 164.0482 -138.485074 
L 163.255836 -135.707125 
L 162.46869 -132.87184 
L 161.686728 -129.989126 
L 160.909916 -127.069098 
L 160.138221 -124.121901 
L 159.371608 -121.157596 
L 158.610044 -118.186091 
L 157.853496 -115.217136 
L 157.10193 -112.260363 
L 156.355315 -109.325352 
L 155.613616 -106.421702 
L 154.876803 -103.559087 
L 154.144842 -100.747264 
L 153.417702 -97.996042 
L 152.695352 -95.315176 
L 151.977758 -92.714222 
L 151.264891 -90.202337 
L 150.556719 -87.788057 
L 149.853211 -85.479068 
L 149.154336 -83.281994 
L 148.460065 -81.202214 
L 147.770365 -79.24373 
L 147.085209 -77.409086 
L 146.404564 -75.699354 
L 145.728403 -74.114172 
L 145.056695 -72.651839 
L 144.389411 -71.309445 
L 143.726521 -70.083038 
L 143.067998 -68.967805 
L 142.413811 -67.958258 
L 141.763933 -67.048417 
L 141.118336 -66.231977 
L 140.47699 -65.50246 
L 139.839868 -64.853341 
L 139.206943 -64.278154 
L 138.578186 -63.770583 
L 137.95357 -63.324525 
L 137.333068 -62.934147 
L 136.716652 -62.59392 
L 136.104297 -62.298653 
L 135.495974 -62.043506 
L 134.891658 -61.823999 
L 134.291322 -61.636015 
L 133.69494 -61.475788 
L 133.102486 -61.339896 
L 132.513933 -61.225239 
L 131.929257 -61.129018 
L 131.348432 -61.048722 
L 130.771432 -60.982097 
L 130.198232 -60.927135 
L 129.628808 -60.882054 
L 129.063134 -60.845283 
L 128.501185 -60.815445 
L 127.942937 -60.791351 
L 127.388367 -60.771976 
L 126.837448 -60.756456 
L 126.290158 -60.744063 
L 125.746473 -60.734197 
L 125.206368 -60.726364 
L 124.66982 -60.720165 
L 124.136807 -60.715277 
L 123.607303 -60.711439 
L 123.081288 -60.708443 
L 122.558736 -60.706121 
L 122.039626 -60.704337 
L 121.523935 -60.702979 
L 121.011641 -60.701957 
L 120.50272 -60.701199 
L 119.997152 -60.700644 
L 119.494913 -60.700244 
L 118.995981 -60.69996 
L 118.500336 -60.699763 
L 118.007956 -60.699627 
L 117.518818 -60.699536 
z
" style="stroke: #4285f4"/>
    </defs>
    <g clip-path="url(#pf87cb14222)">
     <use xlink:href="#me45ad14f1a" x="0" y="216" style="fill: #4285f4; fill-opacity: 0.25; stroke: #4285f4"/>
    </g>
   </g>
   <g id="line2d_19">
    <path d="M 163.912111 155.300625 
L 163.912111 27.650625 
" clip-path="url(#pf87cb14222)" style="fill: none; stroke-dasharray: 5.55,2.4; stroke-dashoffset: 0; stroke: #000000; stroke-width: 1.5"/>
   </g>
   <g id="patch_3">
    <path d="M 43.74 155.300625 
L 43.74 27.650625 
" style="fill: none; stroke: #ffffff; stroke-width: 1.25; stroke-linejoin: miter; stroke-linecap: square"/>
   </g>
   <g id="patch_4">
    <path d="M 298.8 155.300625 
L 298.8 27.650625 
" style="fill: none; stroke: #ffffff; stroke-width: 1.25; stroke-linejoin: miter; stroke-linecap: square"/>
   </g>
   <g id="patch_5">
    <path d="M 43.74 155.300625 
L 298.8 155.300625 
" style="fill: none; stroke: #ffffff; stroke-width: 1.25; stroke-linejoin: miter; stroke-linecap: square"/>
   </g>
   <g id="patch_6">
    <path d="M 43.74 27.650625 
L 298.8 27.650625 
" style="fill: none; stroke: #ffffff; stroke-width: 1.25; stroke-linejoin: miter; stroke-linecap: square"/>
   </g>
   <g id="text_14">
    <!-- Point Estimate -->
    <g transform="translate(151.084299 123.710781) rotate(-90) scale(0.1 -0.1)">
     <defs>
      <path id="ArialMT-73" d="M 197 991 
L 753 1078 
Q 800 744 1014 566 
Q 1228 388 1613 388 
Q 2000 388 2187 545 
Q 2375 703 2375 916 
Q 2375 1106 2209 1216 
Q 2094 1291 1634 1406 
Q 1016 1563 777 1677 
Q 538 1791 414 1992 
Q 291 2194 291 2438 
Q 291 2659 392 2848 
Q 494 3038 669 3163 
Q 800 3259 1026 3326 
Q 1253 3394 1513 3394 
Q 1903 3394 2198 3281 
Q 2494 3169 2634 2976 
Q 2775 2784 2828 2463 
L 2278 2388 
Q 2241 2644 2061 2787 
Q 1881 2931 1553 2931 
Q 1166 2931 1000 2803 
Q 834 2675 834 2503 
Q 834 2394 903 2306 
Q 972 2216 1119 2156 
Q 1203 2125 1616 2013 
Q 2213 1853 2448 1751 
Q 2684 1650 2818 1456 
Q 2953 1263 2953 975 
Q 2953 694 2789 445 
Q 2625 197 2315 61 
Q 2006 -75 1616 -75 
Q 969 -75 630 194 
Q 291 463 197 991 
z
" transform="scale(0.015625)"/>
      <path id="ArialMT-6d" d="M 422 0 
L 422 3319 
L 925 3319 
L 925 2853 
Q 1081 3097 1340 3245 
Q 1600 3394 1931 3394 
Q 2300 3394 2536 3241 
Q 2772 3088 2869 2813 
Q 3263 3394 3894 3394 
Q 4388 3394 4653 3120 
Q 4919 2847 4919 2278 
L 4919 0 
L 4359 0 
L 4359 2091 
Q 4359 2428 4304 2576 
Q 4250 2725 4106 2815 
Q 3963 2906 3769 2906 
Q 3419 2906 3187 2673 
Q 2956 2441 2956 1928 
L 2956 0 
L 2394 0 
L 2394 2156 
Q 2394 2531 2256 2718 
Q 2119 2906 1806 2906 
Q 1569 2906 1367 2781 
Q 1166 2656 1075 2415 
Q 984 2175 984 1722 
L 984 0 
L 422 0 
z
" transform="scale(0.015625)"/>
     </defs>
     <use xlink:href="#ArialMT-50"/>
     <use xlink:href="#ArialMT-6f" x="66.699219"/>
     <use xlink:href="#ArialMT-69" x="122.314453"/>
     <use xlink:href="#ArialMT-6e" x="144.53125"/>
     <use xlink:href="#ArialMT-74" x="200.146484"/>
     <use xlink:href="#ArialMT-20" x="227.929688"/>
     <use xlink:href="#ArialMT-45" x="255.712891"/>
     <use xlink:href="#ArialMT-73" x="322.412109"/>
     <use xlink:href="#ArialMT-74" x="372.412109"/>
     <use xlink:href="#ArialMT-69" x="400.195312"/>
     <use xlink:href="#ArialMT-6d" x="422.412109"/>
     <use xlink:href="#ArialMT-61" x="505.712891"/>
     <use xlink:href="#ArialMT-74" x="561.328125"/>
     <use xlink:href="#ArialMT-65" x="589.111328"/>
    </g>
    <!-- (660 TWh/yr) -->
    <g transform="translate(161.807424 117.401406) rotate(-90) scale(0.1 -0.1)">
     <defs>
      <path id="ArialMT-28" d="M 1497 -1347 
Q 1031 -759 709 28 
Q 388 816 388 1659 
Q 388 2403 628 3084 
Q 909 3875 1497 4659 
L 1900 4659 
Q 1522 4009 1400 3731 
Q 1209 3300 1100 2831 
Q 966 2247 966 1656 
Q 966 153 1900 -1347 
L 1497 -1347 
z
" transform="scale(0.015625)"/>
      <path id="ArialMT-29" d="M 791 -1347 
L 388 -1347 
Q 1322 153 1322 1656 
Q 1322 2244 1188 2822 
Q 1081 3291 891 3722 
Q 769 4003 388 4659 
L 791 4659 
Q 1378 3875 1659 3084 
Q 1900 2403 1900 1659 
Q 1900 816 1576 28 
Q 1253 -759 791 -1347 
z
" transform="scale(0.015625)"/>
     </defs>
     <use xlink:href="#ArialMT-28"/>
     <use xlink:href="#ArialMT-36" x="33.300781"/>
     <use xlink:href="#ArialMT-36" x="88.916016"/>
     <use xlink:href="#ArialMT-30" x="144.53125"/>
     <use xlink:href="#ArialMT-20" x="200.146484"/>
     <use xlink:href="#ArialMT-54" x="226.179688"/>
     <use xlink:href="#ArialMT-57" x="287.263672"/>
     <use xlink:href="#ArialMT-68" x="381.648438"/>
     <use xlink:href="#ArialMT-2f" x="437.263672"/>
     <use xlink:href="#ArialMT-79" x="465.046875"/>
     <use xlink:href="#ArialMT-72" x="515.046875"/>
     <use xlink:href="#ArialMT-29" x="548.347656"/>
    </g>
   </g>
   <g id="text_15">
    <!-- Probability Distribution of Global Electricity Needs -->
    <g style="fill: #262626" transform="translate(39.554062 21.650625) scale(0.12 -0.12)">
     <defs>
      <path id="ArialMT-44" d="M 494 0 
L 494 4581 
L 2072 4581 
Q 2606 4581 2888 4516 
Q 3281 4425 3559 4188 
Q 3922 3881 4101 3404 
Q 4281 2928 4281 2316 
Q 4281 1794 4159 1391 
Q 4038 988 3847 723 
Q 3656 459 3429 307 
Q 3203 156 2883 78 
Q 2563 0 2147 0 
L 494 0 
z
M 1100 541 
L 2078 541 
Q 2531 541 2789 625 
Q 3047 709 3200 863 
Q 3416 1078 3536 1442 
Q 3656 1806 3656 2325 
Q 3656 3044 3420 3430 
Q 3184 3816 2847 3947 
Q 2603 4041 2063 4041 
L 1100 4041 
L 1100 541 
z
" transform="scale(0.015625)"/>
     </defs>
     <use xlink:href="#ArialMT-50"/>
     <use xlink:href="#ArialMT-72" x="66.699219"/>
     <use xlink:href="#ArialMT-6f" x="100"/>
     <use xlink:href="#ArialMT-62" x="155.615234"/>
     <use xlink:href="#ArialMT-61" x="211.230469"/>
     <use xlink:href="#ArialMT-62" x="266.845703"/>
     <use xlink:href="#ArialMT-69" x="322.460938"/>
     <use xlink:href="#ArialMT-6c" x="344.677734"/>
     <use xlink:href="#ArialMT-69" x="366.894531"/>
     <use xlink:href="#ArialMT-74" x="389.111328"/>
     <use xlink:href="#ArialMT-79" x="416.894531"/>
     <use xlink:href="#ArialMT-20" x="466.894531"/>
     <use xlink:href="#ArialMT-44" x="494.677734"/>
     <use xlink:href="#ArialMT-69" x="566.894531"/>
     <use xlink:href="#ArialMT-73" x="589.111328"/>
     <use xlink:href="#ArialMT-74" x="639.111328"/>
     <use xlink:href="#ArialMT-72" x="666.894531"/>
     <use xlink:href="#ArialMT-69" x="700.195312"/>
     <use xlink:href="#ArialMT-62" x="722.412109"/>
     <use xlink:href="#ArialMT-75" x="778.027344"/>
     <use xlink:href="#ArialMT-74" x="833.642578"/>
     <use xlink:href="#ArialMT-69" x="861.425781"/>
     <use xlink:href="#ArialMT-6f" x="883.642578"/>
     <use xlink:href="#ArialMT-6e" x="939.257812"/>
     <use xlink:href="#ArialMT-20" x="994.873047"/>
     <use xlink:href="#ArialMT-6f" x="1022.65625"/>
     <use xlink:href="#ArialMT-66" x="1078.271484"/>
     <use xlink:href="#ArialMT-20" x="1106.054688"/>
     <use xlink:href="#ArialMT-47" x="1133.837891"/>
     <use xlink:href="#ArialMT-6c" x="1211.621094"/>
     <use xlink:href="#ArialMT-6f" x="1233.837891"/>
     <use xlink:href="#ArialMT-62" x="1289.453125"/>
     <use xlink:href="#ArialMT-61" x="1345.068359"/>
     <use xlink:href="#ArialMT-6c" x="1400.683594"/>
     <use xlink:href="#ArialMT-20" x="1422.900391"/>
     <use xlink:href="#ArialMT-45" x="1450.683594"/>
     <use xlink:href="#ArialMT-6c" x="1517.382812"/>
     <use xlink:href="#ArialMT-65" x="1539.599609"/>
     <use xlink:href="#ArialMT-63" x="1595.214844"/>
     <use xlink:href="#ArialMT-74" x="1645.214844"/>
     <use xlink:href="#ArialMT-72" x="1672.998047"/>
     <use xlink:href="#ArialMT-69" x="1706.298828"/>
     <use xlink:href="#ArialMT-63" x="1728.515625"/>
     <use xlink:href="#ArialMT-69" x="1778.515625"/>
     <use xlink:href="#ArialMT-74" x="1800.732422"/>
     <use xlink:href="#ArialMT-79" x="1828.515625"/>
     <use xlink:href="#ArialMT-20" x="1878.515625"/>
     <use xlink:href="#ArialMT-4e" x="1906.298828"/>
     <use xlink:href="#ArialMT-65" x="1978.515625"/>
     <use xlink:href="#ArialMT-65" x="2034.130859"/>
     <use xlink:href="#ArialMT-64" x="2089.746094"/>
     <use xlink:href="#ArialMT-73" x="2145.361328"/>
    </g>
   </g>
  </g>
 </g>
 <defs>
  <clipPath id="pf87cb14222">
   <rect x="43.74" y="27.650625" width="255.06" height="127.65"/>
  </clipPath>
 </defs>
</svg>
