<?xml version="1.0" encoding="utf-8" standalone="no"?>
<!DOCTYPE svg PUBLIC "-//W3C//DTD SVG 1.1//EN"
  "http://www.w3.org/Graphics/SVG/1.1/DTD/svg11.dtd">
<svg xmlns:xlink="http://www.w3.org/1999/xlink" width="324pt" height="216pt" viewBox="0 0 324 216" xmlns="http://www.w3.org/2000/svg" version="1.1">
 <metadata>
  <rdf:RDF xmlns:dc="http://purl.org/dc/elements/1.1/" xmlns:cc="http://creativecommons.org/ns#" xmlns:rdf="http://www.w3.org/1999/02/22-rdf-syntax-ns#">
   <cc:Work>
    <dc:type rdf:resource="http://purl.org/dc/dcmitype/StillImage"/>
    <dc:date>2023-01-15T13:58:48.911085</dc:date>
    <dc:format>image/svg+xml</dc:format>
    <dc:creator>
     <cc:Agent>
      <dc:title>Matplotlib v3.6.2, https://matplotlib.org/</dc:title>
     </cc:Agent>
    </dc:creator>
   </cc:Work>
  </rdf:RDF>
 </metadata>
 <defs>
  <style type="text/css">*{stroke-linejoin: round; stroke-linecap: butt}</style>
 </defs>
 <g id="figure_1">
  <g id="patch_1">
   <path d="M 0 216 
L 324 216 
L 324 0 
L 0 0 
z
" style="fill: #ffffff"/>
  </g>
  <g id="axes_1">
   <g id="patch_2">
    <path d="M 43.74 155.300625 
L 298.8 155.300625 
L 298.8 27.650625 
L 43.74 27.650625 
z
" style="fill: #eaeaf2"/>
   </g>
   <g id="matplotlib.axis_1">
    <g id="xtick_1">
     <g id="line2d_1">
      <path d="M 43.74 155.300625 
L 43.74 27.650625 
" clip-path="url(#pb1060ca0dd)" style="fill: none; stroke: #ffffff; stroke-width: 1.6; stroke-linecap: round"/>
     </g>
     <g id="text_1">
      <!-- 0 -->
      <g style="fill: #262626" transform="translate(40.681484 172.674219) scale(0.11 -0.11)">
       <defs>
        <path id="ArialMT-30" d="M 266 2259 
Q 266 3072 433 3567 
Q 600 4063 929 4331 
Q 1259 4600 1759 4600 
Q 2128 4600 2406 4451 
Q 2684 4303 2865 4023 
Q 3047 3744 3150 3342 
Q 3253 2941 3253 2259 
Q 3253 1453 3087 958 
Q 2922 463 2592 192 
Q 2263 -78 1759 -78 
Q 1097 -78 719 397 
Q 266 969 266 2259 
z
M 844 2259 
Q 844 1131 1108 757 
Q 1372 384 1759 384 
Q 2147 384 2411 759 
Q 2675 1134 2675 2259 
Q 2675 3391 2411 3762 
Q 2147 4134 1753 4134 
Q 1366 4134 1134 3806 
Q 844 3388 844 2259 
z
" transform="scale(0.015625)"/>
       </defs>
       <use xlink:href="#ArialMT-30"/>
      </g>
     </g>
    </g>
    <g id="xtick_2">
     <g id="line2d_2">
      <path d="M 80.177143 155.300625 
L 80.177143 27.650625 
" clip-path="url(#pb1060ca0dd)" style="fill: none; stroke: #ffffff; stroke-width: 1.6; stroke-linecap: round"/>
     </g>
     <g id="text_2">
      <!-- 200 -->
      <g style="fill: #262626" transform="translate(71.001596 172.674219) scale(0.11 -0.11)">
       <defs>
        <path id="ArialMT-32" d="M 3222 541 
L 3222 0 
L 194 0 
Q 188 203 259 391 
Q 375 700 629 1000 
Q 884 1300 1366 1694 
Q 2113 2306 2375 2664 
Q 2638 3022 2638 3341 
Q 2638 3675 2398 3904 
Q 2159 4134 1775 4134 
Q 1369 4134 1125 3890 
Q 881 3647 878 3216 
L 300 3275 
Q 359 3922 746 4261 
Q 1134 4600 1788 4600 
Q 2447 4600 2831 4234 
Q 3216 3869 3216 3328 
Q 3216 3053 3103 2787 
Q 2991 2522 2730 2228 
Q 2469 1934 1863 1422 
Q 1356 997 1212 845 
Q 1069 694 975 541 
L 3222 541 
z
" transform="scale(0.015625)"/>
       </defs>
       <use xlink:href="#ArialMT-32"/>
       <use xlink:href="#ArialMT-30" x="55.615234"/>
       <use xlink:href="#ArialMT-30" x="111.230469"/>
      </g>
     </g>
    </g>
    <g id="xtick_3">
     <g id="line2d_3">
      <path d="M 116.614286 155.300625 
L 116.614286 27.650625 
" clip-path="url(#pb1060ca0dd)" style="fill: none; stroke: #ffffff; stroke-width: 1.6; stroke-linecap: round"/>
     </g>
     <g id="text_3">
      <!-- 400 -->
      <g style="fill: #262626" transform="translate(107.438739 172.674219) scale(0.11 -0.11)">
       <defs>
        <path id="ArialMT-34" d="M 2069 0 
L 2069 1097 
L 81 1097 
L 81 1613 
L 2172 4581 
L 2631 4581 
L 2631 1613 
L 3250 1613 
L 3250 1097 
L 2631 1097 
L 2631 0 
L 2069 0 
z
M 2069 1613 
L 2069 3678 
L 634 1613 
L 2069 1613 
z
" transform="scale(0.015625)"/>
       </defs>
       <use xlink:href="#ArialMT-34"/>
       <use xlink:href="#ArialMT-30" x="55.615234"/>
       <use xlink:href="#ArialMT-30" x="111.230469"/>
      </g>
     </g>
    </g>
    <g id="xtick_4">
     <g id="line2d_4">
      <path d="M 153.051429 155.300625 
L 153.051429 27.650625 
" clip-path="url(#pb1060ca0dd)" style="fill: none; stroke: #ffffff; stroke-width: 1.6; stroke-linecap: round"/>
     </g>
     <g id="text_4">
      <!-- 600 -->
      <g style="fill: #262626" transform="translate(143.875882 172.674219) scale(0.11 -0.11)">
       <defs>
        <path id="ArialMT-36" d="M 3184 3459 
L 2625 3416 
Q 2550 3747 2413 3897 
Q 2184 4138 1850 4138 
Q 1581 4138 1378 3988 
Q 1113 3794 959 3422 
Q 806 3050 800 2363 
Q 1003 2672 1297 2822 
Q 1591 2972 1913 2972 
Q 2475 2972 2870 2558 
Q 3266 2144 3266 1488 
Q 3266 1056 3080 686 
Q 2894 316 2569 119 
Q 2244 -78 1831 -78 
Q 1128 -78 684 439 
Q 241 956 241 2144 
Q 241 3472 731 4075 
Q 1159 4600 1884 4600 
Q 2425 4600 2770 4297 
Q 3116 3994 3184 3459 
z
M 888 1484 
Q 888 1194 1011 928 
Q 1134 663 1356 523 
Q 1578 384 1822 384 
Q 2178 384 2434 671 
Q 2691 959 2691 1453 
Q 2691 1928 2437 2201 
Q 2184 2475 1800 2475 
Q 1419 2475 1153 2201 
Q 888 1928 888 1484 
z
" transform="scale(0.015625)"/>
       </defs>
       <use xlink:href="#ArialMT-36"/>
       <use xlink:href="#ArialMT-30" x="55.615234"/>
       <use xlink:href="#ArialMT-30" x="111.230469"/>
      </g>
     </g>
    </g>
    <g id="xtick_5">
     <g id="line2d_5">
      <path d="M 189.488571 155.300625 
L 189.488571 27.650625 
" clip-path="url(#pb1060ca0dd)" style="fill: none; stroke: #ffffff; stroke-width: 1.6; stroke-linecap: round"/>
     </g>
     <g id="text_5">
      <!-- 800 -->
      <g style="fill: #262626" transform="translate(180.313025 172.674219) scale(0.11 -0.11)">
       <defs>
        <path id="ArialMT-38" d="M 1131 2484 
Q 781 2613 612 2850 
Q 444 3088 444 3419 
Q 444 3919 803 4259 
Q 1163 4600 1759 4600 
Q 2359 4600 2725 4251 
Q 3091 3903 3091 3403 
Q 3091 3084 2923 2848 
Q 2756 2613 2416 2484 
Q 2838 2347 3058 2040 
Q 3278 1734 3278 1309 
Q 3278 722 2862 322 
Q 2447 -78 1769 -78 
Q 1091 -78 675 323 
Q 259 725 259 1325 
Q 259 1772 486 2073 
Q 713 2375 1131 2484 
z
M 1019 3438 
Q 1019 3113 1228 2906 
Q 1438 2700 1772 2700 
Q 2097 2700 2305 2904 
Q 2513 3109 2513 3406 
Q 2513 3716 2298 3927 
Q 2084 4138 1766 4138 
Q 1444 4138 1231 3931 
Q 1019 3725 1019 3438 
z
M 838 1322 
Q 838 1081 952 856 
Q 1066 631 1291 507 
Q 1516 384 1775 384 
Q 2178 384 2440 643 
Q 2703 903 2703 1303 
Q 2703 1709 2433 1975 
Q 2163 2241 1756 2241 
Q 1359 2241 1098 1978 
Q 838 1716 838 1322 
z
" transform="scale(0.015625)"/>
       </defs>
       <use xlink:href="#ArialMT-38"/>
       <use xlink:href="#ArialMT-30" x="55.615234"/>
       <use xlink:href="#ArialMT-30" x="111.230469"/>
      </g>
     </g>
    </g>
    <g id="xtick_6">
     <g id="line2d_6">
      <path d="M 225.925714 155.300625 
L 225.925714 27.650625 
" clip-path="url(#pb1060ca0dd)" style="fill: none; stroke: #ffffff; stroke-width: 1.6; stroke-linecap: round"/>
     </g>
     <g id="text_6">
      <!-- 1000 -->
      <g style="fill: #262626" transform="translate(213.691652 172.674219) scale(0.11 -0.11)">
       <defs>
        <path id="ArialMT-31" d="M 2384 0 
L 1822 0 
L 1822 3584 
Q 1619 3391 1289 3197 
Q 959 3003 697 2906 
L 697 3450 
Q 1169 3672 1522 3987 
Q 1875 4303 2022 4600 
L 2384 4600 
L 2384 0 
z
" transform="scale(0.015625)"/>
       </defs>
       <use xlink:href="#ArialMT-31"/>
       <use xlink:href="#ArialMT-30" x="55.615234"/>
       <use xlink:href="#ArialMT-30" x="111.230469"/>
       <use xlink:href="#ArialMT-30" x="166.845703"/>
      </g>
     </g>
    </g>
    <g id="xtick_7">
     <g id="line2d_7">
      <path d="M 262.362857 155.300625 
L 262.362857 27.650625 
" clip-path="url(#pb1060ca0dd)" style="fill: none; stroke: #ffffff; stroke-width: 1.6; stroke-linecap: round"/>
     </g>
     <g id="text_7">
      <!-- 1200 -->
      <g style="fill: #262626" transform="translate(250.128795 172.674219) scale(0.11 -0.11)">
       <use xlink:href="#ArialMT-31"/>
       <use xlink:href="#ArialMT-32" x="55.615234"/>
       <use xlink:href="#ArialMT-30" x="111.230469"/>
       <use xlink:href="#ArialMT-30" x="166.845703"/>
      </g>
     </g>
    </g>
    <g id="xtick_8">
     <g id="line2d_8">
      <path d="M 298.8 155.300625 
L 298.8 27.650625 
" clip-path="url(#pb1060ca0dd)" style="fill: none; stroke: #ffffff; stroke-width: 1.6; stroke-linecap: round"/>
     </g>
     <g id="text_8">
      <!-- 1400 -->
      <g style="fill: #262626" transform="translate(286.565937 172.674219) scale(0.11 -0.11)">
       <use xlink:href="#ArialMT-31"/>
       <use xlink:href="#ArialMT-34" x="55.615234"/>
       <use xlink:href="#ArialMT-30" x="111.230469"/>
       <use xlink:href="#ArialMT-30" x="166.845703"/>
      </g>
     </g>
    </g>
    <g id="xtick_9">
     <g id="line2d_9">
      <path d="M 61.958571 155.300625 
L 61.958571 27.650625 
" clip-path="url(#pb1060ca0dd)" style="fill: none; stroke: #ffffff; stroke-width: 0.7; stroke-linecap: round"/>
     </g>
    </g>
    <g id="xtick_10">
     <g id="line2d_10">
      <path d="M 98.395714 155.300625 
L 98.395714 27.650625 
" clip-path="url(#pb1060ca0dd)" style="fill: none; stroke: #ffffff; stroke-width: 0.7; stroke-linecap: round"/>
     </g>
    </g>
    <g id="xtick_11">
     <g id="line2d_11">
      <path d="M 134.832857 155.300625 
L 134.832857 27.650625 
" clip-path="url(#pb1060ca0dd)" style="fill: none; stroke: #ffffff; stroke-width: 0.7; stroke-linecap: round"/>
     </g>
    </g>
    <g id="xtick_12">
     <g id="line2d_12">
      <path d="M 171.27 155.300625 
L 171.27 27.650625 
" clip-path="url(#pb1060ca0dd)" style="fill: none; stroke: #ffffff; stroke-width: 0.7; stroke-linecap: round"/>
     </g>
    </g>
    <g id="xtick_13">
     <g id="line2d_13">
      <path d="M 207.707143 155.300625 
L 207.707143 27.650625 
" clip-path="url(#pb1060ca0dd)" style="fill: none; stroke: #ffffff; stroke-width: 0.7; stroke-linecap: round"/>
     </g>
    </g>
    <g id="xtick_14">
     <g id="line2d_14">
      <path d="M 244.144286 155.300625 
L 244.144286 27.650625 
" clip-path="url(#pb1060ca0dd)" style="fill: none; stroke: #ffffff; stroke-width: 0.7; stroke-linecap: round"/>
     </g>
    </g>
    <g id="xtick_15">
     <g id="line2d_15">
      <path d="M 280.581429 155.300625 
L 280.581429 27.650625 
" clip-path="url(#pb1060ca0dd)" style="fill: none; stroke: #ffffff; stroke-width: 0.7; stroke-linecap: round"/>
     </g>
    </g>
    <g id="text_9">
     <!-- Required Global Electricity Production -->
     <g style="fill: #262626" transform="translate(70.227187 187.596094) scale(0.12 -0.12)">
      <defs>
       <path id="ArialMT-52" d="M 503 0 
L 503 4581 
L 2534 4581 
Q 3147 4581 3465 4457 
Q 3784 4334 3975 4021 
Q 4166 3709 4166 3331 
Q 4166 2844 3850 2509 
Q 3534 2175 2875 2084 
Q 3116 1969 3241 1856 
Q 3506 1613 3744 1247 
L 4541 0 
L 3778 0 
L 3172 953 
Q 2906 1366 2734 1584 
Q 2563 1803 2427 1890 
Q 2291 1978 2150 2013 
Q 2047 2034 1813 2034 
L 1109 2034 
L 1109 0 
L 503 0 
z
M 1109 2559 
L 2413 2559 
Q 2828 2559 3062 2645 
Q 3297 2731 3419 2920 
Q 3541 3109 3541 3331 
Q 3541 3656 3305 3865 
Q 3069 4075 2559 4075 
L 1109 4075 
L 1109 2559 
z
" transform="scale(0.015625)"/>
       <path id="ArialMT-65" d="M 2694 1069 
L 3275 997 
Q 3138 488 2766 206 
Q 2394 -75 1816 -75 
Q 1088 -75 661 373 
Q 234 822 234 1631 
Q 234 2469 665 2931 
Q 1097 3394 1784 3394 
Q 2450 3394 2872 2941 
Q 3294 2488 3294 1666 
Q 3294 1616 3291 1516 
L 816 1516 
Q 847 969 1125 678 
Q 1403 388 1819 388 
Q 2128 388 2347 550 
Q 2566 713 2694 1069 
z
M 847 1978 
L 2700 1978 
Q 2663 2397 2488 2606 
Q 2219 2931 1791 2931 
Q 1403 2931 1139 2672 
Q 875 2413 847 1978 
z
" transform="scale(0.015625)"/>
       <path id="ArialMT-71" d="M 2538 -1272 
L 2538 353 
Q 2406 169 2170 47 
Q 1934 -75 1669 -75 
Q 1078 -75 651 397 
Q 225 869 225 1691 
Q 225 2191 398 2587 
Q 572 2984 901 3189 
Q 1231 3394 1625 3394 
Q 2241 3394 2594 2875 
L 2594 3319 
L 3100 3319 
L 3100 -1272 
L 2538 -1272 
z
M 803 1669 
Q 803 1028 1072 708 
Q 1341 388 1716 388 
Q 2075 388 2334 692 
Q 2594 997 2594 1619 
Q 2594 2281 2320 2615 
Q 2047 2950 1678 2950 
Q 1313 2950 1058 2639 
Q 803 2328 803 1669 
z
" transform="scale(0.015625)"/>
       <path id="ArialMT-75" d="M 2597 0 
L 2597 488 
Q 2209 -75 1544 -75 
Q 1250 -75 995 37 
Q 741 150 617 320 
Q 494 491 444 738 
Q 409 903 409 1263 
L 409 3319 
L 972 3319 
L 972 1478 
Q 972 1038 1006 884 
Q 1059 663 1231 536 
Q 1403 409 1656 409 
Q 1909 409 2131 539 
Q 2353 669 2445 892 
Q 2538 1116 2538 1541 
L 2538 3319 
L 3100 3319 
L 3100 0 
L 2597 0 
z
" transform="scale(0.015625)"/>
       <path id="ArialMT-69" d="M 425 3934 
L 425 4581 
L 988 4581 
L 988 3934 
L 425 3934 
z
M 425 0 
L 425 3319 
L 988 3319 
L 988 0 
L 425 0 
z
" transform="scale(0.015625)"/>
       <path id="ArialMT-72" d="M 416 0 
L 416 3319 
L 922 3319 
L 922 2816 
Q 1116 3169 1280 3281 
Q 1444 3394 1641 3394 
Q 1925 3394 2219 3213 
L 2025 2691 
Q 1819 2813 1613 2813 
Q 1428 2813 1281 2702 
Q 1134 2591 1072 2394 
Q 978 2094 978 1738 
L 978 0 
L 416 0 
z
" transform="scale(0.015625)"/>
       <path id="ArialMT-64" d="M 2575 0 
L 2575 419 
Q 2259 -75 1647 -75 
Q 1250 -75 917 144 
Q 584 363 401 755 
Q 219 1147 219 1656 
Q 219 2153 384 2558 
Q 550 2963 881 3178 
Q 1213 3394 1622 3394 
Q 1922 3394 2156 3267 
Q 2391 3141 2538 2938 
L 2538 4581 
L 3097 4581 
L 3097 0 
L 2575 0 
z
M 797 1656 
Q 797 1019 1065 703 
Q 1334 388 1700 388 
Q 2069 388 2326 689 
Q 2584 991 2584 1609 
Q 2584 2291 2321 2609 
Q 2059 2928 1675 2928 
Q 1300 2928 1048 2622 
Q 797 2316 797 1656 
z
" transform="scale(0.015625)"/>
       <path id="ArialMT-20" transform="scale(0.015625)"/>
       <path id="ArialMT-47" d="M 2638 1797 
L 2638 2334 
L 4578 2338 
L 4578 638 
Q 4131 281 3656 101 
Q 3181 -78 2681 -78 
Q 2006 -78 1454 211 
Q 903 500 622 1047 
Q 341 1594 341 2269 
Q 341 2938 620 3517 
Q 900 4097 1425 4378 
Q 1950 4659 2634 4659 
Q 3131 4659 3532 4498 
Q 3934 4338 4162 4050 
Q 4391 3763 4509 3300 
L 3963 3150 
Q 3859 3500 3706 3700 
Q 3553 3900 3268 4020 
Q 2984 4141 2638 4141 
Q 2222 4141 1919 4014 
Q 1616 3888 1430 3681 
Q 1244 3475 1141 3228 
Q 966 2803 966 2306 
Q 966 1694 1177 1281 
Q 1388 869 1791 669 
Q 2194 469 2647 469 
Q 3041 469 3416 620 
Q 3791 772 3984 944 
L 3984 1797 
L 2638 1797 
z
" transform="scale(0.015625)"/>
       <path id="ArialMT-6c" d="M 409 0 
L 409 4581 
L 972 4581 
L 972 0 
L 409 0 
z
" transform="scale(0.015625)"/>
       <path id="ArialMT-6f" d="M 213 1659 
Q 213 2581 725 3025 
Q 1153 3394 1769 3394 
Q 2453 3394 2887 2945 
Q 3322 2497 3322 1706 
Q 3322 1066 3130 698 
Q 2938 331 2570 128 
Q 2203 -75 1769 -75 
Q 1072 -75 642 372 
Q 213 819 213 1659 
z
M 791 1659 
Q 791 1022 1069 705 
Q 1347 388 1769 388 
Q 2188 388 2466 706 
Q 2744 1025 2744 1678 
Q 2744 2294 2464 2611 
Q 2184 2928 1769 2928 
Q 1347 2928 1069 2612 
Q 791 2297 791 1659 
z
" transform="scale(0.015625)"/>
       <path id="ArialMT-62" d="M 941 0 
L 419 0 
L 419 4581 
L 981 4581 
L 981 2947 
Q 1338 3394 1891 3394 
Q 2197 3394 2470 3270 
Q 2744 3147 2920 2923 
Q 3097 2700 3197 2384 
Q 3297 2069 3297 1709 
Q 3297 856 2875 390 
Q 2453 -75 1863 -75 
Q 1275 -75 941 416 
L 941 0 
z
M 934 1684 
Q 934 1088 1097 822 
Q 1363 388 1816 388 
Q 2184 388 2453 708 
Q 2722 1028 2722 1663 
Q 2722 2313 2464 2622 
Q 2206 2931 1841 2931 
Q 1472 2931 1203 2611 
Q 934 2291 934 1684 
z
" transform="scale(0.015625)"/>
       <path id="ArialMT-61" d="M 2588 409 
Q 2275 144 1986 34 
Q 1697 -75 1366 -75 
Q 819 -75 525 192 
Q 231 459 231 875 
Q 231 1119 342 1320 
Q 453 1522 633 1644 
Q 813 1766 1038 1828 
Q 1203 1872 1538 1913 
Q 2219 1994 2541 2106 
Q 2544 2222 2544 2253 
Q 2544 2597 2384 2738 
Q 2169 2928 1744 2928 
Q 1347 2928 1158 2789 
Q 969 2650 878 2297 
L 328 2372 
Q 403 2725 575 2942 
Q 747 3159 1072 3276 
Q 1397 3394 1825 3394 
Q 2250 3394 2515 3294 
Q 2781 3194 2906 3042 
Q 3031 2891 3081 2659 
Q 3109 2516 3109 2141 
L 3109 1391 
Q 3109 606 3145 398 
Q 3181 191 3288 0 
L 2700 0 
Q 2613 175 2588 409 
z
M 2541 1666 
Q 2234 1541 1622 1453 
Q 1275 1403 1131 1340 
Q 988 1278 909 1158 
Q 831 1038 831 891 
Q 831 666 1001 516 
Q 1172 366 1500 366 
Q 1825 366 2078 508 
Q 2331 650 2450 897 
Q 2541 1088 2541 1459 
L 2541 1666 
z
" transform="scale(0.015625)"/>
       <path id="ArialMT-45" d="M 506 0 
L 506 4581 
L 3819 4581 
L 3819 4041 
L 1113 4041 
L 1113 2638 
L 3647 2638 
L 3647 2100 
L 1113 2100 
L 1113 541 
L 3925 541 
L 3925 0 
L 506 0 
z
" transform="scale(0.015625)"/>
       <path id="ArialMT-63" d="M 2588 1216 
L 3141 1144 
Q 3050 572 2676 248 
Q 2303 -75 1759 -75 
Q 1078 -75 664 370 
Q 250 816 250 1647 
Q 250 2184 428 2587 
Q 606 2991 970 3192 
Q 1334 3394 1763 3394 
Q 2303 3394 2647 3120 
Q 2991 2847 3088 2344 
L 2541 2259 
Q 2463 2594 2264 2762 
Q 2066 2931 1784 2931 
Q 1359 2931 1093 2626 
Q 828 2322 828 1663 
Q 828 994 1084 691 
Q 1341 388 1753 388 
Q 2084 388 2306 591 
Q 2528 794 2588 1216 
z
" transform="scale(0.015625)"/>
       <path id="ArialMT-74" d="M 1650 503 
L 1731 6 
Q 1494 -44 1306 -44 
Q 1000 -44 831 53 
Q 663 150 594 308 
Q 525 466 525 972 
L 525 2881 
L 113 2881 
L 113 3319 
L 525 3319 
L 525 4141 
L 1084 4478 
L 1084 3319 
L 1650 3319 
L 1650 2881 
L 1084 2881 
L 1084 941 
Q 1084 700 1114 631 
Q 1144 563 1211 522 
Q 1278 481 1403 481 
Q 1497 481 1650 503 
z
" transform="scale(0.015625)"/>
       <path id="ArialMT-79" d="M 397 -1278 
L 334 -750 
Q 519 -800 656 -800 
Q 844 -800 956 -737 
Q 1069 -675 1141 -563 
Q 1194 -478 1313 -144 
Q 1328 -97 1363 -6 
L 103 3319 
L 709 3319 
L 1400 1397 
Q 1534 1031 1641 628 
Q 1738 1016 1872 1384 
L 2581 3319 
L 3144 3319 
L 1881 -56 
Q 1678 -603 1566 -809 
Q 1416 -1088 1222 -1217 
Q 1028 -1347 759 -1347 
Q 597 -1347 397 -1278 
z
" transform="scale(0.015625)"/>
       <path id="ArialMT-50" d="M 494 0 
L 494 4581 
L 2222 4581 
Q 2678 4581 2919 4538 
Q 3256 4481 3484 4323 
Q 3713 4166 3852 3881 
Q 3991 3597 3991 3256 
Q 3991 2672 3619 2267 
Q 3247 1863 2275 1863 
L 1100 1863 
L 1100 0 
L 494 0 
z
M 1100 2403 
L 2284 2403 
Q 2872 2403 3119 2622 
Q 3366 2841 3366 3238 
Q 3366 3525 3220 3729 
Q 3075 3934 2838 4000 
Q 2684 4041 2272 4041 
L 1100 4041 
L 1100 2403 
z
" transform="scale(0.015625)"/>
       <path id="ArialMT-6e" d="M 422 0 
L 422 3319 
L 928 3319 
L 928 2847 
Q 1294 3394 1984 3394 
Q 2284 3394 2536 3286 
Q 2788 3178 2913 3003 
Q 3038 2828 3088 2588 
Q 3119 2431 3119 2041 
L 3119 0 
L 2556 0 
L 2556 2019 
Q 2556 2363 2490 2533 
Q 2425 2703 2258 2804 
Q 2091 2906 1866 2906 
Q 1506 2906 1245 2678 
Q 984 2450 984 1813 
L 984 0 
L 422 0 
z
" transform="scale(0.015625)"/>
      </defs>
      <use xlink:href="#ArialMT-52"/>
      <use xlink:href="#ArialMT-65" x="72.216797"/>
      <use xlink:href="#ArialMT-71" x="127.832031"/>
      <use xlink:href="#ArialMT-75" x="183.447266"/>
      <use xlink:href="#ArialMT-69" x="239.0625"/>
      <use xlink:href="#ArialMT-72" x="261.279297"/>
      <use xlink:href="#ArialMT-65" x="294.580078"/>
      <use xlink:href="#ArialMT-64" x="350.195312"/>
      <use xlink:href="#ArialMT-20" x="405.810547"/>
      <use xlink:href="#ArialMT-47" x="433.59375"/>
      <use xlink:href="#ArialMT-6c" x="511.376953"/>
      <use xlink:href="#ArialMT-6f" x="533.59375"/>
      <use xlink:href="#ArialMT-62" x="589.208984"/>
      <use xlink:href="#ArialMT-61" x="644.824219"/>
      <use xlink:href="#ArialMT-6c" x="700.439453"/>
      <use xlink:href="#ArialMT-20" x="722.65625"/>
      <use xlink:href="#ArialMT-45" x="750.439453"/>
      <use xlink:href="#ArialMT-6c" x="817.138672"/>
      <use xlink:href="#ArialMT-65" x="839.355469"/>
      <use xlink:href="#ArialMT-63" x="894.970703"/>
      <use xlink:href="#ArialMT-74" x="944.970703"/>
      <use xlink:href="#ArialMT-72" x="972.753906"/>
      <use xlink:href="#ArialMT-69" x="1006.054688"/>
      <use xlink:href="#ArialMT-63" x="1028.271484"/>
      <use xlink:href="#ArialMT-69" x="1078.271484"/>
      <use xlink:href="#ArialMT-74" x="1100.488281"/>
      <use xlink:href="#ArialMT-79" x="1128.271484"/>
      <use xlink:href="#ArialMT-20" x="1178.271484"/>
      <use xlink:href="#ArialMT-50" x="1206.054688"/>
      <use xlink:href="#ArialMT-72" x="1272.753906"/>
      <use xlink:href="#ArialMT-6f" x="1306.054688"/>
      <use xlink:href="#ArialMT-64" x="1361.669922"/>
      <use xlink:href="#ArialMT-75" x="1417.285156"/>
      <use xlink:href="#ArialMT-63" x="1472.900391"/>
      <use xlink:href="#ArialMT-74" x="1522.900391"/>
      <use xlink:href="#ArialMT-69" x="1550.683594"/>
      <use xlink:href="#ArialMT-6f" x="1572.900391"/>
      <use xlink:href="#ArialMT-6e" x="1628.515625"/>
     </g>
     <!-- for 100-Airport Network [TWh/year] -->
     <g style="fill: #262626" transform="translate(78.249375 200.604469) scale(0.12 -0.12)">
      <defs>
       <path id="ArialMT-66" d="M 556 0 
L 556 2881 
L 59 2881 
L 59 3319 
L 556 3319 
L 556 3672 
Q 556 4006 616 4169 
Q 697 4388 901 4523 
Q 1106 4659 1475 4659 
Q 1713 4659 2000 4603 
L 1916 4113 
Q 1741 4144 1584 4144 
Q 1328 4144 1222 4034 
Q 1116 3925 1116 3625 
L 1116 3319 
L 1763 3319 
L 1763 2881 
L 1116 2881 
L 1116 0 
L 556 0 
z
" transform="scale(0.015625)"/>
       <path id="ArialMT-2d" d="M 203 1375 
L 203 1941 
L 1931 1941 
L 1931 1375 
L 203 1375 
z
" transform="scale(0.015625)"/>
       <path id="ArialMT-41" d="M -9 0 
L 1750 4581 
L 2403 4581 
L 4278 0 
L 3588 0 
L 3053 1388 
L 1138 1388 
L 634 0 
L -9 0 
z
M 1313 1881 
L 2866 1881 
L 2388 3150 
Q 2169 3728 2063 4100 
Q 1975 3659 1816 3225 
L 1313 1881 
z
" transform="scale(0.015625)"/>
       <path id="ArialMT-70" d="M 422 -1272 
L 422 3319 
L 934 3319 
L 934 2888 
Q 1116 3141 1344 3267 
Q 1572 3394 1897 3394 
Q 2322 3394 2647 3175 
Q 2972 2956 3137 2557 
Q 3303 2159 3303 1684 
Q 3303 1175 3120 767 
Q 2938 359 2589 142 
Q 2241 -75 1856 -75 
Q 1575 -75 1351 44 
Q 1128 163 984 344 
L 984 -1272 
L 422 -1272 
z
M 931 1641 
Q 931 1000 1190 694 
Q 1450 388 1819 388 
Q 2194 388 2461 705 
Q 2728 1022 2728 1688 
Q 2728 2322 2467 2637 
Q 2206 2953 1844 2953 
Q 1484 2953 1207 2617 
Q 931 2281 931 1641 
z
" transform="scale(0.015625)"/>
       <path id="ArialMT-4e" d="M 488 0 
L 488 4581 
L 1109 4581 
L 3516 984 
L 3516 4581 
L 4097 4581 
L 4097 0 
L 3475 0 
L 1069 3600 
L 1069 0 
L 488 0 
z
" transform="scale(0.015625)"/>
       <path id="ArialMT-77" d="M 1034 0 
L 19 3319 
L 600 3319 
L 1128 1403 
L 1325 691 
Q 1338 744 1497 1375 
L 2025 3319 
L 2603 3319 
L 3100 1394 
L 3266 759 
L 3456 1400 
L 4025 3319 
L 4572 3319 
L 3534 0 
L 2950 0 
L 2422 1988 
L 2294 2553 
L 1622 0 
L 1034 0 
z
" transform="scale(0.015625)"/>
       <path id="ArialMT-6b" d="M 425 0 
L 425 4581 
L 988 4581 
L 988 1969 
L 2319 3319 
L 3047 3319 
L 1778 2088 
L 3175 0 
L 2481 0 
L 1384 1697 
L 988 1316 
L 988 0 
L 425 0 
z
" transform="scale(0.015625)"/>
       <path id="ArialMT-5b" d="M 434 -1272 
L 434 4581 
L 1675 4581 
L 1675 4116 
L 997 4116 
L 997 -806 
L 1675 -806 
L 1675 -1272 
L 434 -1272 
z
" transform="scale(0.015625)"/>
       <path id="ArialMT-54" d="M 1659 0 
L 1659 4041 
L 150 4041 
L 150 4581 
L 3781 4581 
L 3781 4041 
L 2266 4041 
L 2266 0 
L 1659 0 
z
" transform="scale(0.015625)"/>
       <path id="ArialMT-57" d="M 1294 0 
L 78 4581 
L 700 4581 
L 1397 1578 
Q 1509 1106 1591 641 
Q 1766 1375 1797 1488 
L 2669 4581 
L 3400 4581 
L 4056 2263 
Q 4303 1400 4413 641 
Q 4500 1075 4641 1638 
L 5359 4581 
L 5969 4581 
L 4713 0 
L 4128 0 
L 3163 3491 
Q 3041 3928 3019 4028 
Q 2947 3713 2884 3491 
L 1913 0 
L 1294 0 
z
" transform="scale(0.015625)"/>
       <path id="ArialMT-68" d="M 422 0 
L 422 4581 
L 984 4581 
L 984 2938 
Q 1378 3394 1978 3394 
Q 2347 3394 2619 3248 
Q 2891 3103 3008 2847 
Q 3125 2591 3125 2103 
L 3125 0 
L 2563 0 
L 2563 2103 
Q 2563 2525 2380 2717 
Q 2197 2909 1863 2909 
Q 1613 2909 1392 2779 
Q 1172 2650 1078 2428 
Q 984 2206 984 1816 
L 984 0 
L 422 0 
z
" transform="scale(0.015625)"/>
       <path id="ArialMT-2f" d="M 0 -78 
L 1328 4659 
L 1778 4659 
L 453 -78 
L 0 -78 
z
" transform="scale(0.015625)"/>
       <path id="ArialMT-5d" d="M 1363 -1272 
L 122 -1272 
L 122 -806 
L 800 -806 
L 800 4116 
L 122 4116 
L 122 4581 
L 1363 4581 
L 1363 -1272 
z
" transform="scale(0.015625)"/>
      </defs>
      <use xlink:href="#ArialMT-66"/>
      <use xlink:href="#ArialMT-6f" x="27.783203"/>
      <use xlink:href="#ArialMT-72" x="83.398438"/>
      <use xlink:href="#ArialMT-20" x="116.699219"/>
      <use xlink:href="#ArialMT-31" x="144.482422"/>
      <use xlink:href="#ArialMT-30" x="200.097656"/>
      <use xlink:href="#ArialMT-30" x="255.712891"/>
      <use xlink:href="#ArialMT-2d" x="311.328125"/>
      <use xlink:href="#ArialMT-41" x="344.628906"/>
      <use xlink:href="#ArialMT-69" x="411.328125"/>
      <use xlink:href="#ArialMT-72" x="433.544922"/>
      <use xlink:href="#ArialMT-70" x="466.845703"/>
      <use xlink:href="#ArialMT-6f" x="522.460938"/>
      <use xlink:href="#ArialMT-72" x="578.076172"/>
      <use xlink:href="#ArialMT-74" x="611.376953"/>
      <use xlink:href="#ArialMT-20" x="639.160156"/>
      <use xlink:href="#ArialMT-4e" x="666.943359"/>
      <use xlink:href="#ArialMT-65" x="739.160156"/>
      <use xlink:href="#ArialMT-74" x="794.775391"/>
      <use xlink:href="#ArialMT-77" x="822.558594"/>
      <use xlink:href="#ArialMT-6f" x="894.775391"/>
      <use xlink:href="#ArialMT-72" x="950.390625"/>
      <use xlink:href="#ArialMT-6b" x="983.691406"/>
      <use xlink:href="#ArialMT-20" x="1033.691406"/>
      <use xlink:href="#ArialMT-5b" x="1061.474609"/>
      <use xlink:href="#ArialMT-54" x="1089.257812"/>
      <use xlink:href="#ArialMT-57" x="1150.341797"/>
      <use xlink:href="#ArialMT-68" x="1244.726562"/>
      <use xlink:href="#ArialMT-2f" x="1300.341797"/>
      <use xlink:href="#ArialMT-79" x="1328.125"/>
      <use xlink:href="#ArialMT-65" x="1378.125"/>
      <use xlink:href="#ArialMT-61" x="1433.740234"/>
      <use xlink:href="#ArialMT-72" x="1489.355469"/>
      <use xlink:href="#ArialMT-5d" x="1522.65625"/>
     </g>
    </g>
   </g>
   <g id="matplotlib.axis_2">
    <g id="ytick_1">
     <g id="line2d_16">
      <path d="M 43.74 155.300625 
L 298.8 155.300625 
" clip-path="url(#pb1060ca0dd)" style="fill: none; stroke: #ffffff; stroke-width: 1.6; stroke-linecap: round"/>
     </g>
     <g id="text_10">
      <!-- 0 -->
      <g style="fill: #262626" transform="translate(28.122969 159.237422) scale(0.11 -0.11)">
       <use xlink:href="#ArialMT-30"/>
      </g>
     </g>
    </g>
    <g id="ytick_2">
     <g id="line2d_17">
      <path d="M 43.74 108.306825 
L 298.8 108.306825 
" clip-path="url(#pb1060ca0dd)" style="fill: none; stroke: #ffffff; stroke-width: 1.6; stroke-linecap: round"/>
     </g>
     <g id="text_11">
      <!-- 2 -->
      <g style="fill: #262626" transform="translate(28.122969 112.243622) scale(0.11 -0.11)">
       <use xlink:href="#ArialMT-32"/>
      </g>
     </g>
    </g>
    <g id="ytick_3">
     <g id="line2d_18">
      <path d="M 43.74 61.313026 
L 298.8 61.313026 
" clip-path="url(#pb1060ca0dd)" style="fill: none; stroke: #ffffff; stroke-width: 1.6; stroke-linecap: round"/>
     </g>
     <g id="text_12">
      <!-- 4 -->
      <g style="fill: #262626" transform="translate(28.122969 65.249823) scale(0.11 -0.11)">
       <use xlink:href="#ArialMT-34"/>
      </g>
     </g>
    </g>
    <g id="text_13">
     <!-- Relative Likelihood -->
     <g style="fill: #262626" transform="translate(21.737969 141.837187) rotate(-90) scale(0.12 -0.12)">
      <defs>
       <path id="ArialMT-76" d="M 1344 0 
L 81 3319 
L 675 3319 
L 1388 1331 
Q 1503 1009 1600 663 
Q 1675 925 1809 1294 
L 2547 3319 
L 3125 3319 
L 1869 0 
L 1344 0 
z
" transform="scale(0.015625)"/>
       <path id="ArialMT-4c" d="M 469 0 
L 469 4581 
L 1075 4581 
L 1075 541 
L 3331 541 
L 3331 0 
L 469 0 
z
" transform="scale(0.015625)"/>
      </defs>
      <use xlink:href="#ArialMT-52"/>
      <use xlink:href="#ArialMT-65" x="72.216797"/>
      <use xlink:href="#ArialMT-6c" x="127.832031"/>
      <use xlink:href="#ArialMT-61" x="150.048828"/>
      <use xlink:href="#ArialMT-74" x="205.664062"/>
      <use xlink:href="#ArialMT-69" x="233.447266"/>
      <use xlink:href="#ArialMT-76" x="255.664062"/>
      <use xlink:href="#ArialMT-65" x="305.664062"/>
      <use xlink:href="#ArialMT-20" x="361.279297"/>
      <use xlink:href="#ArialMT-4c" x="389.0625"/>
      <use xlink:href="#ArialMT-69" x="444.677734"/>
      <use xlink:href="#ArialMT-6b" x="466.894531"/>
      <use xlink:href="#ArialMT-65" x="516.894531"/>
      <use xlink:href="#ArialMT-6c" x="572.509766"/>
      <use xlink:href="#ArialMT-69" x="594.726562"/>
      <use xlink:href="#ArialMT-68" x="616.943359"/>
      <use xlink:href="#ArialMT-6f" x="672.558594"/>
      <use xlink:href="#ArialMT-6f" x="728.173828"/>
      <use xlink:href="#ArialMT-64" x="783.789062"/>
     </g>
    </g>
   </g>
   <g id="PolyCollection_1">
    <defs>
     <path id="m30d6af15a7" d="M 116.897314 -60.69949 
L 116.897314 -60.699375 
L 117.400783 -60.699375 
L 117.907718 -60.699375 
L 118.418141 -60.699375 
L 118.932077 -60.699375 
L 119.449549 -60.699375 
L 119.970583 -60.699375 
L 120.495203 -60.699375 
L 121.023433 -60.699375 
L 121.555299 -60.699375 
L 122.090825 -60.699375 
L 122.630036 -60.699375 
L 123.172958 -60.699375 
L 123.719617 -60.699375 
L 124.270037 -60.699375 
L 124.824246 -60.699375 
L 125.382269 -60.699375 
L 125.944132 -60.699375 
L 126.509861 -60.699375 
L 127.079485 -60.699375 
L 127.653028 -60.699375 
L 128.230518 -60.699375 
L 128.811983 -60.699375 
L 129.397449 -60.699375 
L 129.986945 -60.699375 
L 130.580497 -60.699375 
L 131.178135 -60.699375 
L 131.779885 -60.699375 
L 132.385777 -60.699375 
L 132.995838 -60.699375 
L 133.610098 -60.699375 
L 134.228585 -60.699375 
L 134.851328 -60.699375 
L 135.478357 -60.699375 
L 136.109702 -60.699375 
L 136.745391 -60.699375 
L 137.385455 -60.699375 
L 138.029924 -60.699375 
L 138.678829 -60.699375 
L 139.332199 -60.699375 
L 139.990065 -60.699375 
L 140.65246 -60.699375 
L 141.319412 -60.699375 
L 141.990955 -60.699375 
L 142.667119 -60.699375 
L 143.347937 -60.699375 
L 144.03344 -60.699375 
L 144.72366 -60.699375 
L 145.418631 -60.699375 
L 146.118384 -60.699375 
L 146.822954 -60.699375 
L 147.532372 -60.699375 
L 148.246672 -60.699375 
L 148.965888 -60.699375 
L 149.690054 -60.699375 
L 150.419203 -60.699375 
L 151.153371 -60.699375 
L 151.892591 -60.699375 
L 152.636898 -60.699375 
L 153.386328 -60.699375 
L 154.140915 -60.699375 
L 154.900696 -60.699375 
L 155.665705 -60.699375 
L 156.435979 -60.699375 
L 157.211554 -60.699375 
L 157.992467 -60.699375 
L 158.778753 -60.699375 
L 159.570451 -60.699375 
L 160.367598 -60.699375 
L 161.17023 -60.699375 
L 161.978387 -60.699375 
L 162.792105 -60.699375 
L 163.611423 -60.699375 
L 164.436379 -60.699375 
L 165.267013 -60.699375 
L 166.103363 -60.699375 
L 166.945469 -60.699375 
L 167.793371 -60.699375 
L 168.647108 -60.699375 
L 169.50672 -60.699375 
L 170.372248 -60.699375 
L 171.243732 -60.699375 
L 172.121214 -60.699375 
L 173.004735 -60.699375 
L 173.894337 -60.699375 
L 174.790061 -60.699375 
L 175.691949 -60.699375 
L 176.600043 -60.699375 
L 177.514388 -60.699375 
L 178.435025 -60.699375 
L 179.361997 -60.699375 
L 180.29535 -60.699375 
L 181.235125 -60.699375 
L 182.181368 -60.699375 
L 183.134123 -60.699375 
L 184.093435 -60.699375 
L 185.059349 -60.699375 
L 186.03191 -60.699375 
L 187.011165 -60.699375 
L 187.997159 -60.699375 
L 188.989938 -60.699375 
L 189.98955 -60.699375 
L 190.996041 -60.699375 
L 192.009459 -60.699375 
L 193.029851 -60.699375 
L 194.057266 -60.699375 
L 195.091751 -60.699375 
L 196.133355 -60.699375 
L 197.182128 -60.699375 
L 198.238119 -60.699375 
L 199.301376 -60.699375 
L 200.371952 -60.699375 
L 201.449895 -60.699375 
L 202.535256 -60.699375 
L 203.628087 -60.699375 
L 204.728438 -60.699375 
L 205.836363 -60.699375 
L 206.951912 -60.699375 
L 208.075138 -60.699375 
L 209.206094 -60.699375 
L 210.344834 -60.699375 
L 211.49141 -60.699375 
L 212.645877 -60.699375 
L 213.80829 -60.699375 
L 214.978701 -60.699375 
L 216.157168 -60.699375 
L 217.343745 -60.699375 
L 218.538488 -60.699375 
L 219.741453 -60.699375 
L 220.952697 -60.699375 
L 222.172277 -60.699375 
L 223.40025 -60.699375 
L 224.636674 -60.699375 
L 225.881607 -60.699375 
L 227.135108 -60.699375 
L 228.397235 -60.699375 
L 229.668048 -60.699375 
L 230.947607 -60.699375 
L 232.235972 -60.699375 
L 233.533204 -60.699375 
L 234.839363 -60.699375 
L 236.154511 -60.699375 
L 237.47871 -60.699375 
L 238.812022 -60.699375 
L 240.15451 -60.699375 
L 241.506237 -60.699375 
L 242.867266 -60.699375 
L 244.237662 -60.699375 
L 245.617489 -60.699375 
L 247.006813 -60.699375 
L 248.405697 -60.699375 
L 249.814209 -60.699375 
L 251.232414 -60.699375 
L 252.660379 -60.699375 
L 254.098172 -60.699375 
L 255.545859 -60.699375 
L 257.003509 -60.699375 
L 258.471191 -60.699375 
L 259.948974 -60.699375 
L 261.436927 -60.699375 
L 262.935119 -60.699375 
L 264.443623 -60.699375 
L 265.962508 -60.699375 
L 267.491845 -60.699375 
L 269.031708 -60.699375 
L 270.582168 -60.699375 
L 272.143299 -60.699375 
L 273.715173 -60.699375 
L 275.297865 -60.699375 
L 276.891449 -60.699375 
L 278.496 -60.699375 
L 280.111593 -60.699375 
L 281.738305 -60.699375 
L 283.376212 -60.699375 
L 285.025391 -60.699375 
L 286.68592 -60.699375 
L 288.357877 -60.699375 
L 290.04134 -60.699375 
L 291.736389 -60.699375 
L 293.443103 -60.699375 
L 295.161562 -60.699375 
L 296.891848 -60.699375 
L 298.634042 -60.699375 
L 300.388226 -60.699375 
L 302.154482 -60.699375 
L 303.932894 -60.699375 
L 305.723544 -60.699375 
L 307.526518 -60.699375 
L 309.3419 -60.699375 
L 311.169775 -60.699375 
L 313.01023 -60.699375 
L 314.863351 -60.699375 
L 316.729225 -60.699375 
L 318.60794 -60.699375 
L 320.499584 -60.699375 
L 322.404247 -60.699375 
L 324.322017 -60.699375 
L 326.252986 -60.699375 
L 328.197244 -60.699375 
L 330.154882 -60.699375 
L 330.154882 -60.699428 
L 330.154882 -60.699428 
L 328.197244 -60.699457 
L 326.252986 -60.699499 
L 324.322017 -60.69956 
L 322.404247 -60.699645 
L 320.499584 -60.69976 
L 318.60794 -60.699915 
L 316.729225 -60.700118 
L 314.863351 -60.700381 
L 313.01023 -60.700714 
L 311.169775 -60.701134 
L 309.3419 -60.701658 
L 307.526518 -60.702311 
L 305.723544 -60.703127 
L 303.932894 -60.704155 
L 302.154482 -60.705465 
L 300.388226 -60.707157 
L 298.634042 -60.70937 
L 296.891848 -60.712294 
L 295.161562 -60.716182 
L 293.443103 -60.721363 
L 291.736389 -60.728257 
L 290.04134 -60.737389 
L 288.357877 -60.749401 
L 286.68592 -60.76507 
L 285.025391 -60.785319 
L 283.376212 -60.811237 
L 281.738305 -60.844097 
L 280.111593 -60.885375 
L 278.496 -60.936776 
L 276.891449 -61.000264 
L 275.297865 -61.078094 
L 273.715173 -61.172853 
L 272.143299 -61.287509 
L 270.582168 -61.425459 
L 269.031708 -61.590595 
L 267.491845 -61.787363 
L 265.962508 -62.020828 
L 264.443623 -62.296735 
L 262.935119 -62.621558 
L 261.436927 -63.002522 
L 259.948974 -63.447597 
L 258.471191 -63.965449 
L 257.003509 -64.565343 
L 255.545859 -65.256985 
L 254.098172 -66.050323 
L 252.660379 -66.955297 
L 251.232414 -67.981561 
L 249.814209 -69.138207 
L 248.405697 -70.433485 
L 247.006813 -71.874578 
L 245.617489 -73.467412 
L 244.237662 -75.216546 
L 242.867266 -77.125119 
L 241.506237 -79.194867 
L 240.15451 -81.426177 
L 238.812022 -83.818177 
L 237.47871 -86.368814 
L 236.154511 -89.074923 
L 234.839363 -91.932231 
L 233.533204 -94.93532 
L 232.235972 -98.07752 
L 230.947607 -101.350756 
L 229.668048 -104.745365 
L 228.397235 -108.24992 
L 227.135108 -111.851088 
L 225.881607 -115.533561 
L 224.636674 -119.280089 
L 223.40025 -123.07162 
L 222.172277 -126.88756 
L 220.952697 -130.706133 
L 219.741453 -134.504814 
L 218.538488 -138.260803 
L 217.343745 -141.951515 
L 216.157168 -145.555045 
L 214.978701 -149.050593 
L 213.80829 -152.418846 
L 212.645877 -155.642292 
L 211.49141 -158.705501 
L 210.344834 -161.595345 
L 209.206094 -164.30117 
L 208.075138 -166.814921 
L 206.951912 -169.13118 
L 205.836363 -171.247127 
L 204.728438 -173.162386 
L 203.628087 -174.878768 
L 202.535256 -176.399903 
L 201.449895 -177.7308 
L 200.371952 -178.877373 
L 199.301376 -179.845991 
L 198.238119 -180.64311 
L 197.182128 -181.275031 
L 196.133355 -181.747821 
L 195.091751 -182.067379 
L 194.057266 -182.239634 
L 193.029851 -182.270804 
L 192.009459 -182.167647 
L 190.996041 -181.93765 
L 189.98955 -181.589076 
L 188.989938 -181.130863 
L 187.997159 -180.572367 
L 187.011165 -179.922982 
L 186.03191 -179.1917 
L 185.059349 -178.386656 
L 184.093435 -177.514727 
L 183.134123 -176.581231 
L 182.181368 -175.589736 
L 181.235125 -174.541999 
L 180.29535 -173.438013 
L 179.361997 -172.276142 
L 178.435025 -171.053326 
L 177.514388 -169.765335 
L 176.600043 -168.407047 
L 175.691949 -166.972754 
L 174.790061 -165.456466 
L 173.894337 -163.852229 
L 173.004735 -162.154416 
L 172.121214 -160.358004 
L 171.243732 -158.458814 
L 170.372248 -156.453702 
L 169.50672 -154.34071 
L 168.647108 -152.119169 
L 167.793371 -149.78977 
L 166.945469 -147.354606 
L 166.103363 -144.817192 
L 165.267013 -142.182472 
L 164.436379 -139.456809 
L 163.611423 -136.647945 
L 162.792105 -133.764934 
L 161.978387 -130.818034 
L 161.17023 -127.818557 
L 160.367598 -124.778687 
L 159.570451 -121.711264 
L 158.778753 -118.629556 
L 157.992467 -115.547031 
L 157.211554 -112.477138 
L 156.435979 -109.433109 
L 155.665705 -106.427773 
L 154.900696 -103.473407 
L 154.140915 -100.581593 
L 153.386328 -97.763107 
L 152.636898 -95.027815 
L 151.892591 -92.384603 
L 151.153371 -89.841329 
L 150.419203 -87.404796 
L 149.690054 -85.080754 
L 148.965888 -82.873924 
L 148.246672 -80.788019 
L 147.532372 -78.825776 
L 146.822954 -76.988969 
L 146.118384 -75.278403 
L 145.418631 -73.693895 
L 144.72366 -72.234241 
L 144.03344 -70.897189 
L 143.347937 -69.67943 
L 142.667119 -68.576618 
L 141.990955 -67.583447 
L 141.319412 -66.693769 
L 140.65246 -65.900763 
L 139.990065 -65.197148 
L 139.332199 -64.575401 
L 138.678829 -64.027987 
L 138.029924 -63.547568 
L 137.385455 -63.127168 
L 136.745391 -62.760303 
L 136.109702 -62.441049 
L 135.478357 -62.164071 
L 134.851328 -61.924609 
L 134.228585 -61.718427 
L 133.610098 -61.541756 
L 132.995838 -61.391224 
L 132.385777 -61.263784 
L 131.779885 -61.156666 
L 131.178135 -61.06733 
L 130.580497 -60.99344 
L 129.986945 -60.932849 
L 129.397449 -60.883591 
L 128.811983 -60.843888 
L 128.230518 -60.812144 
L 127.653028 -60.786953 
L 127.079485 -60.767096 
L 126.509861 -60.751533 
L 125.944132 -60.739393 
L 125.382269 -60.729958 
L 124.824246 -60.722648 
L 124.270037 -60.716999 
L 123.719617 -60.712644 
L 123.172958 -60.709297 
L 122.630036 -60.706735 
L 122.090825 -60.704783 
L 121.555299 -60.703307 
L 121.023433 -60.7022 
L 120.495203 -60.701378 
L 119.970583 -60.700775 
L 119.449549 -60.700338 
L 118.932077 -60.700027 
L 118.418141 -60.699809 
L 117.907718 -60.699659 
L 117.400783 -60.699557 
L 116.897314 -60.69949 
z
" style="stroke: #4285f4"/>
    </defs>
    <g clip-path="url(#pb1060ca0dd)">
     <use xlink:href="#m30d6af15a7" x="0" y="216" style="fill: #4285f4; fill-opacity: 0.25; stroke: #4285f4"/>
    </g>
   </g>
   <g id="line2d_19">
    <path d="M 189.210761 155.300625 
L 189.210761 27.650625 
" clip-path="url(#pb1060ca0dd)" style="fill: none; stroke-dasharray: 5.55,2.4; stroke-dashoffset: 0; stroke: #000000; stroke-width: 1.5"/>
   </g>
   <g id="patch_3">
    <path d="M 43.74 155.300625 
L 43.74 27.650625 
" style="fill: none; stroke: #ffffff; stroke-width: 1.25; stroke-linejoin: miter; stroke-linecap: square"/>
   </g>
   <g id="patch_4">
    <path d="M 298.8 155.300625 
L 298.8 27.650625 
" style="fill: none; stroke: #ffffff; stroke-width: 1.25; stroke-linejoin: miter; stroke-linecap: square"/>
   </g>
   <g id="patch_5">
    <path d="M 43.74 155.300625 
L 298.8 155.300625 
" style="fill: none; stroke: #ffffff; stroke-width: 1.25; stroke-linejoin: miter; stroke-linecap: square"/>
   </g>
   <g id="patch_6">
    <path d="M 43.74 27.650625 
L 298.8 27.650625 
" style="fill: none; stroke: #ffffff; stroke-width: 1.25; stroke-linejoin: miter; stroke-linecap: square"/>
   </g>
   <g id="text_14">
    <!-- Point Estimate -->
    <g transform="translate(176.382949 123.710781) rotate(-90) scale(0.1 -0.1)">
     <defs>
      <path id="ArialMT-73" d="M 197 991 
L 753 1078 
Q 800 744 1014 566 
Q 1228 388 1613 388 
Q 2000 388 2187 545 
Q 2375 703 2375 916 
Q 2375 1106 2209 1216 
Q 2094 1291 1634 1406 
Q 1016 1563 777 1677 
Q 538 1791 414 1992 
Q 291 2194 291 2438 
Q 291 2659 392 2848 
Q 494 3038 669 3163 
Q 800 3259 1026 3326 
Q 1253 3394 1513 3394 
Q 1903 3394 2198 3281 
Q 2494 3169 2634 2976 
Q 2775 2784 2828 2463 
L 2278 2388 
Q 2241 2644 2061 2787 
Q 1881 2931 1553 2931 
Q 1166 2931 1000 2803 
Q 834 2675 834 2503 
Q 834 2394 903 2306 
Q 972 2216 1119 2156 
Q 1203 2125 1616 2013 
Q 2213 1853 2448 1751 
Q 2684 1650 2818 1456 
Q 2953 1263 2953 975 
Q 2953 694 2789 445 
Q 2625 197 2315 61 
Q 2006 -75 1616 -75 
Q 969 -75 630 194 
Q 291 463 197 991 
z
" transform="scale(0.015625)"/>
      <path id="ArialMT-6d" d="M 422 0 
L 422 3319 
L 925 3319 
L 925 2853 
Q 1081 3097 1340 3245 
Q 1600 3394 1931 3394 
Q 2300 3394 2536 3241 
Q 2772 3088 2869 2813 
Q 3263 3394 3894 3394 
Q 4388 3394 4653 3120 
Q 4919 2847 4919 2278 
L 4919 0 
L 4359 0 
L 4359 2091 
Q 4359 2428 4304 2576 
Q 4250 2725 4106 2815 
Q 3963 2906 3769 2906 
Q 3419 2906 3187 2673 
Q 2956 2441 2956 1928 
L 2956 0 
L 2394 0 
L 2394 2156 
Q 2394 2531 2256 2718 
Q 2119 2906 1806 2906 
Q 1569 2906 1367 2781 
Q 1166 2656 1075 2415 
Q 984 2175 984 1722 
L 984 0 
L 422 0 
z
" transform="scale(0.015625)"/>
     </defs>
     <use xlink:href="#ArialMT-50"/>
     <use xlink:href="#ArialMT-6f" x="66.699219"/>
     <use xlink:href="#ArialMT-69" x="122.314453"/>
     <use xlink:href="#ArialMT-6e" x="144.53125"/>
     <use xlink:href="#ArialMT-74" x="200.146484"/>
     <use xlink:href="#ArialMT-20" x="227.929688"/>
     <use xlink:href="#ArialMT-45" x="255.712891"/>
     <use xlink:href="#ArialMT-73" x="322.412109"/>
     <use xlink:href="#ArialMT-74" x="372.412109"/>
     <use xlink:href="#ArialMT-69" x="400.195312"/>
     <use xlink:href="#ArialMT-6d" x="422.412109"/>
     <use xlink:href="#ArialMT-61" x="505.712891"/>
     <use xlink:href="#ArialMT-74" x="561.328125"/>
     <use xlink:href="#ArialMT-65" x="589.111328"/>
    </g>
    <!-- (798 TWh/yr) -->
    <g transform="translate(187.106074 117.401406) rotate(-90) scale(0.1 -0.1)">
     <defs>
      <path id="ArialMT-28" d="M 1497 -1347 
Q 1031 -759 709 28 
Q 388 816 388 1659 
Q 388 2403 628 3084 
Q 909 3875 1497 4659 
L 1900 4659 
Q 1522 4009 1400 3731 
Q 1209 3300 1100 2831 
Q 966 2247 966 1656 
Q 966 153 1900 -1347 
L 1497 -1347 
z
" transform="scale(0.015625)"/>
      <path id="ArialMT-37" d="M 303 3981 
L 303 4522 
L 3269 4522 
L 3269 4084 
Q 2831 3619 2401 2847 
Q 1972 2075 1738 1259 
Q 1569 684 1522 0 
L 944 0 
Q 953 541 1156 1306 
Q 1359 2072 1739 2783 
Q 2119 3494 2547 3981 
L 303 3981 
z
" transform="scale(0.015625)"/>
      <path id="ArialMT-39" d="M 350 1059 
L 891 1109 
Q 959 728 1153 556 
Q 1347 384 1650 384 
Q 1909 384 2104 503 
Q 2300 622 2425 820 
Q 2550 1019 2634 1356 
Q 2719 1694 2719 2044 
Q 2719 2081 2716 2156 
Q 2547 1888 2255 1720 
Q 1963 1553 1622 1553 
Q 1053 1553 659 1965 
Q 266 2378 266 3053 
Q 266 3750 677 4175 
Q 1088 4600 1706 4600 
Q 2153 4600 2523 4359 
Q 2894 4119 3086 3673 
Q 3278 3228 3278 2384 
Q 3278 1506 3087 986 
Q 2897 466 2520 194 
Q 2144 -78 1638 -78 
Q 1100 -78 759 220 
Q 419 519 350 1059 
z
M 2653 3081 
Q 2653 3566 2395 3850 
Q 2138 4134 1775 4134 
Q 1400 4134 1122 3828 
Q 844 3522 844 3034 
Q 844 2597 1108 2323 
Q 1372 2050 1759 2050 
Q 2150 2050 2401 2323 
Q 2653 2597 2653 3081 
z
" transform="scale(0.015625)"/>
      <path id="ArialMT-29" d="M 791 -1347 
L 388 -1347 
Q 1322 153 1322 1656 
Q 1322 2244 1188 2822 
Q 1081 3291 891 3722 
Q 769 4003 388 4659 
L 791 4659 
Q 1378 3875 1659 3084 
Q 1900 2403 1900 1659 
Q 1900 816 1576 28 
Q 1253 -759 791 -1347 
z
" transform="scale(0.015625)"/>
     </defs>
     <use xlink:href="#ArialMT-28"/>
     <use xlink:href="#ArialMT-37" x="33.300781"/>
     <use xlink:href="#ArialMT-39" x="88.916016"/>
     <use xlink:href="#ArialMT-38" x="144.53125"/>
     <use xlink:href="#ArialMT-20" x="200.146484"/>
     <use xlink:href="#ArialMT-54" x="226.179688"/>
     <use xlink:href="#ArialMT-57" x="287.263672"/>
     <use xlink:href="#ArialMT-68" x="381.648438"/>
     <use xlink:href="#ArialMT-2f" x="437.263672"/>
     <use xlink:href="#ArialMT-79" x="465.046875"/>
     <use xlink:href="#ArialMT-72" x="515.046875"/>
     <use xlink:href="#ArialMT-29" x="548.347656"/>
    </g>
   </g>
   <g id="text_15">
    <!-- Probability Distribution of Global Electricity Needs -->
    <g style="fill: #262626" transform="translate(39.554062 21.650625) scale(0.12 -0.12)">
     <defs>
      <path id="ArialMT-44" d="M 494 0 
L 494 4581 
L 2072 4581 
Q 2606 4581 2888 4516 
Q 3281 4425 3559 4188 
Q 3922 3881 4101 3404 
Q 4281 2928 4281 2316 
Q 4281 1794 4159 1391 
Q 4038 988 3847 723 
Q 3656 459 3429 307 
Q 3203 156 2883 78 
Q 2563 0 2147 0 
L 494 0 
z
M 1100 541 
L 2078 541 
Q 2531 541 2789 625 
Q 3047 709 3200 863 
Q 3416 1078 3536 1442 
Q 3656 1806 3656 2325 
Q 3656 3044 3420 3430 
Q 3184 3816 2847 3947 
Q 2603 4041 2063 4041 
L 1100 4041 
L 1100 541 
z
" transform="scale(0.015625)"/>
     </defs>
     <use xlink:href="#ArialMT-50"/>
     <use xlink:href="#ArialMT-72" x="66.699219"/>
     <use xlink:href="#ArialMT-6f" x="100"/>
     <use xlink:href="#ArialMT-62" x="155.615234"/>
     <use xlink:href="#ArialMT-61" x="211.230469"/>
     <use xlink:href="#ArialMT-62" x="266.845703"/>
     <use xlink:href="#ArialMT-69" x="322.460938"/>
     <use xlink:href="#ArialMT-6c" x="344.677734"/>
     <use xlink:href="#ArialMT-69" x="366.894531"/>
     <use xlink:href="#ArialMT-74" x="389.111328"/>
     <use xlink:href="#ArialMT-79" x="416.894531"/>
     <use xlink:href="#ArialMT-20" x="466.894531"/>
     <use xlink:href="#ArialMT-44" x="494.677734"/>
     <use xlink:href="#ArialMT-69" x="566.894531"/>
     <use xlink:href="#ArialMT-73" x="589.111328"/>
     <use xlink:href="#ArialMT-74" x="639.111328"/>
     <use xlink:href="#ArialMT-72" x="666.894531"/>
     <use xlink:href="#ArialMT-69" x="700.195312"/>
     <use xlink:href="#ArialMT-62" x="722.412109"/>
     <use xlink:href="#ArialMT-75" x="778.027344"/>
     <use xlink:href="#ArialMT-74" x="833.642578"/>
     <use xlink:href="#ArialMT-69" x="861.425781"/>
     <use xlink:href="#ArialMT-6f" x="883.642578"/>
     <use xlink:href="#ArialMT-6e" x="939.257812"/>
     <use xlink:href="#ArialMT-20" x="994.873047"/>
     <use xlink:href="#ArialMT-6f" x="1022.65625"/>
     <use xlink:href="#ArialMT-66" x="1078.271484"/>
     <use xlink:href="#ArialMT-20" x="1106.054688"/>
     <use xlink:href="#ArialMT-47" x="1133.837891"/>
     <use xlink:href="#ArialMT-6c" x="1211.621094"/>
     <use xlink:href="#ArialMT-6f" x="1233.837891"/>
     <use xlink:href="#ArialMT-62" x="1289.453125"/>
     <use xlink:href="#ArialMT-61" x="1345.068359"/>
     <use xlink:href="#ArialMT-6c" x="1400.683594"/>
     <use xlink:href="#ArialMT-20" x="1422.900391"/>
     <use xlink:href="#ArialMT-45" x="1450.683594"/>
     <use xlink:href="#ArialMT-6c" x="1517.382812"/>
     <use xlink:href="#ArialMT-65" x="1539.599609"/>
     <use xlink:href="#ArialMT-63" x="1595.214844"/>
     <use xlink:href="#ArialMT-74" x="1645.214844"/>
     <use xlink:href="#ArialMT-72" x="1672.998047"/>
     <use xlink:href="#ArialMT-69" x="1706.298828"/>
     <use xlink:href="#ArialMT-63" x="1728.515625"/>
     <use xlink:href="#ArialMT-69" x="1778.515625"/>
     <use xlink:href="#ArialMT-74" x="1800.732422"/>
     <use xlink:href="#ArialMT-79" x="1828.515625"/>
     <use xlink:href="#ArialMT-20" x="1878.515625"/>
     <use xlink:href="#ArialMT-4e" x="1906.298828"/>
     <use xlink:href="#ArialMT-65" x="1978.515625"/>
     <use xlink:href="#ArialMT-65" x="2034.130859"/>
     <use xlink:href="#ArialMT-64" x="2089.746094"/>
     <use xlink:href="#ArialMT-73" x="2145.361328"/>
    </g>
   </g>
  </g>
 </g>
 <defs>
  <clipPath id="pb1060ca0dd">
   <rect x="43.74" y="27.650625" width="255.06" height="127.65"/>
  </clipPath>
 </defs>
</svg>
